G04 ================== begin FILE IDENTIFICATION RECORD ==================*
G04 Layout Name:  LAY-28891.brd*
G04 Film Name:    L1_PS.art*
G04 File Format:  Gerber RS274X*
G04 File Origin:  Cadence Allegro 16.6-2015-S065*
G04 Origin Date:  Thu Mar 10 14:27:35 2016*
G04 *
G04 Layer:  PACKAGE GEOMETRY/SHORT_LAYER_TOP*
G04 Layer:  VIA CLASS/TOP*
G04 Layer:  PIN/TOP*
G04 Layer:  ETCH/TOP*
G04 Layer:  DRAWING FORMAT/FILM_TITLE_BLOCK*
G04 Layer:  BOARD GEOMETRY/OUTLINE*
G04 *
G04 Offset:    (0.00 0.00)*
G04 Mirror:    No*
G04 Mode:      Positive*
G04 Rotation:  0*
G04 FullContactRelief:  No*
G04 UndefLineWidth:     8.00*
G04 ================== end FILE IDENTIFICATION RECORD ====================*
%FSLAX55Y55*MOIN*%
%IR0*IPPOS*OFA0.00000B0.00000*MIA0B0*SFA1.00000B1.00000*%
%AMMACRO66*
21,1,.06,.012,0.0,0.0,135.*%
%ADD66MACRO66*%
%AMMACRO43*
21,1,.035,.025,0.0,0.0,135.*
1,1,.035,.008839,.008839*
1,1,.035,-.008839,-.008839*%
%ADD43MACRO43*%
%ADD25R,.063X.102*%
%AMMACRO42*
21,1,.035,.01,0.0,0.0,135.*
1,1,.035,.003536,.003536*
1,1,.035,-.003536,-.003536*%
%ADD42MACRO42*%
%ADD17C,.01*%
%ADD51R,.07X.135*%
%ADD12C,.02*%
%ADD52R,.14X.065*%
%ADD31R,.135X.07*%
%ADD30C,.03*%
%ADD68R,.063X.107*%
%ADD60R,.006X.025*%
%AMMACRO71*
21,1,.047,.063,0.0,0.0,135.*%
%ADD71MACRO71*%
%ADD36O,.057X.136*%
%ADD20C,.06*%
%ADD22C,.025*%
%ADD19O,.057X.147*%
%ADD23C,.028*%
%ADD10C,.065*%
%ADD46C,.066*%
%ADD56C,.067*%
%ADD26R,.06X.06*%
%ADD75R,.147X.087*%
%ADD63C,.078*%
%ADD11R,.065X.065*%
%ADD62R,.066X.066*%
%ADD48R,.067X.067*%
%ADD64R,.078X.078*%
%AMMACRO54*
4,1,22,.00394,-.01173,
.01172,-.00395,
.0003,.00746,
-.000374,.008145,
-.00116,.008699,
-.002029,.009109,
-.002957,.009362,
-.003914,.00945,
-.004872,.00937,
-.005802,.009126,
-.006675,.008723,
-.007465,.008175,
-.008147,.007498,
-.008702,.006713,
-.009112,.005843,
-.009365,.004916,
-.009453,.003958,
-.009373,.003,
-.009128,.002071,
-.008726,.001198,
-.008178,.000408,
-.00803,.00024,
.00394,-.01173,
0.0*
%
%ADD54MACRO54*%
%AMMACRO67*
21,1,.06,.012,0.0,0.0,45.*%
%ADD67MACRO67*%
%ADD34R,.033X.011*%
%ADD65R,.031X.033*%
%AMMACRO38*
21,1,.033,.031,0.0,0.0,45.*%
%ADD38MACRO38*%
%ADD69R,.033X.031*%
%AMMACRO40*
21,1,.035,.025,0.0,0.0,45.*
1,1,.035,.008839,-.008839*
1,1,.035,-.008839,.008839*%
%ADD40MACRO40*%
%ADD21O,.06X.035*%
%ADD47O,.035X.06*%
%ADD15O,.055X.042*%
%AMMACRO39*
21,1,.035,.01,0.0,0.0,45.*
1,1,.035,.003536,-.003536*
1,1,.035,-.003536,.003536*%
%ADD39MACRO39*%
%ADD29O,.045X.035*%
%ADD37R,.024X.063*%
%ADD32R,.025X.08*%
%ADD24O,.035X.045*%
%ADD16R,.053X.016*%
%ADD70R,.032X.039*%
%ADD59R,.039X.032*%
%ADD57R,.035X.028*%
%ADD58R,.028X.035*%
%ADD27R,.055X.036*%
%ADD49R,.036X.055*%
%ADD33R,.059X.051*%
%ADD14R,.075X.071*%
%AMMACRO53*
21,1,.079,.217,0.0,0.0,135.*%
%ADD53MACRO53*%
%ADD18R,.051X.059*%
%ADD61R,.027X.039*%
%ADD13R,.075X.083*%
%AMMACRO41*
21,1,.207,.207,0.0,0.0,45.*%
%ADD41MACRO41*%
%ADD73R,.079X.063*%
%ADD28R,.055X.087*%
%ADD74R,.039X.059*%
%ADD50R,.087X.055*%
%ADD72R,.047X.087*%
%ADD35R,.059X.039*%
%AMMACRO55*
4,1,22,.01173,.00394,
.00395,.01172,
-.00746,.0003,
-.008145,-.000374,
-.008699,-.00116,
-.009109,-.002029,
-.009362,-.002957,
-.00945,-.003914,
-.00937,-.004872,
-.009126,-.005802,
-.008723,-.006675,
-.008175,-.007465,
-.007498,-.008147,
-.006713,-.008702,
-.005843,-.009112,
-.004916,-.009365,
-.003958,-.009453,
-.003,-.009373,
-.002071,-.009128,
-.001198,-.008726,
-.000408,-.008178,
-.00024,-.00803,
.01173,.00394,
0.0*
%
%ADD55MACRO55*%
%AMMACRO45*
4,1,22,-.01173,-.00394,
-.00395,-.01172,
.00746,-.0003,
.008145,.000374,
.008699,.00116,
.009109,.002029,
.009362,.002957,
.00945,.003914,
.00937,.004872,
.009126,.005802,
.008723,.006675,
.008175,.007465,
.007498,.008147,
.006713,.008702,
.005843,.009112,
.004916,.009365,
.003958,.009453,
.003,.009373,
.002071,.009128,
.001198,.008726,
.000408,.008178,
.00024,.00803,
-.01173,-.00394,
0.0*
%
%ADD45MACRO45*%
%AMMACRO44*
4,1,22,-.00394,.01173,
-.01172,.00395,
-.0003,-.00746,
.000374,-.008145,
.00116,-.008699,
.002029,-.009109,
.002957,-.009362,
.003914,-.00945,
.004872,-.00937,
.005802,-.009126,
.006675,-.008723,
.007465,-.008175,
.008147,-.007498,
.008702,-.006713,
.009112,-.005843,
.009365,-.004916,
.009453,-.003958,
.009373,-.003,
.009128,-.002071,
.008726,-.001198,
.008178,-.000408,
.00803,-.00024,
-.00394,.01173,
0.0*
%
%ADD44MACRO44*%
%ADD76C,.011*%
%ADD77C,.012*%
%ADD78C,.04*%
%ADD79C,.015*%
%ADD80C,.035*%
%ADD81C,.005*%
%ADD82C,.008*%
%ADD83C,.006*%
%ADD84C,.007*%
%ADD85C,.0063*%
%ADD86C,.0057*%
%ADD94C,.04004*%
%ADD88C,.07004*%
%ADD99R,.14504X.08004*%
%ADD93R,.08004X.14504*%
%ADD92R,.15004X.07504*%
%ADD89C,.03804*%
%ADD90O,.06704X.14604*%
%ADD87C,.07504*%
%ADD95C,.07704*%
%ADD98R,.15704X.09702*%
%ADD96R,.03704X.04904*%
%ADD97R,.06504X.09704*%
%ADD91R,.07704X.07704*%
G75*
%LPD*%
G75*
G36*
G01X-27789Y78569D02*
Y92053D01*
X-27059Y92783D01*
X-6311D01*
X-4470Y90942D01*
Y78986D01*
X-4887Y78569D01*
X-19286D01*
X-19327Y78768D01*
G03X-26673I-3673J-768D01*
G01X-26714Y78569D01*
X-27789D01*
G37*
G36*
G01X-30250Y109480D02*
X-11939D01*
Y119240D01*
X-17439D01*
Y114792D01*
X-17453Y114778D01*
X-22750D01*
Y117780D01*
X-30250D01*
Y109480D01*
G37*
G36*
G01Y146520D02*
X-11939D01*
Y136760D01*
X-17439D01*
Y141208D01*
X-17453Y141222D01*
X-18625D01*
X-22750D01*
Y138220D01*
X-30250D01*
Y146520D01*
G37*
G36*
G01X29500Y80500D02*
X26500Y83500D01*
Y90750D01*
X19829Y97421D01*
X19972Y97596D01*
G03X17296Y100272I-1472J1204D01*
G01X17121Y100129D01*
X15750Y101500D01*
X15500D01*
X13750Y103250D01*
Y123000D01*
X14000Y123250D01*
X14755D01*
X14804Y123062D01*
G03X15553Y122026I1696J438D01*
G02X15645Y121711I-135J-210D01*
G03Y121289I455J-211D01*
G02X15553Y120974I-227J-105D01*
G03X17447I947J-1474D01*
G02X17355Y121289I135J210D01*
G03Y121711I-455J211D01*
G02X17447Y122026I227J105D01*
G03X18196Y123062I-947J1474D01*
G01X18245Y123250D01*
X19248D01*
Y122248D01*
X23274D01*
G03X23553Y122026I1225J1253D01*
G02X23645Y121711I-135J-210D01*
G03Y121289I455J-211D01*
G02X23553Y120974I-227J-105D01*
G03X25473Y118043I947J-1474D01*
G02X26250Y117627I277J-416D01*
G01Y114000D01*
X31611Y108639D01*
X31591Y108513D01*
G03X31608Y107859I1729J-282D01*
G02X31450Y107571I-244J-53D01*
G03X31153Y107274I173J-470D01*
G02X30865Y107116I-235J86D01*
G03X31023Y103734I-373J-1712D01*
G02X31651Y103107I152J-476D01*
G03X33852Y100906I1670J-531D01*
G02X34479Y100278I151J-476D01*
G03X37395Y98515I1670J-531D01*
G02X38250Y98163I355J-352D01*
G01Y92651D01*
X38185Y92586D01*
X38250Y92521D01*
Y92250D01*
X43750Y86750D01*
Y85686D01*
G02X42896Y85332I-500J-1D01*
G01X40914Y87315D01*
X37871Y84272D01*
X40772Y81371D01*
X42896Y83495D01*
G02X43750Y83142I354J-353D01*
G01Y81250D01*
X43000Y80500D01*
X29500D01*
G37*
G36*
G01X1008Y158508D02*
X2000Y159500D01*
X9748D01*
Y150498D01*
X13500D01*
Y145500D01*
X12500Y144500D01*
X6002D01*
Y144924D01*
X6101Y144999D01*
G03X4750Y149052I-1351J1801D01*
G01X2250D01*
G03X1227Y148806I0J-2252D01*
G02X500Y149251I-227J445D01*
G01Y157874D01*
G03X997Y158493I-9495J8132D01*
G01X1008Y158508D01*
G37*
G36*
G01X-3502Y138901D02*
G02X-4001Y138401I-500J0D01*
G03X-4211Y138355I0J-501D01*
G02X-4526Y138447I-105J227D01*
G03Y136553I-1474J-947D01*
G02X-4211Y136645I210J-135D01*
G03X-3789I211J455D01*
G02X-3474Y136553I105J-227D01*
G03X-3000Y136061I1475J946D01*
G01Y132750D01*
X-10000D01*
X-11500Y131250D01*
X-12817D01*
Y134463D01*
G03X-11915Y135258I-1223J2296D01*
G01X-10438D01*
Y136813D01*
X-10250Y137000D01*
Y140098D01*
X-3554D01*
Y139681D01*
X-3502Y139628D01*
Y138901D01*
G37*
G36*
G01X14500Y162901D02*
G02X14000Y163401I0J500D01*
G01Y169000D01*
X23696D01*
Y167559D01*
G02X22924Y167140I-500J0D01*
G03X19448Y165250I-1224J-1890D01*
G01Y162750D01*
G03X22924Y160860I2252J0D01*
G02X23696Y160441I272J-419D01*
G01Y159505D01*
X19340D01*
Y149500D01*
X15002D01*
Y150498D01*
X18252D01*
Y159502D01*
X14748D01*
X14659Y159464D01*
X14000Y160123D01*
Y160599D01*
G02X14500Y161098I500J-1D01*
G03X14711Y161145I-1J502D01*
G02X15026Y161053I105J-227D01*
G03Y162947I1474J947D01*
G02X14711Y162855I-210J135D01*
G03X14500Y162901I-210J-455D01*
G37*
G36*
G01X76303Y1112D02*
G03X78197I947J-1474D01*
G02X78105Y1427I135J210D01*
G03X78151Y1637I-455J210D01*
G01X78152Y1886D01*
X80888D01*
G03X81312Y1939I-4J1752D01*
G02X81933Y1453I121J-485D01*
G01Y-16736D01*
X82507Y-17310D01*
X141595D01*
X142225Y-16680D01*
Y-7396D01*
X142283Y-7338D01*
X144062D01*
G02X144428Y-8178I0J-500D01*
G03X150072I2822J-2622D01*
G02X150438Y-7338I366J340D01*
G01X152026D01*
X152255Y-7567D01*
Y-23385D01*
X150994Y-24646D01*
X61816D01*
Y-18981D01*
X61426D01*
Y-13918D01*
G03X54724I-3351J0D01*
G01Y-18981D01*
X49254D01*
G02X48844Y-18195I0J500D01*
G03X48135Y-9914I-5336J3714D01*
G01Y11135D01*
X48250Y11250D01*
Y29500D01*
X49248Y30498D01*
X51597D01*
G03X53974Y31053I903J1502D01*
G02X54289Y31145I210J-135D01*
G03X54711I211J455D01*
G02X55026Y31053I105J-227D01*
G03Y32947I1474J947D01*
G02X54711Y32855I-210J135D01*
G03X54289I-211J-455D01*
G02X53974Y32947I-105J227D01*
G03X52938Y33696I-1474J-947D01*
G01X52750Y33745D01*
Y35000D01*
X50000D01*
X49000Y36000D01*
Y69558D01*
X55068D01*
G02X55497Y68801I0J-500D01*
G03X60030Y63850I3003J-1801D01*
G02X60748Y63400I218J-450D01*
G01Y58752D01*
X53498D01*
Y44248D01*
X61472D01*
Y39472D01*
X61391Y39391D01*
Y35752D01*
X61246D01*
Y28248D01*
X61391D01*
Y11854D01*
X81912D01*
X81933Y11833D01*
Y5823D01*
G02X81312Y5337I-500J-1D01*
G03X80888Y5390I-428J-1699D01*
G01X77250D01*
G03X76303Y2164I0J-1752D01*
G02X76395Y1849I-135J-210D01*
G03Y1427I455J-211D01*
G02X76303Y1112I-227J-105D01*
G37*
G36*
G01X38401Y154500D02*
X40498D01*
Y153572D01*
G03X41750Y149448I1252J-1872D01*
G01X44250D01*
G03X45502Y153572I0J2252D01*
G01Y154500D01*
X46500D01*
X47250Y153750D01*
Y148750D01*
X44500Y146000D01*
X41621D01*
G03X39379I-1121J-1000D01*
G01X36684D01*
G02X36229Y146708I0J500D01*
G03X32771I-1729J792D01*
G02X32316Y146000I-455J-208D01*
G01X26250D01*
X24500Y147750D01*
Y150498D01*
X28252D01*
Y159502D01*
X25198D01*
Y160750D01*
X28266D01*
G03X29594Y160518I1034J2000D01*
G01X29716Y160534D01*
X30500Y159750D01*
Y155500D01*
X31681Y154319D01*
X31628Y154169D01*
G03X31645Y153789I472J-169D01*
G02X31553Y153474I-227J-105D01*
G03X33447I947J-1474D01*
G02X33355Y153789I135J210D01*
G03X33401Y154000I-455J210D01*
G02X33901Y154500I500J0D01*
G01X35599D01*
G02X36099Y154000I0J-500D01*
G03X36145Y153789I501J-1D01*
G02X36053Y153474I-227J-105D01*
G03X37947I947J-1474D01*
G02X37855Y153789I135J210D01*
G03X37901Y154000I-455J210D01*
G02X38401Y154500I500J0D01*
G37*
G36*
G01X62250Y48500D02*
Y71191D01*
X54500D01*
Y73498D01*
X62002D01*
Y80502D01*
X55709D01*
G02X55355Y81355I0J500D01*
G01X55749Y81749D01*
X55917Y81649D01*
G03X58174Y83154I771J1289D01*
G02X58669Y83726I495J72D01*
G01X68422D01*
X69000Y83148D01*
Y64500D01*
X71250D01*
Y48500D01*
X68690D01*
Y54380D01*
X64088D01*
Y48500D01*
X62250D01*
G37*
G36*
G01X76334Y21538D02*
Y25960D01*
G03X76502Y27831I-1084J1040D01*
G01Y29768D01*
X76500Y29770D01*
Y36500D01*
X72250D01*
Y46998D01*
X72752D01*
Y47876D01*
X81280D01*
Y54380D01*
X72752D01*
Y56250D01*
X83500D01*
Y55119D01*
X83363Y55050D01*
G03X83210Y52014I794J-1562D01*
G02X83302Y51699I-135J-210D01*
G03Y51277I455J-211D01*
G02X83210Y50962I-227J-105D01*
G03X85104I947J-1474D01*
G02X85012Y51277I135J210D01*
G03X85033Y51329I-454J214D01*
G01X85090Y51500D01*
X87260D01*
X87317Y51329D01*
G03X87338Y51277I475J162D01*
G02X87246Y50962I-227J-105D01*
G03X89140I947J-1474D01*
G02X89048Y51277I135J210D01*
G03X89069Y51329I-454J214D01*
G01X89126Y51500D01*
X95750D01*
Y50857D01*
G02X94935Y50469I-500J0D01*
G03Y47515I-1199J-1477D01*
G02X95750Y47127I315J-388D01*
G01Y21653D01*
X95635Y21538D01*
X76334D01*
G37*
G36*
G01X97750Y10750D02*
X97250Y11250D01*
Y21030D01*
X97252Y21031D01*
Y30002D01*
X98000Y30750D01*
X107750D01*
X109500Y29000D01*
Y28852D01*
G03X111300Y25248I1800J-1352D01*
G01X112300D01*
G03X113334Y25500I-1J2252D01*
G01X124250D01*
X126250Y27500D01*
Y30750D01*
X126472Y30972D01*
G02X126566Y31031I177J-177D01*
G03X126719Y31184I-83J236D01*
G02X126778Y31278I236J-83D01*
G01X127250Y31750D01*
X132500D01*
X133250Y31000D01*
Y20000D01*
X131500Y18250D01*
X125083D01*
G03X124447Y18974I-1583J-750D01*
G02X124355Y19289I135J210D01*
G03Y19711I-455J211D01*
G02X124447Y20026I227J105D01*
G03X122553I-947J1474D01*
G02X122645Y19711I-135J-210D01*
G03Y19289I455J-211D01*
G02X122553Y18974I-227J-105D01*
G03X121917Y18250I947J-1474D01*
G01X119002D01*
Y19928D01*
G03X117750Y24052I-1252J1872D01*
G01X115250D01*
G03X113998Y19928I0J-2252D01*
G01Y18250D01*
X113000D01*
X112250Y17500D01*
Y11500D01*
X111500Y10750D01*
X97750D01*
G37*
G36*
G01X151000Y26250D02*
Y10000D01*
X141750Y750D01*
Y-5748D01*
X140724Y-6774D01*
Y-7622D01*
G02X139882Y-7987I-500J0D01*
G03Y-13613I-2632J-2813D01*
G02X140724Y-13978I342J-365D01*
G01Y-15750D01*
X114082D01*
X112000Y-13668D01*
Y-500D01*
X113250Y750D01*
X115363D01*
G02X115844Y114I0J-500D01*
G03X119216I1686J-476D01*
G02X119697Y750I481J136D01*
G01X122250D01*
Y1878D01*
X122455Y1915D01*
G03Y5361I-317J1723D01*
G01X122250Y5398D01*
Y11250D01*
X127500D01*
Y16500D01*
X137250D01*
X142750Y21500D01*
Y36000D01*
X143750Y37000D01*
X156750D01*
Y36302D01*
G02X156094Y35827I-500J0D01*
G03Y29173I-1094J-3327D01*
G02X156750Y28698I156J-475D01*
G01Y26250D01*
X151000D01*
G37*
G36*
G01X98352Y46910D02*
Y48748D01*
X106502D01*
Y63252D01*
X98352D01*
Y68500D01*
X109867D01*
Y67036D01*
X109852Y66995D01*
G03Y65805I1648J-595D01*
G01X109867Y65764D01*
Y63036D01*
X109852Y62995D01*
G03Y61805I1648J-595D01*
G01X109867Y61764D01*
Y60000D01*
X114898D01*
Y59948D01*
X118602D01*
Y60000D01*
X121000D01*
Y66000D01*
X127000D01*
Y54000D01*
X120901D01*
G02X120401Y54500I0J500D01*
G03X120355Y54711I-501J1D01*
G02X120447Y55026I227J105D01*
G03X118553I-947J1474D01*
G02X118645Y54711I-135J-210D01*
G03X118599Y54500I455J-210D01*
G02X118099Y54000I-500J0D01*
G01X115002D01*
Y54819D01*
X115076Y54893D01*
G03X113500Y58752I-1576J1608D01*
G01X112500D01*
G03X110924Y54893I0J-2251D01*
G01X110998Y54819D01*
Y54000D01*
X110098D01*
Y46910D01*
X98352D01*
G37*
G36*
G01X134248Y34459D02*
G02X133395Y34105I-500J0D01*
G01X133000Y34500D01*
X127750D01*
X127000Y35250D01*
Y36148D01*
X130602D01*
Y41052D01*
X127000D01*
Y41250D01*
X124884D01*
G02X124596Y42159I0J500D01*
G03X125552Y44000I-1295J1841D01*
G01Y45000D01*
G03X122441Y47081I-2252J0D01*
G02X121750Y47543I-191J462D01*
G01Y48000D01*
X122500Y48750D01*
X130998D01*
G02X131248Y48500I0J-250D01*
G03X132053Y47026I1752J0D01*
G02X132145Y46711I-135J-210D01*
G03Y46289I455J-211D01*
G02X132053Y45974I-227J-105D01*
G03X133947I947J-1474D01*
G02X133855Y46289I135J210D01*
G03Y46711I-455J211D01*
G02X133947Y47026I227J105D01*
G03X134749Y48390I-947J1474D01*
G01X134754Y48485D01*
X135020Y48750D01*
X140500D01*
X142000Y47250D01*
Y46502D01*
X139572D01*
G03X135448Y45250I-1872J-1252D01*
G01Y42750D01*
G03X139572Y41498I2252J0D01*
G01X142000D01*
Y37373D01*
X141605Y36978D01*
G02X140752Y37332I-353J354D01*
G01Y39198D01*
X134248D01*
Y34459D01*
G37*
G36*
G01X128502Y60750D02*
Y67502D01*
X122500D01*
Y70148D01*
X126102D01*
Y75052D01*
X122448D01*
X121750Y75750D01*
X119500D01*
X118750Y76500D01*
Y79068D01*
X118917Y79127D01*
G03X118961Y79145I-168J473D01*
G02X119276Y79053I105J-227D01*
G03Y80947I1474J947D01*
G02X118961Y80855I-210J135D01*
G03X118917Y80873I-212J-455D01*
G01X118750Y80932D01*
Y82500D01*
X119500Y83250D01*
X134500D01*
X135185Y82565D01*
G02X135202Y81876I-354J-353D01*
G03X135026Y81647I1296J-1178D01*
G02X134711Y81555I-210J135D01*
G03X134289I-211J-455D01*
G02X133974Y81647I-105J227D01*
G03Y79753I-1474J-947D01*
G02X134289Y79845I210J-135D01*
G03X134711I211J455D01*
G02X135026Y79753I105J-227D01*
G03X136889Y78992I1474J947D01*
G02X137500Y78504I111J-488D01*
G01Y77517D01*
G03X136822Y77002I998J-2018D01*
G01X134178D01*
G03X130248Y75500I-1678J-1502D01*
G01Y74500D01*
G03X134178Y72998I2252J0D01*
G01X136822D01*
G03X137248Y72628I1678J1502D01*
G01Y71883D01*
X137213Y71824D01*
G03X137500Y69929I1287J-774D01*
G01Y61500D01*
X136750Y60750D01*
X128502D01*
G37*
G36*
G01X158931Y61750D02*
G02X158440Y62344I0J500D01*
G03X151878Y64586I-3440J656D01*
G01X151860Y64550D01*
X151655Y64345D01*
X151250Y64750D01*
Y70665D01*
G02X152156Y70957I500J0D01*
G03Y75043I2844J2043D01*
G02X151250Y75335I-406J292D01*
G01Y77000D01*
X153250Y79000D01*
X164193D01*
G02X164613Y78227I1J-500D01*
G03X166500Y74748I1887J-1228D01*
G01X167500D01*
G03X169745Y76835I0J2251D01*
G02X170598Y77152I499J-36D01*
G01X170750Y77000D01*
Y62500D01*
X170000Y61750D01*
X158931D01*
G37*
G36*
G01X197212Y47835D02*
X195619Y49428D01*
X196080Y49889D01*
Y52206D01*
X193788Y54499D01*
X193804Y54621D01*
G03X192498Y56308I-1489J196D01*
G02X192205Y57158I61J496D01*
G01X195319Y60272D01*
X198412D01*
G02X198820Y59483I0J-500D01*
G03X201308Y57800I1227J-867D01*
G01X207546D01*
G02X207899Y56946I0J-500D01*
G01X201554Y50601D01*
X200223Y51932D01*
X200239Y52054D01*
G03X198946Y50761I-1489J196D01*
G01X199068Y50777D01*
X199611Y50234D01*
X197212Y47835D01*
G37*
G36*
G01X199060Y47560D02*
X203560Y43060D01*
X195134Y34633D01*
Y27500D01*
X191883D01*
G02X191404Y28145I0J500D01*
G03X189250Y31052I-2154J655D01*
G01X186750D01*
G03X184596Y28145I0J-2252D01*
G02X184117Y27500I-479J-145D01*
G01X183000D01*
Y28722D01*
G03Y28878I-2250J78D01*
G01Y38250D01*
X185877D01*
G02X186348Y37584I-1J-500D01*
G03X189518Y37875I1652J-584D01*
G02X189734Y38250I216J125D01*
G01X189750D01*
X199060Y47560D01*
G37*
G36*
G01X188893Y56154D02*
X185868Y59179D01*
X189373Y62684D01*
X201303D01*
X201463Y62242D01*
G03X201164Y61904I963J-1153D01*
G01X194643D01*
X188893Y56154D01*
G37*
G36*
G01X203652Y60221D02*
G03X203682Y61910I-1227J867D01*
G02X204101Y62684I419J274D01*
G01X206810D01*
G03X208279Y64988I1261J816D01*
G02X208132Y65406I35J247D01*
G03X208299Y65620I-1096J1027D01*
G01X212049D01*
X214311Y63358D01*
X214037Y63084D01*
X211032D01*
X207381Y59432D01*
X204060D01*
G02X203652Y60221I0J500D01*
G37*
G36*
G01X184714Y60333D02*
X180333Y64714D01*
X179198Y63579D01*
X178189Y64588D01*
X180095Y66525D01*
X180333Y66286D01*
X180713Y66666D01*
X203398D01*
X204323Y67592D01*
X205146D01*
G02X205619Y66928I0J-500D01*
G03X206830Y64948I1419J-492D01*
G02X206977Y64530I-35J-247D01*
G03X206810Y64316I1096J-1027D01*
G01X188697D01*
X184714Y60333D01*
G37*
G36*
G01X183553Y68300D02*
G02X183200Y69153I1J500D01*
G01X188893Y74846D01*
X189578Y74160D01*
X189562Y74038D01*
G03X190855Y75331I1489J-196D01*
G01X190733Y75315D01*
X190047Y76000D01*
X194465Y80418D01*
X198507Y76376D01*
X199774D01*
G03X201775Y75885I1261J816D01*
G02X202515Y75525I246J-435D01*
G03X205463Y75410I1485J225D01*
G02X206303Y75650I487J-114D01*
G01X207413Y74540D01*
G02X207060Y73686I-353J-354D01*
G01X198333D01*
G03Y72054I-1261J-816D01*
G01X209887D01*
X209893Y72060D01*
X210540Y71413D01*
X209877Y70750D01*
X210549Y70078D01*
G02X210195Y69224I-354J-354D01*
G01X203647D01*
X202722Y68300D01*
X183553D01*
G37*
G36*
G01X231500Y60000D02*
X230000Y61500D01*
Y62250D01*
X226003Y66247D01*
X225994Y66335D01*
G03X224655Y67674I-1494J-155D01*
G01X224567Y67683D01*
X221100Y71150D01*
G02X221253Y71961I354J353D01*
G03X219629Y74438I-603J1376D01*
G01X217918D01*
X217668Y74189D01*
X216553Y75303D01*
X219519Y78269D01*
X219584Y78286D01*
G03X220657Y79359I-380J1453D01*
G01X220674Y79424D01*
X221321Y80071D01*
X230020D01*
X230500Y79591D01*
Y77572D01*
G03Y77428I1500J-72D01*
G01Y75750D01*
X230619Y75631D01*
G03X230426Y75342I1381J-1131D01*
G01X230367Y75283D01*
X230209Y75356D01*
G03X229789Y75355I-209J-456D01*
G01X229684Y75332D01*
X229474Y75447D01*
G03Y73553I-1474J-947D01*
G01X229684Y73668D01*
X229789Y73645D01*
G03X230211I211J455D01*
G01X230316Y73668D01*
X230467Y73585D01*
G03X233778Y74659I1533J915D01*
G02X234252Y75000I474J-159D01*
G01X244000D01*
X247000Y72000D01*
Y69250D01*
X246394Y68644D01*
X244908Y70130D01*
X244926Y70254D01*
G03X241105Y72163I-2229J317D01*
G01X239337Y70395D01*
G03X241246Y66574I1592J-1592D01*
G01X241370Y66592D01*
X242856Y65106D01*
X237750Y60000D01*
X235895D01*
G02X235542Y60854I0J500D01*
G01X239926Y65238D01*
X235894Y69270D01*
X230730Y64106D01*
X233982Y60854D01*
G02X233629Y60000I-353J-354D01*
G01X231500D01*
G37*
G36*
G01X244912Y81588D02*
X244208Y82292D01*
Y91245D01*
X242453Y93000D01*
X241000D01*
X239500Y94500D01*
Y127500D01*
X241000Y129000D01*
X257500D01*
X259000Y127500D01*
Y96000D01*
X256000Y93000D01*
Y82462D01*
X255126Y81588D01*
X252852D01*
Y91646D01*
X247148D01*
Y81588D01*
X244912D01*
G37*
G36*
G01X252002Y61000D02*
G02X251502Y61500I0J500D01*
G03X251000Y62621I-1503J0D01*
G01Y66356D01*
X251048Y66404D01*
G03X251179Y69316I-298J1472D01*
G01X251000Y69369D01*
Y73565D01*
X247558D01*
X246186Y74937D01*
Y75335D01*
X246462D01*
X246487Y75329D01*
G03X249200Y77533I461J2204D01*
G01Y78533D01*
G03X249029Y79395I-2251J1D01*
G02X249491Y80086I462J191D01*
G01X255748D01*
X257605Y81944D01*
X261906D01*
Y91646D01*
X257502D01*
Y92378D01*
X257873Y92750D01*
X266500D01*
X267250Y92000D01*
Y75000D01*
X266000Y73750D01*
X261000D01*
Y72432D01*
X260833Y72373D01*
G03X260789Y72355I168J-473D01*
G02X260474Y72447I-105J227D01*
G03X258195Y69944I-1474J-947D01*
G02Y69056I-230J-444D01*
G03X260474Y66553I805J-1556D01*
G02X260789Y66645I210J-135D01*
G03X260833Y66627I212J455D01*
G01X261000Y66568D01*
Y63932D01*
X260833Y63873D01*
G03X260789Y63855I168J-473D01*
G02X260474Y63947I-105J227D01*
G03X257693Y61833I-1474J-947D01*
G02X257320Y61000I-373J-333D01*
G01X252002D01*
G37*
%LPC*%
G75*
G36*
G01X39815Y88414D02*
X36772Y85371D01*
X33871Y88272D01*
X36914Y91315D01*
X39815Y88414D01*
G37*
G36*
G01X130602Y25948D02*
X126898D01*
Y30795D01*
G03X126890Y30860I-250J2D01*
G03X126955Y30852I63J242D01*
G01X130602D01*
Y25948D01*
G37*
G54D94*
X128500Y21500D03*
X146000Y32500D03*
X128500Y44500D03*
X167000Y70500D03*
X193000Y37000D03*
X259000Y78500D03*
G54D88*
X-8593Y82814D03*
G54D99*
X250000Y123000D03*
G54D93*
X102500Y20000D03*
G54D92*
X87252Y32000D03*
G54D89*
X4500Y155000D03*
X56500Y40000D03*
X124000Y56500D03*
X125200Y80000D03*
G54D90*
X56500Y10322D03*
G54D87*
X-23000Y88000D03*
G54D95*
X127250Y-10800D03*
X117250D03*
G54D98*
X250000Y111205D03*
G54D96*
X124250Y62400D03*
G54D97*
X132500Y66346D03*
G54D91*
X77250Y-10800D03*
%LPD*%
G75*
G54D10*
X-23000Y17500D03*
Y27500D03*
Y37500D03*
Y68000D03*
Y78000D03*
Y88000D03*
X263500Y148000D03*
Y138000D03*
G54D11*
X-23000Y47500D03*
Y98000D03*
X263500Y158000D03*
G54D20*
X9020Y17360D03*
X4715Y82909D03*
X-8593Y82814D03*
X58500Y67000D03*
X128500Y132500D03*
X162746Y2736D03*
X155000Y32500D03*
Y22500D03*
Y73000D03*
Y63000D03*
X234500Y150500D03*
X258890Y172280D03*
G54D21*
X-8000Y19900D03*
Y27500D03*
X11000Y91200D03*
Y98800D03*
X3000Y91200D03*
Y98800D03*
X3500Y139200D03*
Y146800D03*
X43000Y159300D03*
Y151700D03*
X116500Y14200D03*
Y21800D03*
X179500Y21200D03*
Y28800D03*
X188000Y21200D03*
Y28800D03*
G54D30*
G01X156250Y10000D02*
Y15750D01*
X165000Y24500D01*
Y32500D01*
X-9000Y112250D03*
X11000Y147250D03*
X36750Y-1500D03*
X25750Y101000D03*
X28500Y147500D03*
X58750Y98524D03*
X57864Y142086D03*
X61185Y165026D03*
X109750Y18750D03*
X91750Y26250D03*
X104250Y66250D03*
X97000Y101750D03*
X86537Y134040D03*
X128500Y44500D03*
X137500Y20307D03*
X128500Y21500D03*
X146000Y32500D03*
X127495Y86500D03*
X156250Y10000D03*
X168951Y24751D03*
X164250Y65250D03*
X167000Y70500D03*
X198500Y17500D03*
X199750Y43500D03*
X183000Y43000D03*
X193000Y37000D03*
X188000Y33000D03*
X205036Y96003D03*
X226500Y22271D03*
X259000Y78500D03*
X253500Y72250D03*
G54D12*
G01X336160Y-107660D02*
Y-207660D01*
X-63840D01*
G01D02*
Y-107660D01*
X336160D01*
G01X-23000Y88000D02*
X-19920Y84920D01*
G01X-26080Y91080D02*
X-23000Y88000D01*
G01D02*
X-19920Y91080D01*
G01X-26080Y84920D02*
X-23000Y88000D01*
G01D02*
X-18998D01*
G01X-27002D02*
X-23000D01*
G01D02*
Y92002D01*
G01Y83998D02*
Y88000D01*
G01X-22350Y152500D02*
X-27000D01*
G01X3100Y43000D02*
Y32000D01*
G01Y25000D02*
Y32000D01*
G01X-8593Y82814D02*
X-5690Y79911D01*
G01X-11496D02*
X-8593Y82814D01*
G01Y79062D02*
Y82814D01*
G01X-2855Y60500D02*
X3100D01*
G01X-11496Y85717D02*
X-8593Y82814D01*
G01D02*
X-5690Y85717D01*
G01X-8593Y82814D02*
X-4841D01*
G01X-12345D02*
X-8593D01*
G01D02*
Y86566D01*
G01X8000Y119500D02*
Y116500D01*
G01X3500Y139200D02*
Y134500D01*
G01X-2000Y137500D02*
Y140250D01*
X-2053Y140303D01*
Y140500D01*
G01X12500Y162000D02*
X9550D01*
G01X44000Y32000D02*
Y35500D01*
G01X52500Y32000D02*
X48000D01*
G01X38187Y125313D02*
Y125859D01*
X41914Y129586D01*
G01X32500Y156000D02*
Y159000D01*
G01X37000Y156000D02*
Y159000D01*
G01X21500Y155000D02*
Y149000D01*
G01X68748Y32000D02*
Y27050D01*
G01X58687Y91687D02*
Y92515D01*
X62086Y95914D01*
G01X54414Y142086D02*
X57864D01*
G01X54414D02*
Y137664D01*
X54250Y137500D01*
G01X170250Y32250D02*
X172000D01*
X174000Y30250D01*
Y28800D01*
G01X170233Y28251D02*
X173202D01*
X173452Y28300D01*
X173500D01*
X174000Y28800D01*
G01X158500Y104000D02*
Y114000D01*
G01X276858Y19232D02*
X269500D01*
G01X276858Y27500D02*
X269500D01*
G01X276858Y35768D02*
X269500D01*
G01X279846Y51362D02*
Y56846D01*
G01Y71638D02*
Y66988D01*
X-13600Y19900D03*
X-27000Y152500D03*
X-4269Y15609D03*
X-11499Y15383D03*
X-8000Y15500D03*
X3100Y25000D03*
X-2100Y19900D03*
X-10500Y35750D03*
X12750Y32000D03*
X-2855Y60500D03*
X-10500Y60000D03*
X18500Y93750D03*
X16750Y110750D03*
X-12500Y99500D03*
X5000Y123750D03*
X6750Y131000D03*
X16500Y126750D03*
X8000Y116500D03*
X16750Y114500D03*
X6593Y127864D03*
X3500Y134500D03*
X-2053Y140500D03*
X3204Y129500D03*
X-10632Y122882D03*
X-1850Y149750D03*
X-11124Y148000D03*
X16500Y165250D03*
X9550Y162000D03*
X4750Y178500D03*
X9512Y189846D03*
X50000Y14500D03*
X47460Y42632D03*
X26455Y41142D03*
X25500Y32250D03*
X45000Y40000D03*
X30000D03*
X49750Y20000D03*
Y25000D03*
X36000Y32500D03*
Y43000D03*
X44000Y35500D03*
X23721Y67029D03*
X40000Y77500D03*
X42750Y75250D03*
X45000Y63750D03*
X35500Y53250D03*
X45500Y83500D03*
X24750Y110750D03*
X20750D03*
X44000Y102500D03*
X41000Y105500D03*
X37994Y108101D03*
X33892Y111988D03*
X26250Y126250D03*
X38095Y142595D03*
X27000Y140000D03*
X43500Y126500D03*
X46511Y129239D03*
X40500Y145000D03*
X40750Y122000D03*
X24750Y114500D03*
X20750D03*
X36500Y135000D03*
X32500Y159000D03*
X37000D03*
X21500Y149000D03*
X33250Y164000D03*
X43000Y163250D03*
X49000Y147500D03*
X20488Y189846D03*
X80888Y3638D03*
X75250Y27000D03*
X68748Y27050D03*
X53000Y76500D03*
X53250Y80500D03*
X70250Y102750D03*
X72521Y104711D03*
X71804Y90609D03*
X56688Y82938D03*
X67250Y90750D03*
X55500Y104000D03*
X69509Y106509D03*
X59000Y104000D03*
X74310Y112583D03*
X81500Y129500D03*
X62500Y123000D03*
X51500Y135500D03*
X68500Y162650D03*
X58000Y159200D03*
X62000Y149450D03*
X68500D03*
X81750Y146500D03*
X77050Y149124D03*
X66250Y147000D03*
X79250Y162000D03*
X80000Y156750D03*
X74000Y152500D03*
X91388Y3638D03*
X111638D03*
X107700Y33500D03*
Y38500D03*
X92205Y53488D03*
X111500Y69550D03*
Y73050D03*
X100814Y110313D03*
X96571Y106071D03*
X92278Y101879D03*
X85000Y104250D03*
X89450Y108950D03*
X93750Y113134D03*
X111697Y134297D03*
X87350Y130500D03*
X87450Y127500D03*
X96747Y124253D03*
X105450Y118950D03*
X83570Y156355D03*
X97000Y156074D03*
X102500Y146926D03*
X85250Y146750D03*
X102500Y156500D03*
X99250Y147054D03*
X94500Y146500D03*
X122138Y3638D03*
X121250Y14200D03*
X125250Y14258D03*
X125000Y34250D03*
X145300Y49000D03*
X120250Y49200D03*
X117000Y50500D03*
X135250Y50750D03*
X140648Y58585D03*
X138500Y71050D03*
X143047Y56148D03*
X132500Y52750D03*
X137443Y56307D03*
X120500Y68500D03*
X140050Y80700D03*
X135739Y93038D03*
X126378Y95615D03*
X123000Y101778D03*
X139239Y92973D03*
X135705Y96331D03*
X142600Y92500D03*
X126257Y98761D03*
X137540Y90500D03*
X126000Y101750D03*
X121641Y141306D03*
X124076Y123555D03*
X138986Y118337D03*
X124250Y139750D03*
X138863Y121500D03*
X123500Y126500D03*
X136500Y162550D03*
X120377Y147114D03*
X115376Y149124D03*
X115500Y172250D03*
X121442Y155911D03*
X118500Y156500D03*
X123500Y146926D03*
X176651Y4252D03*
X152138Y3638D03*
X174000Y8500D03*
X159623Y38230D03*
X150478Y48591D03*
X162750Y38250D03*
X170250Y32250D03*
X172500Y34710D03*
X170233Y28251D03*
X171250Y38000D03*
X153750Y48750D03*
X151455Y55481D03*
X146376Y57491D03*
X148273Y60098D03*
X153500Y53285D03*
X176500Y63595D03*
X155125Y94440D03*
X177000Y85750D03*
X177500Y107750D03*
X155000Y88000D03*
X174394Y125473D03*
X158750Y144500D03*
X168500Y118615D03*
X185677Y10213D03*
X189539Y11500D03*
X177750Y11949D03*
X203000Y17500D03*
X179500Y17000D03*
X191500Y17750D03*
X197398Y22276D03*
X193050Y21200D03*
X205635Y43365D03*
X190500Y42677D03*
X187751Y45500D03*
X206213Y70690D03*
X201377Y54516D03*
X196878Y58184D03*
X207038Y66436D03*
X205897Y61099D03*
X191283Y60726D03*
X197730Y65569D03*
X191426D03*
X197475Y69897D03*
X197072Y72870D03*
X191047Y70627D03*
X192315Y54817D03*
X191051Y73842D03*
X208071Y63500D03*
X202425Y61088D03*
X200047Y58616D03*
X201035Y77192D03*
X198750Y52250D03*
X204000Y75750D03*
X183357Y63394D03*
X182000Y80107D03*
X178000Y55251D03*
X198434Y92086D03*
X208586Y89575D03*
X194795Y94914D03*
X190635Y88188D03*
X186750Y114000D03*
X186756Y117571D03*
X193622Y125473D03*
X184152Y132083D03*
X213300Y17500D03*
X222500Y11500D03*
X229426Y49701D03*
X236548Y46267D03*
X222685Y48537D03*
X236536Y43267D03*
X229329Y46666D03*
X234059Y38371D03*
X212037Y43705D03*
X211743Y64423D03*
X220650Y73337D03*
X219204Y79739D03*
X214547Y51030D03*
X217708Y51314D03*
X220708Y51344D03*
X220491Y68375D03*
X232000Y77500D03*
X224500Y66180D03*
X211627Y83764D03*
X223825Y95414D03*
X226250Y102500D03*
X217376Y86875D03*
X214250Y86750D03*
X215559Y140650D03*
X228947Y144716D03*
X218991Y140629D03*
X238250Y132000D03*
X224500Y121250D03*
Y131500D03*
X215588Y151427D03*
X218583Y162143D03*
X230318Y159750D03*
X226681Y159729D03*
X215500Y155196D03*
X218500Y159000D03*
X246852Y-13979D03*
X270319Y12842D03*
X246678Y-10800D03*
X266848Y12887D03*
X258988Y47228D03*
X269500Y19232D03*
Y27500D03*
Y35768D03*
X247297Y59953D03*
X246536Y53464D03*
X250000Y61500D03*
X250750Y67876D03*
X266500Y63000D03*
Y67500D03*
Y71500D03*
X260000Y58500D03*
X264500D03*
X245500Y97500D03*
X254500D03*
X250000D03*
X254500Y102000D03*
X250000D03*
X245500D03*
X268488Y142500D03*
X268504Y116347D03*
X241500Y134000D03*
X268715Y167558D03*
X268573Y146238D03*
X272271Y167506D03*
X253500Y156500D03*
X251750Y160000D03*
X280994Y42216D03*
X276750Y42250D03*
X279846Y56846D03*
Y66988D03*
X278846Y101654D03*
Y109846D03*
X280000Y83500D03*
Y87500D03*
X275507Y137039D03*
X275500Y133500D03*
G54D13*
X-26500Y113630D03*
Y142370D03*
G54D40*
X53313Y86313D03*
X58687Y91687D03*
G54D22*
G01X36750Y-1500D02*
Y26000D01*
X40000Y29250D01*
Y35500D01*
G01D02*
Y40000D01*
G01Y47870D02*
Y40000D01*
G01X77250Y3638D02*
X80888D01*
G01X58750Y98524D02*
X59476D01*
X62086Y95914D01*
G01X55500Y104000D02*
Y101774D01*
X58750Y98524D01*
G01X87250Y-362D02*
Y-10800D01*
G01Y3638D02*
X91388D01*
G01X107250D02*
X111638D01*
G01X107250Y-362D02*
Y-10800D01*
G01X117530Y3638D02*
X122138D01*
G01X147250Y-362D02*
Y-10800D01*
G01Y3638D02*
X152138D01*
G01X174000Y28800D02*
X179500D01*
G01X183000Y43000D02*
X182750D01*
X179500Y39750D01*
Y38000D01*
G01D02*
Y33500D01*
G01Y28800D02*
Y33500D01*
G01X224500Y114000D02*
Y110076D01*
X221674Y107250D01*
X201000D01*
X199000Y105250D01*
Y102500D01*
G01X224500Y114000D02*
X215000D01*
X-10500Y39000D03*
Y43000D03*
Y57000D03*
Y53000D03*
X8000Y119500D03*
Y123500D03*
X16500D03*
Y119500D03*
X-2000Y137500D03*
X-6000D03*
X12500Y162000D03*
X16500D03*
X36000Y35500D03*
X40000D03*
X44000Y32000D03*
X48000D03*
X36000Y40000D03*
X40000D03*
X49500Y80500D03*
X45500D03*
X49500Y76500D03*
X45500D03*
X36149Y113889D03*
X43086Y107586D03*
X45914Y110414D03*
X33320Y108232D03*
X30492Y105404D03*
X36149D03*
X33321Y102576D03*
X38977Y102575D03*
X36149Y99747D03*
X46086Y104586D03*
X48914Y107414D03*
X42414Y113414D03*
X39586Y110586D03*
X32500Y140000D03*
Y136000D03*
X24500Y123500D03*
Y119500D03*
X38977Y116717D03*
X39086Y132414D03*
X41914Y129586D03*
X51586Y144914D03*
X32500Y156000D03*
Y152000D03*
X37000Y156000D03*
Y152000D03*
X77250Y3638D03*
Y-362D03*
X52500Y32000D03*
X56500D03*
X74191Y93062D03*
X71363Y95890D03*
X83586Y97086D03*
X83121Y106793D03*
X80293Y109621D03*
X64914Y93086D03*
X62086Y95914D03*
X78216Y136100D03*
Y132100D03*
X54414Y142086D03*
X78000Y164625D03*
X74000D03*
X80000Y149124D03*
Y153124D03*
X74000Y156000D03*
Y160000D03*
X87250Y3638D03*
Y-362D03*
X107250Y3638D03*
Y-362D03*
X84157Y49488D03*
X88193D03*
X90224Y60672D03*
X93052Y63500D03*
X84157Y53488D03*
X88193D03*
X111500Y66400D03*
Y62400D03*
Y76000D03*
Y80000D03*
X86414Y99914D03*
X91606Y115278D03*
X95849D03*
X98677Y112450D03*
X87364Y111036D03*
X84536Y113864D03*
X91607Y111035D03*
X94435Y108207D03*
X87364Y106793D03*
X90192Y103965D03*
X84201Y131500D03*
Y127500D03*
X88778Y118106D03*
X97000Y149124D03*
Y153124D03*
X117530Y3638D03*
Y-362D03*
X123500Y17500D03*
X133000Y48500D03*
Y44500D03*
X123500Y21500D03*
X136500Y80700D03*
X132500D03*
X119500Y52500D03*
Y56500D03*
X120750Y80000D03*
X116750D03*
X123010Y92113D03*
X120182Y89285D03*
X141000Y169500D03*
Y165500D03*
X136500D03*
Y169500D03*
X118500Y149124D03*
Y153124D03*
X147250Y3638D03*
Y-362D03*
X175500Y33500D03*
Y38000D03*
X174000Y24800D03*
Y28800D03*
X158500Y104000D03*
X162500D03*
X177500D03*
X173500D03*
X148500Y144500D03*
X152500D03*
X179500Y33500D03*
X199500Y27500D03*
Y31500D03*
X179500Y38000D03*
X188000Y41000D03*
Y37000D03*
X203000Y102500D03*
X199000D03*
X184414Y89086D03*
X181586Y91914D03*
X208586Y92586D03*
X187414Y92086D03*
X184586Y94914D03*
X221000Y27500D03*
Y31500D03*
X232000Y74500D03*
X228000D03*
X224500Y114000D03*
X211586Y89586D03*
X214414Y92414D03*
X211414Y95414D03*
X224500Y128000D03*
Y124000D03*
Y118000D03*
X264500Y51362D03*
X260000D03*
X264500Y55362D03*
X260000D03*
X263000Y67500D03*
X259000D03*
X263000Y63000D03*
X259000D03*
X263000Y71500D03*
X259000D03*
X272000Y83500D03*
Y87500D03*
X250000Y156500D03*
Y152500D03*
X248500Y160000D03*
X244500D03*
X276000Y83500D03*
Y87500D03*
G54D31*
X3000Y105500D03*
X-2500Y118250D03*
X185677Y4252D03*
X184152Y125473D03*
X226500Y3780D03*
X250000Y123000D03*
G54D50*
X76428Y51128D03*
G54D41*
X62500Y123000D03*
G54D14*
X-26500Y123472D03*
Y132528D03*
G54D32*
X11500Y133000D03*
X16500D03*
Y155000D03*
X11500D03*
X21500Y133000D03*
X26500D03*
Y155000D03*
X21500D03*
G54D23*
X3100Y25000D03*
X18500Y98800D03*
X4500Y155000D03*
X45000Y40000D03*
X30000D03*
X23500Y57000D03*
Y52500D03*
X34500Y147500D03*
X56500Y40000D03*
X67750Y99500D03*
X55500Y104000D03*
X93736Y48992D03*
X109500Y143000D03*
X96500Y119500D03*
X90500Y143000D03*
X125200Y80000D03*
X124000Y56500D03*
X126500Y143000D03*
X142500Y144500D03*
X115000Y116500D03*
X169000Y104000D03*
X221500Y102500D03*
X215439Y146192D03*
X239500Y160000D03*
X251575Y19244D03*
X255000Y51362D03*
X251697Y35768D03*
X251628Y27500D03*
X272000Y78500D03*
X250000Y148000D03*
G54D33*
X-6500Y143150D03*
Y150850D03*
G54D24*
X9100Y32000D03*
X3100D03*
X36000Y76500D03*
X30000D03*
X80000Y143000D03*
X115000Y121500D03*
X103500Y143000D03*
X97500D03*
X86000D03*
X117300Y44500D03*
X123300D03*
X138500Y75000D03*
X132500D03*
X121000Y121500D03*
X240983Y19227D03*
X240772Y35768D03*
X240892Y27500D03*
X240949Y78033D03*
X246983Y19227D03*
X246772Y35768D03*
X246892Y27500D03*
X246949Y78033D03*
G54D15*
X-14689Y136760D03*
Y119240D03*
G54D60*
X101122Y149876D03*
X102500D03*
X103878D03*
Y153124D03*
X102500D03*
X101122D03*
X83622D03*
X85000D03*
X86378D03*
Y149876D03*
X85000D03*
X83622D03*
X122122Y153124D03*
X123500D03*
X124878D03*
Y149876D03*
X123500D03*
X122122D03*
G54D51*
X57500Y51500D03*
X102500Y20000D03*
Y38500D03*
Y56000D03*
X232000Y124000D03*
G54D42*
X44879Y143121D03*
X49121Y138879D03*
X40379Y138621D03*
X44621Y134379D03*
G54D61*
X121250Y28400D03*
X125000Y38600D03*
X128750Y28400D03*
X121250Y38600D03*
X128750D03*
X116750Y62400D03*
X120500Y72600D03*
X124250Y62400D03*
X116750Y72600D03*
X124250D03*
G54D70*
X234051Y33791D03*
Y27491D03*
G54D16*
X-15969Y122882D03*
Y125441D03*
Y128000D03*
Y130559D03*
Y133118D03*
G54D34*
X-5854Y127531D03*
Y129500D03*
Y131469D03*
X-146D03*
Y129500D03*
Y127531D03*
G54D52*
X68748Y32000D03*
X87252D03*
G54D25*
X16900Y43000D03*
X3100D03*
Y60500D03*
X16900D03*
G54D43*
X32813Y130687D03*
X38187Y125313D03*
X241813Y69687D03*
X247187Y64313D03*
G54D80*
G01X-23000Y27500D02*
X-8000D01*
G01X137500Y20307D02*
Y24307D01*
G54D44*
X47108Y125863D03*
X45716Y124471D03*
X51283Y130038D03*
X49892Y128647D03*
X48499Y127255D03*
X61027Y139782D03*
X59635Y138390D03*
X58243Y136999D03*
X56851Y135606D03*
X55460Y134215D03*
X54067Y132822D03*
X52676Y131431D03*
G54D35*
X4862Y183154D03*
Y189846D03*
X25138Y183154D03*
Y189846D03*
G54D53*
X82276Y74276D03*
X108724Y100724D03*
G54D62*
X148500Y134000D03*
X131250Y179200D03*
X165000Y32500D03*
X205000Y134000D03*
G54D26*
X4715Y72909D03*
X-8593Y72814D03*
X58500Y77000D03*
X118500Y132500D03*
X155000Y42500D03*
Y83000D03*
X234500Y140500D03*
G54D71*
X243672Y56328D03*
X235328Y64672D03*
G54D17*
G01X-63840Y-187660D02*
X336160D01*
G01X-63840Y-157660D02*
Y-137660D01*
X336160D01*
G01X-13840Y-207660D02*
Y-187660D01*
G01X-146Y129500D02*
X3204D01*
G01X43500Y126500D02*
X44000Y127000D01*
X46000D01*
X47467Y125533D01*
Y125506D01*
G01X50251Y128290D02*
X50249D01*
X48401Y130138D01*
Y130178D01*
X47454Y131125D01*
X47375D01*
X47250Y131250D01*
X43578D01*
X41914Y129586D01*
G01X48858Y126898D02*
X46517Y129239D01*
X46511D01*
G01X40750Y122000D02*
X42250D01*
X44918Y119332D01*
X46332D01*
X47467Y120467D01*
Y120494D01*
G01X48858Y119102D02*
Y119100D01*
X47010Y117252D01*
X43248D01*
X40733Y119767D01*
X34975D01*
X34621Y120121D01*
G01X55500Y104000D02*
Y106250D01*
X56754Y107504D01*
Y107508D01*
X58602Y109356D01*
Y109358D01*
G01X59000Y104000D02*
X58500Y104500D01*
Y106500D01*
X59967Y107967D01*
X59994D01*
G01X71965Y114926D02*
X74308Y112583D01*
X74310D01*
G01X54250Y137500D02*
Y135500D01*
X55819Y133931D01*
Y133858D01*
G01X54426Y132465D02*
X54424D01*
X52576Y134313D01*
Y134424D01*
X51500Y135500D01*
G01X111660Y-207660D02*
Y-187660D01*
G01X111160Y-137660D02*
Y-107660D01*
G01X103200Y159700D02*
X109500D01*
G01X84800D02*
X91100D01*
G01X161160Y-207660D02*
Y-187660D01*
G01X184945Y45523D02*
X186909Y47487D01*
X186952D01*
X189780Y50315D01*
G01X234051Y33791D02*
Y27491D01*
G01X218000Y75750D02*
Y75749D01*
G01D02*
X214578Y72327D01*
G01X247278Y12327D02*
X240978D01*
G01X247072Y42234D02*
X240772D01*
X-9000Y166000D03*
X0Y0D03*
X43508Y-14481D03*
X237450Y174800D03*
X258000Y-500D03*
G54D81*
G01X220491Y68375D02*
X220280Y68586D01*
X218319D01*
X217364Y69541D01*
G54D45*
X51285Y115960D03*
X45718Y121527D03*
X47110Y120135D03*
X48501Y118743D03*
X49894Y117351D03*
X52678Y114567D03*
X54069Y113176D03*
X55462Y111783D03*
X56853Y110392D03*
X58245Y108999D03*
X59637Y107608D03*
X61029Y106216D03*
G54D72*
X240945Y86795D03*
X250000D03*
X259055D03*
G54D18*
X-14650Y152500D03*
X-22350D03*
G54D27*
X15107Y72840D03*
X137500Y24307D03*
X132500Y56307D03*
G54D54*
X63987Y106232D03*
X65365Y107610D03*
X66757Y109001D03*
X68149Y110394D03*
X69540Y111785D03*
X70933Y113178D03*
X72324Y114569D03*
X73717Y115962D03*
X75108Y117353D03*
X76501Y118745D03*
X77892Y120137D03*
X79284Y121529D03*
G54D63*
X147250Y179200D03*
Y189200D03*
X177250Y-10800D03*
X167250Y-20800D03*
X177250D03*
Y179200D03*
X167250D03*
X157250D03*
X177250Y189200D03*
X167250D03*
X157250D03*
X187250Y-10800D03*
X197250D03*
X207250D03*
X187250Y-20800D03*
X197250D03*
X207250D03*
Y179200D03*
X197250D03*
X187250D03*
X207250Y189200D03*
X197250D03*
X187250D03*
X217250Y-10800D03*
X227250D03*
X237250D03*
X217250Y-20800D03*
X227250D03*
X237250D03*
X217250Y189200D03*
G54D36*
X22642Y10322D03*
X43114D03*
X56500D03*
G54D82*
G01X287150Y149119D02*
G03X237150Y199119I-50005J-5D01*
G01X17150D01*
G03X-32850Y149119I5J-50005D01*
G01Y19071D01*
G03X17250Y-30929I50100J100D01*
G01X237150D01*
G03X287150Y19071I-5J50005D01*
G01Y149119D01*
G01X132500Y75000D02*
X128750D01*
G01X130770Y77888D02*
X132500Y76158D01*
Y75000D01*
G01X130743Y71906D02*
X132500Y73663D01*
Y75000D01*
G54D55*
X79282Y124473D03*
X77890Y125865D03*
X76499Y127257D03*
X75106Y128649D03*
X73715Y130040D03*
X72322Y131433D03*
X70931Y132824D03*
X69538Y134217D03*
X68147Y135608D03*
X66755Y137001D03*
X65363Y138392D03*
X63971Y139784D03*
G54D28*
X15107Y82879D03*
X137500Y34346D03*
X132500Y66346D03*
G54D73*
X259142Y19232D03*
Y27500D03*
Y35768D03*
X276858Y19232D03*
Y27500D03*
Y35768D03*
G54D37*
X45000Y47870D03*
X40000D03*
X35000D03*
X30000D03*
Y69130D03*
X35000D03*
X40000D03*
X45000D03*
G54D64*
X167250Y-10800D03*
X217250Y179200D03*
G54D46*
X41250D03*
X51250D03*
X61250D03*
X71250D03*
X81250D03*
X91250D03*
X101250D03*
X111250D03*
X148500Y114000D03*
Y124000D03*
X121250Y179200D03*
X158500Y114000D03*
Y124000D03*
Y134000D03*
X205000Y114000D03*
Y124000D03*
X215000Y114000D03*
Y134000D03*
Y124000D03*
G54D19*
X19099Y-18418D03*
X58075D03*
G54D83*
G01X-54230Y-204400D02*
Y-198400D01*
X-57128Y-202700D01*
X-53212D01*
G01X-42570Y-204400D02*
X-43197Y-204300D01*
X-43745Y-203900D01*
X-44215Y-203300D01*
X-44528Y-202600D01*
X-44685Y-201800D01*
Y-201000D01*
X-44528Y-200200D01*
X-44215Y-199500D01*
X-43745Y-198900D01*
X-43197Y-198500D01*
X-42570Y-198400D01*
X-41943Y-198500D01*
X-41395Y-198900D01*
X-40925Y-199500D01*
X-40612Y-200200D01*
X-40455Y-201000D01*
Y-201800D01*
X-40612Y-202600D01*
X-40925Y-203300D01*
X-41395Y-203900D01*
X-41943Y-204300D01*
X-42570Y-204400D01*
G01X-37758D02*
Y-198400D01*
X-34782D01*
G01X-35878Y-201300D02*
X-37758D01*
G01X-23670Y-204400D02*
Y-198400D01*
X-24610Y-199600D01*
G01Y-204400D02*
X-22730D01*
G01X-17370Y-198400D02*
X-17997Y-198600D01*
X-18467Y-199100D01*
X-18780Y-199700D01*
X-19015Y-200500D01*
X-19093Y-201400D01*
X-19015Y-202300D01*
X-18780Y-203100D01*
X-18467Y-203700D01*
X-17997Y-204200D01*
X-17370Y-204400D01*
X-16743Y-204200D01*
X-16273Y-203700D01*
X-15960Y-203100D01*
X-15725Y-202300D01*
X-15647Y-201400D01*
X-15725Y-200500D01*
X-15960Y-199700D01*
X-16273Y-199100D01*
X-16743Y-198600D01*
X-17370Y-198400D01*
G01X-52198Y-184660D02*
Y-180660D01*
X-49982D01*
G01X-50798Y-182593D02*
X-52198D01*
G01X-47457Y-184660D02*
Y-180660D01*
X-45998D01*
X-45532Y-180860D01*
X-45240Y-181127D01*
X-45123Y-181660D01*
X-45240Y-182193D01*
X-45590Y-182527D01*
X-45998Y-182727D01*
X-47457D01*
G01X-45998D02*
X-45123Y-184660D01*
G01X-40323D02*
X-42657D01*
Y-180660D01*
X-40323D01*
G01X-41257Y-182593D02*
X-42657D01*
G01X-35523Y-184660D02*
X-37857D01*
Y-180660D01*
X-35523D01*
G01X-36457Y-182593D02*
X-37857D01*
G01X-33115Y-184127D02*
X-32648Y-184460D01*
X-32123Y-184660D01*
X-31657D01*
X-31190Y-184460D01*
X-30840Y-184127D01*
X-30665Y-183660D01*
X-30782Y-183193D01*
X-31073Y-182793D01*
X-31598Y-182527D01*
X-32298Y-182393D01*
X-32707Y-182127D01*
X-32882Y-181660D01*
X-32765Y-181193D01*
X-32473Y-180860D01*
X-32065Y-180660D01*
X-31657D01*
X-31248Y-180793D01*
X-30898Y-181127D01*
G01X-25807Y-180993D02*
X-26157Y-180793D01*
X-26565Y-180660D01*
X-27032D01*
X-27557Y-180860D01*
X-27965Y-181193D01*
X-28257Y-181593D01*
X-28490Y-182260D01*
X-28548Y-182860D01*
X-28432Y-183460D01*
X-28257Y-183860D01*
X-27907Y-184260D01*
X-27498Y-184527D01*
X-27090Y-184660D01*
X-26682D01*
X-26273Y-184527D01*
X-25923Y-184327D01*
X-25632Y-184060D01*
G01X-23748Y-184660D02*
X-22290Y-180660D01*
X-20832Y-184660D01*
G01X-21357Y-183260D02*
X-23223D01*
G01X-18657Y-180660D02*
Y-184660D01*
X-16323D01*
G01X-11523D02*
X-13857D01*
Y-180660D01*
X-11523D01*
G01X-12457Y-182593D02*
X-13857D01*
G01X-7890Y-184793D02*
X-8007Y-184727D01*
Y-184593D01*
X-7890Y-184527D01*
X-7773Y-184593D01*
Y-184727D01*
X-7890Y-184793D01*
G01X-52090Y-176660D02*
X-52557Y-176593D01*
X-52965Y-176327D01*
X-53315Y-175927D01*
X-53548Y-175460D01*
X-53665Y-174927D01*
Y-174393D01*
X-53548Y-173860D01*
X-53315Y-173393D01*
X-52965Y-172993D01*
X-52557Y-172727D01*
X-52090Y-172660D01*
X-51623Y-172727D01*
X-51215Y-172993D01*
X-50865Y-173393D01*
X-50632Y-173860D01*
X-50515Y-174393D01*
Y-174927D01*
X-50632Y-175460D01*
X-50865Y-175927D01*
X-51215Y-176327D01*
X-51623Y-176593D01*
X-52090Y-176660D01*
G01X-48457D02*
Y-172660D01*
X-46998D01*
X-46532Y-172860D01*
X-46240Y-173127D01*
X-46123Y-173660D01*
X-46240Y-174193D01*
X-46590Y-174527D01*
X-46998Y-174727D01*
X-48457D01*
G01X-46998D02*
X-46123Y-176660D01*
G01X-38390Y-172660D02*
X-36990D01*
G01X-37690D02*
Y-176660D01*
G01X-38390D02*
X-36990D01*
G01X-34232D02*
Y-172660D01*
X-31548Y-176660D01*
Y-172660D01*
G01X-24457Y-176660D02*
Y-172660D01*
X-23057D01*
X-22590Y-172860D01*
X-22240Y-173327D01*
X-22123Y-173860D01*
X-22240Y-174393D01*
X-22532Y-174793D01*
X-23057Y-174993D01*
X-24457D01*
G01X-19948Y-176660D02*
X-18490Y-172660D01*
X-17032Y-176660D01*
G01X-17557Y-175260D02*
X-19423D01*
G01X-14857Y-176660D02*
Y-172660D01*
X-13398D01*
X-12932Y-172860D01*
X-12640Y-173127D01*
X-12523Y-173660D01*
X-12640Y-174193D01*
X-12990Y-174527D01*
X-13398Y-174727D01*
X-14857D01*
G01X-13398D02*
X-12523Y-176660D01*
G01X-8890Y-172660D02*
Y-176660D01*
G01X-10232Y-172660D02*
X-7548D01*
G01X-1040D02*
X-223Y-176660D01*
X710Y-172660D01*
X1643Y-176660D01*
X2460Y-172660D01*
G01X4810D02*
X6210D01*
G01X5510D02*
Y-176660D01*
G01X4810D02*
X6210D01*
G01X10310Y-172660D02*
Y-176660D01*
G01X8968Y-172660D02*
X11652D01*
G01X13885Y-176660D02*
Y-172660D01*
G01X16335D02*
Y-176660D01*
G01Y-174660D02*
X13885D01*
G01X19910Y-176660D02*
X19443Y-176593D01*
X19035Y-176327D01*
X18685Y-175927D01*
X18452Y-175460D01*
X18335Y-174927D01*
Y-174393D01*
X18452Y-173860D01*
X18685Y-173393D01*
X19035Y-172993D01*
X19443Y-172727D01*
X19910Y-172660D01*
X20377Y-172727D01*
X20785Y-172993D01*
X21135Y-173393D01*
X21368Y-173860D01*
X21485Y-174393D01*
Y-174927D01*
X21368Y-175460D01*
X21135Y-175927D01*
X20785Y-176327D01*
X20377Y-176593D01*
X19910Y-176660D01*
G01X23427Y-172660D02*
Y-175527D01*
X23660Y-176127D01*
X24127Y-176527D01*
X24710Y-176660D01*
X25293Y-176527D01*
X25760Y-176127D01*
X25993Y-175527D01*
Y-172660D01*
G01X29510D02*
Y-176660D01*
G01X28168Y-172660D02*
X30852D01*
G01X39110D02*
Y-176660D01*
G01X37768Y-172660D02*
X40452D01*
G01X42685Y-176660D02*
Y-172660D01*
G01X45135D02*
Y-176660D01*
G01Y-174660D02*
X42685D01*
G01X49877Y-176660D02*
X47543D01*
Y-172660D01*
X49877D01*
G01X48943Y-174593D02*
X47543D01*
G01X59593Y-172993D02*
X59243Y-172793D01*
X58835Y-172660D01*
X58368D01*
X57843Y-172860D01*
X57435Y-173193D01*
X57143Y-173593D01*
X56910Y-174260D01*
X56852Y-174860D01*
X56968Y-175460D01*
X57143Y-175860D01*
X57493Y-176260D01*
X57902Y-176527D01*
X58310Y-176660D01*
X58718D01*
X59127Y-176527D01*
X59477Y-176327D01*
X59768Y-176060D01*
G01X63110Y-176660D02*
X62643Y-176593D01*
X62235Y-176327D01*
X61885Y-175927D01*
X61652Y-175460D01*
X61535Y-174927D01*
Y-174393D01*
X61652Y-173860D01*
X61885Y-173393D01*
X62235Y-172993D01*
X62643Y-172727D01*
X63110Y-172660D01*
X63577Y-172727D01*
X63985Y-172993D01*
X64335Y-173393D01*
X64568Y-173860D01*
X64685Y-174393D01*
Y-174927D01*
X64568Y-175460D01*
X64335Y-175927D01*
X63985Y-176327D01*
X63577Y-176593D01*
X63110Y-176660D01*
G01X66568D02*
Y-172660D01*
X69252Y-176660D01*
Y-172660D01*
G01X71485Y-176127D02*
X71952Y-176460D01*
X72477Y-176660D01*
X72943D01*
X73410Y-176460D01*
X73760Y-176127D01*
X73935Y-175660D01*
X73818Y-175193D01*
X73527Y-174793D01*
X73002Y-174527D01*
X72302Y-174393D01*
X71893Y-174127D01*
X71718Y-173660D01*
X71835Y-173193D01*
X72127Y-172860D01*
X72535Y-172660D01*
X72943D01*
X73352Y-172793D01*
X73702Y-173127D01*
G01X78677Y-176660D02*
X76343D01*
Y-172660D01*
X78677D01*
G01X77743Y-174593D02*
X76343D01*
G01X80968Y-176660D02*
Y-172660D01*
X83652Y-176660D01*
Y-172660D01*
G01X87110D02*
Y-176660D01*
G01X85768Y-172660D02*
X88452D01*
G01X96710Y-176660D02*
X96243Y-176593D01*
X95835Y-176327D01*
X95485Y-175927D01*
X95252Y-175460D01*
X95135Y-174927D01*
Y-174393D01*
X95252Y-173860D01*
X95485Y-173393D01*
X95835Y-172993D01*
X96243Y-172727D01*
X96710Y-172660D01*
X97177Y-172727D01*
X97585Y-172993D01*
X97935Y-173393D01*
X98168Y-173860D01*
X98285Y-174393D01*
Y-174927D01*
X98168Y-175460D01*
X97935Y-175927D01*
X97585Y-176327D01*
X97177Y-176593D01*
X96710Y-176660D01*
G01X100402D02*
Y-172660D01*
X102618D01*
G01X101802Y-174593D02*
X100402D01*
G01X-60315Y-195127D02*
X-59848Y-195460D01*
X-59323Y-195660D01*
X-58857D01*
X-58390Y-195460D01*
X-58040Y-195127D01*
X-57865Y-194660D01*
X-57982Y-194193D01*
X-58273Y-193793D01*
X-58798Y-193527D01*
X-59498Y-193393D01*
X-59907Y-193127D01*
X-60082Y-192660D01*
X-59965Y-192193D01*
X-59673Y-191860D01*
X-59265Y-191660D01*
X-58857D01*
X-58448Y-191793D01*
X-58098Y-192127D01*
G01X-55515Y-195660D02*
Y-191660D01*
G01X-53065D02*
Y-195660D01*
G01Y-193660D02*
X-55515D01*
G01X-48323Y-195660D02*
X-50657D01*
Y-191660D01*
X-48323D01*
G01X-49257Y-193593D02*
X-50657D01*
G01X-43523Y-195660D02*
X-45857D01*
Y-191660D01*
X-43523D01*
G01X-44457Y-193593D02*
X-45857D01*
G01X-39890Y-191660D02*
Y-195660D01*
G01X-41232Y-191660D02*
X-38548D01*
G01X-53257Y-168660D02*
Y-164660D01*
X-51857D01*
X-51390Y-164860D01*
X-51040Y-165327D01*
X-50923Y-165860D01*
X-51040Y-166393D01*
X-51332Y-166793D01*
X-51857Y-166993D01*
X-53257D01*
G01X-48457Y-168660D02*
Y-164660D01*
X-46998D01*
X-46532Y-164860D01*
X-46240Y-165127D01*
X-46123Y-165660D01*
X-46240Y-166193D01*
X-46590Y-166527D01*
X-46998Y-166727D01*
X-48457D01*
G01X-46998D02*
X-46123Y-168660D01*
G01X-42490D02*
X-42957Y-168593D01*
X-43365Y-168327D01*
X-43715Y-167927D01*
X-43948Y-167460D01*
X-44065Y-166927D01*
Y-166393D01*
X-43948Y-165860D01*
X-43715Y-165393D01*
X-43365Y-164993D01*
X-42957Y-164727D01*
X-42490Y-164660D01*
X-42023Y-164727D01*
X-41615Y-164993D01*
X-41265Y-165393D01*
X-41032Y-165860D01*
X-40915Y-166393D01*
Y-166927D01*
X-41032Y-167460D01*
X-41265Y-167927D01*
X-41615Y-168327D01*
X-42023Y-168593D01*
X-42490Y-168660D01*
G01X-36407Y-164993D02*
X-36757Y-164793D01*
X-37165Y-164660D01*
X-37632D01*
X-38157Y-164860D01*
X-38565Y-165193D01*
X-38857Y-165593D01*
X-39090Y-166260D01*
X-39148Y-166860D01*
X-39032Y-167460D01*
X-38857Y-167860D01*
X-38507Y-168260D01*
X-38098Y-168527D01*
X-37690Y-168660D01*
X-37282D01*
X-36873Y-168527D01*
X-36523Y-168327D01*
X-36232Y-168060D01*
G01X-34173Y-164660D02*
Y-167527D01*
X-33940Y-168127D01*
X-33473Y-168527D01*
X-32890Y-168660D01*
X-32307Y-168527D01*
X-31840Y-168127D01*
X-31607Y-167527D01*
Y-164660D01*
G01X-29257Y-168660D02*
Y-164660D01*
X-27798D01*
X-27332Y-164860D01*
X-27040Y-165127D01*
X-26923Y-165660D01*
X-27040Y-166193D01*
X-27390Y-166527D01*
X-27798Y-166727D01*
X-29257D01*
G01X-27798D02*
X-26923Y-168660D01*
G01X-22123D02*
X-24457D01*
Y-164660D01*
X-22123D01*
G01X-23057Y-166593D02*
X-24457D01*
G01X-20007Y-168660D02*
Y-164660D01*
X-18490Y-167993D01*
X-16973Y-164660D01*
Y-168660D01*
G01X-12523D02*
X-14857D01*
Y-164660D01*
X-12523D01*
G01X-13457Y-166593D02*
X-14857D01*
G01X-10232Y-168660D02*
Y-164660D01*
X-7548Y-168660D01*
Y-164660D01*
G01X-4090D02*
Y-168660D01*
G01X-5432Y-164660D02*
X-2748D01*
G01X5510Y-168660D02*
X5043Y-168593D01*
X4635Y-168327D01*
X4285Y-167927D01*
X4052Y-167460D01*
X3935Y-166927D01*
Y-166393D01*
X4052Y-165860D01*
X4285Y-165393D01*
X4635Y-164993D01*
X5043Y-164727D01*
X5510Y-164660D01*
X5977Y-164727D01*
X6385Y-164993D01*
X6735Y-165393D01*
X6968Y-165860D01*
X7085Y-166393D01*
Y-166927D01*
X6968Y-167460D01*
X6735Y-167927D01*
X6385Y-168327D01*
X5977Y-168593D01*
X5510Y-168660D01*
G01X9143D02*
Y-164660D01*
X10602D01*
X11068Y-164860D01*
X11360Y-165127D01*
X11477Y-165660D01*
X11360Y-166193D01*
X11010Y-166527D01*
X10602Y-166727D01*
X9143D01*
G01X10602D02*
X11477Y-168660D01*
G01X18393D02*
Y-164660D01*
X19910Y-167993D01*
X21427Y-164660D01*
Y-168660D01*
G01X23252D02*
X24710Y-164660D01*
X26168Y-168660D01*
G01X25643Y-167260D02*
X23777D01*
G01X28168Y-168660D02*
Y-164660D01*
X30852Y-168660D01*
Y-164660D01*
G01X33027D02*
Y-167527D01*
X33260Y-168127D01*
X33727Y-168527D01*
X34310Y-168660D01*
X34893Y-168527D01*
X35360Y-168127D01*
X35593Y-167527D01*
Y-164660D01*
G01X38002Y-168660D02*
Y-164660D01*
X40218D01*
G01X39402Y-166593D02*
X38002D01*
G01X42452Y-168660D02*
X43910Y-164660D01*
X45368Y-168660D01*
G01X44843Y-167260D02*
X42977D01*
G01X49993Y-164993D02*
X49643Y-164793D01*
X49235Y-164660D01*
X48768D01*
X48243Y-164860D01*
X47835Y-165193D01*
X47543Y-165593D01*
X47310Y-166260D01*
X47252Y-166860D01*
X47368Y-167460D01*
X47543Y-167860D01*
X47893Y-168260D01*
X48302Y-168527D01*
X48710Y-168660D01*
X49118D01*
X49527Y-168527D01*
X49877Y-168327D01*
X50168Y-168060D01*
G01X53510Y-164660D02*
Y-168660D01*
G01X52168Y-164660D02*
X54852D01*
G01X57027D02*
Y-167527D01*
X57260Y-168127D01*
X57727Y-168527D01*
X58310Y-168660D01*
X58893Y-168527D01*
X59360Y-168127D01*
X59593Y-167527D01*
Y-164660D01*
G01X61943Y-168660D02*
Y-164660D01*
X63402D01*
X63868Y-164860D01*
X64160Y-165127D01*
X64277Y-165660D01*
X64160Y-166193D01*
X63810Y-166527D01*
X63402Y-166727D01*
X61943D01*
G01X63402D02*
X64277Y-168660D01*
G01X69077D02*
X66743D01*
Y-164660D01*
X69077D01*
G01X68143Y-166593D02*
X66743D01*
G01X76810Y-164660D02*
X78210D01*
G01X77510D02*
Y-168660D01*
G01X76810D02*
X78210D01*
G01X80968D02*
Y-164660D01*
X83652Y-168660D01*
Y-164660D01*
G01X90160D02*
X90977Y-168660D01*
X91910Y-164660D01*
X92843Y-168660D01*
X93660Y-164660D01*
G01X95485Y-168660D02*
Y-164660D01*
G01X97935D02*
Y-168660D01*
G01Y-166660D02*
X95485D01*
G01X101510Y-168660D02*
X101043Y-168593D01*
X100635Y-168327D01*
X100285Y-167927D01*
X100052Y-167460D01*
X99935Y-166927D01*
Y-166393D01*
X100052Y-165860D01*
X100285Y-165393D01*
X100635Y-164993D01*
X101043Y-164727D01*
X101510Y-164660D01*
X101977Y-164727D01*
X102385Y-164993D01*
X102735Y-165393D01*
X102968Y-165860D01*
X103085Y-166393D01*
Y-166927D01*
X102968Y-167460D01*
X102735Y-167927D01*
X102385Y-168327D01*
X101977Y-168593D01*
X101510Y-168660D01*
G01X105143Y-164660D02*
Y-168660D01*
X107477D01*
G01X112277D02*
X109943D01*
Y-164660D01*
X112277D01*
G01X111343Y-166593D02*
X109943D01*
G01X-53432Y-160660D02*
Y-156660D01*
X-50748Y-160660D01*
Y-156660D01*
G01X-47290Y-160660D02*
X-47757Y-160593D01*
X-48165Y-160327D01*
X-48515Y-159927D01*
X-48748Y-159460D01*
X-48865Y-158927D01*
Y-158393D01*
X-48748Y-157860D01*
X-48515Y-157393D01*
X-48165Y-156993D01*
X-47757Y-156727D01*
X-47290Y-156660D01*
X-46823Y-156727D01*
X-46415Y-156993D01*
X-46065Y-157393D01*
X-45832Y-157860D01*
X-45715Y-158393D01*
Y-158927D01*
X-45832Y-159460D01*
X-46065Y-159927D01*
X-46415Y-160327D01*
X-46823Y-160593D01*
X-47290Y-160660D01*
G01X-42490Y-156660D02*
Y-160660D01*
G01X-43832Y-156660D02*
X-41148D01*
G01X-32423Y-158527D02*
X-32190Y-158327D01*
X-32015Y-157993D01*
X-31898Y-157527D01*
X-32015Y-157127D01*
X-32248Y-156860D01*
X-32657Y-156660D01*
X-34232D01*
Y-160660D01*
X-32307D01*
X-31898Y-160393D01*
X-31665Y-159993D01*
X-31548Y-159527D01*
X-31665Y-159060D01*
X-32015Y-158660D01*
X-32423Y-158527D01*
X-34232D01*
G01X-26923Y-160660D02*
X-29257D01*
Y-156660D01*
X-26923D01*
G01X-27857Y-158593D02*
X-29257D01*
G01X-19773Y-156660D02*
Y-159527D01*
X-19540Y-160127D01*
X-19073Y-160527D01*
X-18490Y-160660D01*
X-17907Y-160527D01*
X-17440Y-160127D01*
X-17207Y-159527D01*
Y-156660D01*
G01X-14915Y-160127D02*
X-14448Y-160460D01*
X-13923Y-160660D01*
X-13457D01*
X-12990Y-160460D01*
X-12640Y-160127D01*
X-12465Y-159660D01*
X-12582Y-159193D01*
X-12873Y-158793D01*
X-13398Y-158527D01*
X-14098Y-158393D01*
X-14507Y-158127D01*
X-14682Y-157660D01*
X-14565Y-157193D01*
X-14273Y-156860D01*
X-13865Y-156660D01*
X-13457D01*
X-13048Y-156793D01*
X-12698Y-157127D01*
G01X-7723Y-160660D02*
X-10057D01*
Y-156660D01*
X-7723D01*
G01X-8657Y-158593D02*
X-10057D01*
G01X-5373Y-160660D02*
Y-156660D01*
X-4207D01*
X-3740Y-156860D01*
X-3390Y-157127D01*
X-3098Y-157527D01*
X-2865Y-157993D01*
X-2807Y-158660D01*
X-2865Y-159327D01*
X-3098Y-159793D01*
X-3390Y-160193D01*
X-3740Y-160460D01*
X-4207Y-160660D01*
X-5373D01*
G01X4402D02*
Y-156660D01*
X6618D01*
G01X5802Y-158593D02*
X4402D01*
G01X10310Y-160660D02*
X9843Y-160593D01*
X9435Y-160327D01*
X9085Y-159927D01*
X8852Y-159460D01*
X8735Y-158927D01*
Y-158393D01*
X8852Y-157860D01*
X9085Y-157393D01*
X9435Y-156993D01*
X9843Y-156727D01*
X10310Y-156660D01*
X10777Y-156727D01*
X11185Y-156993D01*
X11535Y-157393D01*
X11768Y-157860D01*
X11885Y-158393D01*
Y-158927D01*
X11768Y-159460D01*
X11535Y-159927D01*
X11185Y-160327D01*
X10777Y-160593D01*
X10310Y-160660D01*
G01X13943D02*
Y-156660D01*
X15402D01*
X15868Y-156860D01*
X16160Y-157127D01*
X16277Y-157660D01*
X16160Y-158193D01*
X15810Y-158527D01*
X15402Y-158727D01*
X13943D01*
G01X15402D02*
X16277Y-160660D01*
G01X25877D02*
X23543D01*
Y-156660D01*
X25877D01*
G01X24943Y-158593D02*
X23543D01*
G01X28168Y-160660D02*
Y-156660D01*
X30852Y-160660D01*
Y-156660D01*
G01X34660Y-158660D02*
X35827D01*
Y-159860D01*
X35477Y-160260D01*
X35068Y-160527D01*
X34485Y-160660D01*
X33902Y-160527D01*
X33493Y-160260D01*
X33143Y-159860D01*
X32910Y-159393D01*
X32793Y-158860D01*
Y-158393D01*
X32910Y-157993D01*
X33143Y-157527D01*
X33493Y-157127D01*
X33843Y-156860D01*
X34310Y-156660D01*
X34718D01*
X35185Y-156793D01*
X35535Y-157060D01*
G01X38410Y-156660D02*
X39810D01*
G01X39110D02*
Y-160660D01*
G01X38410D02*
X39810D01*
G01X42568D02*
Y-156660D01*
X45252Y-160660D01*
Y-156660D01*
G01X49877Y-160660D02*
X47543D01*
Y-156660D01*
X49877D01*
G01X48943Y-158593D02*
X47543D01*
G01X54677Y-160660D02*
X52343D01*
Y-156660D01*
X54677D01*
G01X53743Y-158593D02*
X52343D01*
G01X57143Y-160660D02*
Y-156660D01*
X58602D01*
X59068Y-156860D01*
X59360Y-157127D01*
X59477Y-157660D01*
X59360Y-158193D01*
X59010Y-158527D01*
X58602Y-158727D01*
X57143D01*
G01X58602D02*
X59477Y-160660D01*
G01X62410Y-156660D02*
X63810D01*
G01X63110D02*
Y-160660D01*
G01X62410D02*
X63810D01*
G01X66568D02*
Y-156660D01*
X69252Y-160660D01*
Y-156660D01*
G01X73060Y-158660D02*
X74227D01*
Y-159860D01*
X73877Y-160260D01*
X73468Y-160527D01*
X72885Y-160660D01*
X72302Y-160527D01*
X71893Y-160260D01*
X71543Y-159860D01*
X71310Y-159393D01*
X71193Y-158860D01*
Y-158393D01*
X71310Y-157993D01*
X71543Y-157527D01*
X71893Y-157127D01*
X72243Y-156860D01*
X72710Y-156660D01*
X73118D01*
X73585Y-156793D01*
X73935Y-157060D01*
G01X81027Y-160660D02*
Y-156660D01*
X82193D01*
X82660Y-156860D01*
X83010Y-157127D01*
X83302Y-157527D01*
X83535Y-157993D01*
X83593Y-158660D01*
X83535Y-159327D01*
X83302Y-159793D01*
X83010Y-160193D01*
X82660Y-160460D01*
X82193Y-160660D01*
X81027D01*
G01X88277D02*
X85943D01*
Y-156660D01*
X88277D01*
G01X87343Y-158593D02*
X85943D01*
G01X90685Y-160127D02*
X91152Y-160460D01*
X91677Y-160660D01*
X92143D01*
X92610Y-160460D01*
X92960Y-160127D01*
X93135Y-159660D01*
X93018Y-159193D01*
X92727Y-158793D01*
X92202Y-158527D01*
X91502Y-158393D01*
X91093Y-158127D01*
X90918Y-157660D01*
X91035Y-157193D01*
X91327Y-156860D01*
X91735Y-156660D01*
X92143D01*
X92552Y-156793D01*
X92902Y-157127D01*
G01X96010Y-156660D02*
X97410D01*
G01X96710D02*
Y-160660D01*
G01X96010D02*
X97410D01*
G01X101860Y-158660D02*
X103027D01*
Y-159860D01*
X102677Y-160260D01*
X102268Y-160527D01*
X101685Y-160660D01*
X101102Y-160527D01*
X100693Y-160260D01*
X100343Y-159860D01*
X100110Y-159393D01*
X99993Y-158860D01*
Y-158393D01*
X100110Y-157993D01*
X100343Y-157527D01*
X100693Y-157127D01*
X101043Y-156860D01*
X101510Y-156660D01*
X101918D01*
X102385Y-156793D01*
X102735Y-157060D01*
G01X104968Y-160660D02*
Y-156660D01*
X107652Y-160660D01*
Y-156660D01*
G01X-53257Y-152660D02*
Y-148660D01*
X-51857D01*
X-51390Y-148860D01*
X-51040Y-149327D01*
X-50923Y-149860D01*
X-51040Y-150393D01*
X-51332Y-150793D01*
X-51857Y-150993D01*
X-53257D01*
G01X-48457Y-152660D02*
Y-148660D01*
X-46998D01*
X-46532Y-148860D01*
X-46240Y-149127D01*
X-46123Y-149660D01*
X-46240Y-150193D01*
X-46590Y-150527D01*
X-46998Y-150727D01*
X-48457D01*
G01X-46998D02*
X-46123Y-152660D01*
G01X-42490D02*
X-42957Y-152593D01*
X-43365Y-152327D01*
X-43715Y-151927D01*
X-43948Y-151460D01*
X-44065Y-150927D01*
Y-150393D01*
X-43948Y-149860D01*
X-43715Y-149393D01*
X-43365Y-148993D01*
X-42957Y-148727D01*
X-42490Y-148660D01*
X-42023Y-148727D01*
X-41615Y-148993D01*
X-41265Y-149393D01*
X-41032Y-149860D01*
X-40915Y-150393D01*
Y-150927D01*
X-41032Y-151460D01*
X-41265Y-151927D01*
X-41615Y-152327D01*
X-42023Y-152593D01*
X-42490Y-152660D01*
G01X-38857D02*
Y-148660D01*
X-37457D01*
X-36990Y-148860D01*
X-36640Y-149327D01*
X-36523Y-149860D01*
X-36640Y-150393D01*
X-36932Y-150793D01*
X-37457Y-150993D01*
X-38857D01*
G01X-34057Y-152660D02*
Y-148660D01*
X-32598D01*
X-32132Y-148860D01*
X-31840Y-149127D01*
X-31723Y-149660D01*
X-31840Y-150193D01*
X-32190Y-150527D01*
X-32598Y-150727D01*
X-34057D01*
G01X-32598D02*
X-31723Y-152660D01*
G01X-28790Y-148660D02*
X-27390D01*
G01X-28090D02*
Y-152660D01*
G01X-28790D02*
X-27390D01*
G01X-22123D02*
X-24457D01*
Y-148660D01*
X-22123D01*
G01X-23057Y-150593D02*
X-24457D01*
G01X-18490Y-148660D02*
Y-152660D01*
G01X-19832Y-148660D02*
X-17148D01*
G01X-15148Y-152660D02*
X-13690Y-148660D01*
X-12232Y-152660D01*
G01X-12757Y-151260D02*
X-14623D01*
G01X-10057Y-152660D02*
Y-148660D01*
X-8598D01*
X-8132Y-148860D01*
X-7840Y-149127D01*
X-7723Y-149660D01*
X-7840Y-150193D01*
X-8190Y-150527D01*
X-8598Y-150727D01*
X-10057D01*
G01X-8598D02*
X-7723Y-152660D01*
G01X-4090D02*
Y-150860D01*
X-5257Y-148660D01*
G01X-2923D02*
X-4090Y-150860D01*
G01X5510Y-148660D02*
Y-152660D01*
G01X4168Y-148660D02*
X6852D01*
G01X10310Y-152660D02*
X9843Y-152593D01*
X9435Y-152327D01*
X9085Y-151927D01*
X8852Y-151460D01*
X8735Y-150927D01*
Y-150393D01*
X8852Y-149860D01*
X9085Y-149393D01*
X9435Y-148993D01*
X9843Y-148727D01*
X10310Y-148660D01*
X10777Y-148727D01*
X11185Y-148993D01*
X11535Y-149393D01*
X11768Y-149860D01*
X11885Y-150393D01*
Y-150927D01*
X11768Y-151460D01*
X11535Y-151927D01*
X11185Y-152327D01*
X10777Y-152593D01*
X10310Y-152660D01*
G01X18802D02*
Y-148660D01*
X21018D01*
G01X20202Y-150593D02*
X18802D01*
G01X23543Y-152660D02*
Y-148660D01*
X25002D01*
X25468Y-148860D01*
X25760Y-149127D01*
X25877Y-149660D01*
X25760Y-150193D01*
X25410Y-150527D01*
X25002Y-150727D01*
X23543D01*
G01X25002D02*
X25877Y-152660D01*
G01X30677D02*
X28343D01*
Y-148660D01*
X30677D01*
G01X29743Y-150593D02*
X28343D01*
G01X35477Y-152660D02*
X33143D01*
Y-148660D01*
X35477D01*
G01X34543Y-150593D02*
X33143D01*
G01X37885Y-152127D02*
X38352Y-152460D01*
X38877Y-152660D01*
X39343D01*
X39810Y-152460D01*
X40160Y-152127D01*
X40335Y-151660D01*
X40218Y-151193D01*
X39927Y-150793D01*
X39402Y-150527D01*
X38702Y-150393D01*
X38293Y-150127D01*
X38118Y-149660D01*
X38235Y-149193D01*
X38527Y-148860D01*
X38935Y-148660D01*
X39343D01*
X39752Y-148793D01*
X40102Y-149127D01*
G01X45193Y-148993D02*
X44843Y-148793D01*
X44435Y-148660D01*
X43968D01*
X43443Y-148860D01*
X43035Y-149193D01*
X42743Y-149593D01*
X42510Y-150260D01*
X42452Y-150860D01*
X42568Y-151460D01*
X42743Y-151860D01*
X43093Y-152260D01*
X43502Y-152527D01*
X43910Y-152660D01*
X44318D01*
X44727Y-152527D01*
X45077Y-152327D01*
X45368Y-152060D01*
G01X47252Y-152660D02*
X48710Y-148660D01*
X50168Y-152660D01*
G01X49643Y-151260D02*
X47777D01*
G01X52343Y-148660D02*
Y-152660D01*
X54677D01*
G01X59477D02*
X57143D01*
Y-148660D01*
X59477D01*
G01X58543Y-150593D02*
X57143D01*
G01X66452Y-152660D02*
X67910Y-148660D01*
X69368Y-152660D01*
G01X68843Y-151260D02*
X66977D01*
G01X71368Y-152660D02*
Y-148660D01*
X74052Y-152660D01*
Y-148660D01*
G01X76227Y-152660D02*
Y-148660D01*
X77393D01*
X77860Y-148860D01*
X78210Y-149127D01*
X78502Y-149527D01*
X78735Y-149993D01*
X78793Y-150660D01*
X78735Y-151327D01*
X78502Y-151793D01*
X78210Y-152193D01*
X77860Y-152460D01*
X77393Y-152660D01*
X76227D01*
G01X85885Y-152127D02*
X86352Y-152460D01*
X86877Y-152660D01*
X87343D01*
X87810Y-152460D01*
X88160Y-152127D01*
X88335Y-151660D01*
X88218Y-151193D01*
X87927Y-150793D01*
X87402Y-150527D01*
X86702Y-150393D01*
X86293Y-150127D01*
X86118Y-149660D01*
X86235Y-149193D01*
X86527Y-148860D01*
X86935Y-148660D01*
X87343D01*
X87752Y-148793D01*
X88102Y-149127D01*
G01X90685Y-152660D02*
Y-148660D01*
G01X93135D02*
Y-152660D01*
G01Y-150660D02*
X90685D01*
G01X95252Y-152660D02*
X96710Y-148660D01*
X98168Y-152660D01*
G01X97643Y-151260D02*
X95777D01*
G01X100343Y-148660D02*
Y-152660D01*
X102677D01*
G01X105143Y-148660D02*
Y-152660D01*
X107477D01*
G01X-53090Y-140660D02*
Y-144660D01*
G01X-54432Y-140660D02*
X-51748D01*
G01X-49515Y-144660D02*
Y-140660D01*
G01X-47065D02*
Y-144660D01*
G01Y-142660D02*
X-49515D01*
G01X-44190Y-140660D02*
X-42790D01*
G01X-43490D02*
Y-144660D01*
G01X-44190D02*
X-42790D01*
G01X-39915Y-144127D02*
X-39448Y-144460D01*
X-38923Y-144660D01*
X-38457D01*
X-37990Y-144460D01*
X-37640Y-144127D01*
X-37465Y-143660D01*
X-37582Y-143193D01*
X-37873Y-142793D01*
X-38398Y-142527D01*
X-39098Y-142393D01*
X-39507Y-142127D01*
X-39682Y-141660D01*
X-39565Y-141193D01*
X-39273Y-140860D01*
X-38865Y-140660D01*
X-38457D01*
X-38048Y-140793D01*
X-37698Y-141127D01*
G01X-30373Y-144660D02*
Y-140660D01*
X-29207D01*
X-28740Y-140860D01*
X-28390Y-141127D01*
X-28098Y-141527D01*
X-27865Y-141993D01*
X-27807Y-142660D01*
X-27865Y-143327D01*
X-28098Y-143793D01*
X-28390Y-144193D01*
X-28740Y-144460D01*
X-29207Y-144660D01*
X-30373D01*
G01X-24290D02*
X-24757Y-144593D01*
X-25165Y-144327D01*
X-25515Y-143927D01*
X-25748Y-143460D01*
X-25865Y-142927D01*
Y-142393D01*
X-25748Y-141860D01*
X-25515Y-141393D01*
X-25165Y-140993D01*
X-24757Y-140727D01*
X-24290Y-140660D01*
X-23823Y-140727D01*
X-23415Y-140993D01*
X-23065Y-141393D01*
X-22832Y-141860D01*
X-22715Y-142393D01*
Y-142927D01*
X-22832Y-143460D01*
X-23065Y-143927D01*
X-23415Y-144327D01*
X-23823Y-144593D01*
X-24290Y-144660D01*
G01X-18207Y-140993D02*
X-18557Y-140793D01*
X-18965Y-140660D01*
X-19432D01*
X-19957Y-140860D01*
X-20365Y-141193D01*
X-20657Y-141593D01*
X-20890Y-142260D01*
X-20948Y-142860D01*
X-20832Y-143460D01*
X-20657Y-143860D01*
X-20307Y-144260D01*
X-19898Y-144527D01*
X-19490Y-144660D01*
X-19082D01*
X-18673Y-144527D01*
X-18323Y-144327D01*
X-18032Y-144060D01*
G01X-15973Y-140660D02*
Y-143527D01*
X-15740Y-144127D01*
X-15273Y-144527D01*
X-14690Y-144660D01*
X-14107Y-144527D01*
X-13640Y-144127D01*
X-13407Y-143527D01*
Y-140660D01*
G01X-11407Y-144660D02*
Y-140660D01*
X-9890Y-143993D01*
X-8373Y-140660D01*
Y-144660D01*
G01X-3923D02*
X-6257D01*
Y-140660D01*
X-3923D01*
G01X-4857Y-142593D02*
X-6257D01*
G01X-1632Y-144660D02*
Y-140660D01*
X1052Y-144660D01*
Y-140660D01*
G01X4510D02*
Y-144660D01*
G01X3168Y-140660D02*
X5852D01*
G01X15393Y-140993D02*
X15043Y-140793D01*
X14635Y-140660D01*
X14168D01*
X13643Y-140860D01*
X13235Y-141193D01*
X12943Y-141593D01*
X12710Y-142260D01*
X12652Y-142860D01*
X12768Y-143460D01*
X12943Y-143860D01*
X13293Y-144260D01*
X13702Y-144527D01*
X14110Y-144660D01*
X14518D01*
X14927Y-144527D01*
X15277Y-144327D01*
X15568Y-144060D01*
G01X18910Y-144660D02*
X18443Y-144593D01*
X18035Y-144327D01*
X17685Y-143927D01*
X17452Y-143460D01*
X17335Y-142927D01*
Y-142393D01*
X17452Y-141860D01*
X17685Y-141393D01*
X18035Y-140993D01*
X18443Y-140727D01*
X18910Y-140660D01*
X19377Y-140727D01*
X19785Y-140993D01*
X20135Y-141393D01*
X20368Y-141860D01*
X20485Y-142393D01*
Y-142927D01*
X20368Y-143460D01*
X20135Y-143927D01*
X19785Y-144327D01*
X19377Y-144593D01*
X18910Y-144660D01*
G01X22368D02*
Y-140660D01*
X25052Y-144660D01*
Y-140660D01*
G01X28510D02*
Y-144660D01*
G01X27168Y-140660D02*
X29852D01*
G01X31852Y-144660D02*
X33310Y-140660D01*
X34768Y-144660D01*
G01X34243Y-143260D02*
X32377D01*
G01X37410Y-140660D02*
X38810D01*
G01X38110D02*
Y-144660D01*
G01X37410D02*
X38810D01*
G01X41568D02*
Y-140660D01*
X44252Y-144660D01*
Y-140660D01*
G01X46485Y-144127D02*
X46952Y-144460D01*
X47477Y-144660D01*
X47943D01*
X48410Y-144460D01*
X48760Y-144127D01*
X48935Y-143660D01*
X48818Y-143193D01*
X48527Y-142793D01*
X48002Y-142527D01*
X47302Y-142393D01*
X46893Y-142127D01*
X46718Y-141660D01*
X46835Y-141193D01*
X47127Y-140860D01*
X47535Y-140660D01*
X47943D01*
X48352Y-140793D01*
X48702Y-141127D01*
G01X56610Y-140660D02*
X58010D01*
G01X57310D02*
Y-144660D01*
G01X56610D02*
X58010D01*
G01X60768D02*
Y-140660D01*
X63452Y-144660D01*
Y-140660D01*
G01X65802Y-144660D02*
Y-140660D01*
X68018D01*
G01X67202Y-142593D02*
X65802D01*
G01X71710Y-144660D02*
X71243Y-144593D01*
X70835Y-144327D01*
X70485Y-143927D01*
X70252Y-143460D01*
X70135Y-142927D01*
Y-142393D01*
X70252Y-141860D01*
X70485Y-141393D01*
X70835Y-140993D01*
X71243Y-140727D01*
X71710Y-140660D01*
X72177Y-140727D01*
X72585Y-140993D01*
X72935Y-141393D01*
X73168Y-141860D01*
X73285Y-142393D01*
Y-142927D01*
X73168Y-143460D01*
X72935Y-143927D01*
X72585Y-144327D01*
X72177Y-144593D01*
X71710Y-144660D01*
G01X75343D02*
Y-140660D01*
X76802D01*
X77268Y-140860D01*
X77560Y-141127D01*
X77677Y-141660D01*
X77560Y-142193D01*
X77210Y-142527D01*
X76802Y-142727D01*
X75343D01*
G01X76802D02*
X77677Y-144660D01*
G01X79793D02*
Y-140660D01*
X81310Y-143993D01*
X82827Y-140660D01*
Y-144660D01*
G01X84652D02*
X86110Y-140660D01*
X87568Y-144660D01*
G01X87043Y-143260D02*
X85177D01*
G01X90910Y-140660D02*
Y-144660D01*
G01X89568Y-140660D02*
X92252D01*
G01X95010D02*
X96410D01*
G01X95710D02*
Y-144660D01*
G01X95010D02*
X96410D01*
G01X100510D02*
X100043Y-144593D01*
X99635Y-144327D01*
X99285Y-143927D01*
X99052Y-143460D01*
X98935Y-142927D01*
Y-142393D01*
X99052Y-141860D01*
X99285Y-141393D01*
X99635Y-140993D01*
X100043Y-140727D01*
X100510Y-140660D01*
X100977Y-140727D01*
X101385Y-140993D01*
X101735Y-141393D01*
X101968Y-141860D01*
X102085Y-142393D01*
Y-142927D01*
X101968Y-143460D01*
X101735Y-143927D01*
X101385Y-144327D01*
X100977Y-144593D01*
X100510Y-144660D01*
G01X103968D02*
Y-140660D01*
X106652Y-144660D01*
Y-140660D01*
G01X-60548Y-134660D02*
X-59090Y-130660D01*
X-57632Y-134660D01*
G01X-58157Y-133260D02*
X-60023D01*
G01X-55573Y-130660D02*
Y-133527D01*
X-55340Y-134127D01*
X-54873Y-134527D01*
X-54290Y-134660D01*
X-53707Y-134527D01*
X-53240Y-134127D01*
X-53007Y-133527D01*
Y-130660D01*
G01X-50715Y-134127D02*
X-50248Y-134460D01*
X-49723Y-134660D01*
X-49257D01*
X-48790Y-134460D01*
X-48440Y-134127D01*
X-48265Y-133660D01*
X-48382Y-133193D01*
X-48673Y-132793D01*
X-49198Y-132527D01*
X-49898Y-132393D01*
X-50307Y-132127D01*
X-50482Y-131660D01*
X-50365Y-131193D01*
X-50073Y-130860D01*
X-49665Y-130660D01*
X-49257D01*
X-48848Y-130793D01*
X-48498Y-131127D01*
G01X-44690Y-130660D02*
Y-134660D01*
G01X-46032Y-130660D02*
X-43348D01*
G01X-40590D02*
X-39190D01*
G01X-39890D02*
Y-134660D01*
G01X-40590D02*
X-39190D01*
G01X-36432D02*
Y-130660D01*
X-33748Y-134660D01*
Y-130660D01*
G01X-30290Y-134793D02*
X-30407Y-134727D01*
Y-134593D01*
X-30290Y-134527D01*
X-30173Y-134593D01*
Y-134727D01*
X-30290Y-134793D01*
G01X-20690Y-130660D02*
Y-134660D01*
G01X-22032Y-130660D02*
X-19348D01*
G01X-14723Y-134660D02*
X-17057D01*
Y-130660D01*
X-14723D01*
G01X-15657Y-132593D02*
X-17057D01*
G01X-12315Y-134660D02*
X-9865Y-130660D01*
G01X-12315D02*
X-9865Y-134660D01*
G01X-7748D02*
X-6290Y-130660D01*
X-4832Y-134660D01*
G01X-5357Y-133260D02*
X-7223D01*
G01X-2715Y-134127D02*
X-2248Y-134460D01*
X-1723Y-134660D01*
X-1257D01*
X-790Y-134460D01*
X-440Y-134127D01*
X-265Y-133660D01*
X-382Y-133193D01*
X-673Y-132793D01*
X-1198Y-132527D01*
X-1898Y-132393D01*
X-2307Y-132127D01*
X-2482Y-131660D01*
X-2365Y-131193D01*
X-2073Y-130860D01*
X-1665Y-130660D01*
X-1257D01*
X-848Y-130793D01*
X-498Y-131127D01*
G01X7993Y-134660D02*
X8110Y-133793D01*
X8285Y-133060D01*
X8518Y-132393D01*
X8810Y-131660D01*
X9277Y-130660D01*
X6943D01*
G01X12910Y-134660D02*
X13318Y-134593D01*
X13785Y-134393D01*
X14077Y-134060D01*
X14193Y-133593D01*
X14077Y-133127D01*
X13727Y-132727D01*
X13202Y-132527D01*
X12618D01*
X12268Y-132393D01*
X11977Y-132060D01*
X11860Y-131593D01*
X12035Y-131127D01*
X12443Y-130793D01*
X12910Y-130660D01*
X13377Y-130793D01*
X13785Y-131127D01*
X13960Y-131593D01*
X13843Y-132060D01*
X13552Y-132393D01*
X13202Y-132527D01*
X12618D01*
X12093Y-132727D01*
X11743Y-133127D01*
X11627Y-133593D01*
X11743Y-134060D01*
X12035Y-134393D01*
X12502Y-134593D01*
X12910Y-134660D01*
G01X17593D02*
X17710Y-133793D01*
X17885Y-133060D01*
X18118Y-132393D01*
X18410Y-131660D01*
X18877Y-130660D01*
X16543D01*
G01X21227Y-133860D02*
X21577Y-134327D01*
X22043Y-134593D01*
X22568Y-134660D01*
X23035Y-134593D01*
X23502Y-134260D01*
X23793Y-133860D01*
X23852Y-133460D01*
X23735Y-132993D01*
X23327Y-132660D01*
X22918Y-132527D01*
X22393D01*
G01X22918D02*
X23268Y-132327D01*
X23560Y-131993D01*
X23677Y-131593D01*
X23560Y-131193D01*
X23268Y-130860D01*
X22743Y-130660D01*
X22218Y-130727D01*
X21693Y-130993D01*
G01X26027Y-134060D02*
X26377Y-134393D01*
X26785Y-134593D01*
X27310Y-134660D01*
X27835Y-134527D01*
X28243Y-134260D01*
X28535Y-133793D01*
X28593Y-133260D01*
X28477Y-132727D01*
X28185Y-132393D01*
X27777Y-132127D01*
X27368Y-132060D01*
X26960Y-132127D01*
X26435Y-132393D01*
X26610Y-130660D01*
X28185D01*
G01X35627D02*
Y-133527D01*
X35860Y-134127D01*
X36327Y-134527D01*
X36910Y-134660D01*
X37493Y-134527D01*
X37960Y-134127D01*
X38193Y-133527D01*
Y-130660D01*
G01X40485Y-134127D02*
X40952Y-134460D01*
X41477Y-134660D01*
X41943D01*
X42410Y-134460D01*
X42760Y-134127D01*
X42935Y-133660D01*
X42818Y-133193D01*
X42527Y-132793D01*
X42002Y-132527D01*
X41302Y-132393D01*
X40893Y-132127D01*
X40718Y-131660D01*
X40835Y-131193D01*
X41127Y-130860D01*
X41535Y-130660D01*
X41943D01*
X42352Y-130793D01*
X42702Y-131127D01*
G01X45052Y-134660D02*
X46510Y-130660D01*
X47968Y-134660D01*
G01X47443Y-133260D02*
X45577D01*
G01X-60198Y-125993D02*
X-59790Y-125527D01*
X-59440Y-125260D01*
X-58973Y-125127D01*
X-58565Y-125260D01*
X-58273Y-125527D01*
X-58040Y-125927D01*
X-57982Y-126393D01*
X-58040Y-126793D01*
X-58273Y-127193D01*
X-58623Y-127527D01*
X-59032Y-127660D01*
X-59498Y-127527D01*
X-59907Y-127127D01*
X-60140Y-126527D01*
X-60198Y-125860D01*
X-60082Y-124993D01*
X-59907Y-124527D01*
X-59615Y-124060D01*
X-59207Y-123727D01*
X-58798Y-123660D01*
X-58390Y-123793D01*
X-58098Y-124127D01*
G01X-55573Y-127060D02*
X-55223Y-127393D01*
X-54815Y-127593D01*
X-54290Y-127660D01*
X-53765Y-127527D01*
X-53357Y-127260D01*
X-53065Y-126793D01*
X-53007Y-126260D01*
X-53123Y-125727D01*
X-53415Y-125393D01*
X-53823Y-125127D01*
X-54232Y-125060D01*
X-54640Y-125127D01*
X-55165Y-125393D01*
X-54990Y-123660D01*
X-53415D01*
G01X-49490D02*
X-49957Y-123793D01*
X-50307Y-124127D01*
X-50540Y-124527D01*
X-50715Y-125060D01*
X-50773Y-125660D01*
X-50715Y-126260D01*
X-50540Y-126793D01*
X-50307Y-127193D01*
X-49957Y-127527D01*
X-49490Y-127660D01*
X-49023Y-127527D01*
X-48673Y-127193D01*
X-48440Y-126793D01*
X-48265Y-126260D01*
X-48207Y-125660D01*
X-48265Y-125060D01*
X-48440Y-124527D01*
X-48673Y-124127D01*
X-49023Y-123793D01*
X-49490Y-123660D01*
G01X-44690Y-127660D02*
Y-123660D01*
X-45390Y-124460D01*
G01Y-127660D02*
X-43990D01*
G01X-36840Y-123660D02*
X-36023Y-127660D01*
X-35090Y-123660D01*
X-34157Y-127660D01*
X-33340Y-123660D01*
G01X-30990D02*
X-29590D01*
G01X-30290D02*
Y-127660D01*
G01X-30990D02*
X-29590D01*
G01X-26657Y-123660D02*
Y-127660D01*
X-24323D01*
G01X-21857Y-123660D02*
Y-127660D01*
X-19523D01*
G01X-16590Y-123660D02*
X-15190D01*
G01X-15890D02*
Y-127660D01*
G01X-16590D02*
X-15190D01*
G01X-12548D02*
X-11090Y-123660D01*
X-9632Y-127660D01*
G01X-10157Y-126260D02*
X-12023D01*
G01X-7807Y-127660D02*
Y-123660D01*
X-6290Y-126993D01*
X-4773Y-123660D01*
Y-127660D01*
G01X4593Y-123993D02*
X4243Y-123793D01*
X3835Y-123660D01*
X3368D01*
X2843Y-123860D01*
X2435Y-124193D01*
X2143Y-124593D01*
X1910Y-125260D01*
X1852Y-125860D01*
X1968Y-126460D01*
X2143Y-126860D01*
X2493Y-127260D01*
X2902Y-127527D01*
X3310Y-127660D01*
X3718D01*
X4127Y-127527D01*
X4477Y-127327D01*
X4768Y-127060D01*
G01X6652Y-127660D02*
X8110Y-123660D01*
X9568Y-127660D01*
G01X9043Y-126260D02*
X7177D01*
G01X11568Y-127660D02*
Y-123660D01*
X14252Y-127660D01*
Y-123660D01*
G01X16368Y-127660D02*
Y-123660D01*
X19052Y-127660D01*
Y-123660D01*
G01X22510Y-127660D02*
X22043Y-127593D01*
X21635Y-127327D01*
X21285Y-126927D01*
X21052Y-126460D01*
X20935Y-125927D01*
Y-125393D01*
X21052Y-124860D01*
X21285Y-124393D01*
X21635Y-123993D01*
X22043Y-123727D01*
X22510Y-123660D01*
X22977Y-123727D01*
X23385Y-123993D01*
X23735Y-124393D01*
X23968Y-124860D01*
X24085Y-125393D01*
Y-125927D01*
X23968Y-126460D01*
X23735Y-126927D01*
X23385Y-127327D01*
X22977Y-127593D01*
X22510Y-127660D01*
G01X25968D02*
Y-123660D01*
X28652Y-127660D01*
Y-123660D01*
G01X35627Y-127660D02*
Y-123660D01*
X36793D01*
X37260Y-123860D01*
X37610Y-124127D01*
X37902Y-124527D01*
X38135Y-124993D01*
X38193Y-125660D01*
X38135Y-126327D01*
X37902Y-126793D01*
X37610Y-127193D01*
X37260Y-127460D01*
X36793Y-127660D01*
X35627D01*
G01X40543D02*
Y-123660D01*
X42002D01*
X42468Y-123860D01*
X42760Y-124127D01*
X42877Y-124660D01*
X42760Y-125193D01*
X42410Y-125527D01*
X42002Y-125727D01*
X40543D01*
G01X42002D02*
X42877Y-127660D01*
G01X45810Y-123660D02*
X47210D01*
G01X46510D02*
Y-127660D01*
G01X45810D02*
X47210D01*
G01X49852Y-123660D02*
X51310Y-127660D01*
X52768Y-123660D01*
G01X57277Y-127660D02*
X54943D01*
Y-123660D01*
X57277D01*
G01X56343Y-125593D02*
X54943D01*
G01X63960Y-123660D02*
X64777Y-127660D01*
X65710Y-123660D01*
X66643Y-127660D01*
X67460Y-123660D01*
G01X71677Y-127660D02*
X69343D01*
Y-123660D01*
X71677D01*
G01X70743Y-125593D02*
X69343D01*
G01X74085Y-127127D02*
X74552Y-127460D01*
X75077Y-127660D01*
X75543D01*
X76010Y-127460D01*
X76360Y-127127D01*
X76535Y-126660D01*
X76418Y-126193D01*
X76127Y-125793D01*
X75602Y-125527D01*
X74902Y-125393D01*
X74493Y-125127D01*
X74318Y-124660D01*
X74435Y-124193D01*
X74727Y-123860D01*
X75135Y-123660D01*
X75543D01*
X75952Y-123793D01*
X76302Y-124127D01*
G01X80110Y-123660D02*
Y-127660D01*
G01X78768Y-123660D02*
X81452D01*
G01X-60813Y-119660D02*
Y-112160D01*
X-57267D01*
G01X-58573Y-115785D02*
X-60813D01*
G01X-53407Y-119660D02*
Y-112160D01*
X-51073D01*
X-50327Y-112535D01*
X-49860Y-113035D01*
X-49673Y-114035D01*
X-49860Y-115035D01*
X-50420Y-115660D01*
X-51073Y-116035D01*
X-53407D01*
G01X-51073D02*
X-49673Y-119660D01*
G01X-42173D02*
X-45907D01*
Y-112160D01*
X-42173D01*
G01X-43667Y-115785D02*
X-45907D01*
G01X-34673Y-119660D02*
X-38407D01*
Y-112160D01*
X-34673D01*
G01X-36167Y-115785D02*
X-38407D01*
G01X-31000Y-118660D02*
X-30253Y-119285D01*
X-29413Y-119660D01*
X-28667D01*
X-27920Y-119285D01*
X-27360Y-118660D01*
X-27080Y-117785D01*
X-27267Y-116910D01*
X-27733Y-116160D01*
X-28573Y-115660D01*
X-29693Y-115410D01*
X-30347Y-114910D01*
X-30627Y-114035D01*
X-30440Y-113160D01*
X-29973Y-112535D01*
X-29320Y-112160D01*
X-28667D01*
X-28013Y-112410D01*
X-27453Y-113035D01*
G01X-19487Y-112785D02*
X-20047Y-112410D01*
X-20700Y-112160D01*
X-21447D01*
X-22287Y-112535D01*
X-22940Y-113160D01*
X-23407Y-113910D01*
X-23780Y-115160D01*
X-23873Y-116285D01*
X-23687Y-117410D01*
X-23407Y-118160D01*
X-22847Y-118910D01*
X-22193Y-119410D01*
X-21540Y-119660D01*
X-20887D01*
X-20233Y-119410D01*
X-19673Y-119035D01*
X-19207Y-118535D01*
G01X-16373Y-119660D02*
X-14040Y-112160D01*
X-11707Y-119660D01*
G01X-12547Y-117035D02*
X-15533D01*
G01X-8407Y-112160D02*
Y-119660D01*
X-4673D01*
G01X2827D02*
X-907D01*
Y-112160D01*
X2827D01*
G01X1333Y-115785D02*
X-907D01*
G01X15763Y-204400D02*
Y-198400D01*
X17643D01*
X18270Y-198700D01*
X18740Y-199400D01*
X18897Y-200200D01*
X18740Y-201000D01*
X18348Y-201600D01*
X17643Y-201900D01*
X15763D01*
G01X22063Y-204400D02*
Y-198400D01*
X24022D01*
X24648Y-198700D01*
X25040Y-199100D01*
X25197Y-199900D01*
X25040Y-200700D01*
X24570Y-201200D01*
X24022Y-201500D01*
X22063D01*
G01X24022D02*
X25197Y-204400D01*
G01X28990Y-198400D02*
X30870D01*
G01X29930D02*
Y-204400D01*
G01X28990D02*
X30870D01*
G01X34193D02*
Y-198400D01*
X36230Y-203400D01*
X38267Y-198400D01*
Y-204400D01*
G01X40572D02*
X42530Y-198400D01*
X44488Y-204400D01*
G01X43783Y-202300D02*
X41277D01*
G01X47263Y-204400D02*
Y-198400D01*
X49222D01*
X49848Y-198700D01*
X50240Y-199100D01*
X50397Y-199900D01*
X50240Y-200700D01*
X49770Y-201200D01*
X49222Y-201500D01*
X47263D01*
G01X49222D02*
X50397Y-204400D01*
G01X55130D02*
Y-201700D01*
X53563Y-198400D01*
G01X56697D02*
X55130Y-201700D01*
G01X66085Y-203600D02*
X66712Y-204100D01*
X67417Y-204400D01*
X68043D01*
X68670Y-204100D01*
X69140Y-203600D01*
X69375Y-202900D01*
X69218Y-202200D01*
X68827Y-201600D01*
X68122Y-201200D01*
X67182Y-201000D01*
X66633Y-200600D01*
X66398Y-199900D01*
X66555Y-199200D01*
X66947Y-198700D01*
X67495Y-198400D01*
X68043D01*
X68592Y-198600D01*
X69062Y-199100D01*
G01X73090Y-198400D02*
X74970D01*
G01X74030D02*
Y-204400D01*
G01X73090D02*
X74970D01*
G01X78607D02*
Y-198400D01*
X80173D01*
X80800Y-198700D01*
X81270Y-199100D01*
X81662Y-199700D01*
X81975Y-200400D01*
X82053Y-201400D01*
X81975Y-202400D01*
X81662Y-203100D01*
X81270Y-203700D01*
X80800Y-204100D01*
X80173Y-204400D01*
X78607D01*
G01X88197D02*
X85063D01*
Y-198400D01*
X88197D01*
G01X86943Y-201300D02*
X85063D01*
G01X-10198Y-195660D02*
Y-191660D01*
X-7982D01*
G01X-8798Y-193593D02*
X-10198D01*
G01X-4990Y-191660D02*
X-3590D01*
G01X-4290D02*
Y-195660D01*
G01X-4990D02*
X-3590D01*
G01X-657Y-191660D02*
Y-195660D01*
X1677D01*
G01X3793D02*
Y-191660D01*
X5310Y-194993D01*
X6827Y-191660D01*
Y-195660D01*
G01X80000Y153124D02*
X83622D01*
G01X99250Y147054D02*
X101122Y148926D01*
Y149876D01*
G01X102500D02*
Y146926D01*
G01Y153124D02*
Y156500D01*
G01X101122Y153124D02*
X97000D01*
G01X85000D02*
Y155755D01*
X84400Y156355D01*
X83570D01*
G01X81750Y146500D02*
X83622Y148372D01*
Y149876D01*
G01X85000D02*
Y147000D01*
X85250Y146750D01*
G01X117910Y-199660D02*
X117443Y-199793D01*
X117093Y-200127D01*
X116860Y-200527D01*
X116685Y-201060D01*
X116627Y-201660D01*
X116685Y-202260D01*
X116860Y-202793D01*
X117093Y-203193D01*
X117443Y-203527D01*
X117910Y-203660D01*
X118377Y-203527D01*
X118727Y-203193D01*
X118960Y-202793D01*
X119135Y-202260D01*
X119193Y-201660D01*
X119135Y-201060D01*
X118960Y-200527D01*
X118727Y-200127D01*
X118377Y-199793D01*
X117910Y-199660D01*
G01X121427Y-202860D02*
X121777Y-203327D01*
X122243Y-203593D01*
X122768Y-203660D01*
X123235Y-203593D01*
X123702Y-203260D01*
X123993Y-202860D01*
X124052Y-202460D01*
X123935Y-201993D01*
X123527Y-201660D01*
X123118Y-201527D01*
X122593D01*
G01X123118D02*
X123468Y-201327D01*
X123760Y-200993D01*
X123877Y-200593D01*
X123760Y-200193D01*
X123468Y-199860D01*
X122943Y-199660D01*
X122418Y-199727D01*
X121893Y-199993D01*
G01X126752Y-202327D02*
X128268D01*
G01X132310Y-203660D02*
Y-199660D01*
X131610Y-200460D01*
G01Y-203660D02*
X133010D01*
G01X137110Y-199660D02*
X136643Y-199793D01*
X136293Y-200127D01*
X136060Y-200527D01*
X135885Y-201060D01*
X135827Y-201660D01*
X135885Y-202260D01*
X136060Y-202793D01*
X136293Y-203193D01*
X136643Y-203527D01*
X137110Y-203660D01*
X137577Y-203527D01*
X137927Y-203193D01*
X138160Y-202793D01*
X138335Y-202260D01*
X138393Y-201660D01*
X138335Y-201060D01*
X138160Y-200527D01*
X137927Y-200127D01*
X137577Y-199793D01*
X137110Y-199660D01*
G01X141152Y-202327D02*
X142668D01*
G01X146710Y-203660D02*
Y-199660D01*
X146010Y-200460D01*
G01Y-203660D02*
X147410D01*
G01X150402Y-201993D02*
X150810Y-201527D01*
X151160Y-201260D01*
X151627Y-201127D01*
X152035Y-201260D01*
X152327Y-201527D01*
X152560Y-201927D01*
X152618Y-202393D01*
X152560Y-202793D01*
X152327Y-203193D01*
X151977Y-203527D01*
X151568Y-203660D01*
X151102Y-203527D01*
X150693Y-203127D01*
X150460Y-202527D01*
X150402Y-201860D01*
X150518Y-200993D01*
X150693Y-200527D01*
X150985Y-200060D01*
X151393Y-199727D01*
X151802Y-199660D01*
X152210Y-199793D01*
X152502Y-200127D01*
G01X124160Y-181493D02*
X127660D01*
G01X128960D02*
X132460D01*
G01X133760D02*
X137260D01*
G01X144002Y-180160D02*
Y-176160D01*
X146218D01*
G01X145402Y-178093D02*
X144002D01*
G01X151193Y-176493D02*
X150843Y-176293D01*
X150435Y-176160D01*
X149968D01*
X149443Y-176360D01*
X149035Y-176693D01*
X148743Y-177093D01*
X148510Y-177760D01*
X148452Y-178360D01*
X148568Y-178960D01*
X148743Y-179360D01*
X149093Y-179760D01*
X149502Y-180027D01*
X149910Y-180160D01*
X150318D01*
X150727Y-180027D01*
X151077Y-179827D01*
X151368Y-179560D01*
G01X153543Y-180160D02*
Y-176160D01*
X154943D01*
X155410Y-176360D01*
X155760Y-176827D01*
X155877Y-177360D01*
X155760Y-177893D01*
X155468Y-178293D01*
X154943Y-178493D01*
X153543D01*
G01X164018Y-181493D02*
X163435Y-180827D01*
X163143Y-180160D01*
Y-177493D01*
X163435Y-176827D01*
X164018Y-176160D01*
G01X168002Y-180160D02*
Y-176160D01*
X170218D01*
G01X169402Y-178093D02*
X168002D01*
G01X172743Y-180160D02*
Y-176160D01*
X174202D01*
X174668Y-176360D01*
X174960Y-176627D01*
X175077Y-177160D01*
X174960Y-177693D01*
X174610Y-178027D01*
X174202Y-178227D01*
X172743D01*
G01X174202D02*
X175077Y-180160D01*
G01X179877D02*
X177543D01*
Y-176160D01*
X179877D01*
G01X178943Y-178093D02*
X177543D01*
G01X184677Y-180160D02*
X182343D01*
Y-176160D01*
X184677D01*
G01X183743Y-178093D02*
X182343D01*
G01X187085Y-179627D02*
X187552Y-179960D01*
X188077Y-180160D01*
X188543D01*
X189010Y-179960D01*
X189360Y-179627D01*
X189535Y-179160D01*
X189418Y-178693D01*
X189127Y-178293D01*
X188602Y-178027D01*
X187902Y-177893D01*
X187493Y-177627D01*
X187318Y-177160D01*
X187435Y-176693D01*
X187727Y-176360D01*
X188135Y-176160D01*
X188543D01*
X188952Y-176293D01*
X189302Y-176627D01*
G01X194393Y-176493D02*
X194043Y-176293D01*
X193635Y-176160D01*
X193168D01*
X192643Y-176360D01*
X192235Y-176693D01*
X191943Y-177093D01*
X191710Y-177760D01*
X191652Y-178360D01*
X191768Y-178960D01*
X191943Y-179360D01*
X192293Y-179760D01*
X192702Y-180027D01*
X193110Y-180160D01*
X193518D01*
X193927Y-180027D01*
X194277Y-179827D01*
X194568Y-179560D01*
G01X196452Y-180160D02*
X197910Y-176160D01*
X199368Y-180160D01*
G01X198843Y-178760D02*
X196977D01*
G01X201543Y-176160D02*
Y-180160D01*
X203877D01*
G01X208677D02*
X206343D01*
Y-176160D01*
X208677D01*
G01X207743Y-178093D02*
X206343D01*
G01X218393Y-176493D02*
X218043Y-176293D01*
X217635Y-176160D01*
X217168D01*
X216643Y-176360D01*
X216235Y-176693D01*
X215943Y-177093D01*
X215710Y-177760D01*
X215652Y-178360D01*
X215768Y-178960D01*
X215943Y-179360D01*
X216293Y-179760D01*
X216702Y-180027D01*
X217110Y-180160D01*
X217518D01*
X217927Y-180027D01*
X218277Y-179827D01*
X218568Y-179560D01*
G01X221910Y-180160D02*
X221443Y-180093D01*
X221035Y-179827D01*
X220685Y-179427D01*
X220452Y-178960D01*
X220335Y-178427D01*
Y-177893D01*
X220452Y-177360D01*
X220685Y-176893D01*
X221035Y-176493D01*
X221443Y-176227D01*
X221910Y-176160D01*
X222377Y-176227D01*
X222785Y-176493D01*
X223135Y-176893D01*
X223368Y-177360D01*
X223485Y-177893D01*
Y-178427D01*
X223368Y-178960D01*
X223135Y-179427D01*
X222785Y-179827D01*
X222377Y-180093D01*
X221910Y-180160D01*
G01X225368D02*
Y-176160D01*
X228052Y-180160D01*
Y-176160D01*
G01X230402Y-180160D02*
Y-176160D01*
X232618D01*
G01X231802Y-178093D02*
X230402D01*
G01X235610Y-176160D02*
X237010D01*
G01X236310D02*
Y-180160D01*
G01X235610D02*
X237010D01*
G01X239827D02*
Y-176160D01*
X240993D01*
X241460Y-176360D01*
X241810Y-176627D01*
X242102Y-177027D01*
X242335Y-177493D01*
X242393Y-178160D01*
X242335Y-178827D01*
X242102Y-179293D01*
X241810Y-179693D01*
X241460Y-179960D01*
X240993Y-180160D01*
X239827D01*
G01X247077D02*
X244743D01*
Y-176160D01*
X247077D01*
G01X246143Y-178093D02*
X244743D01*
G01X249368Y-180160D02*
Y-176160D01*
X252052Y-180160D01*
Y-176160D01*
G01X255510D02*
Y-180160D01*
G01X254168Y-176160D02*
X256852D01*
G01X259610D02*
X261010D01*
G01X260310D02*
Y-180160D01*
G01X259610D02*
X261010D01*
G01X263652D02*
X265110Y-176160D01*
X266568Y-180160D01*
G01X266043Y-178760D02*
X264177D01*
G01X268743Y-176160D02*
Y-180160D01*
X271077D01*
G01X278343D02*
Y-176160D01*
X279743D01*
X280210Y-176360D01*
X280560Y-176827D01*
X280677Y-177360D01*
X280560Y-177893D01*
X280268Y-178293D01*
X279743Y-178493D01*
X278343D01*
G01X283143Y-180160D02*
Y-176160D01*
X284602D01*
X285068Y-176360D01*
X285360Y-176627D01*
X285477Y-177160D01*
X285360Y-177693D01*
X285010Y-178027D01*
X284602Y-178227D01*
X283143D01*
G01X284602D02*
X285477Y-180160D01*
G01X289110D02*
X288643Y-180093D01*
X288235Y-179827D01*
X287885Y-179427D01*
X287652Y-178960D01*
X287535Y-178427D01*
Y-177893D01*
X287652Y-177360D01*
X287885Y-176893D01*
X288235Y-176493D01*
X288643Y-176227D01*
X289110Y-176160D01*
X289577Y-176227D01*
X289985Y-176493D01*
X290335Y-176893D01*
X290568Y-177360D01*
X290685Y-177893D01*
Y-178427D01*
X290568Y-178960D01*
X290335Y-179427D01*
X289985Y-179827D01*
X289577Y-180093D01*
X289110Y-180160D01*
G01X292743D02*
Y-176160D01*
X294143D01*
X294610Y-176360D01*
X294960Y-176827D01*
X295077Y-177360D01*
X294960Y-177893D01*
X294668Y-178293D01*
X294143Y-178493D01*
X292743D01*
G01X297543Y-180160D02*
Y-176160D01*
X299002D01*
X299468Y-176360D01*
X299760Y-176627D01*
X299877Y-177160D01*
X299760Y-177693D01*
X299410Y-178027D01*
X299002Y-178227D01*
X297543D01*
G01X299002D02*
X299877Y-180160D01*
G01X302810Y-176160D02*
X304210D01*
G01X303510D02*
Y-180160D01*
G01X302810D02*
X304210D01*
G01X309477D02*
X307143D01*
Y-176160D01*
X309477D01*
G01X308543Y-178093D02*
X307143D01*
G01X313110Y-176160D02*
Y-180160D01*
G01X311768Y-176160D02*
X314452D01*
G01X316452Y-180160D02*
X317910Y-176160D01*
X319368Y-180160D01*
G01X318843Y-178760D02*
X316977D01*
G01X321543Y-180160D02*
Y-176160D01*
X323002D01*
X323468Y-176360D01*
X323760Y-176627D01*
X323877Y-177160D01*
X323760Y-177693D01*
X323410Y-178027D01*
X323002Y-178227D01*
X321543D01*
G01X323002D02*
X323877Y-180160D01*
G01X327510D02*
Y-178360D01*
X326343Y-176160D01*
G01X328677D02*
X327510Y-178360D01*
G01X332602Y-181493D02*
X333185Y-180827D01*
X333477Y-180160D01*
Y-177493D01*
X333185Y-176827D01*
X332602Y-176160D01*
G01X114627Y-195660D02*
Y-191660D01*
X115793D01*
X116260Y-191860D01*
X116610Y-192127D01*
X116902Y-192527D01*
X117135Y-192993D01*
X117193Y-193660D01*
X117135Y-194327D01*
X116902Y-194793D01*
X116610Y-195193D01*
X116260Y-195460D01*
X115793Y-195660D01*
X114627D01*
G01X119252D02*
X120710Y-191660D01*
X122168Y-195660D01*
G01X121643Y-194260D02*
X119777D01*
G01X125510Y-191660D02*
Y-195660D01*
G01X124168Y-191660D02*
X126852D01*
G01X131477Y-195660D02*
X129143D01*
Y-191660D01*
X131477D01*
G01X130543Y-193593D02*
X129143D01*
G01X128865Y-164660D02*
X132155Y-158360D01*
G01X128865D02*
X132155Y-164660D01*
G01X124160Y-164993D02*
X127660D01*
G01X128960D02*
X132460D01*
G01X133760D02*
X137260D01*
G01X144002Y-163660D02*
Y-159660D01*
X146218D01*
G01X145402Y-161593D02*
X144002D01*
G01X149210Y-159660D02*
X150610D01*
G01X149910D02*
Y-163660D01*
G01X149210D02*
X150610D01*
G01X153427Y-159660D02*
Y-162527D01*
X153660Y-163127D01*
X154127Y-163527D01*
X154710Y-163660D01*
X155293Y-163527D01*
X155760Y-163127D01*
X155993Y-162527D01*
Y-159660D01*
G01X159510Y-163660D02*
X159043Y-163593D01*
X158635Y-163327D01*
X158285Y-162927D01*
X158052Y-162460D01*
X157935Y-161927D01*
Y-161393D01*
X158052Y-160860D01*
X158285Y-160393D01*
X158635Y-159993D01*
X159043Y-159727D01*
X159510Y-159660D01*
X159977Y-159727D01*
X160385Y-159993D01*
X160735Y-160393D01*
X160968Y-160860D01*
X161085Y-161393D01*
Y-161927D01*
X160968Y-162460D01*
X160735Y-162927D01*
X160385Y-163327D01*
X159977Y-163593D01*
X159510Y-163660D01*
G01X168818Y-164993D02*
X168235Y-164327D01*
X167943Y-163660D01*
Y-160993D01*
X168235Y-160327D01*
X168818Y-159660D01*
G01X172802Y-163660D02*
Y-159660D01*
X175018D01*
G01X174202Y-161593D02*
X172802D01*
G01X177543Y-163660D02*
Y-159660D01*
X179002D01*
X179468Y-159860D01*
X179760Y-160127D01*
X179877Y-160660D01*
X179760Y-161193D01*
X179410Y-161527D01*
X179002Y-161727D01*
X177543D01*
G01X179002D02*
X179877Y-163660D01*
G01X184677D02*
X182343D01*
Y-159660D01*
X184677D01*
G01X183743Y-161593D02*
X182343D01*
G01X189477Y-163660D02*
X187143D01*
Y-159660D01*
X189477D01*
G01X188543Y-161593D02*
X187143D01*
G01X191885Y-163127D02*
X192352Y-163460D01*
X192877Y-163660D01*
X193343D01*
X193810Y-163460D01*
X194160Y-163127D01*
X194335Y-162660D01*
X194218Y-162193D01*
X193927Y-161793D01*
X193402Y-161527D01*
X192702Y-161393D01*
X192293Y-161127D01*
X192118Y-160660D01*
X192235Y-160193D01*
X192527Y-159860D01*
X192935Y-159660D01*
X193343D01*
X193752Y-159793D01*
X194102Y-160127D01*
G01X199193Y-159993D02*
X198843Y-159793D01*
X198435Y-159660D01*
X197968D01*
X197443Y-159860D01*
X197035Y-160193D01*
X196743Y-160593D01*
X196510Y-161260D01*
X196452Y-161860D01*
X196568Y-162460D01*
X196743Y-162860D01*
X197093Y-163260D01*
X197502Y-163527D01*
X197910Y-163660D01*
X198318D01*
X198727Y-163527D01*
X199077Y-163327D01*
X199368Y-163060D01*
G01X201252Y-163660D02*
X202710Y-159660D01*
X204168Y-163660D01*
G01X203643Y-162260D02*
X201777D01*
G01X206343Y-159660D02*
Y-163660D01*
X208677D01*
G01X213477D02*
X211143D01*
Y-159660D01*
X213477D01*
G01X212543Y-161593D02*
X211143D01*
G01X221210Y-159660D02*
X222610D01*
G01X221910D02*
Y-163660D01*
G01X221210D02*
X222610D01*
G01X225368D02*
Y-159660D01*
X228052Y-163660D01*
Y-159660D01*
G01X231510D02*
Y-163660D01*
G01X230168Y-159660D02*
X232852D01*
G01X237477Y-163660D02*
X235143D01*
Y-159660D01*
X237477D01*
G01X236543Y-161593D02*
X235143D01*
G01X239943Y-163660D02*
Y-159660D01*
X241402D01*
X241868Y-159860D01*
X242160Y-160127D01*
X242277Y-160660D01*
X242160Y-161193D01*
X241810Y-161527D01*
X241402Y-161727D01*
X239943D01*
G01X241402D02*
X242277Y-163660D01*
G01X244568D02*
Y-159660D01*
X247252Y-163660D01*
Y-159660D01*
G01X249252Y-163660D02*
X250710Y-159660D01*
X252168Y-163660D01*
G01X251643Y-162260D02*
X249777D01*
G01X254343Y-159660D02*
Y-163660D01*
X256677D01*
G01X263827Y-159660D02*
Y-162527D01*
X264060Y-163127D01*
X264527Y-163527D01*
X265110Y-163660D01*
X265693Y-163527D01*
X266160Y-163127D01*
X266393Y-162527D01*
Y-159660D01*
G01X268685Y-163127D02*
X269152Y-163460D01*
X269677Y-163660D01*
X270143D01*
X270610Y-163460D01*
X270960Y-163127D01*
X271135Y-162660D01*
X271018Y-162193D01*
X270727Y-161793D01*
X270202Y-161527D01*
X269502Y-161393D01*
X269093Y-161127D01*
X268918Y-160660D01*
X269035Y-160193D01*
X269327Y-159860D01*
X269735Y-159660D01*
X270143D01*
X270552Y-159793D01*
X270902Y-160127D01*
G01X275877Y-163660D02*
X273543D01*
Y-159660D01*
X275877D01*
G01X274943Y-161593D02*
X273543D01*
G01X284310Y-163660D02*
X283843Y-163593D01*
X283435Y-163327D01*
X283085Y-162927D01*
X282852Y-162460D01*
X282735Y-161927D01*
Y-161393D01*
X282852Y-160860D01*
X283085Y-160393D01*
X283435Y-159993D01*
X283843Y-159727D01*
X284310Y-159660D01*
X284777Y-159727D01*
X285185Y-159993D01*
X285535Y-160393D01*
X285768Y-160860D01*
X285885Y-161393D01*
Y-161927D01*
X285768Y-162460D01*
X285535Y-162927D01*
X285185Y-163327D01*
X284777Y-163593D01*
X284310Y-163660D01*
G01X287768D02*
Y-159660D01*
X290452Y-163660D01*
Y-159660D01*
G01X292743D02*
Y-163660D01*
X295077D01*
G01X298710D02*
Y-161860D01*
X297543Y-159660D01*
G01X299877D02*
X298710Y-161860D01*
G01X303802Y-164993D02*
X304385Y-164327D01*
X304677Y-163660D01*
Y-160993D01*
X304385Y-160327D01*
X303802Y-159660D01*
G01X124160Y-148993D02*
X127660D01*
G01X128960D02*
X132460D01*
G01X133760D02*
X137260D01*
G01X143943Y-147660D02*
Y-143660D01*
X145343D01*
X145810Y-143860D01*
X146160Y-144327D01*
X146277Y-144860D01*
X146160Y-145393D01*
X145868Y-145793D01*
X145343Y-145993D01*
X143943D01*
G01X148627Y-143660D02*
Y-146527D01*
X148860Y-147127D01*
X149327Y-147527D01*
X149910Y-147660D01*
X150493Y-147527D01*
X150960Y-147127D01*
X151193Y-146527D01*
Y-143660D01*
G01X155177Y-145527D02*
X155410Y-145327D01*
X155585Y-144993D01*
X155702Y-144527D01*
X155585Y-144127D01*
X155352Y-143860D01*
X154943Y-143660D01*
X153368D01*
Y-147660D01*
X155293D01*
X155702Y-147393D01*
X155935Y-146993D01*
X156052Y-146527D01*
X155935Y-146060D01*
X155585Y-145660D01*
X155177Y-145527D01*
X153368D01*
G01X158810Y-143660D02*
X160210D01*
G01X159510D02*
Y-147660D01*
G01X158810D02*
X160210D01*
G01X168818Y-148993D02*
X168235Y-148327D01*
X167943Y-147660D01*
Y-144993D01*
X168235Y-144327D01*
X168818Y-143660D01*
G01X172743Y-147660D02*
Y-143660D01*
X174143D01*
X174610Y-143860D01*
X174960Y-144327D01*
X175077Y-144860D01*
X174960Y-145393D01*
X174668Y-145793D01*
X174143Y-145993D01*
X172743D01*
G01X177427Y-143660D02*
Y-146527D01*
X177660Y-147127D01*
X178127Y-147527D01*
X178710Y-147660D01*
X179293Y-147527D01*
X179760Y-147127D01*
X179993Y-146527D01*
Y-143660D01*
G01X183977Y-145527D02*
X184210Y-145327D01*
X184385Y-144993D01*
X184502Y-144527D01*
X184385Y-144127D01*
X184152Y-143860D01*
X183743Y-143660D01*
X182168D01*
Y-147660D01*
X184093D01*
X184502Y-147393D01*
X184735Y-146993D01*
X184852Y-146527D01*
X184735Y-146060D01*
X184385Y-145660D01*
X183977Y-145527D01*
X182168D01*
G01X187143Y-143660D02*
Y-147660D01*
X189477D01*
G01X192410Y-143660D02*
X193810D01*
G01X193110D02*
Y-147660D01*
G01X192410D02*
X193810D01*
G01X199193Y-143993D02*
X198843Y-143793D01*
X198435Y-143660D01*
X197968D01*
X197443Y-143860D01*
X197035Y-144193D01*
X196743Y-144593D01*
X196510Y-145260D01*
X196452Y-145860D01*
X196568Y-146460D01*
X196743Y-146860D01*
X197093Y-147260D01*
X197502Y-147527D01*
X197910Y-147660D01*
X198318D01*
X198727Y-147527D01*
X199077Y-147327D01*
X199368Y-147060D01*
G01X206810Y-143660D02*
X208210D01*
G01X207510D02*
Y-147660D01*
G01X206810D02*
X208210D01*
G01X210968D02*
Y-143660D01*
X213652Y-147660D01*
Y-143660D01*
G01X216002Y-147660D02*
Y-143660D01*
X218218D01*
G01X217402Y-145593D02*
X216002D01*
G01X221910Y-147660D02*
X221443Y-147593D01*
X221035Y-147327D01*
X220685Y-146927D01*
X220452Y-146460D01*
X220335Y-145927D01*
Y-145393D01*
X220452Y-144860D01*
X220685Y-144393D01*
X221035Y-143993D01*
X221443Y-143727D01*
X221910Y-143660D01*
X222377Y-143727D01*
X222785Y-143993D01*
X223135Y-144393D01*
X223368Y-144860D01*
X223485Y-145393D01*
Y-145927D01*
X223368Y-146460D01*
X223135Y-146927D01*
X222785Y-147327D01*
X222377Y-147593D01*
X221910Y-147660D01*
G01X225543D02*
Y-143660D01*
X227002D01*
X227468Y-143860D01*
X227760Y-144127D01*
X227877Y-144660D01*
X227760Y-145193D01*
X227410Y-145527D01*
X227002Y-145727D01*
X225543D01*
G01X227002D02*
X227877Y-147660D01*
G01X229993D02*
Y-143660D01*
X231510Y-146993D01*
X233027Y-143660D01*
Y-147660D01*
G01X234852D02*
X236310Y-143660D01*
X237768Y-147660D01*
G01X237243Y-146260D02*
X235377D01*
G01X241110Y-143660D02*
Y-147660D01*
G01X239768Y-143660D02*
X242452D01*
G01X245210D02*
X246610D01*
G01X245910D02*
Y-147660D01*
G01X245210D02*
X246610D01*
G01X250710D02*
X250243Y-147593D01*
X249835Y-147327D01*
X249485Y-146927D01*
X249252Y-146460D01*
X249135Y-145927D01*
Y-145393D01*
X249252Y-144860D01*
X249485Y-144393D01*
X249835Y-143993D01*
X250243Y-143727D01*
X250710Y-143660D01*
X251177Y-143727D01*
X251585Y-143993D01*
X251935Y-144393D01*
X252168Y-144860D01*
X252285Y-145393D01*
Y-145927D01*
X252168Y-146460D01*
X251935Y-146927D01*
X251585Y-147327D01*
X251177Y-147593D01*
X250710Y-147660D01*
G01X254168D02*
Y-143660D01*
X256852Y-147660D01*
Y-143660D01*
G01X260602Y-148993D02*
X261185Y-148327D01*
X261477Y-147660D01*
Y-144993D01*
X261185Y-144327D01*
X260602Y-143660D01*
G01X114568Y-115660D02*
Y-111660D01*
X117252Y-115660D01*
Y-111660D01*
G01X119252Y-115660D02*
X120710Y-111660D01*
X122168Y-115660D01*
G01X121643Y-114260D02*
X119777D01*
G01X123993Y-115660D02*
Y-111660D01*
X125510Y-114993D01*
X127027Y-111660D01*
Y-115660D01*
G01X131477D02*
X129143D01*
Y-111660D01*
X131477D01*
G01X130543Y-113593D02*
X129143D01*
G01X124878Y149876D02*
Y148926D01*
X126500Y147304D01*
Y143000D01*
G01X120377Y147114D02*
Y147135D01*
X121000Y147758D01*
Y147804D01*
X122122Y148926D01*
Y149876D01*
G01X118500Y153124D02*
X122122D01*
G01X123500Y149876D02*
Y146926D01*
G01X164568Y-195660D02*
Y-191660D01*
X167252Y-195660D01*
Y-191660D01*
G01X169427D02*
Y-194527D01*
X169660Y-195127D01*
X170127Y-195527D01*
X170710Y-195660D01*
X171293Y-195527D01*
X171760Y-195127D01*
X171993Y-194527D01*
Y-191660D01*
G01X173993Y-195660D02*
Y-191660D01*
X175510Y-194993D01*
X177027Y-191660D01*
Y-195660D01*
G01X180777Y-193527D02*
X181010Y-193327D01*
X181185Y-192993D01*
X181302Y-192527D01*
X181185Y-192127D01*
X180952Y-191860D01*
X180543Y-191660D01*
X178968D01*
Y-195660D01*
X180893D01*
X181302Y-195393D01*
X181535Y-194993D01*
X181652Y-194527D01*
X181535Y-194060D01*
X181185Y-193660D01*
X180777Y-193527D01*
X178968D01*
G01X186277Y-195660D02*
X183943D01*
Y-191660D01*
X186277D01*
G01X185343Y-193593D02*
X183943D01*
G01X188743Y-195660D02*
Y-191660D01*
X190202D01*
X190668Y-191860D01*
X190960Y-192127D01*
X191077Y-192660D01*
X190960Y-193193D01*
X190610Y-193527D01*
X190202Y-193727D01*
X188743D01*
G01X190202D02*
X191077Y-195660D01*
G01X199510Y-202660D02*
Y-196360D01*
X198570Y-197620D01*
G01Y-202660D02*
X200450D01*
G01X205653D02*
X205810Y-201295D01*
X206045Y-200140D01*
X206358Y-199090D01*
X206750Y-197935D01*
X207377Y-196360D01*
X204243D01*
G01X212110D02*
X211483Y-196570D01*
X211013Y-197095D01*
X210700Y-197725D01*
X210465Y-198565D01*
X210387Y-199510D01*
X210465Y-200455D01*
X210700Y-201295D01*
X211013Y-201925D01*
X211483Y-202450D01*
X212110Y-202660D01*
X212737Y-202450D01*
X213207Y-201925D01*
X213520Y-201295D01*
X213755Y-200455D01*
X213833Y-199510D01*
X213755Y-198565D01*
X213520Y-197725D01*
X213207Y-197095D01*
X212737Y-196570D01*
X212110Y-196360D01*
G01X217392Y-200560D02*
X219428D01*
G01X223222Y-197410D02*
X223692Y-196780D01*
X224240Y-196465D01*
X224867Y-196360D01*
X225650Y-196570D01*
X226198Y-197095D01*
X226355Y-197725D01*
X226277Y-198355D01*
X225963Y-198880D01*
X224397Y-199930D01*
X223692Y-200665D01*
X223222Y-201715D01*
X223065Y-202660D01*
X226355D01*
G01X231010D02*
X231558Y-202555D01*
X232185Y-202240D01*
X232577Y-201715D01*
X232733Y-200980D01*
X232577Y-200245D01*
X232107Y-199615D01*
X231402Y-199300D01*
X230618D01*
X230148Y-199090D01*
X229757Y-198565D01*
X229600Y-197830D01*
X229835Y-197095D01*
X230383Y-196570D01*
X231010Y-196360D01*
X231637Y-196570D01*
X232185Y-197095D01*
X232420Y-197830D01*
X232263Y-198565D01*
X231872Y-199090D01*
X231402Y-199300D01*
X230618D01*
X229913Y-199615D01*
X229443Y-200245D01*
X229287Y-200980D01*
X229443Y-201715D01*
X229835Y-202240D01*
X230462Y-202555D01*
X231010Y-202660D01*
G01X237310D02*
X237858Y-202555D01*
X238485Y-202240D01*
X238877Y-201715D01*
X239033Y-200980D01*
X238877Y-200245D01*
X238407Y-199615D01*
X237702Y-199300D01*
X236918D01*
X236448Y-199090D01*
X236057Y-198565D01*
X235900Y-197830D01*
X236135Y-197095D01*
X236683Y-196570D01*
X237310Y-196360D01*
X237937Y-196570D01*
X238485Y-197095D01*
X238720Y-197830D01*
X238563Y-198565D01*
X238172Y-199090D01*
X237702Y-199300D01*
X236918D01*
X236213Y-199615D01*
X235743Y-200245D01*
X235587Y-200980D01*
X235743Y-201715D01*
X236135Y-202240D01*
X236762Y-202555D01*
X237310Y-202660D01*
G01X242278Y-201925D02*
X242827Y-202450D01*
X243453Y-202660D01*
X244080Y-202450D01*
X244628Y-201820D01*
X245020Y-200875D01*
X245177Y-199930D01*
Y-198775D01*
X245020Y-197830D01*
X244628Y-196990D01*
X244158Y-196570D01*
X243610Y-196360D01*
X242983Y-196570D01*
X242513Y-196990D01*
X242200Y-197620D01*
X242043Y-198460D01*
X242200Y-199195D01*
X242592Y-199930D01*
X243062Y-200350D01*
X243610Y-200455D01*
X244237Y-200245D01*
X244707Y-199720D01*
X245177Y-198775D01*
G01X249910Y-202660D02*
Y-196360D01*
X248970Y-197620D01*
G01Y-202660D02*
X250850D01*
G01X292443D02*
Y-196360D01*
X294402D01*
X295028Y-196675D01*
X295420Y-197095D01*
X295577Y-197935D01*
X295420Y-198775D01*
X294950Y-199300D01*
X294402Y-199615D01*
X292443D01*
G01X294402D02*
X295577Y-202660D01*
G01X301877D02*
X298743D01*
Y-196360D01*
X301877D01*
G01X300623Y-199405D02*
X298743D01*
G01X304652Y-196360D02*
X306610Y-202660D01*
X308568Y-196360D01*
G01X319837Y-199300D02*
X320150Y-198985D01*
X320385Y-198460D01*
X320542Y-197725D01*
X320385Y-197095D01*
X320072Y-196675D01*
X319523Y-196360D01*
X317408D01*
Y-202660D01*
X319993D01*
X320542Y-202240D01*
X320855Y-201610D01*
X321012Y-200875D01*
X320855Y-200140D01*
X320385Y-199510D01*
X319837Y-199300D01*
X317408D01*
G01X325510Y-202660D02*
Y-196360D01*
X324570Y-197620D01*
G01Y-202660D02*
X326450D01*
G01X199787Y-129660D02*
Y-123360D01*
X201353D01*
X201980Y-123675D01*
X202450Y-124095D01*
X202842Y-124725D01*
X203155Y-125460D01*
X203233Y-126510D01*
X203155Y-127560D01*
X202842Y-128295D01*
X202450Y-128925D01*
X201980Y-129345D01*
X201353Y-129660D01*
X199787D01*
G01X209377D02*
X206243D01*
Y-123360D01*
X209377D01*
G01X208123Y-126405D02*
X206243D01*
G01X212152Y-123360D02*
X214110Y-129660D01*
X216068Y-123360D01*
G01X218687Y-129660D02*
Y-123360D01*
G01X221663D02*
X218687Y-127245D01*
G01X222133Y-129660D02*
X220018Y-125460D01*
G01X225770Y-123360D02*
X227650D01*
G01X226710D02*
Y-129660D01*
G01X225770D02*
X227650D01*
G01X233010Y-123360D02*
Y-129660D01*
G01X231208Y-123360D02*
X234812D01*
G01X238292Y-127560D02*
X240328D01*
G01X243965Y-128820D02*
X244592Y-129345D01*
X245297Y-129660D01*
X245923D01*
X246550Y-129345D01*
X247020Y-128820D01*
X247255Y-128085D01*
X247098Y-127350D01*
X246707Y-126720D01*
X246002Y-126300D01*
X245062Y-126090D01*
X244513Y-125670D01*
X244278Y-124935D01*
X244435Y-124200D01*
X244827Y-123675D01*
X245375Y-123360D01*
X245923D01*
X246472Y-123570D01*
X246942Y-124095D01*
G01X251910Y-129660D02*
Y-123360D01*
X250970Y-124620D01*
G01Y-129660D02*
X252850D01*
G01X256722Y-124410D02*
X257192Y-123780D01*
X257740Y-123465D01*
X258367Y-123360D01*
X259150Y-123570D01*
X259698Y-124095D01*
X259855Y-124725D01*
X259777Y-125355D01*
X259463Y-125880D01*
X257897Y-126930D01*
X257192Y-127665D01*
X256722Y-128715D01*
X256565Y-129660D01*
X259855D01*
G01X263022Y-123360D02*
X265998D01*
X263022Y-129660D01*
X265998D01*
G01X268852Y-123360D02*
X270810Y-129660D01*
X272768Y-123360D01*
G01X275543D02*
Y-129660D01*
X278677D01*
G54D74*
X273154Y51362D03*
Y71638D03*
X272154Y116138D03*
Y95862D03*
X279846Y51362D03*
Y71638D03*
X278846Y116138D03*
Y95862D03*
G54D29*
X-8500Y99500D03*
Y105500D03*
X23721Y70484D03*
Y76484D03*
X62000Y159200D03*
Y153200D03*
X68500Y159200D03*
Y153200D03*
X111800Y44500D03*
Y38500D03*
Y33500D03*
Y27500D03*
X113000Y50500D03*
Y56500D03*
X109500Y154500D03*
Y148500D03*
X91100Y154000D03*
Y148000D03*
X167000Y77000D03*
Y83000D03*
X207300Y11500D03*
Y17500D03*
X226500Y11500D03*
Y17500D03*
X217250Y11500D03*
Y17500D03*
X244500Y154000D03*
Y148000D03*
G54D47*
X29300Y164000D03*
X21700D03*
X145300Y44000D03*
X137700D03*
G54D38*
X40843Y84343D03*
X36843Y88343D03*
X41157Y92657D03*
X45157Y88657D03*
G54D65*
X174000Y11949D03*
Y18051D03*
G54D56*
X107250Y-10800D03*
X97250D03*
X87250D03*
X147250D03*
X137250D03*
X127250D03*
X117250D03*
G54D84*
G01X128500Y44500D02*
X130342Y42658D01*
G01X126658Y46342D02*
X128500Y44500D01*
G01D02*
X130342Y46342D01*
G01X126658Y42658D02*
X128500Y44500D01*
G01D02*
X130752D01*
G01X126248D02*
X128500D01*
G01D02*
Y46752D01*
G01Y42248D02*
Y44500D01*
G01X123300D02*
X125802Y41498D01*
G01X123300Y44500D02*
X125802Y47502D01*
G01X123300Y44500D02*
X125802D01*
G01X123300D02*
Y47502D01*
G01X135198Y47752D02*
X137700Y44000D01*
G01X135198Y40248D02*
X137700Y44000D01*
G01X135198D02*
X137700D01*
G01D02*
Y47752D01*
G01Y40248D02*
Y44000D01*
G01X133000Y44500D02*
X134666Y42834D01*
G01X131334Y46166D02*
X133000Y44500D01*
G01D02*
X134666Y46166D01*
G01X131334Y42834D02*
X133000Y44500D01*
G01D02*
X135002D01*
G01X130998D02*
X133000D01*
G01Y42498D02*
Y44500D01*
G01X134274Y39448D02*
X137500Y34346D01*
G01D02*
X140726Y39448D01*
G01X133998Y34346D02*
X137500D01*
G01D02*
Y39448D01*
G01X128750Y38600D02*
X130621Y35898D01*
G01X126879Y41302D02*
X128750Y38600D01*
G01D02*
X130621Y41302D01*
G01X128750Y38600D02*
X130852D01*
G01X128750D02*
Y41302D01*
G01Y35898D02*
Y38600D01*
G01X125200Y80000D02*
X126972Y78228D01*
G01X123428Y81772D02*
X125200Y80000D01*
G01D02*
X126972Y81772D01*
G01X123428Y78228D02*
X125200Y80000D01*
G01D02*
X127352D01*
G01X123048D02*
X125200D01*
G01D02*
Y82152D01*
G01Y77848D02*
Y80000D01*
G01X132500Y80700D02*
X134166Y79034D01*
G01X130834Y82366D02*
X132500Y80700D01*
G01D02*
X134166Y82366D01*
G01X130834Y79034D02*
X132500Y80700D01*
G01X130498D02*
X132500D01*
G01D02*
Y82702D01*
G01Y78698D02*
Y80700D01*
G01X120750Y80000D02*
X122416Y78334D01*
G01X119084Y81666D02*
X120750Y80000D01*
G01D02*
X122416Y81666D01*
G01X119084Y78334D02*
X120750Y80000D01*
G01D02*
X122752D01*
G01X120750D02*
Y82002D01*
G01Y77998D02*
Y80000D01*
G01X132500Y66346D02*
X135726Y61244D01*
G01X129274Y71448D02*
X132500Y66346D01*
G01D02*
X135726Y71448D01*
G01X129274Y61244D02*
X132500Y66346D01*
G01D02*
X136002D01*
G01X128998D02*
X132500D01*
G01D02*
Y71448D01*
G01Y61244D02*
Y66346D01*
G01X124250Y72600D02*
X126121Y69898D01*
G01X122379Y75302D02*
X124250Y72600D01*
G01D02*
X126121Y75302D01*
G01X124250Y72600D02*
X126352D01*
G01X124250D02*
Y75302D01*
G01Y69898D02*
Y72600D01*
G54D57*
X108247Y134297D03*
Y129197D03*
X100753Y131747D03*
X101753Y118950D03*
Y124050D03*
X109247Y121500D03*
G54D39*
X30379Y115879D03*
X44379Y96379D03*
X48621Y100621D03*
X48879Y92379D03*
X53121Y96621D03*
X34621Y120121D03*
X167879Y48379D03*
X172121Y52621D03*
X172879Y42879D03*
X177121Y47121D03*
G54D48*
X77250Y-10800D03*
G54D75*
X250000Y111205D03*
G54D66*
X180029Y70934D03*
X178636Y69541D03*
X202041Y46136D03*
X203434Y47529D03*
X204827Y48922D03*
X206220Y50315D03*
X207613Y51708D03*
X209006Y53101D03*
X210399Y54494D03*
X211792Y55887D03*
X193959Y84864D03*
X192566Y83471D03*
X191173Y82078D03*
X189780Y80685D03*
X188387Y79292D03*
X186994Y77899D03*
X185601Y76506D03*
X184208Y75113D03*
X182815Y73720D03*
X181422Y72327D03*
X213185Y57280D03*
X214578Y58673D03*
X215971Y60066D03*
X217364Y61459D03*
G54D85*
G01X4862Y183154D02*
Y178612D01*
X4750Y178500D01*
G01X4862Y183154D02*
X25138D01*
G01X45000Y47870D02*
Y40000D01*
G01X30000Y47870D02*
Y40000D01*
G01X44379Y96379D02*
Y95879D01*
X41157Y92657D01*
G01X36149Y105404D02*
Y110082D01*
X36815Y110748D01*
Y110815D01*
X39414Y113414D01*
X42414D01*
G01X55819Y112142D02*
X51500Y107823D01*
Y103500D01*
X48621Y100621D01*
G01X48879Y92379D02*
X45157Y88657D01*
G01X48914Y107414D02*
X50375Y108875D01*
Y109484D01*
X54426Y113535D01*
G01X45914Y110414D02*
X48914Y107414D01*
G01X45914Y110414D02*
X42914D01*
X38977Y106477D01*
Y102575D01*
G01Y116717D02*
X35718D01*
X31500Y112499D01*
Y110052D01*
X33320Y108232D01*
G01X42414Y113414D02*
X51523D01*
X53035Y114926D01*
G01X38977Y116717D02*
X41043D01*
X42260Y115500D01*
X48041D01*
X50251Y117710D01*
G01X58000Y159200D02*
X52300D01*
X41250Y170250D01*
Y179200D01*
G01X25138Y183154D02*
X29404D01*
X32250Y186000D01*
X101958D01*
X106617Y181341D01*
Y176315D01*
X110682Y172250D01*
X115500D01*
G01X71363Y95890D02*
X73412Y97939D01*
Y99588D01*
X70250Y102750D01*
G01X67750Y99500D02*
X69317Y97933D01*
X69320D01*
X71363Y95890D01*
G01X67750Y99500D02*
X66183Y101067D01*
X66178D01*
X61386Y105859D01*
Y106575D01*
G01X83586Y97086D02*
X82125Y98547D01*
Y99198D01*
X69181Y112142D01*
G01X86414Y99914D02*
X84197D01*
X70576Y113535D01*
X70574D01*
G01X57210Y110751D02*
X52750Y106291D01*
Y99558D01*
X52767Y99541D01*
Y96975D01*
X53121Y96621D01*
G01X67790Y110751D02*
X67792D01*
X69509Y109034D01*
Y106509D01*
G01X80293Y109621D02*
X84536D01*
X87364Y106793D01*
G01X80293Y109621D02*
X78832Y111082D01*
X78595D01*
X73358Y116319D01*
G01X84536Y113864D02*
X83075Y112403D01*
X80097D01*
X76507Y115993D01*
X76468D01*
X74751Y117710D01*
X74749D01*
G01X124250Y139750D02*
X122821Y138321D01*
X76428D01*
X70574Y132467D01*
Y132465D01*
G01X126500Y143000D02*
Y139000D01*
X124104Y136604D01*
X84786D01*
X80282Y132100D01*
X78216D01*
G01Y136100D02*
X76989D01*
X71965Y131076D01*
Y131074D01*
G01X81500Y129500D02*
X78742D01*
X76142Y126900D01*
Y126898D01*
G01X67790Y135249D02*
Y135251D01*
X69507Y136968D01*
Y137007D01*
X72250Y139750D01*
X96815D01*
X97500Y140435D01*
Y143000D01*
G01X78216Y132100D02*
X75777D01*
X73358Y129681D01*
G01X84201Y127500D02*
X79527D01*
X77533Y125506D01*
G01X78925Y124114D02*
X79114D01*
X80000Y125000D01*
X81500D01*
X83185Y123315D01*
Y123248D01*
X84248Y122185D01*
X84315D01*
X85500Y121000D01*
X92784D01*
X94284Y119500D01*
X96500D01*
G01X80000Y143000D02*
X72756D01*
X66398Y136642D01*
G01X88778Y118106D02*
X87317Y119567D01*
X85567D01*
X81500Y115500D01*
X79750D01*
X77865Y117385D01*
X77861D01*
X76144Y119102D01*
X76142D01*
G01X61185Y165026D02*
X73599D01*
X74000Y164625D01*
G01X61250Y179200D02*
Y165091D01*
X61185Y165026D01*
G01X228947Y144716D02*
X216539Y157124D01*
X138400D01*
X126806Y168718D01*
X102671D01*
X98578Y164625D01*
X78000D01*
G01X68500Y159200D02*
Y162650D01*
G01X74000Y164625D02*
Y160000D01*
G01X84800Y159700D02*
X81250Y160000D01*
X79250Y162000D01*
G01X58000Y159200D02*
X62000D01*
G01X121250Y28400D02*
X117900D01*
X117000Y27500D01*
X111800D01*
G01Y44500D02*
X117300D01*
G01X82276Y74276D02*
X93052Y63500D01*
G01X83586Y97086D02*
X90525Y90147D01*
Y82525D01*
X82276Y74276D01*
G01X111500Y62400D02*
X116750D01*
G01Y80000D02*
X111500D01*
G01X120182Y89285D02*
X112113Y97354D01*
X112094D01*
X108724Y100724D01*
G01D02*
X100000Y92000D01*
X94328D01*
X86414Y99914D01*
G01X84536Y113864D02*
X88778D01*
X91607Y111035D01*
G01X103500Y143000D02*
X109500D01*
G01D02*
Y148500D01*
G01X108247Y129197D02*
X113803D01*
X121000Y122000D01*
Y121500D01*
G01X95550Y131747D02*
X100753D01*
G01X87450Y127500D02*
X84201D01*
G01X91100Y148000D02*
Y143600D01*
X90500Y143000D01*
G01X115000Y116500D02*
X111000D01*
X109247Y118253D01*
Y121500D01*
G01X96500Y119500D02*
Y121370D01*
X99180Y124050D01*
X101753D01*
G01X93000Y124253D02*
X96747D01*
G01X88778Y118106D02*
X93021D01*
X95849Y115278D01*
G01X86000Y143000D02*
X90500D01*
G01X103200Y159700D02*
Y162266D01*
X106684Y165750D01*
X117686D01*
X128240Y155196D01*
X215500D01*
G01X103878Y149876D02*
X105058D01*
X106434Y148500D01*
X109500D01*
G01X103878Y153124D02*
X105058D01*
X106434Y154500D01*
X109500D01*
G01Y159700D02*
Y154500D01*
G01X91100Y154000D02*
Y159700D01*
G01Y154000D02*
X88876D01*
X88000Y153124D01*
X86378D01*
G01Y149876D02*
X88124D01*
X90000Y148000D01*
X91100D01*
G01X136500Y169500D02*
X131589Y174411D01*
X116039D01*
X111250Y179200D01*
G01X121250Y38600D02*
X118400D01*
X117300Y39700D01*
Y44500D01*
G01X177121Y47121D02*
X176713Y47529D01*
X172779D01*
X170000Y44750D01*
X165000D01*
X159000Y50750D01*
X148445D01*
X143047Y56148D01*
G01X116750Y72600D02*
Y80000D01*
G01X142600Y92500D02*
X170134D01*
X174442Y88192D01*
Y82093D01*
X182815Y73720D01*
G01X135705Y96331D02*
X173350D01*
X186298Y83383D01*
X187082D01*
X189780Y80685D01*
G01X162500Y104000D02*
X160250Y101750D01*
X126000D01*
G01X181422Y72327D02*
X172665Y81084D01*
Y87218D01*
X169383Y90500D01*
X137540D01*
G01X142500Y144500D02*
X148500D01*
G01X142500D02*
Y130364D01*
X138636Y126500D01*
X123500D01*
G01X121000Y121500D02*
X138863D01*
G01D02*
X145613Y128250D01*
X166500D01*
X174865Y119885D01*
X210885D01*
X215000Y124000D01*
G01X115000Y116500D02*
Y121500D01*
G01X215439Y146192D02*
X166558D01*
X159626Y153124D01*
X124878D01*
G01X136500Y169500D02*
X141000D01*
G01Y165500D02*
X147500Y159000D01*
X218500D01*
G01X136500Y162550D02*
Y165500D01*
G01X121442Y155911D02*
X121531Y156000D01*
X122690D01*
X123500Y155190D01*
Y153124D01*
G01X121250Y179200D02*
X126050Y184000D01*
X219504D01*
X226179Y190675D01*
X254679D01*
X282016Y163338D01*
Y81500D01*
X273154Y72638D01*
Y71638D01*
G01X162750Y38250D02*
X164460Y39960D01*
X174460D01*
X184000Y49500D01*
X186250D01*
X188387Y51637D01*
Y51708D01*
G01X153750Y48750D02*
X156250D01*
X161767Y43233D01*
X172525D01*
X172879Y42879D01*
G01X153500Y53285D02*
X162973D01*
X167879Y48379D01*
G01X146376Y57491D02*
X167224D01*
X168715Y56000D01*
X168742D01*
X172121Y52621D01*
G01D02*
X174289Y50453D01*
X178774D01*
X184208Y55887D01*
G01X178636Y61459D02*
X176500Y63595D01*
G01X155000Y88000D02*
X168000D01*
X170500Y85500D01*
Y80463D01*
X180029Y70934D01*
G01X155125Y94440D02*
X173239D01*
X188387Y79292D01*
G01X158500Y124000D02*
X173500Y109000D01*
Y104000D01*
G01X169000D02*
X162500D01*
G01X169000D02*
X173500D01*
G01X148500Y144500D02*
Y134000D01*
G01X186750Y114000D02*
X173115D01*
X168500Y118615D01*
G01X147250Y179200D02*
X160950Y165500D01*
X218710D01*
X221271Y162939D01*
Y155041D01*
X231312Y145000D01*
X239000D01*
X247500Y136500D01*
X256250D01*
X259250Y133500D01*
X275500D01*
G01X268488Y142500D02*
X244250D01*
X240500Y146250D01*
X232726D01*
X223987Y154989D01*
Y163719D01*
X218706Y169000D01*
X167450D01*
X157250Y179200D01*
G01X226681Y159729D02*
Y164749D01*
X219805Y171625D01*
X174825D01*
X167250Y179200D01*
G01X189539Y11500D02*
X207300D01*
G01D02*
X207250Y-10800D01*
G01X206063Y31500D02*
Y39336D01*
X208619Y41892D01*
Y45130D01*
X204827Y48922D01*
G01X197398Y22276D02*
X224179D01*
X224184Y22271D01*
X226500D01*
G01X185601Y54494D02*
X180042Y48935D01*
X178935D01*
X177121Y47121D01*
G01X203434Y47529D02*
X200736Y50227D01*
Y50264D01*
X198750Y52250D01*
G01X192315Y54817D02*
X195264Y51868D01*
Y50227D01*
X192566Y47529D01*
G01X199500Y31500D02*
X206063D01*
G01X213937D02*
Y38208D01*
X210210Y41935D01*
Y46325D01*
X206220Y50315D01*
G01X207038Y66436D02*
X212387D01*
X217364Y61459D01*
G01X215971Y60066D02*
X213770Y62267D01*
X211370D01*
X207719Y58616D01*
X200047D01*
G01X178636Y69541D02*
X180694Y67483D01*
X203060D01*
X203985Y68408D01*
X212584D01*
X214812Y66180D01*
X224500D01*
G01X197072Y72870D02*
X209549D01*
X211792Y75113D01*
G01X191051Y73842D02*
X186994Y77899D01*
G01X208071Y63500D02*
X189035D01*
X182815Y57280D01*
G01X202425Y61088D02*
X194981D01*
X186994Y53101D01*
G01X201035Y77192D02*
X198845D01*
X192566Y83471D01*
G01X184208Y75113D02*
X177000Y82321D01*
Y85750D01*
G01X204000Y75750D02*
X204071D01*
X207613Y79292D01*
G01X236536Y43267D02*
X216113D01*
X210370Y49010D01*
X210311D01*
X207613Y51708D01*
G01X185601Y76506D02*
X182000Y80107D01*
G01X181422Y58673D02*
X178000Y55251D01*
G01X205036Y96003D02*
X207300Y98267D01*
X227216D01*
X233521Y91962D01*
Y81014D01*
X236502Y78033D01*
X240949D01*
G01X203434Y83471D02*
X203508D01*
X206039Y86002D01*
Y88753D01*
X205036Y89756D01*
Y96003D01*
G01X198434Y92086D02*
X187414D01*
G01X194795Y94914D02*
X184586D01*
G01X203000Y102500D02*
X207949D01*
G01X184414Y89086D02*
X185875Y87625D01*
Y87376D01*
X191173Y82078D01*
G01X204827D02*
X207525Y84776D01*
Y85525D01*
X211586Y89586D01*
G01X181586Y91914D02*
X184586Y94914D01*
G01X205000Y134000D02*
Y135753D01*
X215439Y146192D01*
G01X272271Y167506D02*
Y169322D01*
X253003Y188590D01*
X229274D01*
X222775Y182091D01*
Y174898D01*
X221572Y173695D01*
X192755D01*
X187250Y179200D01*
G01X226500Y3780D02*
Y-1375D01*
X222500Y-5375D01*
Y-15550D01*
X217250Y-20800D01*
G01X226500Y11500D02*
Y3780D01*
G01X237250Y-10800D02*
X246678D01*
G01X226500Y17500D02*
Y22271D01*
G01X217250Y11500D02*
X222500D01*
G01X217250D02*
Y-10800D01*
G01X222685Y48537D02*
Y52547D01*
X218835Y56397D01*
X216854D01*
X214578Y58673D01*
G01X229329Y46666D02*
X215441D01*
X209006Y53101D01*
G01X234059Y38371D02*
Y38125D01*
X234051Y38117D01*
Y33791D01*
G01Y27491D02*
X238317D01*
X238326Y27500D01*
X240892D01*
G01X221000Y31500D02*
X213937D01*
G01X213185Y73720D02*
X219204Y79739D01*
G01X214250Y86750D02*
Y83143D01*
X209006Y77899D01*
G01X210399Y76506D02*
X217376Y83483D01*
Y86875D01*
G01X214547Y51030D02*
X213863D01*
X210399Y54494D01*
G01X217708Y51314D02*
X215833Y53189D01*
X214490D01*
X211792Y55887D01*
G01X220708Y51344D02*
X217470Y54582D01*
X215883D01*
X213185Y57280D01*
G01X221500Y102500D02*
X226250D01*
G01X214051D02*
X221500D01*
G01X208586Y92586D02*
Y89575D01*
G01X232000Y124000D02*
Y105000D01*
X229500Y102500D01*
X226250D01*
G01X223825Y95414D02*
X211414D01*
G01D02*
X214414Y92414D01*
G01X234500Y140500D02*
X219120D01*
X218991Y140629D01*
G01X215000Y124000D02*
X224500D01*
G01D02*
X232000D01*
G01X234500Y150500D02*
Y158500D01*
X236000Y160000D01*
X239500D01*
G01X244500D02*
X239500D01*
G01X247278Y12327D02*
X266288D01*
X266848Y12887D01*
G01X240983Y19227D02*
Y12332D01*
X240978Y12327D01*
G01X251575Y19244D02*
X254364D01*
X254376Y19232D01*
X259142D01*
G01X251628Y27500D02*
X259142D01*
G01Y35768D02*
X251697D01*
G01D02*
X246772D01*
G01X246983Y19227D02*
X251558D01*
X251575Y19244D01*
G01X246892Y27500D02*
X251628D01*
G01X240772Y42234D02*
Y35768D01*
G01X276750Y42250D02*
X273782D01*
X273766Y42234D01*
X247072D01*
G01X260000Y51362D02*
X255000D01*
G01X240945Y86795D02*
Y81103D01*
X240949Y81099D01*
Y78033D01*
G01X273154Y51362D02*
X264500D01*
G01D02*
X260000D01*
G01X272154Y116138D02*
X268895D01*
X268686Y116347D01*
X268504D01*
G01X263500Y148000D02*
X250000D01*
G01X244500Y154000D02*
Y160000D01*
G01X250000Y152500D02*
Y148000D01*
G01X244500D02*
X250000D01*
G01X273154Y71638D02*
Y51362D01*
G01X272000Y78500D02*
Y83500D01*
G01X272154Y95862D02*
Y116138D01*
G01X272000Y87500D02*
Y91942D01*
X272154Y92096D01*
Y95862D01*
G01X272000Y83500D02*
Y87500D01*
G54D76*
G01X-3500Y133250D02*
X-3000Y132750D01*
G01D02*
Y130500D01*
X-4000Y129500D01*
X-5854D01*
G54D49*
X66389Y51128D03*
G54D58*
X90450Y131747D03*
X95550D03*
X93000Y124253D03*
G54D67*
X178636Y61459D03*
X180029Y60066D03*
X186994Y53101D03*
X188387Y51708D03*
X189780Y50315D03*
X191173Y48922D03*
X192566Y47529D03*
X193959Y46136D03*
X211792Y75113D03*
X210399Y76506D03*
X209006Y77899D03*
X207613Y79292D03*
X206220Y80685D03*
X204827Y82078D03*
X203434Y83471D03*
X202041Y84864D03*
X181422Y58673D03*
X182815Y57280D03*
X184208Y55887D03*
X185601Y54494D03*
X217364Y69541D03*
X215971Y70934D03*
X214578Y72327D03*
X213185Y73720D03*
G54D86*
G01X-5854Y131469D02*
X-7780D01*
X-9349Y129900D01*
X-12900D01*
X-13559Y130559D01*
X-15969D01*
G01X-5854Y127531D02*
X-8531D01*
X-9730Y128730D01*
X-12769D01*
X-13499Y128000D01*
X-15969D01*
G01X6750Y131000D02*
X4249D01*
X3780Y131469D01*
X-146D01*
G01Y127531D02*
X3281D01*
X3465Y127715D01*
X6444D01*
X6593Y127864D01*
G01X38095Y142595D02*
X39905D01*
X40750Y141750D01*
Y138992D01*
X40379Y138621D01*
G01X40500Y145000D02*
Y143655D01*
X41388Y142767D01*
X44525D01*
X44879Y143121D01*
G01X44621Y134379D02*
X47510D01*
X49553Y132336D01*
Y131770D01*
X51642Y129681D01*
G01X49121Y138879D02*
Y134424D01*
X50381Y133164D01*
X50945D01*
X53035Y131074D01*
G54D77*
G01X202041Y84864D02*
X200839Y86066D01*
Y95473D01*
G01X193959Y46136D02*
X190500Y42677D01*
G01X191173Y48922D02*
X187751Y45500D01*
G01X206220Y80685D02*
X209299Y83764D01*
X211627D01*
G01X180029Y60066D02*
X183357Y63394D01*
G01X193959Y84864D02*
X190635Y88188D01*
G01X215971Y70934D02*
X218374Y73337D01*
X220650D01*
G54D59*
X84800Y159700D03*
X91100D03*
X103200D03*
X109500D03*
X240978Y12327D03*
X240772Y42234D03*
X247278Y12327D03*
X247072Y42234D03*
G54D68*
X206063Y31500D03*
X213937D03*
G54D78*
G01X-14650Y145350D02*
X-14750Y145250D01*
G01X-14650Y152500D02*
Y145350D01*
G01X155000Y83000D02*
X150000D01*
X146500Y86500D01*
X127495D01*
G01X167000Y83000D02*
X155000D01*
G54D69*
X207949Y102500D03*
X214051D03*
G54D79*
G01X-10500Y43000D02*
X-17000D01*
X-23000Y37500D01*
G01X-10500Y53000D02*
Y50000D01*
X-13000Y47500D01*
X-23000D01*
G01Y98000D02*
Y103750D01*
X-21250Y105500D01*
X-8500D01*
G01X-15969Y133118D02*
X-12567D01*
G01X-15969Y122882D02*
X-10632D01*
G01X-4269Y15609D02*
Y17750D01*
X-6419Y19900D01*
G01X-11499Y15383D02*
Y17651D01*
X-9250Y19900D01*
G01X-8000D02*
Y15500D01*
G01X-9250Y19900D02*
X-13600D01*
G01X-8000D02*
X-9250D01*
G01X-6419D02*
X-2100D01*
G01X-8000D02*
X-6419D01*
G01X-10500Y39000D02*
Y35750D01*
G01X9100Y32000D02*
X12750D01*
G01X16900Y43000D02*
Y44950D01*
G01D02*
Y45900D01*
X23500Y52500D01*
G01X16900Y44950D02*
X11850Y50000D01*
X-6000D01*
X-10500Y45500D01*
Y43000D01*
G01X15107Y72840D02*
X9034D01*
X8965Y72909D01*
X4715D01*
G01X-10500Y57000D02*
Y60000D01*
G01Y53000D02*
X11350D01*
X16900Y58550D01*
Y60500D01*
G01D02*
X20400Y57000D01*
X23500D01*
G01X11000Y91200D02*
X12300D01*
X15107Y88393D01*
Y82879D01*
G01X3000Y91200D02*
X11000D01*
G01X-8500Y99500D02*
X-12500D01*
G01X11000Y98800D02*
X18500D01*
G01X3000D02*
X11000D01*
G01X3000Y105500D02*
Y98800D01*
G01Y105500D02*
X-8500D01*
G01X16500Y119500D02*
X18502D01*
G01X14498D02*
X16500D01*
G01Y117498D02*
Y119500D01*
G01X5000Y123750D02*
X5250Y123500D01*
X8000D01*
G01X16500Y126750D02*
Y123500D01*
G01Y133000D02*
Y126750D01*
G01X8000Y116500D02*
X6250D01*
X4500Y118250D01*
X-2500D01*
G01X-6500Y142250D02*
Y141750D01*
X-4250Y139500D01*
G01X-6500Y143150D02*
Y142250D01*
G01D02*
X-9250Y139500D01*
G01X-8002Y137500D02*
X-6000D01*
G01Y135498D02*
Y137500D01*
G01X8000Y123500D02*
X11500Y127000D01*
Y133000D01*
G01X16500Y155000D02*
X18502D01*
G01X16500Y150248D02*
Y155000D01*
G01X3500Y146800D02*
X7252D01*
G01X3500D02*
Y149302D01*
G01X4500Y155000D02*
X6652D01*
G01X2348D02*
X4500D01*
G01D02*
Y157152D01*
G01Y152848D02*
Y155000D01*
G01X9498D02*
X11500D01*
G01Y150248D02*
Y155000D01*
G01X-1850Y149750D02*
X-5300D01*
X-6400Y150850D01*
X-6500D01*
G01X-11124Y148000D02*
X-8274Y150850D01*
X-6500D01*
G01X16500Y162000D02*
Y165250D01*
G01Y155000D02*
Y162000D01*
G01X4862Y189846D02*
X9512D01*
G01X36000Y35500D02*
Y32500D01*
G01Y40000D02*
Y43000D01*
G01X35000Y47870D02*
Y52750D01*
X35500Y53250D01*
G01X23721Y70484D02*
Y67029D01*
G01Y76484D02*
X29984D01*
X30000Y76500D01*
G01X49500D02*
X53000D01*
G01X49500Y80500D02*
X53250D01*
G01X23500Y52500D02*
X28250Y57250D01*
X35000D01*
X40000Y62250D01*
Y69130D01*
G01X35000D02*
Y62000D01*
X33500Y60500D01*
X27000D01*
X23500Y57000D01*
G01X40000Y77500D02*
X39000Y76500D01*
X36000D01*
G01X45500D02*
X44000D01*
X42750Y75250D01*
G01X45500Y80500D02*
Y83500D01*
G01X45000Y69130D02*
Y63750D01*
G01X30000Y69130D02*
Y76500D01*
G01X40843Y84343D02*
X42541Y86041D01*
G01X39145Y82645D02*
X40843Y84343D01*
G01D02*
X42471Y82715D01*
G01X39215Y85971D02*
X40843Y84343D01*
G01X36843Y88343D02*
X38541Y90041D01*
G01X35145Y86645D02*
X36843Y88343D01*
G01D02*
X38471Y86715D01*
G01X35215Y89971D02*
X36843Y88343D01*
G01X28490Y105404D02*
X30492D01*
G01Y103402D02*
Y105404D01*
G01X31319Y102576D02*
X33321D01*
G01Y100574D02*
Y102576D01*
G01X34147Y99747D02*
X36149D01*
G01Y97745D02*
Y99747D01*
G01X18500Y98800D02*
Y93750D01*
G01X37994Y108101D02*
X38250Y108357D01*
Y108500D01*
X39586Y109836D01*
Y110586D01*
G01X46086Y104586D02*
X44000Y102500D01*
G01X43086Y107586D02*
X41000Y105500D01*
G01X36149Y113889D02*
X34248Y111988D01*
X33892D01*
G01X22498Y119500D02*
X24500D01*
G01Y117498D02*
Y119500D01*
G01Y123500D02*
X20500D01*
Y128250D01*
X21500Y129250D01*
Y133000D01*
G01X26250Y126250D02*
X24500Y124500D01*
Y123500D01*
G01X32500Y140000D02*
X27000D01*
G01X30379Y115879D02*
Y117371D01*
X29250Y118500D01*
Y127500D01*
X26500Y130250D01*
Y133000D01*
G01X32500Y136000D02*
X29500Y133000D01*
X26500D01*
G01X39086Y132414D02*
X36500Y135000D01*
G01X32813Y130687D02*
Y131313D01*
X36500Y135000D01*
G01X19198Y164000D02*
X21700D01*
G01D02*
Y167752D01*
G01X43000Y151700D02*
X46752D01*
G01X43000Y149198D02*
Y151700D01*
G01X30498Y152000D02*
X32500D01*
G01Y149998D02*
Y152000D01*
G01X34500Y147500D02*
X36652D01*
G01X32348D02*
X34500D01*
G01D02*
Y149652D01*
G01X26500Y155000D02*
X28502D01*
G01X26500D02*
Y159752D01*
G01Y150248D02*
Y155000D01*
G01X37000Y152000D02*
X39000Y150000D01*
G01X37000Y152000D02*
Y149750D01*
G01X29300Y164000D02*
X33250D01*
G01X43000Y159300D02*
Y163250D01*
G01X51586Y144914D02*
X49000Y147500D01*
G01X25138Y189846D02*
X20488D01*
G01X77250Y-10800D02*
X81352Y-14902D01*
G01X73148D02*
X77250Y-10800D01*
G01Y-14902D02*
Y-10800D01*
G01X73148Y-6698D02*
X77250Y-10800D01*
G01D02*
X81352Y-6698D01*
G01X77250Y-10800D02*
X81352D01*
G01X73148D02*
X77250D01*
G01D02*
Y-6698D01*
G01X56500Y10322D02*
X60102Y2770D01*
G01X52898Y17874D02*
X56500Y10322D01*
G01D02*
X60102Y17874D01*
G01X52898Y2770D02*
X56500Y10322D01*
G01D02*
X60102D01*
G01X52898D02*
X56500D01*
G01D02*
Y17874D01*
G01Y2770D02*
Y10322D01*
G01X77250Y-362D02*
X78916Y-2028D01*
G01X75584D02*
X77250Y-362D01*
G01D02*
X79252D01*
G01X75248D02*
X77250D01*
G01Y-2364D02*
Y-362D01*
G01X56500Y32000D02*
X58166Y30334D01*
G01X56500Y32000D02*
X58166Y33666D01*
G01X56500Y32000D02*
X58502D01*
G01X56500D02*
Y34002D01*
G01Y29998D02*
Y32000D01*
G01X57500Y51500D02*
X61390Y43998D01*
G01X53610D02*
X57500Y51500D01*
G01Y43998D02*
Y51500D01*
G01X56500Y40000D02*
X58272Y38228D01*
G01X54728Y41772D02*
X56500Y40000D01*
G01D02*
X58272Y41772D01*
G01X54728Y38228D02*
X56500Y40000D01*
G01D02*
X58652D01*
G01X54348D02*
X56500D01*
G01D02*
Y42152D01*
G01Y37848D02*
Y40000D01*
G01X76428Y51128D02*
X81530Y47902D01*
G01X76428Y47626D02*
Y51128D01*
G01X79500Y35600D02*
X87252Y32000D01*
G01X79500Y28400D02*
X87252Y32000D01*
G01X79500D02*
X87252D01*
G01X75250Y27000D02*
Y29250D01*
X72500Y32000D01*
X68748D01*
G01X53610Y59002D02*
X57500Y51500D01*
G01X53248D02*
X57500D01*
G01D02*
Y59002D01*
G01X55597Y64097D02*
X58500Y67000D01*
G01X54748D02*
X58500D01*
G01Y63248D02*
Y67000D01*
G01X66389Y51128D02*
X68941D01*
G01X63837D02*
X66389D01*
G01D02*
Y54630D01*
G01X58500Y77000D02*
X62252D01*
G01X58500D02*
Y80752D01*
G01Y73248D02*
Y77000D01*
G01X76428Y51128D02*
X81530Y54354D01*
G01X76428Y51128D02*
X81530D01*
G01X76428D02*
Y54630D01*
G01X90224Y60672D02*
X78176D01*
X70261Y68587D01*
Y71007D01*
X80986Y81732D01*
Y96246D01*
X72521Y104711D01*
G01X74191Y93062D02*
Y92996D01*
X71804Y90609D01*
G01X53313Y86313D02*
X56688Y82938D01*
G01X64914Y93086D02*
X67250Y90750D01*
G01X62000Y153200D02*
Y149450D01*
G01X68500Y153200D02*
Y149450D01*
G01X80000Y149124D02*
X77050D01*
G01X80000Y156750D02*
Y153124D01*
G01X74000Y156000D02*
Y152500D01*
G01X102500Y12498D02*
Y20000D01*
G01X113148Y-10800D02*
X117250D01*
G01X102500Y48498D02*
Y56000D01*
G01X87252Y32000D02*
X95004Y28400D01*
G01X87252Y32000D02*
X95004Y35600D01*
G01X87252Y32000D02*
X95004D01*
G01X87252D02*
Y36002D01*
G01Y27998D02*
Y32000D01*
G01X84157Y49488D02*
X85823Y47822D01*
G01X82491D02*
X84157Y49488D01*
G01X82155D02*
X84157D01*
G01Y47486D02*
Y49488D01*
G01X88193D02*
X89859Y47822D01*
G01X86527D02*
X88193Y49488D01*
G01D02*
X90195D01*
G01X88193Y47486D02*
Y49488D01*
G01X93736Y48992D02*
X95508Y47220D01*
G01X91964Y50764D02*
X93736Y48992D01*
G01D02*
X95508Y50764D01*
G01X91964Y47220D02*
X93736Y48992D01*
G01X91584D02*
X93736D01*
G01D02*
Y51144D01*
G01Y46840D02*
Y48992D01*
G01X102500Y20000D02*
X106752D01*
G01X98248D02*
X102500D01*
G01D02*
Y27502D01*
G01X112748Y21800D02*
X116500D01*
G01X107700Y38500D02*
X102500D01*
G01X111800Y33500D02*
X107700D01*
G01X111800Y38500D02*
X107700D01*
G01X102500Y56000D02*
X106752D01*
G01X102500D02*
Y63502D01*
G01X113000Y56500D02*
X116002D01*
G01X109998D02*
X113000D01*
G01D02*
Y59002D01*
G01X90224Y60672D02*
X90578D01*
X91750Y59500D01*
X94699D01*
X97056Y61857D01*
Y70742D01*
X111250Y84936D01*
X120948D01*
X124778Y88766D01*
Y90345D01*
X123010Y92113D01*
G01X88193Y53488D02*
X92205D01*
G01X84157D02*
X88193D01*
G01X111500Y66400D02*
Y69550D01*
G01Y76000D02*
Y73050D01*
G01X113000Y50500D02*
X117000D01*
G01X85000Y104250D02*
X86591Y102659D01*
X87871D01*
X92041Y98489D01*
X98411D01*
X112534Y112612D01*
X114657D01*
X120489Y106780D01*
Y94634D01*
X123010Y92113D01*
G01X98677Y112450D02*
X100814Y110313D01*
G01X94435Y108207D02*
X96571Y106071D01*
G01X90192Y103965D02*
X92278Y101879D01*
G01X87364Y111036D02*
X89450Y108950D01*
G01X83121Y106793D02*
Y106129D01*
X85000Y104250D01*
G01X91606Y115278D02*
X93750Y113134D01*
G01X108247Y134297D02*
X111697D01*
G01X84201Y131500D02*
Y132500D01*
X85701Y134000D01*
X86460D01*
X86500Y134040D01*
X86537D01*
G01X90450Y131747D02*
X88597D01*
X87350Y130500D01*
G01X101753Y118950D02*
X105450D01*
G01X97000Y153124D02*
Y156074D01*
G01Y149124D02*
X94500Y146500D01*
G01X144099Y-13951D02*
X147250Y-10800D01*
G01X117250Y-14902D02*
Y-10800D01*
G01X144099Y-7649D02*
X147250Y-10800D01*
G01X143148D02*
X147250D01*
G01X117250D02*
X121352D01*
G01X117250D02*
Y-6698D01*
G01X117530Y-362D02*
X119532D01*
G01X115528D02*
X117530D01*
G01Y-2364D02*
Y-362D01*
G01X116500Y14200D02*
X121250D01*
G01X125250Y14258D02*
X123500Y16008D01*
Y17500D01*
G01X116500Y21800D02*
X120252D01*
G01X116500D02*
Y24302D01*
G01X123500Y21500D02*
X125502D01*
G01X121498D02*
X123500D01*
G01D02*
Y23502D01*
G01X128500Y21500D02*
X130752D01*
G01X126248D02*
X128500D01*
G01D02*
Y23752D01*
G01Y19248D02*
Y21500D01*
G01X128750Y28400D02*
X130852D01*
G01X126648D02*
X128750D01*
G01D02*
Y31102D01*
G01Y25698D02*
Y28400D01*
G01X143748Y32500D02*
X146000D01*
G01X125000Y38600D02*
Y34250D01*
G01X119500Y52500D02*
Y49950D01*
X120250Y49200D01*
G01X133000Y48500D02*
X135250Y50750D01*
G01X117498Y56500D02*
X119500D01*
G01D02*
Y58502D01*
G01X124250Y62400D02*
X126352D01*
G01X122148D02*
X124250D01*
G01D02*
Y65102D01*
G01Y59698D02*
Y62400D01*
G01X124000Y56500D02*
X126152D01*
G01X124000D02*
Y58652D01*
G01Y54348D02*
Y56500D01*
G01X138500Y75000D02*
Y71050D01*
G01X132500Y56307D02*
X137443D01*
G01X132500D02*
Y52750D01*
G01X120500Y72600D02*
Y68500D01*
G01X136500Y80700D02*
X140050D01*
G01X200839Y95473D02*
X197551Y98761D01*
X126257D01*
G01X118500Y149124D02*
X115376D01*
G01X118500Y153124D02*
Y156500D01*
G01X147250Y-10800D02*
X150401Y-13951D01*
G01X147250Y-14902D02*
Y-10800D01*
G01D02*
X150401Y-7649D01*
G01X147250Y-10800D02*
X151352D01*
G01X185677Y4252D02*
X176651D01*
G01X174000Y11949D02*
X177750D01*
G01X174000D02*
Y8500D01*
G01Y24800D02*
Y18051D01*
G01X146000Y32500D02*
X148252D01*
G01X146000D02*
Y34752D01*
G01Y30248D02*
Y32500D01*
G01X151248D02*
X155000D01*
G01D02*
Y36252D01*
G01Y28748D02*
Y32500D01*
G01X172500Y34710D02*
X174290D01*
X175500Y33500D01*
G01Y38000D02*
X171250D01*
G01X145300Y44000D02*
Y49000D01*
G01X167000Y77000D02*
X170002D01*
G01X163998D02*
X167000D01*
G01Y74498D02*
Y77000D01*
G01X155000Y73000D02*
X158752D01*
G01X155000D02*
Y76752D01*
G01Y69248D02*
Y73000D01*
G01X167000Y70500D02*
X169252D01*
G01X164748D02*
X167000D01*
G01D02*
Y72752D01*
G01Y68248D02*
Y70500D01*
G01X158750Y144500D02*
X152500D01*
G01X184152Y125473D02*
X174394D01*
G01X185677Y4252D02*
Y10213D01*
G01X198500Y17500D02*
X203000D01*
G01X207300D02*
X203000D01*
G01X179500Y21200D02*
Y17000D01*
G01X191500Y17750D02*
X189500D01*
X188000Y19250D01*
Y21200D01*
G01Y28800D02*
X191752D01*
G01X184248D02*
X188000D01*
G01D02*
Y31302D01*
G01X201085Y45180D02*
X202041Y46136D01*
G01X188000Y37000D02*
X190002D01*
G01X185998D02*
X188000D01*
G01Y34998D02*
Y37000D01*
G01X193000D02*
X195252D01*
G01X190748D02*
X193000D01*
G01D02*
Y39252D01*
G01Y34748D02*
Y37000D01*
G01X183000Y43000D02*
X184945Y44945D01*
Y45523D01*
G01X188000Y41000D02*
X188823D01*
X190500Y42677D01*
G01X188000Y21200D02*
X193050D01*
G01X221000Y27500D02*
X217939Y24439D01*
X200561D01*
X199500Y25500D01*
Y27500D01*
G01D02*
X197000D01*
X196385Y28115D01*
Y34115D01*
X205635Y43365D01*
G01X177500Y104000D02*
Y107750D01*
G01X184152Y125473D02*
X193622D01*
G01X184152D02*
Y132083D01*
G01X217250Y17500D02*
X213300D01*
G01X212037Y43705D02*
X217242Y38500D01*
X220000D01*
X223500Y35000D01*
Y29000D01*
X222000Y27500D01*
X221000D01*
G01X225998Y74500D02*
X228000D01*
G01D02*
Y76502D01*
G01Y72498D02*
Y74500D01*
G01X240044Y71456D02*
X241813Y69687D01*
G01X235328Y64672D02*
X238087Y67431D01*
G01X232569Y61913D02*
X235328Y64672D01*
G01D02*
X237521Y62479D01*
G01X233135Y66865D02*
X235328Y64672D01*
G01X232000Y74500D02*
Y77500D01*
G01X224500Y118000D02*
Y121250D01*
G01Y128000D02*
Y131500D01*
G01X259000Y78500D02*
X261252D01*
G01X256748D02*
X259000D01*
G01D02*
Y80752D01*
G01Y76248D02*
Y78500D01*
G01X246949Y78033D02*
X249451D01*
G01X246949Y75031D02*
Y78033D01*
G01X256998Y71500D02*
X259000D01*
G01D02*
Y73502D01*
G01X259055Y81693D02*
Y86795D01*
G01X259000Y67500D02*
X257000D01*
G01X259000Y63000D02*
X255750D01*
G01X259000D02*
X256750Y65250D01*
G01X241813Y69687D02*
X244466Y72340D01*
G01X264500Y55362D02*
Y58500D01*
G01X260000Y55362D02*
Y58500D01*
G01X243672Y56328D02*
X247297Y59953D01*
G01X243672Y56328D02*
X246536Y53464D01*
G01X247187Y64313D02*
X250000Y61500D01*
G01X247187Y64313D02*
X250750Y67876D01*
G01X263000Y63000D02*
X266500D01*
G01X263000Y67500D02*
X266500D01*
G01X263000Y71500D02*
X266500D01*
G01X250000Y86795D02*
X253102D01*
G01X246898D02*
X250000D01*
G01D02*
Y91897D01*
G01Y111205D02*
X258102D01*
G01X241898D02*
X250000D01*
G01D02*
Y116307D01*
G01Y106103D02*
Y111205D01*
G01X259055Y86795D02*
X262157D01*
G01X259055D02*
Y91897D01*
G01X250000Y123000D02*
X257502D01*
G01X242498D02*
X250000D01*
G01D02*
Y127252D01*
G01Y118748D02*
Y123000D01*
G01Y156500D02*
X253500D01*
G01X248500Y160000D02*
X251750D01*
G01X278846Y95862D02*
Y101654D01*
G01Y116138D02*
Y109846D01*
G01X276000Y83500D02*
X280000D01*
G01X276000Y87500D02*
X280000D01*
M02*
