G04 ================== begin FILE IDENTIFICATION RECORD ==================*
G04 Layout Name:  LAY-28891.brd*
G04 Film Name:    sss.art*
G04 File Format:  Gerber RS274X*
G04 File Origin:  Cadence Allegro 16.6-2015-S065*
G04 Origin Date:  Thu Mar 10 14:27:35 2016*
G04 *
G04 Layer:  REF DES/SILKSCREEN_BOTTOM*
G04 Layer:  PACKAGE GEOMETRY/SILKSCREEN_BOTTOM*
G04 Layer:  DRAWING FORMAT/FILM_TITLE_BLOCK*
G04 Layer:  BOARD GEOMETRY/OUTLINE*
G04 Layer:  BOARD GEOMETRY/SILKSCREEN_BOTTOM*
G04 *
G04 Offset:    (0.00 0.00)*
G04 Mirror:    No*
G04 Mode:      Positive*
G04 Rotation:  0*
G04 FullContactRelief:  No*
G04 UndefLineWidth:     8.00*
G04 ================== end FILE IDENTIFICATION RECORD ====================*
%FSLAX55Y55*MOIN*%
%IR0*IPPOS*OFA0.00000B0.00000*MIA0B0*SFA1.00000B1.00000*%
%ADD10C,.01*%
%ADD11C,.02*%
%ADD12C,.008*%
%ADD13C,.006*%
%ADD14C,.007*%
G75*
%LPD*%
G75*
G54D10*
G01X-63840Y-187660D02*
X336160D01*
G01X-63840Y-157660D02*
Y-137660D01*
X336160D01*
G01X-13840Y-207660D02*
Y-187660D01*
G01X132609Y35279D02*
X32609D01*
Y60279D01*
X132609D01*
Y35279D01*
G01X67740Y68048D02*
X86740Y80248D01*
G01X92840Y68048D02*
X68040D01*
X80340Y92948D01*
X92940Y68048D01*
G01X111660Y-207660D02*
Y-187660D01*
G01X111160Y-137660D02*
Y-107660D01*
G01X161160Y-207660D02*
Y-187660D01*
G01X280935Y44754D02*
X180935D01*
Y69754D01*
X280935D01*
Y44754D01*
G01X281000Y83500D02*
X181000D01*
Y108500D01*
X281000D01*
Y83500D01*
G54D11*
G01X336160Y-107660D02*
Y-207660D01*
X-63840D01*
G01D02*
Y-107660D01*
X336160D01*
G54D12*
G01X287150Y149119D02*
G03X237150Y199119I-50005J-5D01*
G01X17150D01*
G03X-32850Y149119I5J-50005D01*
G01Y19071D01*
G03X17250Y-30929I50100J100D01*
G01X237150D01*
G03X287150Y19071I-5J50005D01*
G01Y149119D01*
G01X127533Y46017D02*
X126906Y45492D01*
X126201Y45177D01*
X125575D01*
X124948Y45492D01*
X124478Y46017D01*
X124243Y46752D01*
X124400Y47487D01*
X124791Y48117D01*
X125496Y48537D01*
X126436Y48747D01*
X126985Y49167D01*
X127220Y49902D01*
X127063Y50637D01*
X126671Y51162D01*
X126123Y51477D01*
X125575D01*
X125026Y51267D01*
X124556Y50742D01*
G01X117865Y50952D02*
X118335Y51267D01*
X118883Y51477D01*
X119510D01*
X120215Y51162D01*
X120763Y50637D01*
X121155Y50007D01*
X121468Y48957D01*
X121546Y48012D01*
X121390Y47067D01*
X121155Y46437D01*
X120685Y45807D01*
X120136Y45387D01*
X119588Y45177D01*
X119040D01*
X118491Y45387D01*
X118021Y45702D01*
X117630Y46122D01*
G01X114933Y45177D02*
Y51477D01*
G01X111643D02*
Y45177D01*
G01Y48327D02*
X114933D01*
G01X108006Y47277D02*
X105970D01*
G01X102333Y45177D02*
X99043Y51477D01*
G01X102333D02*
X99043Y45177D01*
G01X96033D02*
X92743Y51477D01*
G01X96033D02*
X92743Y45177D01*
G01X89733D02*
X86443Y51477D01*
G01X89733D02*
X86443Y45177D01*
G01X83433D02*
X80143Y51477D01*
G01X83433D02*
X80143Y45177D01*
G01X77133D02*
X73843Y51477D01*
G01X77133D02*
X73843Y45177D01*
G01X64455D02*
Y51477D01*
X62496D01*
X61870Y51162D01*
X61478Y50742D01*
X61321Y49902D01*
X61478Y49062D01*
X61948Y48537D01*
X62496Y48222D01*
X64455D01*
G01X62496D02*
X61321Y45177D01*
G01X55021D02*
X58155D01*
Y51477D01*
X55021D01*
G01X56275Y48432D02*
X58155D01*
G01X52246Y51477D02*
X50288Y45177D01*
X48330Y51477D01*
G01X39333Y45177D02*
X36043Y51477D01*
G01X39333D02*
X36043Y45177D01*
G01X276128Y98228D02*
X275971Y99593D01*
X275736Y100748D01*
X275423Y101798D01*
X275031Y102953D01*
X274404Y104528D01*
X277538D01*
G01X269671D02*
X270298Y104318D01*
X270768Y103793D01*
X271081Y103163D01*
X271316Y102323D01*
X271394Y101378D01*
X271316Y100433D01*
X271081Y99593D01*
X270768Y98963D01*
X270298Y98438D01*
X269671Y98228D01*
X269044Y98438D01*
X268574Y98963D01*
X268261Y99593D01*
X268026Y100433D01*
X267948Y101378D01*
X268026Y102323D01*
X268261Y103163D01*
X268574Y103793D01*
X269044Y104318D01*
X269671Y104528D01*
G01X263371D02*
X263998Y104318D01*
X264468Y103793D01*
X264781Y103163D01*
X265016Y102323D01*
X265094Y101378D01*
X265016Y100433D01*
X264781Y99593D01*
X264468Y98963D01*
X263998Y98438D01*
X263371Y98228D01*
X262744Y98438D01*
X262274Y98963D01*
X261961Y99593D01*
X261726Y100433D01*
X261648Y101378D01*
X261726Y102323D01*
X261961Y103163D01*
X262274Y103793D01*
X262744Y104318D01*
X263371Y104528D01*
G01X258089Y100328D02*
X256053D01*
G01X252416Y98228D02*
X249126Y104528D01*
G01X252416D02*
X249126Y98228D01*
G01X246116D02*
X242826Y104528D01*
G01X246116D02*
X242826Y98228D01*
G01X239816D02*
X236526Y104528D01*
G01X239816D02*
X236526Y98228D01*
G01X233516D02*
X230226Y104528D01*
G01X233516D02*
X230226Y98228D01*
G01X227216D02*
X223926Y104528D01*
G01X227216D02*
X223926Y98228D01*
G01X214538D02*
Y104528D01*
X212579D01*
X211953Y104213D01*
X211561Y103793D01*
X211404Y102953D01*
X211561Y102113D01*
X212031Y101588D01*
X212579Y101273D01*
X214538D01*
G01X212579D02*
X211404Y98228D01*
G01X205104D02*
X208238D01*
Y104528D01*
X205104D01*
G01X206358Y101483D02*
X208238D01*
G01X202329Y104528D02*
X200371Y98228D01*
X198413Y104528D01*
G01X189416Y98228D02*
X186126Y104528D01*
G01X189416D02*
X186126Y98228D01*
G01X276674Y37903D02*
X276047Y37378D01*
X275342Y37063D01*
X274716D01*
X274089Y37378D01*
X273619Y37903D01*
X273384Y38638D01*
X273541Y39373D01*
X273932Y40003D01*
X274637Y40423D01*
X275577Y40633D01*
X276126Y41053D01*
X276361Y41788D01*
X276204Y42523D01*
X275812Y43048D01*
X275264Y43363D01*
X274716D01*
X274167Y43153D01*
X273697Y42628D01*
G01X270139Y36853D02*
X267319Y43363D01*
G01X264231Y37063D02*
Y43363D01*
X260627Y37063D01*
Y43363D01*
G01X73140Y77348D02*
G02X75540Y76248I0J-3168D01*
G03X76240Y75648I2331J2011D01*
G01X79840Y74448D01*
G02X82340Y72048I0J-2502D01*
G03X83240Y71748I572J217D01*
G01X83340Y71948D01*
G03X83240Y73648I-1530J763D01*
G03X82540Y74648I-17462J-11479D01*
G03X80540Y75848I-2459J-1832D01*
G01X74440Y80548D02*
G02X75140Y80448I0J-2500D01*
G03X75740Y80348I720J2469D01*
G03X77240I750J16061D01*
G03X79740Y80748I-529J11319D01*
G02X83640Y79948I1168J-4210D01*
G02X84140Y79248I-987J-1234D01*
G03X84840Y78448I1358J482D01*
G01X85340Y78048D01*
X85940Y77548D01*
G02X86540Y76448I-1090J-1308D01*
G01Y76348D01*
X86440Y75948D01*
X86340Y75348D01*
X86240Y74548D01*
Y73248D01*
G02X85540Y71548I-2414J0D01*
G02X84740Y72148I-350J367D01*
G01X85040Y72748D01*
X84840Y74148D01*
G02X84940Y74948I1511J217D01*
G03X85240Y75748I-13600J5556D01*
G01X84640Y75848D01*
G02X84140Y76048I207J1242D01*
G02X82640Y77148I15546J22772D01*
G01X85568Y112326D02*
G02X85068Y109826I1500J-1600D01*
G01X90968Y110826D02*
G03I-3900J0D01*
G54D13*
G01X-62332Y-204440D02*
X-61783Y-204940D01*
X-61157Y-205140D01*
X-60530Y-204940D01*
X-59982Y-204340D01*
X-59590Y-203440D01*
X-59433Y-202540D01*
Y-201440D01*
X-59590Y-200540D01*
X-59982Y-199740D01*
X-60452Y-199340D01*
X-61000Y-199140D01*
X-61627Y-199340D01*
X-62097Y-199740D01*
X-62410Y-200340D01*
X-62567Y-201140D01*
X-62410Y-201840D01*
X-62018Y-202540D01*
X-61548Y-202940D01*
X-61000Y-203040D01*
X-60373Y-202840D01*
X-59903Y-202340D01*
X-59433Y-201440D01*
G01X-48400Y-205140D02*
X-49027Y-205040D01*
X-49575Y-204640D01*
X-50045Y-204040D01*
X-50358Y-203340D01*
X-50515Y-202540D01*
Y-201740D01*
X-50358Y-200940D01*
X-50045Y-200240D01*
X-49575Y-199640D01*
X-49027Y-199240D01*
X-48400Y-199140D01*
X-47773Y-199240D01*
X-47225Y-199640D01*
X-46755Y-200240D01*
X-46442Y-200940D01*
X-46285Y-201740D01*
Y-202540D01*
X-46442Y-203340D01*
X-46755Y-204040D01*
X-47225Y-204640D01*
X-47773Y-205040D01*
X-48400Y-205140D01*
G01X-43588D02*
Y-199140D01*
X-40612D01*
G01X-41708Y-202040D02*
X-43588D01*
G01X-29500Y-205140D02*
Y-199140D01*
X-30440Y-200340D01*
G01Y-205140D02*
X-28560D01*
G01X-23200Y-199140D02*
X-23827Y-199340D01*
X-24297Y-199840D01*
X-24610Y-200440D01*
X-24845Y-201240D01*
X-24923Y-202140D01*
X-24845Y-203040D01*
X-24610Y-203840D01*
X-24297Y-204440D01*
X-23827Y-204940D01*
X-23200Y-205140D01*
X-22573Y-204940D01*
X-22103Y-204440D01*
X-21790Y-203840D01*
X-21555Y-203040D01*
X-21477Y-202140D01*
X-21555Y-201240D01*
X-21790Y-200440D01*
X-22103Y-199840D01*
X-22573Y-199340D01*
X-23200Y-199140D01*
G01X-52198Y-184660D02*
Y-180660D01*
X-49982D01*
G01X-50798Y-182593D02*
X-52198D01*
G01X-47457Y-184660D02*
Y-180660D01*
X-45998D01*
X-45532Y-180860D01*
X-45240Y-181127D01*
X-45123Y-181660D01*
X-45240Y-182193D01*
X-45590Y-182527D01*
X-45998Y-182727D01*
X-47457D01*
G01X-45998D02*
X-45123Y-184660D01*
G01X-40323D02*
X-42657D01*
Y-180660D01*
X-40323D01*
G01X-41257Y-182593D02*
X-42657D01*
G01X-35523Y-184660D02*
X-37857D01*
Y-180660D01*
X-35523D01*
G01X-36457Y-182593D02*
X-37857D01*
G01X-33115Y-184127D02*
X-32648Y-184460D01*
X-32123Y-184660D01*
X-31657D01*
X-31190Y-184460D01*
X-30840Y-184127D01*
X-30665Y-183660D01*
X-30782Y-183193D01*
X-31073Y-182793D01*
X-31598Y-182527D01*
X-32298Y-182393D01*
X-32707Y-182127D01*
X-32882Y-181660D01*
X-32765Y-181193D01*
X-32473Y-180860D01*
X-32065Y-180660D01*
X-31657D01*
X-31248Y-180793D01*
X-30898Y-181127D01*
G01X-25807Y-180993D02*
X-26157Y-180793D01*
X-26565Y-180660D01*
X-27032D01*
X-27557Y-180860D01*
X-27965Y-181193D01*
X-28257Y-181593D01*
X-28490Y-182260D01*
X-28548Y-182860D01*
X-28432Y-183460D01*
X-28257Y-183860D01*
X-27907Y-184260D01*
X-27498Y-184527D01*
X-27090Y-184660D01*
X-26682D01*
X-26273Y-184527D01*
X-25923Y-184327D01*
X-25632Y-184060D01*
G01X-23748Y-184660D02*
X-22290Y-180660D01*
X-20832Y-184660D01*
G01X-21357Y-183260D02*
X-23223D01*
G01X-18657Y-180660D02*
Y-184660D01*
X-16323D01*
G01X-11523D02*
X-13857D01*
Y-180660D01*
X-11523D01*
G01X-12457Y-182593D02*
X-13857D01*
G01X-7890Y-184793D02*
X-8007Y-184727D01*
Y-184593D01*
X-7890Y-184527D01*
X-7773Y-184593D01*
Y-184727D01*
X-7890Y-184793D01*
G01X-52090Y-176660D02*
X-52557Y-176593D01*
X-52965Y-176327D01*
X-53315Y-175927D01*
X-53548Y-175460D01*
X-53665Y-174927D01*
Y-174393D01*
X-53548Y-173860D01*
X-53315Y-173393D01*
X-52965Y-172993D01*
X-52557Y-172727D01*
X-52090Y-172660D01*
X-51623Y-172727D01*
X-51215Y-172993D01*
X-50865Y-173393D01*
X-50632Y-173860D01*
X-50515Y-174393D01*
Y-174927D01*
X-50632Y-175460D01*
X-50865Y-175927D01*
X-51215Y-176327D01*
X-51623Y-176593D01*
X-52090Y-176660D01*
G01X-48457D02*
Y-172660D01*
X-46998D01*
X-46532Y-172860D01*
X-46240Y-173127D01*
X-46123Y-173660D01*
X-46240Y-174193D01*
X-46590Y-174527D01*
X-46998Y-174727D01*
X-48457D01*
G01X-46998D02*
X-46123Y-176660D01*
G01X-38390Y-172660D02*
X-36990D01*
G01X-37690D02*
Y-176660D01*
G01X-38390D02*
X-36990D01*
G01X-34232D02*
Y-172660D01*
X-31548Y-176660D01*
Y-172660D01*
G01X-24457Y-176660D02*
Y-172660D01*
X-23057D01*
X-22590Y-172860D01*
X-22240Y-173327D01*
X-22123Y-173860D01*
X-22240Y-174393D01*
X-22532Y-174793D01*
X-23057Y-174993D01*
X-24457D01*
G01X-19948Y-176660D02*
X-18490Y-172660D01*
X-17032Y-176660D01*
G01X-17557Y-175260D02*
X-19423D01*
G01X-14857Y-176660D02*
Y-172660D01*
X-13398D01*
X-12932Y-172860D01*
X-12640Y-173127D01*
X-12523Y-173660D01*
X-12640Y-174193D01*
X-12990Y-174527D01*
X-13398Y-174727D01*
X-14857D01*
G01X-13398D02*
X-12523Y-176660D01*
G01X-8890Y-172660D02*
Y-176660D01*
G01X-10232Y-172660D02*
X-7548D01*
G01X-1040D02*
X-223Y-176660D01*
X710Y-172660D01*
X1643Y-176660D01*
X2460Y-172660D01*
G01X4810D02*
X6210D01*
G01X5510D02*
Y-176660D01*
G01X4810D02*
X6210D01*
G01X10310Y-172660D02*
Y-176660D01*
G01X8968Y-172660D02*
X11652D01*
G01X13885Y-176660D02*
Y-172660D01*
G01X16335D02*
Y-176660D01*
G01Y-174660D02*
X13885D01*
G01X19910Y-176660D02*
X19443Y-176593D01*
X19035Y-176327D01*
X18685Y-175927D01*
X18452Y-175460D01*
X18335Y-174927D01*
Y-174393D01*
X18452Y-173860D01*
X18685Y-173393D01*
X19035Y-172993D01*
X19443Y-172727D01*
X19910Y-172660D01*
X20377Y-172727D01*
X20785Y-172993D01*
X21135Y-173393D01*
X21368Y-173860D01*
X21485Y-174393D01*
Y-174927D01*
X21368Y-175460D01*
X21135Y-175927D01*
X20785Y-176327D01*
X20377Y-176593D01*
X19910Y-176660D01*
G01X23427Y-172660D02*
Y-175527D01*
X23660Y-176127D01*
X24127Y-176527D01*
X24710Y-176660D01*
X25293Y-176527D01*
X25760Y-176127D01*
X25993Y-175527D01*
Y-172660D01*
G01X29510D02*
Y-176660D01*
G01X28168Y-172660D02*
X30852D01*
G01X39110D02*
Y-176660D01*
G01X37768Y-172660D02*
X40452D01*
G01X42685Y-176660D02*
Y-172660D01*
G01X45135D02*
Y-176660D01*
G01Y-174660D02*
X42685D01*
G01X49877Y-176660D02*
X47543D01*
Y-172660D01*
X49877D01*
G01X48943Y-174593D02*
X47543D01*
G01X59593Y-172993D02*
X59243Y-172793D01*
X58835Y-172660D01*
X58368D01*
X57843Y-172860D01*
X57435Y-173193D01*
X57143Y-173593D01*
X56910Y-174260D01*
X56852Y-174860D01*
X56968Y-175460D01*
X57143Y-175860D01*
X57493Y-176260D01*
X57902Y-176527D01*
X58310Y-176660D01*
X58718D01*
X59127Y-176527D01*
X59477Y-176327D01*
X59768Y-176060D01*
G01X63110Y-176660D02*
X62643Y-176593D01*
X62235Y-176327D01*
X61885Y-175927D01*
X61652Y-175460D01*
X61535Y-174927D01*
Y-174393D01*
X61652Y-173860D01*
X61885Y-173393D01*
X62235Y-172993D01*
X62643Y-172727D01*
X63110Y-172660D01*
X63577Y-172727D01*
X63985Y-172993D01*
X64335Y-173393D01*
X64568Y-173860D01*
X64685Y-174393D01*
Y-174927D01*
X64568Y-175460D01*
X64335Y-175927D01*
X63985Y-176327D01*
X63577Y-176593D01*
X63110Y-176660D01*
G01X66568D02*
Y-172660D01*
X69252Y-176660D01*
Y-172660D01*
G01X71485Y-176127D02*
X71952Y-176460D01*
X72477Y-176660D01*
X72943D01*
X73410Y-176460D01*
X73760Y-176127D01*
X73935Y-175660D01*
X73818Y-175193D01*
X73527Y-174793D01*
X73002Y-174527D01*
X72302Y-174393D01*
X71893Y-174127D01*
X71718Y-173660D01*
X71835Y-173193D01*
X72127Y-172860D01*
X72535Y-172660D01*
X72943D01*
X73352Y-172793D01*
X73702Y-173127D01*
G01X78677Y-176660D02*
X76343D01*
Y-172660D01*
X78677D01*
G01X77743Y-174593D02*
X76343D01*
G01X80968Y-176660D02*
Y-172660D01*
X83652Y-176660D01*
Y-172660D01*
G01X87110D02*
Y-176660D01*
G01X85768Y-172660D02*
X88452D01*
G01X96710Y-176660D02*
X96243Y-176593D01*
X95835Y-176327D01*
X95485Y-175927D01*
X95252Y-175460D01*
X95135Y-174927D01*
Y-174393D01*
X95252Y-173860D01*
X95485Y-173393D01*
X95835Y-172993D01*
X96243Y-172727D01*
X96710Y-172660D01*
X97177Y-172727D01*
X97585Y-172993D01*
X97935Y-173393D01*
X98168Y-173860D01*
X98285Y-174393D01*
Y-174927D01*
X98168Y-175460D01*
X97935Y-175927D01*
X97585Y-176327D01*
X97177Y-176593D01*
X96710Y-176660D01*
G01X100402D02*
Y-172660D01*
X102618D01*
G01X101802Y-174593D02*
X100402D01*
G01X-60315Y-195127D02*
X-59848Y-195460D01*
X-59323Y-195660D01*
X-58857D01*
X-58390Y-195460D01*
X-58040Y-195127D01*
X-57865Y-194660D01*
X-57982Y-194193D01*
X-58273Y-193793D01*
X-58798Y-193527D01*
X-59498Y-193393D01*
X-59907Y-193127D01*
X-60082Y-192660D01*
X-59965Y-192193D01*
X-59673Y-191860D01*
X-59265Y-191660D01*
X-58857D01*
X-58448Y-191793D01*
X-58098Y-192127D01*
G01X-55515Y-195660D02*
Y-191660D01*
G01X-53065D02*
Y-195660D01*
G01Y-193660D02*
X-55515D01*
G01X-48323Y-195660D02*
X-50657D01*
Y-191660D01*
X-48323D01*
G01X-49257Y-193593D02*
X-50657D01*
G01X-43523Y-195660D02*
X-45857D01*
Y-191660D01*
X-43523D01*
G01X-44457Y-193593D02*
X-45857D01*
G01X-39890Y-191660D02*
Y-195660D01*
G01X-41232Y-191660D02*
X-38548D01*
G01X-53257Y-168660D02*
Y-164660D01*
X-51857D01*
X-51390Y-164860D01*
X-51040Y-165327D01*
X-50923Y-165860D01*
X-51040Y-166393D01*
X-51332Y-166793D01*
X-51857Y-166993D01*
X-53257D01*
G01X-48457Y-168660D02*
Y-164660D01*
X-46998D01*
X-46532Y-164860D01*
X-46240Y-165127D01*
X-46123Y-165660D01*
X-46240Y-166193D01*
X-46590Y-166527D01*
X-46998Y-166727D01*
X-48457D01*
G01X-46998D02*
X-46123Y-168660D01*
G01X-42490D02*
X-42957Y-168593D01*
X-43365Y-168327D01*
X-43715Y-167927D01*
X-43948Y-167460D01*
X-44065Y-166927D01*
Y-166393D01*
X-43948Y-165860D01*
X-43715Y-165393D01*
X-43365Y-164993D01*
X-42957Y-164727D01*
X-42490Y-164660D01*
X-42023Y-164727D01*
X-41615Y-164993D01*
X-41265Y-165393D01*
X-41032Y-165860D01*
X-40915Y-166393D01*
Y-166927D01*
X-41032Y-167460D01*
X-41265Y-167927D01*
X-41615Y-168327D01*
X-42023Y-168593D01*
X-42490Y-168660D01*
G01X-36407Y-164993D02*
X-36757Y-164793D01*
X-37165Y-164660D01*
X-37632D01*
X-38157Y-164860D01*
X-38565Y-165193D01*
X-38857Y-165593D01*
X-39090Y-166260D01*
X-39148Y-166860D01*
X-39032Y-167460D01*
X-38857Y-167860D01*
X-38507Y-168260D01*
X-38098Y-168527D01*
X-37690Y-168660D01*
X-37282D01*
X-36873Y-168527D01*
X-36523Y-168327D01*
X-36232Y-168060D01*
G01X-34173Y-164660D02*
Y-167527D01*
X-33940Y-168127D01*
X-33473Y-168527D01*
X-32890Y-168660D01*
X-32307Y-168527D01*
X-31840Y-168127D01*
X-31607Y-167527D01*
Y-164660D01*
G01X-29257Y-168660D02*
Y-164660D01*
X-27798D01*
X-27332Y-164860D01*
X-27040Y-165127D01*
X-26923Y-165660D01*
X-27040Y-166193D01*
X-27390Y-166527D01*
X-27798Y-166727D01*
X-29257D01*
G01X-27798D02*
X-26923Y-168660D01*
G01X-22123D02*
X-24457D01*
Y-164660D01*
X-22123D01*
G01X-23057Y-166593D02*
X-24457D01*
G01X-20007Y-168660D02*
Y-164660D01*
X-18490Y-167993D01*
X-16973Y-164660D01*
Y-168660D01*
G01X-12523D02*
X-14857D01*
Y-164660D01*
X-12523D01*
G01X-13457Y-166593D02*
X-14857D01*
G01X-10232Y-168660D02*
Y-164660D01*
X-7548Y-168660D01*
Y-164660D01*
G01X-4090D02*
Y-168660D01*
G01X-5432Y-164660D02*
X-2748D01*
G01X5510Y-168660D02*
X5043Y-168593D01*
X4635Y-168327D01*
X4285Y-167927D01*
X4052Y-167460D01*
X3935Y-166927D01*
Y-166393D01*
X4052Y-165860D01*
X4285Y-165393D01*
X4635Y-164993D01*
X5043Y-164727D01*
X5510Y-164660D01*
X5977Y-164727D01*
X6385Y-164993D01*
X6735Y-165393D01*
X6968Y-165860D01*
X7085Y-166393D01*
Y-166927D01*
X6968Y-167460D01*
X6735Y-167927D01*
X6385Y-168327D01*
X5977Y-168593D01*
X5510Y-168660D01*
G01X9143D02*
Y-164660D01*
X10602D01*
X11068Y-164860D01*
X11360Y-165127D01*
X11477Y-165660D01*
X11360Y-166193D01*
X11010Y-166527D01*
X10602Y-166727D01*
X9143D01*
G01X10602D02*
X11477Y-168660D01*
G01X18393D02*
Y-164660D01*
X19910Y-167993D01*
X21427Y-164660D01*
Y-168660D01*
G01X23252D02*
X24710Y-164660D01*
X26168Y-168660D01*
G01X25643Y-167260D02*
X23777D01*
G01X28168Y-168660D02*
Y-164660D01*
X30852Y-168660D01*
Y-164660D01*
G01X33027D02*
Y-167527D01*
X33260Y-168127D01*
X33727Y-168527D01*
X34310Y-168660D01*
X34893Y-168527D01*
X35360Y-168127D01*
X35593Y-167527D01*
Y-164660D01*
G01X38002Y-168660D02*
Y-164660D01*
X40218D01*
G01X39402Y-166593D02*
X38002D01*
G01X42452Y-168660D02*
X43910Y-164660D01*
X45368Y-168660D01*
G01X44843Y-167260D02*
X42977D01*
G01X49993Y-164993D02*
X49643Y-164793D01*
X49235Y-164660D01*
X48768D01*
X48243Y-164860D01*
X47835Y-165193D01*
X47543Y-165593D01*
X47310Y-166260D01*
X47252Y-166860D01*
X47368Y-167460D01*
X47543Y-167860D01*
X47893Y-168260D01*
X48302Y-168527D01*
X48710Y-168660D01*
X49118D01*
X49527Y-168527D01*
X49877Y-168327D01*
X50168Y-168060D01*
G01X53510Y-164660D02*
Y-168660D01*
G01X52168Y-164660D02*
X54852D01*
G01X57027D02*
Y-167527D01*
X57260Y-168127D01*
X57727Y-168527D01*
X58310Y-168660D01*
X58893Y-168527D01*
X59360Y-168127D01*
X59593Y-167527D01*
Y-164660D01*
G01X61943Y-168660D02*
Y-164660D01*
X63402D01*
X63868Y-164860D01*
X64160Y-165127D01*
X64277Y-165660D01*
X64160Y-166193D01*
X63810Y-166527D01*
X63402Y-166727D01*
X61943D01*
G01X63402D02*
X64277Y-168660D01*
G01X69077D02*
X66743D01*
Y-164660D01*
X69077D01*
G01X68143Y-166593D02*
X66743D01*
G01X76810Y-164660D02*
X78210D01*
G01X77510D02*
Y-168660D01*
G01X76810D02*
X78210D01*
G01X80968D02*
Y-164660D01*
X83652Y-168660D01*
Y-164660D01*
G01X90160D02*
X90977Y-168660D01*
X91910Y-164660D01*
X92843Y-168660D01*
X93660Y-164660D01*
G01X95485Y-168660D02*
Y-164660D01*
G01X97935D02*
Y-168660D01*
G01Y-166660D02*
X95485D01*
G01X101510Y-168660D02*
X101043Y-168593D01*
X100635Y-168327D01*
X100285Y-167927D01*
X100052Y-167460D01*
X99935Y-166927D01*
Y-166393D01*
X100052Y-165860D01*
X100285Y-165393D01*
X100635Y-164993D01*
X101043Y-164727D01*
X101510Y-164660D01*
X101977Y-164727D01*
X102385Y-164993D01*
X102735Y-165393D01*
X102968Y-165860D01*
X103085Y-166393D01*
Y-166927D01*
X102968Y-167460D01*
X102735Y-167927D01*
X102385Y-168327D01*
X101977Y-168593D01*
X101510Y-168660D01*
G01X105143Y-164660D02*
Y-168660D01*
X107477D01*
G01X112277D02*
X109943D01*
Y-164660D01*
X112277D01*
G01X111343Y-166593D02*
X109943D01*
G01X-53432Y-160660D02*
Y-156660D01*
X-50748Y-160660D01*
Y-156660D01*
G01X-47290Y-160660D02*
X-47757Y-160593D01*
X-48165Y-160327D01*
X-48515Y-159927D01*
X-48748Y-159460D01*
X-48865Y-158927D01*
Y-158393D01*
X-48748Y-157860D01*
X-48515Y-157393D01*
X-48165Y-156993D01*
X-47757Y-156727D01*
X-47290Y-156660D01*
X-46823Y-156727D01*
X-46415Y-156993D01*
X-46065Y-157393D01*
X-45832Y-157860D01*
X-45715Y-158393D01*
Y-158927D01*
X-45832Y-159460D01*
X-46065Y-159927D01*
X-46415Y-160327D01*
X-46823Y-160593D01*
X-47290Y-160660D01*
G01X-42490Y-156660D02*
Y-160660D01*
G01X-43832Y-156660D02*
X-41148D01*
G01X-32423Y-158527D02*
X-32190Y-158327D01*
X-32015Y-157993D01*
X-31898Y-157527D01*
X-32015Y-157127D01*
X-32248Y-156860D01*
X-32657Y-156660D01*
X-34232D01*
Y-160660D01*
X-32307D01*
X-31898Y-160393D01*
X-31665Y-159993D01*
X-31548Y-159527D01*
X-31665Y-159060D01*
X-32015Y-158660D01*
X-32423Y-158527D01*
X-34232D01*
G01X-26923Y-160660D02*
X-29257D01*
Y-156660D01*
X-26923D01*
G01X-27857Y-158593D02*
X-29257D01*
G01X-19773Y-156660D02*
Y-159527D01*
X-19540Y-160127D01*
X-19073Y-160527D01*
X-18490Y-160660D01*
X-17907Y-160527D01*
X-17440Y-160127D01*
X-17207Y-159527D01*
Y-156660D01*
G01X-14915Y-160127D02*
X-14448Y-160460D01*
X-13923Y-160660D01*
X-13457D01*
X-12990Y-160460D01*
X-12640Y-160127D01*
X-12465Y-159660D01*
X-12582Y-159193D01*
X-12873Y-158793D01*
X-13398Y-158527D01*
X-14098Y-158393D01*
X-14507Y-158127D01*
X-14682Y-157660D01*
X-14565Y-157193D01*
X-14273Y-156860D01*
X-13865Y-156660D01*
X-13457D01*
X-13048Y-156793D01*
X-12698Y-157127D01*
G01X-7723Y-160660D02*
X-10057D01*
Y-156660D01*
X-7723D01*
G01X-8657Y-158593D02*
X-10057D01*
G01X-5373Y-160660D02*
Y-156660D01*
X-4207D01*
X-3740Y-156860D01*
X-3390Y-157127D01*
X-3098Y-157527D01*
X-2865Y-157993D01*
X-2807Y-158660D01*
X-2865Y-159327D01*
X-3098Y-159793D01*
X-3390Y-160193D01*
X-3740Y-160460D01*
X-4207Y-160660D01*
X-5373D01*
G01X4402D02*
Y-156660D01*
X6618D01*
G01X5802Y-158593D02*
X4402D01*
G01X10310Y-160660D02*
X9843Y-160593D01*
X9435Y-160327D01*
X9085Y-159927D01*
X8852Y-159460D01*
X8735Y-158927D01*
Y-158393D01*
X8852Y-157860D01*
X9085Y-157393D01*
X9435Y-156993D01*
X9843Y-156727D01*
X10310Y-156660D01*
X10777Y-156727D01*
X11185Y-156993D01*
X11535Y-157393D01*
X11768Y-157860D01*
X11885Y-158393D01*
Y-158927D01*
X11768Y-159460D01*
X11535Y-159927D01*
X11185Y-160327D01*
X10777Y-160593D01*
X10310Y-160660D01*
G01X13943D02*
Y-156660D01*
X15402D01*
X15868Y-156860D01*
X16160Y-157127D01*
X16277Y-157660D01*
X16160Y-158193D01*
X15810Y-158527D01*
X15402Y-158727D01*
X13943D01*
G01X15402D02*
X16277Y-160660D01*
G01X25877D02*
X23543D01*
Y-156660D01*
X25877D01*
G01X24943Y-158593D02*
X23543D01*
G01X28168Y-160660D02*
Y-156660D01*
X30852Y-160660D01*
Y-156660D01*
G01X34660Y-158660D02*
X35827D01*
Y-159860D01*
X35477Y-160260D01*
X35068Y-160527D01*
X34485Y-160660D01*
X33902Y-160527D01*
X33493Y-160260D01*
X33143Y-159860D01*
X32910Y-159393D01*
X32793Y-158860D01*
Y-158393D01*
X32910Y-157993D01*
X33143Y-157527D01*
X33493Y-157127D01*
X33843Y-156860D01*
X34310Y-156660D01*
X34718D01*
X35185Y-156793D01*
X35535Y-157060D01*
G01X38410Y-156660D02*
X39810D01*
G01X39110D02*
Y-160660D01*
G01X38410D02*
X39810D01*
G01X42568D02*
Y-156660D01*
X45252Y-160660D01*
Y-156660D01*
G01X49877Y-160660D02*
X47543D01*
Y-156660D01*
X49877D01*
G01X48943Y-158593D02*
X47543D01*
G01X54677Y-160660D02*
X52343D01*
Y-156660D01*
X54677D01*
G01X53743Y-158593D02*
X52343D01*
G01X57143Y-160660D02*
Y-156660D01*
X58602D01*
X59068Y-156860D01*
X59360Y-157127D01*
X59477Y-157660D01*
X59360Y-158193D01*
X59010Y-158527D01*
X58602Y-158727D01*
X57143D01*
G01X58602D02*
X59477Y-160660D01*
G01X62410Y-156660D02*
X63810D01*
G01X63110D02*
Y-160660D01*
G01X62410D02*
X63810D01*
G01X66568D02*
Y-156660D01*
X69252Y-160660D01*
Y-156660D01*
G01X73060Y-158660D02*
X74227D01*
Y-159860D01*
X73877Y-160260D01*
X73468Y-160527D01*
X72885Y-160660D01*
X72302Y-160527D01*
X71893Y-160260D01*
X71543Y-159860D01*
X71310Y-159393D01*
X71193Y-158860D01*
Y-158393D01*
X71310Y-157993D01*
X71543Y-157527D01*
X71893Y-157127D01*
X72243Y-156860D01*
X72710Y-156660D01*
X73118D01*
X73585Y-156793D01*
X73935Y-157060D01*
G01X81027Y-160660D02*
Y-156660D01*
X82193D01*
X82660Y-156860D01*
X83010Y-157127D01*
X83302Y-157527D01*
X83535Y-157993D01*
X83593Y-158660D01*
X83535Y-159327D01*
X83302Y-159793D01*
X83010Y-160193D01*
X82660Y-160460D01*
X82193Y-160660D01*
X81027D01*
G01X88277D02*
X85943D01*
Y-156660D01*
X88277D01*
G01X87343Y-158593D02*
X85943D01*
G01X90685Y-160127D02*
X91152Y-160460D01*
X91677Y-160660D01*
X92143D01*
X92610Y-160460D01*
X92960Y-160127D01*
X93135Y-159660D01*
X93018Y-159193D01*
X92727Y-158793D01*
X92202Y-158527D01*
X91502Y-158393D01*
X91093Y-158127D01*
X90918Y-157660D01*
X91035Y-157193D01*
X91327Y-156860D01*
X91735Y-156660D01*
X92143D01*
X92552Y-156793D01*
X92902Y-157127D01*
G01X96010Y-156660D02*
X97410D01*
G01X96710D02*
Y-160660D01*
G01X96010D02*
X97410D01*
G01X101860Y-158660D02*
X103027D01*
Y-159860D01*
X102677Y-160260D01*
X102268Y-160527D01*
X101685Y-160660D01*
X101102Y-160527D01*
X100693Y-160260D01*
X100343Y-159860D01*
X100110Y-159393D01*
X99993Y-158860D01*
Y-158393D01*
X100110Y-157993D01*
X100343Y-157527D01*
X100693Y-157127D01*
X101043Y-156860D01*
X101510Y-156660D01*
X101918D01*
X102385Y-156793D01*
X102735Y-157060D01*
G01X104968Y-160660D02*
Y-156660D01*
X107652Y-160660D01*
Y-156660D01*
G01X-53257Y-152660D02*
Y-148660D01*
X-51857D01*
X-51390Y-148860D01*
X-51040Y-149327D01*
X-50923Y-149860D01*
X-51040Y-150393D01*
X-51332Y-150793D01*
X-51857Y-150993D01*
X-53257D01*
G01X-48457Y-152660D02*
Y-148660D01*
X-46998D01*
X-46532Y-148860D01*
X-46240Y-149127D01*
X-46123Y-149660D01*
X-46240Y-150193D01*
X-46590Y-150527D01*
X-46998Y-150727D01*
X-48457D01*
G01X-46998D02*
X-46123Y-152660D01*
G01X-42490D02*
X-42957Y-152593D01*
X-43365Y-152327D01*
X-43715Y-151927D01*
X-43948Y-151460D01*
X-44065Y-150927D01*
Y-150393D01*
X-43948Y-149860D01*
X-43715Y-149393D01*
X-43365Y-148993D01*
X-42957Y-148727D01*
X-42490Y-148660D01*
X-42023Y-148727D01*
X-41615Y-148993D01*
X-41265Y-149393D01*
X-41032Y-149860D01*
X-40915Y-150393D01*
Y-150927D01*
X-41032Y-151460D01*
X-41265Y-151927D01*
X-41615Y-152327D01*
X-42023Y-152593D01*
X-42490Y-152660D01*
G01X-38857D02*
Y-148660D01*
X-37457D01*
X-36990Y-148860D01*
X-36640Y-149327D01*
X-36523Y-149860D01*
X-36640Y-150393D01*
X-36932Y-150793D01*
X-37457Y-150993D01*
X-38857D01*
G01X-34057Y-152660D02*
Y-148660D01*
X-32598D01*
X-32132Y-148860D01*
X-31840Y-149127D01*
X-31723Y-149660D01*
X-31840Y-150193D01*
X-32190Y-150527D01*
X-32598Y-150727D01*
X-34057D01*
G01X-32598D02*
X-31723Y-152660D01*
G01X-28790Y-148660D02*
X-27390D01*
G01X-28090D02*
Y-152660D01*
G01X-28790D02*
X-27390D01*
G01X-22123D02*
X-24457D01*
Y-148660D01*
X-22123D01*
G01X-23057Y-150593D02*
X-24457D01*
G01X-18490Y-148660D02*
Y-152660D01*
G01X-19832Y-148660D02*
X-17148D01*
G01X-15148Y-152660D02*
X-13690Y-148660D01*
X-12232Y-152660D01*
G01X-12757Y-151260D02*
X-14623D01*
G01X-10057Y-152660D02*
Y-148660D01*
X-8598D01*
X-8132Y-148860D01*
X-7840Y-149127D01*
X-7723Y-149660D01*
X-7840Y-150193D01*
X-8190Y-150527D01*
X-8598Y-150727D01*
X-10057D01*
G01X-8598D02*
X-7723Y-152660D01*
G01X-4090D02*
Y-150860D01*
X-5257Y-148660D01*
G01X-2923D02*
X-4090Y-150860D01*
G01X5510Y-148660D02*
Y-152660D01*
G01X4168Y-148660D02*
X6852D01*
G01X10310Y-152660D02*
X9843Y-152593D01*
X9435Y-152327D01*
X9085Y-151927D01*
X8852Y-151460D01*
X8735Y-150927D01*
Y-150393D01*
X8852Y-149860D01*
X9085Y-149393D01*
X9435Y-148993D01*
X9843Y-148727D01*
X10310Y-148660D01*
X10777Y-148727D01*
X11185Y-148993D01*
X11535Y-149393D01*
X11768Y-149860D01*
X11885Y-150393D01*
Y-150927D01*
X11768Y-151460D01*
X11535Y-151927D01*
X11185Y-152327D01*
X10777Y-152593D01*
X10310Y-152660D01*
G01X18802D02*
Y-148660D01*
X21018D01*
G01X20202Y-150593D02*
X18802D01*
G01X23543Y-152660D02*
Y-148660D01*
X25002D01*
X25468Y-148860D01*
X25760Y-149127D01*
X25877Y-149660D01*
X25760Y-150193D01*
X25410Y-150527D01*
X25002Y-150727D01*
X23543D01*
G01X25002D02*
X25877Y-152660D01*
G01X30677D02*
X28343D01*
Y-148660D01*
X30677D01*
G01X29743Y-150593D02*
X28343D01*
G01X35477Y-152660D02*
X33143D01*
Y-148660D01*
X35477D01*
G01X34543Y-150593D02*
X33143D01*
G01X37885Y-152127D02*
X38352Y-152460D01*
X38877Y-152660D01*
X39343D01*
X39810Y-152460D01*
X40160Y-152127D01*
X40335Y-151660D01*
X40218Y-151193D01*
X39927Y-150793D01*
X39402Y-150527D01*
X38702Y-150393D01*
X38293Y-150127D01*
X38118Y-149660D01*
X38235Y-149193D01*
X38527Y-148860D01*
X38935Y-148660D01*
X39343D01*
X39752Y-148793D01*
X40102Y-149127D01*
G01X45193Y-148993D02*
X44843Y-148793D01*
X44435Y-148660D01*
X43968D01*
X43443Y-148860D01*
X43035Y-149193D01*
X42743Y-149593D01*
X42510Y-150260D01*
X42452Y-150860D01*
X42568Y-151460D01*
X42743Y-151860D01*
X43093Y-152260D01*
X43502Y-152527D01*
X43910Y-152660D01*
X44318D01*
X44727Y-152527D01*
X45077Y-152327D01*
X45368Y-152060D01*
G01X47252Y-152660D02*
X48710Y-148660D01*
X50168Y-152660D01*
G01X49643Y-151260D02*
X47777D01*
G01X52343Y-148660D02*
Y-152660D01*
X54677D01*
G01X59477D02*
X57143D01*
Y-148660D01*
X59477D01*
G01X58543Y-150593D02*
X57143D01*
G01X66452Y-152660D02*
X67910Y-148660D01*
X69368Y-152660D01*
G01X68843Y-151260D02*
X66977D01*
G01X71368Y-152660D02*
Y-148660D01*
X74052Y-152660D01*
Y-148660D01*
G01X76227Y-152660D02*
Y-148660D01*
X77393D01*
X77860Y-148860D01*
X78210Y-149127D01*
X78502Y-149527D01*
X78735Y-149993D01*
X78793Y-150660D01*
X78735Y-151327D01*
X78502Y-151793D01*
X78210Y-152193D01*
X77860Y-152460D01*
X77393Y-152660D01*
X76227D01*
G01X85885Y-152127D02*
X86352Y-152460D01*
X86877Y-152660D01*
X87343D01*
X87810Y-152460D01*
X88160Y-152127D01*
X88335Y-151660D01*
X88218Y-151193D01*
X87927Y-150793D01*
X87402Y-150527D01*
X86702Y-150393D01*
X86293Y-150127D01*
X86118Y-149660D01*
X86235Y-149193D01*
X86527Y-148860D01*
X86935Y-148660D01*
X87343D01*
X87752Y-148793D01*
X88102Y-149127D01*
G01X90685Y-152660D02*
Y-148660D01*
G01X93135D02*
Y-152660D01*
G01Y-150660D02*
X90685D01*
G01X95252Y-152660D02*
X96710Y-148660D01*
X98168Y-152660D01*
G01X97643Y-151260D02*
X95777D01*
G01X100343Y-148660D02*
Y-152660D01*
X102677D01*
G01X105143Y-148660D02*
Y-152660D01*
X107477D01*
G01X-53090Y-140660D02*
Y-144660D01*
G01X-54432Y-140660D02*
X-51748D01*
G01X-49515Y-144660D02*
Y-140660D01*
G01X-47065D02*
Y-144660D01*
G01Y-142660D02*
X-49515D01*
G01X-44190Y-140660D02*
X-42790D01*
G01X-43490D02*
Y-144660D01*
G01X-44190D02*
X-42790D01*
G01X-39915Y-144127D02*
X-39448Y-144460D01*
X-38923Y-144660D01*
X-38457D01*
X-37990Y-144460D01*
X-37640Y-144127D01*
X-37465Y-143660D01*
X-37582Y-143193D01*
X-37873Y-142793D01*
X-38398Y-142527D01*
X-39098Y-142393D01*
X-39507Y-142127D01*
X-39682Y-141660D01*
X-39565Y-141193D01*
X-39273Y-140860D01*
X-38865Y-140660D01*
X-38457D01*
X-38048Y-140793D01*
X-37698Y-141127D01*
G01X-30373Y-144660D02*
Y-140660D01*
X-29207D01*
X-28740Y-140860D01*
X-28390Y-141127D01*
X-28098Y-141527D01*
X-27865Y-141993D01*
X-27807Y-142660D01*
X-27865Y-143327D01*
X-28098Y-143793D01*
X-28390Y-144193D01*
X-28740Y-144460D01*
X-29207Y-144660D01*
X-30373D01*
G01X-24290D02*
X-24757Y-144593D01*
X-25165Y-144327D01*
X-25515Y-143927D01*
X-25748Y-143460D01*
X-25865Y-142927D01*
Y-142393D01*
X-25748Y-141860D01*
X-25515Y-141393D01*
X-25165Y-140993D01*
X-24757Y-140727D01*
X-24290Y-140660D01*
X-23823Y-140727D01*
X-23415Y-140993D01*
X-23065Y-141393D01*
X-22832Y-141860D01*
X-22715Y-142393D01*
Y-142927D01*
X-22832Y-143460D01*
X-23065Y-143927D01*
X-23415Y-144327D01*
X-23823Y-144593D01*
X-24290Y-144660D01*
G01X-18207Y-140993D02*
X-18557Y-140793D01*
X-18965Y-140660D01*
X-19432D01*
X-19957Y-140860D01*
X-20365Y-141193D01*
X-20657Y-141593D01*
X-20890Y-142260D01*
X-20948Y-142860D01*
X-20832Y-143460D01*
X-20657Y-143860D01*
X-20307Y-144260D01*
X-19898Y-144527D01*
X-19490Y-144660D01*
X-19082D01*
X-18673Y-144527D01*
X-18323Y-144327D01*
X-18032Y-144060D01*
G01X-15973Y-140660D02*
Y-143527D01*
X-15740Y-144127D01*
X-15273Y-144527D01*
X-14690Y-144660D01*
X-14107Y-144527D01*
X-13640Y-144127D01*
X-13407Y-143527D01*
Y-140660D01*
G01X-11407Y-144660D02*
Y-140660D01*
X-9890Y-143993D01*
X-8373Y-140660D01*
Y-144660D01*
G01X-3923D02*
X-6257D01*
Y-140660D01*
X-3923D01*
G01X-4857Y-142593D02*
X-6257D01*
G01X-1632Y-144660D02*
Y-140660D01*
X1052Y-144660D01*
Y-140660D01*
G01X4510D02*
Y-144660D01*
G01X3168Y-140660D02*
X5852D01*
G01X15393Y-140993D02*
X15043Y-140793D01*
X14635Y-140660D01*
X14168D01*
X13643Y-140860D01*
X13235Y-141193D01*
X12943Y-141593D01*
X12710Y-142260D01*
X12652Y-142860D01*
X12768Y-143460D01*
X12943Y-143860D01*
X13293Y-144260D01*
X13702Y-144527D01*
X14110Y-144660D01*
X14518D01*
X14927Y-144527D01*
X15277Y-144327D01*
X15568Y-144060D01*
G01X18910Y-144660D02*
X18443Y-144593D01*
X18035Y-144327D01*
X17685Y-143927D01*
X17452Y-143460D01*
X17335Y-142927D01*
Y-142393D01*
X17452Y-141860D01*
X17685Y-141393D01*
X18035Y-140993D01*
X18443Y-140727D01*
X18910Y-140660D01*
X19377Y-140727D01*
X19785Y-140993D01*
X20135Y-141393D01*
X20368Y-141860D01*
X20485Y-142393D01*
Y-142927D01*
X20368Y-143460D01*
X20135Y-143927D01*
X19785Y-144327D01*
X19377Y-144593D01*
X18910Y-144660D01*
G01X22368D02*
Y-140660D01*
X25052Y-144660D01*
Y-140660D01*
G01X28510D02*
Y-144660D01*
G01X27168Y-140660D02*
X29852D01*
G01X31852Y-144660D02*
X33310Y-140660D01*
X34768Y-144660D01*
G01X34243Y-143260D02*
X32377D01*
G01X37410Y-140660D02*
X38810D01*
G01X38110D02*
Y-144660D01*
G01X37410D02*
X38810D01*
G01X41568D02*
Y-140660D01*
X44252Y-144660D01*
Y-140660D01*
G01X46485Y-144127D02*
X46952Y-144460D01*
X47477Y-144660D01*
X47943D01*
X48410Y-144460D01*
X48760Y-144127D01*
X48935Y-143660D01*
X48818Y-143193D01*
X48527Y-142793D01*
X48002Y-142527D01*
X47302Y-142393D01*
X46893Y-142127D01*
X46718Y-141660D01*
X46835Y-141193D01*
X47127Y-140860D01*
X47535Y-140660D01*
X47943D01*
X48352Y-140793D01*
X48702Y-141127D01*
G01X56610Y-140660D02*
X58010D01*
G01X57310D02*
Y-144660D01*
G01X56610D02*
X58010D01*
G01X60768D02*
Y-140660D01*
X63452Y-144660D01*
Y-140660D01*
G01X65802Y-144660D02*
Y-140660D01*
X68018D01*
G01X67202Y-142593D02*
X65802D01*
G01X71710Y-144660D02*
X71243Y-144593D01*
X70835Y-144327D01*
X70485Y-143927D01*
X70252Y-143460D01*
X70135Y-142927D01*
Y-142393D01*
X70252Y-141860D01*
X70485Y-141393D01*
X70835Y-140993D01*
X71243Y-140727D01*
X71710Y-140660D01*
X72177Y-140727D01*
X72585Y-140993D01*
X72935Y-141393D01*
X73168Y-141860D01*
X73285Y-142393D01*
Y-142927D01*
X73168Y-143460D01*
X72935Y-143927D01*
X72585Y-144327D01*
X72177Y-144593D01*
X71710Y-144660D01*
G01X75343D02*
Y-140660D01*
X76802D01*
X77268Y-140860D01*
X77560Y-141127D01*
X77677Y-141660D01*
X77560Y-142193D01*
X77210Y-142527D01*
X76802Y-142727D01*
X75343D01*
G01X76802D02*
X77677Y-144660D01*
G01X79793D02*
Y-140660D01*
X81310Y-143993D01*
X82827Y-140660D01*
Y-144660D01*
G01X84652D02*
X86110Y-140660D01*
X87568Y-144660D01*
G01X87043Y-143260D02*
X85177D01*
G01X90910Y-140660D02*
Y-144660D01*
G01X89568Y-140660D02*
X92252D01*
G01X95010D02*
X96410D01*
G01X95710D02*
Y-144660D01*
G01X95010D02*
X96410D01*
G01X100510D02*
X100043Y-144593D01*
X99635Y-144327D01*
X99285Y-143927D01*
X99052Y-143460D01*
X98935Y-142927D01*
Y-142393D01*
X99052Y-141860D01*
X99285Y-141393D01*
X99635Y-140993D01*
X100043Y-140727D01*
X100510Y-140660D01*
X100977Y-140727D01*
X101385Y-140993D01*
X101735Y-141393D01*
X101968Y-141860D01*
X102085Y-142393D01*
Y-142927D01*
X101968Y-143460D01*
X101735Y-143927D01*
X101385Y-144327D01*
X100977Y-144593D01*
X100510Y-144660D01*
G01X103968D02*
Y-140660D01*
X106652Y-144660D01*
Y-140660D01*
G01X-60548Y-134660D02*
X-59090Y-130660D01*
X-57632Y-134660D01*
G01X-58157Y-133260D02*
X-60023D01*
G01X-55573Y-130660D02*
Y-133527D01*
X-55340Y-134127D01*
X-54873Y-134527D01*
X-54290Y-134660D01*
X-53707Y-134527D01*
X-53240Y-134127D01*
X-53007Y-133527D01*
Y-130660D01*
G01X-50715Y-134127D02*
X-50248Y-134460D01*
X-49723Y-134660D01*
X-49257D01*
X-48790Y-134460D01*
X-48440Y-134127D01*
X-48265Y-133660D01*
X-48382Y-133193D01*
X-48673Y-132793D01*
X-49198Y-132527D01*
X-49898Y-132393D01*
X-50307Y-132127D01*
X-50482Y-131660D01*
X-50365Y-131193D01*
X-50073Y-130860D01*
X-49665Y-130660D01*
X-49257D01*
X-48848Y-130793D01*
X-48498Y-131127D01*
G01X-44690Y-130660D02*
Y-134660D01*
G01X-46032Y-130660D02*
X-43348D01*
G01X-40590D02*
X-39190D01*
G01X-39890D02*
Y-134660D01*
G01X-40590D02*
X-39190D01*
G01X-36432D02*
Y-130660D01*
X-33748Y-134660D01*
Y-130660D01*
G01X-30290Y-134793D02*
X-30407Y-134727D01*
Y-134593D01*
X-30290Y-134527D01*
X-30173Y-134593D01*
Y-134727D01*
X-30290Y-134793D01*
G01X-20690Y-130660D02*
Y-134660D01*
G01X-22032Y-130660D02*
X-19348D01*
G01X-14723Y-134660D02*
X-17057D01*
Y-130660D01*
X-14723D01*
G01X-15657Y-132593D02*
X-17057D01*
G01X-12315Y-134660D02*
X-9865Y-130660D01*
G01X-12315D02*
X-9865Y-134660D01*
G01X-7748D02*
X-6290Y-130660D01*
X-4832Y-134660D01*
G01X-5357Y-133260D02*
X-7223D01*
G01X-2715Y-134127D02*
X-2248Y-134460D01*
X-1723Y-134660D01*
X-1257D01*
X-790Y-134460D01*
X-440Y-134127D01*
X-265Y-133660D01*
X-382Y-133193D01*
X-673Y-132793D01*
X-1198Y-132527D01*
X-1898Y-132393D01*
X-2307Y-132127D01*
X-2482Y-131660D01*
X-2365Y-131193D01*
X-2073Y-130860D01*
X-1665Y-130660D01*
X-1257D01*
X-848Y-130793D01*
X-498Y-131127D01*
G01X7993Y-134660D02*
X8110Y-133793D01*
X8285Y-133060D01*
X8518Y-132393D01*
X8810Y-131660D01*
X9277Y-130660D01*
X6943D01*
G01X12910Y-134660D02*
X13318Y-134593D01*
X13785Y-134393D01*
X14077Y-134060D01*
X14193Y-133593D01*
X14077Y-133127D01*
X13727Y-132727D01*
X13202Y-132527D01*
X12618D01*
X12268Y-132393D01*
X11977Y-132060D01*
X11860Y-131593D01*
X12035Y-131127D01*
X12443Y-130793D01*
X12910Y-130660D01*
X13377Y-130793D01*
X13785Y-131127D01*
X13960Y-131593D01*
X13843Y-132060D01*
X13552Y-132393D01*
X13202Y-132527D01*
X12618D01*
X12093Y-132727D01*
X11743Y-133127D01*
X11627Y-133593D01*
X11743Y-134060D01*
X12035Y-134393D01*
X12502Y-134593D01*
X12910Y-134660D01*
G01X17593D02*
X17710Y-133793D01*
X17885Y-133060D01*
X18118Y-132393D01*
X18410Y-131660D01*
X18877Y-130660D01*
X16543D01*
G01X21227Y-133860D02*
X21577Y-134327D01*
X22043Y-134593D01*
X22568Y-134660D01*
X23035Y-134593D01*
X23502Y-134260D01*
X23793Y-133860D01*
X23852Y-133460D01*
X23735Y-132993D01*
X23327Y-132660D01*
X22918Y-132527D01*
X22393D01*
G01X22918D02*
X23268Y-132327D01*
X23560Y-131993D01*
X23677Y-131593D01*
X23560Y-131193D01*
X23268Y-130860D01*
X22743Y-130660D01*
X22218Y-130727D01*
X21693Y-130993D01*
G01X26027Y-134060D02*
X26377Y-134393D01*
X26785Y-134593D01*
X27310Y-134660D01*
X27835Y-134527D01*
X28243Y-134260D01*
X28535Y-133793D01*
X28593Y-133260D01*
X28477Y-132727D01*
X28185Y-132393D01*
X27777Y-132127D01*
X27368Y-132060D01*
X26960Y-132127D01*
X26435Y-132393D01*
X26610Y-130660D01*
X28185D01*
G01X35627D02*
Y-133527D01*
X35860Y-134127D01*
X36327Y-134527D01*
X36910Y-134660D01*
X37493Y-134527D01*
X37960Y-134127D01*
X38193Y-133527D01*
Y-130660D01*
G01X40485Y-134127D02*
X40952Y-134460D01*
X41477Y-134660D01*
X41943D01*
X42410Y-134460D01*
X42760Y-134127D01*
X42935Y-133660D01*
X42818Y-133193D01*
X42527Y-132793D01*
X42002Y-132527D01*
X41302Y-132393D01*
X40893Y-132127D01*
X40718Y-131660D01*
X40835Y-131193D01*
X41127Y-130860D01*
X41535Y-130660D01*
X41943D01*
X42352Y-130793D01*
X42702Y-131127D01*
G01X45052Y-134660D02*
X46510Y-130660D01*
X47968Y-134660D01*
G01X47443Y-133260D02*
X45577D01*
G01X-60198Y-125993D02*
X-59790Y-125527D01*
X-59440Y-125260D01*
X-58973Y-125127D01*
X-58565Y-125260D01*
X-58273Y-125527D01*
X-58040Y-125927D01*
X-57982Y-126393D01*
X-58040Y-126793D01*
X-58273Y-127193D01*
X-58623Y-127527D01*
X-59032Y-127660D01*
X-59498Y-127527D01*
X-59907Y-127127D01*
X-60140Y-126527D01*
X-60198Y-125860D01*
X-60082Y-124993D01*
X-59907Y-124527D01*
X-59615Y-124060D01*
X-59207Y-123727D01*
X-58798Y-123660D01*
X-58390Y-123793D01*
X-58098Y-124127D01*
G01X-55573Y-127060D02*
X-55223Y-127393D01*
X-54815Y-127593D01*
X-54290Y-127660D01*
X-53765Y-127527D01*
X-53357Y-127260D01*
X-53065Y-126793D01*
X-53007Y-126260D01*
X-53123Y-125727D01*
X-53415Y-125393D01*
X-53823Y-125127D01*
X-54232Y-125060D01*
X-54640Y-125127D01*
X-55165Y-125393D01*
X-54990Y-123660D01*
X-53415D01*
G01X-49490D02*
X-49957Y-123793D01*
X-50307Y-124127D01*
X-50540Y-124527D01*
X-50715Y-125060D01*
X-50773Y-125660D01*
X-50715Y-126260D01*
X-50540Y-126793D01*
X-50307Y-127193D01*
X-49957Y-127527D01*
X-49490Y-127660D01*
X-49023Y-127527D01*
X-48673Y-127193D01*
X-48440Y-126793D01*
X-48265Y-126260D01*
X-48207Y-125660D01*
X-48265Y-125060D01*
X-48440Y-124527D01*
X-48673Y-124127D01*
X-49023Y-123793D01*
X-49490Y-123660D01*
G01X-44690Y-127660D02*
Y-123660D01*
X-45390Y-124460D01*
G01Y-127660D02*
X-43990D01*
G01X-36840Y-123660D02*
X-36023Y-127660D01*
X-35090Y-123660D01*
X-34157Y-127660D01*
X-33340Y-123660D01*
G01X-30990D02*
X-29590D01*
G01X-30290D02*
Y-127660D01*
G01X-30990D02*
X-29590D01*
G01X-26657Y-123660D02*
Y-127660D01*
X-24323D01*
G01X-21857Y-123660D02*
Y-127660D01*
X-19523D01*
G01X-16590Y-123660D02*
X-15190D01*
G01X-15890D02*
Y-127660D01*
G01X-16590D02*
X-15190D01*
G01X-12548D02*
X-11090Y-123660D01*
X-9632Y-127660D01*
G01X-10157Y-126260D02*
X-12023D01*
G01X-7807Y-127660D02*
Y-123660D01*
X-6290Y-126993D01*
X-4773Y-123660D01*
Y-127660D01*
G01X4593Y-123993D02*
X4243Y-123793D01*
X3835Y-123660D01*
X3368D01*
X2843Y-123860D01*
X2435Y-124193D01*
X2143Y-124593D01*
X1910Y-125260D01*
X1852Y-125860D01*
X1968Y-126460D01*
X2143Y-126860D01*
X2493Y-127260D01*
X2902Y-127527D01*
X3310Y-127660D01*
X3718D01*
X4127Y-127527D01*
X4477Y-127327D01*
X4768Y-127060D01*
G01X6652Y-127660D02*
X8110Y-123660D01*
X9568Y-127660D01*
G01X9043Y-126260D02*
X7177D01*
G01X11568Y-127660D02*
Y-123660D01*
X14252Y-127660D01*
Y-123660D01*
G01X16368Y-127660D02*
Y-123660D01*
X19052Y-127660D01*
Y-123660D01*
G01X22510Y-127660D02*
X22043Y-127593D01*
X21635Y-127327D01*
X21285Y-126927D01*
X21052Y-126460D01*
X20935Y-125927D01*
Y-125393D01*
X21052Y-124860D01*
X21285Y-124393D01*
X21635Y-123993D01*
X22043Y-123727D01*
X22510Y-123660D01*
X22977Y-123727D01*
X23385Y-123993D01*
X23735Y-124393D01*
X23968Y-124860D01*
X24085Y-125393D01*
Y-125927D01*
X23968Y-126460D01*
X23735Y-126927D01*
X23385Y-127327D01*
X22977Y-127593D01*
X22510Y-127660D01*
G01X25968D02*
Y-123660D01*
X28652Y-127660D01*
Y-123660D01*
G01X35627Y-127660D02*
Y-123660D01*
X36793D01*
X37260Y-123860D01*
X37610Y-124127D01*
X37902Y-124527D01*
X38135Y-124993D01*
X38193Y-125660D01*
X38135Y-126327D01*
X37902Y-126793D01*
X37610Y-127193D01*
X37260Y-127460D01*
X36793Y-127660D01*
X35627D01*
G01X40543D02*
Y-123660D01*
X42002D01*
X42468Y-123860D01*
X42760Y-124127D01*
X42877Y-124660D01*
X42760Y-125193D01*
X42410Y-125527D01*
X42002Y-125727D01*
X40543D01*
G01X42002D02*
X42877Y-127660D01*
G01X45810Y-123660D02*
X47210D01*
G01X46510D02*
Y-127660D01*
G01X45810D02*
X47210D01*
G01X49852Y-123660D02*
X51310Y-127660D01*
X52768Y-123660D01*
G01X57277Y-127660D02*
X54943D01*
Y-123660D01*
X57277D01*
G01X56343Y-125593D02*
X54943D01*
G01X63960Y-123660D02*
X64777Y-127660D01*
X65710Y-123660D01*
X66643Y-127660D01*
X67460Y-123660D01*
G01X71677Y-127660D02*
X69343D01*
Y-123660D01*
X71677D01*
G01X70743Y-125593D02*
X69343D01*
G01X74085Y-127127D02*
X74552Y-127460D01*
X75077Y-127660D01*
X75543D01*
X76010Y-127460D01*
X76360Y-127127D01*
X76535Y-126660D01*
X76418Y-126193D01*
X76127Y-125793D01*
X75602Y-125527D01*
X74902Y-125393D01*
X74493Y-125127D01*
X74318Y-124660D01*
X74435Y-124193D01*
X74727Y-123860D01*
X75135Y-123660D01*
X75543D01*
X75952Y-123793D01*
X76302Y-124127D01*
G01X80110Y-123660D02*
Y-127660D01*
G01X78768Y-123660D02*
X81452D01*
G01X-60813Y-119660D02*
Y-112160D01*
X-57267D01*
G01X-58573Y-115785D02*
X-60813D01*
G01X-53407Y-119660D02*
Y-112160D01*
X-51073D01*
X-50327Y-112535D01*
X-49860Y-113035D01*
X-49673Y-114035D01*
X-49860Y-115035D01*
X-50420Y-115660D01*
X-51073Y-116035D01*
X-53407D01*
G01X-51073D02*
X-49673Y-119660D01*
G01X-42173D02*
X-45907D01*
Y-112160D01*
X-42173D01*
G01X-43667Y-115785D02*
X-45907D01*
G01X-34673Y-119660D02*
X-38407D01*
Y-112160D01*
X-34673D01*
G01X-36167Y-115785D02*
X-38407D01*
G01X-31000Y-118660D02*
X-30253Y-119285D01*
X-29413Y-119660D01*
X-28667D01*
X-27920Y-119285D01*
X-27360Y-118660D01*
X-27080Y-117785D01*
X-27267Y-116910D01*
X-27733Y-116160D01*
X-28573Y-115660D01*
X-29693Y-115410D01*
X-30347Y-114910D01*
X-30627Y-114035D01*
X-30440Y-113160D01*
X-29973Y-112535D01*
X-29320Y-112160D01*
X-28667D01*
X-28013Y-112410D01*
X-27453Y-113035D01*
G01X-19487Y-112785D02*
X-20047Y-112410D01*
X-20700Y-112160D01*
X-21447D01*
X-22287Y-112535D01*
X-22940Y-113160D01*
X-23407Y-113910D01*
X-23780Y-115160D01*
X-23873Y-116285D01*
X-23687Y-117410D01*
X-23407Y-118160D01*
X-22847Y-118910D01*
X-22193Y-119410D01*
X-21540Y-119660D01*
X-20887D01*
X-20233Y-119410D01*
X-19673Y-119035D01*
X-19207Y-118535D01*
G01X-16373Y-119660D02*
X-14040Y-112160D01*
X-11707Y-119660D01*
G01X-12547Y-117035D02*
X-15533D01*
G01X-8407Y-112160D02*
Y-119660D01*
X-4673D01*
G01X2827D02*
X-907D01*
Y-112160D01*
X2827D01*
G01X1333Y-115785D02*
X-907D01*
G01X-10383Y17156D02*
X-11150D01*
Y16226D01*
X-10920Y15916D01*
X-10651Y15709D01*
X-10268Y15606D01*
X-9885Y15709D01*
X-9616Y15916D01*
X-9386Y16226D01*
X-9233Y16588D01*
X-9156Y17001D01*
Y17363D01*
X-9233Y17673D01*
X-9386Y18034D01*
X-9616Y18344D01*
X-9846Y18551D01*
X-10153Y18706D01*
X-10421D01*
X-10728Y18603D01*
X-10958Y18396D01*
G01X-12171Y15606D02*
Y18706D01*
X-13935Y15606D01*
Y18706D01*
G01X-15110Y15606D02*
Y18706D01*
X-15876D01*
X-16183Y18551D01*
X-16413Y18344D01*
X-16605Y18034D01*
X-16758Y17673D01*
X-16796Y17156D01*
X-16758Y16639D01*
X-16605Y16278D01*
X-16413Y15968D01*
X-16183Y15761D01*
X-15876Y15606D01*
X-15110D01*
G01X-17710Y10450D02*
Y13550D01*
X-16292Y11328D01*
X-18208D01*
G01X-7176Y29007D02*
X-8134Y25907D01*
X-9092Y29007D01*
G01X-11341Y27560D02*
X-11494Y27715D01*
X-11609Y27974D01*
X-11686Y28335D01*
X-11609Y28645D01*
X-11456Y28852D01*
X-11187Y29007D01*
X-10152D01*
Y25907D01*
X-11417D01*
X-11686Y26114D01*
X-11839Y26424D01*
X-11916Y26785D01*
X-11839Y27147D01*
X-11609Y27457D01*
X-11341Y27560D01*
X-10152D01*
G01X-12976Y25907D02*
X-13934Y29007D01*
X-14892Y25907D01*
G01X-14547Y26992D02*
X-13321D01*
G01X-16834Y29007D02*
Y25907D01*
G01X-15952Y29007D02*
X-17716D01*
G01X-8835Y48713D02*
X-8605Y48868D01*
X-8337Y48971D01*
X-8030D01*
X-7685Y48816D01*
X-7417Y48558D01*
X-7225Y48248D01*
X-7072Y47731D01*
X-7034Y47266D01*
X-7110Y46801D01*
X-7225Y46491D01*
X-7455Y46181D01*
X-7724Y45974D01*
X-7992Y45871D01*
X-8260D01*
X-8529Y45974D01*
X-8759Y46129D01*
X-8950Y46336D01*
G01X-9934Y45871D02*
X-10892Y48971D01*
X-11850Y45871D01*
G01X-11505Y46956D02*
X-10279D01*
G01X-12910Y45871D02*
Y48971D01*
X-14674Y45871D01*
Y48971D01*
G01X-15887Y45871D02*
Y48971D01*
G01X-17497D02*
Y45871D01*
G01Y47421D02*
X-15887D01*
G01X-9190Y38766D02*
X-8960Y38921D01*
X-8692Y39024D01*
X-8385D01*
X-8040Y38869D01*
X-7772Y38611D01*
X-7580Y38301D01*
X-7427Y37784D01*
X-7389Y37319D01*
X-7465Y36854D01*
X-7580Y36544D01*
X-7810Y36234D01*
X-8079Y36027D01*
X-8347Y35924D01*
X-8615D01*
X-8884Y36027D01*
X-9114Y36182D01*
X-9305Y36389D01*
G01X-10289Y35924D02*
X-11247Y39024D01*
X-12205Y35924D01*
G01X-11860Y37009D02*
X-10634D01*
G01X-13265Y35924D02*
Y39024D01*
X-15029Y35924D01*
Y39024D01*
G01X-16280D02*
Y35924D01*
X-17814D01*
G01X-12780Y76207D02*
Y79307D01*
X-14544Y76207D01*
Y79307D01*
G01X-17405Y79049D02*
X-17175Y79204D01*
X-16907Y79307D01*
X-16600D01*
X-16255Y79152D01*
X-15987Y78894D01*
X-15795Y78584D01*
X-15642Y78067D01*
X-15604Y77602D01*
X-15680Y77137D01*
X-15795Y76827D01*
X-16025Y76517D01*
X-16294Y76310D01*
X-16562Y76207D01*
X-16830D01*
X-17099Y76310D01*
X-17329Y76465D01*
X-17520Y76672D01*
G01X-12016Y67740D02*
X-12783D01*
Y66810D01*
X-12553Y66500D01*
X-12284Y66293D01*
X-11901Y66190D01*
X-11518Y66293D01*
X-11249Y66500D01*
X-11019Y66810D01*
X-10866Y67172D01*
X-10789Y67585D01*
Y67947D01*
X-10866Y68257D01*
X-11019Y68618D01*
X-11249Y68928D01*
X-11479Y69135D01*
X-11786Y69290D01*
X-12054D01*
X-12361Y69187D01*
X-12591Y68980D01*
G01X-13804Y66190D02*
Y69290D01*
X-15568Y66190D01*
Y69290D01*
G01X-16743Y66190D02*
Y69290D01*
X-17509D01*
X-17816Y69135D01*
X-18046Y68928D01*
X-18238Y68618D01*
X-18391Y68257D01*
X-18429Y67740D01*
X-18391Y67223D01*
X-18238Y66862D01*
X-18046Y66552D01*
X-17816Y66345D01*
X-17509Y66190D01*
X-16743D01*
G01X-17710Y60700D02*
Y63800D01*
X-16292Y61578D01*
X-18208D01*
G01X-17250Y51700D02*
Y54800D01*
X-16790Y54180D01*
G01Y51700D02*
X-17710D01*
G01X-19583Y54570D02*
X-19775Y54260D01*
X-20005Y54053D01*
X-20273Y53950D01*
X-20580Y54053D01*
X-20810Y54260D01*
X-21040Y54570D01*
X-21117Y54983D01*
Y57050D01*
G01X-23250Y53950D02*
Y57050D01*
X-22790Y56430D01*
G01Y53950D02*
X-23710D01*
G01X-26610D02*
Y57050D01*
X-25192Y54828D01*
X-27108D01*
G01X-10059Y100407D02*
Y97307D01*
X-11593D01*
G01X-13266Y100407D02*
X-14186D01*
G01X-13726D02*
Y97307D01*
G01X-13266D02*
X-14186D01*
G01X-15744D02*
Y100407D01*
X-17508Y97307D01*
Y100407D01*
G01X-9129Y92166D02*
X-10087Y89066D01*
X-11045Y92166D01*
G01X-13294Y90719D02*
X-13447Y90874D01*
X-13562Y91133D01*
X-13639Y91494D01*
X-13562Y91804D01*
X-13409Y92011D01*
X-13140Y92166D01*
X-12105D01*
Y89066D01*
X-13370D01*
X-13639Y89273D01*
X-13792Y89583D01*
X-13869Y89944D01*
X-13792Y90306D01*
X-13562Y90616D01*
X-13294Y90719D01*
X-12105D01*
G01X-14929Y89066D02*
X-15887Y92166D01*
X-16845Y89066D01*
G01X-16500Y90151D02*
X-15274D01*
G01X-18787Y92166D02*
Y89066D01*
G01X-17905Y92166D02*
X-19669D01*
G01X-17250Y104200D02*
Y107300D01*
X-16790Y106680D01*
G01Y104200D02*
X-17710D01*
G01X-20283Y104070D02*
X-20475Y103760D01*
X-20705Y103553D01*
X-20973Y103450D01*
X-21280Y103553D01*
X-21510Y103760D01*
X-21740Y104070D01*
X-21817Y104483D01*
Y106550D01*
G01X-23298Y103812D02*
X-23567Y103553D01*
X-23873Y103450D01*
X-24180Y103553D01*
X-24448Y103863D01*
X-24640Y104328D01*
X-24717Y104793D01*
Y105362D01*
X-24640Y105827D01*
X-24448Y106240D01*
X-24218Y106447D01*
X-23950Y106550D01*
X-23643Y106447D01*
X-23413Y106240D01*
X-23260Y105930D01*
X-23183Y105517D01*
X-23260Y105155D01*
X-23452Y104793D01*
X-23682Y104587D01*
X-23950Y104535D01*
X-24257Y104638D01*
X-24487Y104897D01*
X-24717Y105362D01*
G01X-12645Y-204340D02*
X-12018Y-204840D01*
X-11313Y-205140D01*
X-10687D01*
X-10060Y-204840D01*
X-9590Y-204340D01*
X-9355Y-203640D01*
X-9512Y-202940D01*
X-9903Y-202340D01*
X-10608Y-201940D01*
X-11548Y-201740D01*
X-12097Y-201340D01*
X-12332Y-200640D01*
X-12175Y-199940D01*
X-11783Y-199440D01*
X-11235Y-199140D01*
X-10687D01*
X-10138Y-199340D01*
X-9668Y-199840D01*
G01X-3133Y-205140D02*
X-6267D01*
Y-199140D01*
X-3133D01*
G01X-4387Y-202040D02*
X-6267D01*
G01X3323Y-199640D02*
X2853Y-199340D01*
X2305Y-199140D01*
X1678D01*
X973Y-199440D01*
X425Y-199940D01*
X33Y-200540D01*
X-280Y-201540D01*
X-358Y-202440D01*
X-202Y-203340D01*
X33Y-203940D01*
X503Y-204540D01*
X1052Y-204940D01*
X1600Y-205140D01*
X2148D01*
X2697Y-204940D01*
X3167Y-204640D01*
X3558Y-204240D01*
G01X7900Y-205140D02*
X7273Y-205040D01*
X6725Y-204640D01*
X6255Y-204040D01*
X5942Y-203340D01*
X5785Y-202540D01*
Y-201740D01*
X5942Y-200940D01*
X6255Y-200240D01*
X6725Y-199640D01*
X7273Y-199240D01*
X7900Y-199140D01*
X8527Y-199240D01*
X9075Y-199640D01*
X9545Y-200240D01*
X9858Y-200940D01*
X10015Y-201740D01*
Y-202540D01*
X9858Y-203340D01*
X9545Y-204040D01*
X9075Y-204640D01*
X8527Y-205040D01*
X7900Y-205140D01*
G01X12398D02*
Y-199140D01*
X16002Y-205140D01*
Y-199140D01*
G01X18777Y-205140D02*
Y-199140D01*
X20343D01*
X20970Y-199440D01*
X21440Y-199840D01*
X21832Y-200440D01*
X22145Y-201140D01*
X22223Y-202140D01*
X22145Y-203140D01*
X21832Y-203840D01*
X21440Y-204440D01*
X20970Y-204840D01*
X20343Y-205140D01*
X18777D01*
G01X24842D02*
X26800Y-199140D01*
X28758Y-205140D01*
G01X28053Y-203040D02*
X25547D01*
G01X31533Y-205140D02*
Y-199140D01*
X33492D01*
X34118Y-199440D01*
X34510Y-199840D01*
X34667Y-200640D01*
X34510Y-201440D01*
X34040Y-201940D01*
X33492Y-202240D01*
X31533D01*
G01X33492D02*
X34667Y-205140D01*
G01X39400D02*
Y-202440D01*
X37833Y-199140D01*
G01X40967D02*
X39400Y-202440D01*
G01X50355Y-204340D02*
X50982Y-204840D01*
X51687Y-205140D01*
X52313D01*
X52940Y-204840D01*
X53410Y-204340D01*
X53645Y-203640D01*
X53488Y-202940D01*
X53097Y-202340D01*
X52392Y-201940D01*
X51452Y-201740D01*
X50903Y-201340D01*
X50668Y-200640D01*
X50825Y-199940D01*
X51217Y-199440D01*
X51765Y-199140D01*
X52313D01*
X52862Y-199340D01*
X53332Y-199840D01*
G01X57360Y-199140D02*
X59240D01*
G01X58300D02*
Y-205140D01*
G01X57360D02*
X59240D01*
G01X63033Y-199140D02*
Y-205140D01*
X66167D01*
G01X69177D02*
Y-199140D01*
G01X72153D02*
X69177Y-202840D01*
G01X72623Y-205140D02*
X70508Y-201140D01*
G01X75555Y-204340D02*
X76182Y-204840D01*
X76887Y-205140D01*
X77513D01*
X78140Y-204840D01*
X78610Y-204340D01*
X78845Y-203640D01*
X78688Y-202940D01*
X78297Y-202340D01*
X77592Y-201940D01*
X76652Y-201740D01*
X76103Y-201340D01*
X75868Y-200640D01*
X76025Y-199940D01*
X76417Y-199440D01*
X76965Y-199140D01*
X77513D01*
X78062Y-199340D01*
X78532Y-199840D01*
G01X85223Y-199640D02*
X84753Y-199340D01*
X84205Y-199140D01*
X83578D01*
X82873Y-199440D01*
X82325Y-199940D01*
X81933Y-200540D01*
X81620Y-201540D01*
X81542Y-202440D01*
X81698Y-203340D01*
X81933Y-203940D01*
X82403Y-204540D01*
X82952Y-204940D01*
X83500Y-205140D01*
X84048D01*
X84597Y-204940D01*
X85067Y-204640D01*
X85458Y-204240D01*
G01X88233Y-205140D02*
Y-199140D01*
X90192D01*
X90818Y-199440D01*
X91210Y-199840D01*
X91367Y-200640D01*
X91210Y-201440D01*
X90740Y-201940D01*
X90192Y-202240D01*
X88233D01*
G01X90192D02*
X91367Y-205140D01*
G01X97667D02*
X94533D01*
Y-199140D01*
X97667D01*
G01X96413Y-202040D02*
X94533D01*
G01X103967Y-205140D02*
X100833D01*
Y-199140D01*
X103967D01*
G01X102713Y-202040D02*
X100833D01*
G01X106898Y-205140D02*
Y-199140D01*
X110502Y-205140D01*
Y-199140D01*
G01X-10198Y-195660D02*
Y-191660D01*
X-7982D01*
G01X-8798Y-193593D02*
X-10198D01*
G01X-4990Y-191660D02*
X-3590D01*
G01X-4290D02*
Y-195660D01*
G01X-4990D02*
X-3590D01*
G01X-657Y-191660D02*
Y-195660D01*
X1677D01*
G01X3793D02*
Y-191660D01*
X5310Y-194993D01*
X6827Y-191660D01*
Y-195660D01*
G01X-8775Y61122D02*
X-9085Y61314D01*
X-9292Y61544D01*
X-9395Y61812D01*
X-9292Y62119D01*
X-9085Y62349D01*
X-8775Y62579D01*
X-8362Y62656D01*
X-6295D01*
G01X-9395Y64789D02*
X-6295D01*
X-6915Y64329D01*
G01X-9395D02*
Y65249D01*
G01Y67689D02*
X-9343Y67957D01*
X-9188Y68264D01*
X-8930Y68456D01*
X-8568Y68532D01*
X-8207Y68456D01*
X-7897Y68226D01*
X-7742Y67881D01*
Y67497D01*
X-7638Y67267D01*
X-7380Y67076D01*
X-7018Y66999D01*
X-6657Y67114D01*
X-6398Y67382D01*
X-6295Y67689D01*
X-6398Y67996D01*
X-6657Y68264D01*
X-7018Y68379D01*
X-7380Y68302D01*
X-7638Y68111D01*
X-7742Y67881D01*
Y67497D01*
X-7897Y67152D01*
X-8207Y66922D01*
X-8568Y66846D01*
X-8930Y66922D01*
X-9188Y67114D01*
X-9343Y67421D01*
X-9395Y67689D01*
G01X294Y67824D02*
Y70924D01*
X754Y70304D01*
G01Y67824D02*
X-166D01*
G01X-4807Y68110D02*
Y71210D01*
X-4347Y70590D01*
G01Y68110D02*
X-5267D01*
G01X79206Y113076D02*
X78736Y113706D01*
X78188Y114021D01*
X77561Y114126D01*
X76778Y113916D01*
X76230Y113391D01*
X76073Y112761D01*
X76151Y112131D01*
X76465Y111606D01*
X78031Y110556D01*
X78736Y109821D01*
X79206Y108771D01*
X79363Y107826D01*
X76073D01*
G01X71418Y114126D02*
X72045Y113916D01*
X72515Y113391D01*
X72828Y112761D01*
X73063Y111921D01*
X73141Y110976D01*
X73063Y110031D01*
X72828Y109191D01*
X72515Y108561D01*
X72045Y108036D01*
X71418Y107826D01*
X70791Y108036D01*
X70321Y108561D01*
X70008Y109191D01*
X69773Y110031D01*
X69695Y110976D01*
X69773Y111921D01*
X70008Y112761D01*
X70321Y113391D01*
X70791Y113916D01*
X71418Y114126D01*
G01X65118Y107826D02*
Y114126D01*
X66058Y112866D01*
G01Y107826D02*
X64178D01*
G01X60306Y110451D02*
X59758Y111186D01*
X59288Y111606D01*
X58661Y111816D01*
X58113Y111606D01*
X57721Y111186D01*
X57408Y110556D01*
X57330Y109821D01*
X57408Y109191D01*
X57721Y108561D01*
X58191Y108036D01*
X58740Y107826D01*
X59366Y108036D01*
X59915Y108666D01*
X60228Y109611D01*
X60306Y110661D01*
X60150Y112026D01*
X59915Y112761D01*
X59523Y113496D01*
X58975Y114021D01*
X58426Y114126D01*
X57878Y113916D01*
X57486Y113391D01*
G01X48020Y107826D02*
Y114126D01*
X44416Y107826D01*
Y114126D01*
G01X41563Y107826D02*
X38273Y114126D01*
G01X41563D02*
X38273Y107826D01*
G01X35185D02*
Y114126D01*
X33305D01*
X32678Y113811D01*
X32208Y113076D01*
X32051Y112236D01*
X32208Y111396D01*
X32600Y110766D01*
X33305Y110451D01*
X35185D01*
G01X20391Y111186D02*
X20078Y111501D01*
X19843Y112026D01*
X19686Y112761D01*
X19843Y113391D01*
X20156Y113811D01*
X20705Y114126D01*
X22820D01*
Y107826D01*
X20235D01*
X19686Y108246D01*
X19373Y108876D01*
X19216Y109611D01*
X19373Y110346D01*
X19843Y110976D01*
X20391Y111186D01*
X22820D01*
G01X14718Y107616D02*
X14875Y107721D01*
Y107931D01*
X14718Y108036D01*
X14561Y107931D01*
Y107721D01*
X14718Y107616D01*
G01X10376Y114126D02*
X8418Y107826D01*
X6460Y114126D01*
G01X2118Y107616D02*
X2275Y107721D01*
Y107931D01*
X2118Y108036D01*
X1961Y107931D01*
Y107721D01*
X2118Y107616D01*
G01X6785Y88145D02*
X6593Y87835D01*
X6363Y87628D01*
X6095Y87525D01*
X5788Y87628D01*
X5558Y87835D01*
X5328Y88145D01*
X5251Y88558D01*
Y90625D01*
G01X3118Y87525D02*
Y90625D01*
X3578Y90005D01*
G01Y87525D02*
X2658D01*
G01X218Y90625D02*
X525Y90522D01*
X755Y90263D01*
X908Y89953D01*
X1023Y89540D01*
X1061Y89075D01*
X1023Y88610D01*
X908Y88197D01*
X755Y87887D01*
X525Y87628D01*
X218Y87525D01*
X-89Y87628D01*
X-319Y87887D01*
X-472Y88197D01*
X-587Y88610D01*
X-625Y89075D01*
X-587Y89540D01*
X-472Y89953D01*
X-319Y90263D01*
X-89Y90522D01*
X218Y90625D01*
G01X43843Y20408D02*
X43613Y20046D01*
X43307Y19840D01*
X42962Y19788D01*
X42655Y19840D01*
X42348Y20098D01*
X42157Y20408D01*
X42118Y20718D01*
X42195Y21080D01*
X42463Y21338D01*
X42732Y21441D01*
X43077D01*
G01X42732D02*
X42502Y21596D01*
X42310Y21855D01*
X42233Y22165D01*
X42310Y22475D01*
X42502Y22733D01*
X42847Y22888D01*
X43192Y22836D01*
X43537Y22630D01*
G01X22978Y22371D02*
X22748Y22681D01*
X22480Y22836D01*
X22173Y22888D01*
X21790Y22785D01*
X21522Y22526D01*
X21445Y22216D01*
X21483Y21906D01*
X21637Y21648D01*
X22403Y21131D01*
X22748Y20770D01*
X22978Y20253D01*
X23055Y19788D01*
X21445D01*
G01X42990Y173744D02*
X39890D01*
Y172824D01*
X40045Y172517D01*
X40407Y172287D01*
X40820Y172210D01*
X41233Y172287D01*
X41543Y172479D01*
X41698Y172824D01*
Y173744D01*
G01X42370Y170844D02*
X42680Y170652D01*
X42887Y170422D01*
X42990Y170154D01*
X42887Y169847D01*
X42680Y169617D01*
X42370Y169387D01*
X41957Y169310D01*
X39890D01*
G01X42990Y167177D02*
X39890D01*
X40510Y167637D01*
G01X42990D02*
Y166717D01*
G01X41233Y184555D02*
Y187655D01*
X41693Y187035D01*
G01Y184555D02*
X40773D01*
G01X38333Y187655D02*
X38640Y187552D01*
X38870Y187293D01*
X39023Y186983D01*
X39138Y186570D01*
X39176Y186105D01*
X39138Y185640D01*
X39023Y185227D01*
X38870Y184917D01*
X38640Y184658D01*
X38333Y184555D01*
X38026Y184658D01*
X37796Y184917D01*
X37643Y185227D01*
X37528Y185640D01*
X37490Y186105D01*
X37528Y186570D01*
X37643Y186983D01*
X37796Y187293D01*
X38026Y187552D01*
X38333Y187655D01*
G01X75140Y6606D02*
X78240Y5648D01*
X75140Y4690D01*
G01X76587Y2441D02*
X76432Y2288D01*
X76173Y2173D01*
X75812Y2096D01*
X75502Y2173D01*
X75295Y2326D01*
X75140Y2595D01*
Y3630D01*
X78240D01*
Y2365D01*
X78033Y2096D01*
X77723Y1943D01*
X77362Y1866D01*
X77000Y1943D01*
X76690Y2173D01*
X76587Y2441D01*
Y3630D01*
G01X78240Y806D02*
X75140Y-152D01*
X78240Y-1110D01*
G01X77155Y-765D02*
Y461D01*
G01X75140Y-3052D02*
X78240D01*
G01X75140Y-2170D02*
Y-3934D01*
G01X62586Y7405D02*
X62276Y7597D01*
X62069Y7827D01*
X61966Y8095D01*
X62069Y8402D01*
X62276Y8632D01*
X62586Y8862D01*
X62999Y8939D01*
X65066D01*
G01X61966Y11072D02*
X65066D01*
X64446Y10612D01*
G01X61966D02*
Y11532D01*
G01X62431Y13129D02*
X62173Y13359D01*
X62018Y13627D01*
X61966Y13972D01*
X62069Y14317D01*
X62276Y14585D01*
X62638Y14777D01*
X63051Y14815D01*
X63464Y14739D01*
X63723Y14547D01*
X63929Y14279D01*
X63981Y14010D01*
X63929Y13742D01*
X63723Y13397D01*
X65066Y13512D01*
Y14547D01*
G01X71775Y-8632D02*
Y-5532D01*
X72235Y-6152D01*
G01Y-8632D02*
X71315D01*
G01X56500Y19788D02*
Y22888D01*
X56960Y22268D01*
G01Y19788D02*
X56040D01*
G01X51200Y76000D02*
Y79100D01*
X51660Y78480D01*
G01Y76000D02*
X50740D01*
G01X61903Y84892D02*
X61711Y84582D01*
X61481Y84375D01*
X61213Y84272D01*
X60906Y84375D01*
X60676Y84582D01*
X60446Y84892D01*
X60369Y85305D01*
Y87372D01*
G01X58236Y84272D02*
Y87372D01*
X58696Y86752D01*
G01Y84272D02*
X57776D01*
G01X56064Y86855D02*
X55834Y87165D01*
X55566Y87320D01*
X55259Y87372D01*
X54876Y87269D01*
X54608Y87010D01*
X54531Y86700D01*
X54569Y86390D01*
X54723Y86132D01*
X55489Y85615D01*
X55834Y85254D01*
X56064Y84737D01*
X56141Y84272D01*
X54531D01*
G01X83080Y174214D02*
X79980D01*
Y173294D01*
X80135Y172987D01*
X80497Y172757D01*
X80910Y172680D01*
X81323Y172757D01*
X81633Y172949D01*
X81788Y173294D01*
Y174214D01*
G01X82667Y171352D02*
X82925Y171045D01*
X83080Y170700D01*
Y170394D01*
X82925Y170087D01*
X82667Y169857D01*
X82305Y169742D01*
X81943Y169819D01*
X81633Y170010D01*
X81427Y170355D01*
X81323Y170815D01*
X81117Y171084D01*
X80755Y171199D01*
X80393Y171122D01*
X80135Y170930D01*
X79980Y170662D01*
Y170394D01*
X80083Y170125D01*
X80342Y169895D01*
G01X80497Y168375D02*
X80187Y168145D01*
X80032Y167877D01*
X79980Y167570D01*
X80083Y167187D01*
X80342Y166919D01*
X80652Y166842D01*
X80962Y166880D01*
X81220Y167034D01*
X81737Y167800D01*
X82098Y168145D01*
X82615Y168375D01*
X83080Y168452D01*
Y166842D01*
G01X83183Y165437D02*
X79980Y164057D01*
G01X82667Y162652D02*
X82925Y162345D01*
X83080Y162000D01*
Y161694D01*
X82925Y161387D01*
X82667Y161157D01*
X82305Y161042D01*
X81943Y161119D01*
X81633Y161310D01*
X81427Y161655D01*
X81323Y162115D01*
X81117Y162384D01*
X80755Y162499D01*
X80393Y162422D01*
X80135Y162230D01*
X79980Y161962D01*
Y161694D01*
X80083Y161425D01*
X80342Y161195D01*
G01X80238Y158104D02*
X80083Y158334D01*
X79980Y158602D01*
Y158909D01*
X80135Y159254D01*
X80393Y159522D01*
X80703Y159714D01*
X81220Y159867D01*
X81685Y159905D01*
X82150Y159829D01*
X82460Y159714D01*
X82770Y159484D01*
X82977Y159215D01*
X83080Y158947D01*
Y158679D01*
X82977Y158410D01*
X82822Y158180D01*
X82615Y157989D01*
G01X83080Y156890D02*
X79980D01*
G01Y155434D02*
X81892Y156890D01*
G01X83080Y155204D02*
X81013Y156239D01*
G01X53310Y173744D02*
X50210D01*
Y172824D01*
X50365Y172517D01*
X50727Y172287D01*
X51140Y172210D01*
X51553Y172287D01*
X51863Y172479D01*
X52018Y172824D01*
Y173744D01*
G01X52690Y170844D02*
X53000Y170652D01*
X53207Y170422D01*
X53310Y170154D01*
X53207Y169847D01*
X53000Y169617D01*
X52690Y169387D01*
X52277Y169310D01*
X50210D01*
G01Y167177D02*
X50313Y167484D01*
X50572Y167714D01*
X50882Y167867D01*
X51295Y167982D01*
X51760Y168020D01*
X52225Y167982D01*
X52638Y167867D01*
X52948Y167714D01*
X53207Y167484D01*
X53310Y167177D01*
X53207Y166870D01*
X52948Y166640D01*
X52638Y166487D01*
X52225Y166372D01*
X51760Y166334D01*
X51295Y166372D01*
X50882Y166487D01*
X50572Y166640D01*
X50313Y166870D01*
X50210Y167177D01*
G01X63070Y174185D02*
X59970Y173227D01*
X63070Y172269D01*
G01X61985Y172614D02*
Y173840D01*
G01X63070Y171209D02*
X59970D01*
X63070Y169445D01*
X59970D01*
G01Y167427D02*
X60073Y167734D01*
X60332Y167964D01*
X60642Y168117D01*
X61055Y168232D01*
X61520Y168270D01*
X61985Y168232D01*
X62398Y168117D01*
X62708Y167964D01*
X62967Y167734D01*
X63070Y167427D01*
X62967Y167120D01*
X62708Y166890D01*
X62398Y166737D01*
X61985Y166622D01*
X61520Y166584D01*
X61055Y166622D01*
X60642Y166737D01*
X60332Y166890D01*
X60073Y167120D01*
X59970Y167427D01*
G01X71710Y173247D02*
Y172480D01*
X72640D01*
X72950Y172710D01*
X73157Y172979D01*
X73260Y173362D01*
X73157Y173745D01*
X72950Y174014D01*
X72640Y174244D01*
X72278Y174397D01*
X71865Y174474D01*
X71503D01*
X71193Y174397D01*
X70832Y174244D01*
X70522Y174014D01*
X70315Y173784D01*
X70160Y173477D01*
Y173209D01*
X70263Y172902D01*
X70470Y172672D01*
G01X73260Y171459D02*
X70160D01*
X73260Y169695D01*
X70160D01*
G01X73260Y168520D02*
X70160D01*
Y167754D01*
X70315Y167447D01*
X70522Y167217D01*
X70832Y167025D01*
X71193Y166872D01*
X71710Y166834D01*
X72227Y166872D01*
X72588Y167025D01*
X72898Y167217D01*
X73105Y167447D01*
X73260Y167754D01*
Y168520D01*
G01X82637Y187590D02*
X82445Y187280D01*
X82215Y187073D01*
X81947Y186970D01*
X81640Y187073D01*
X81410Y187280D01*
X81180Y187590D01*
X81103Y188003D01*
Y190070D01*
G01X79698Y189553D02*
X79468Y189863D01*
X79200Y190018D01*
X78893Y190070D01*
X78510Y189967D01*
X78242Y189708D01*
X78165Y189398D01*
X78203Y189088D01*
X78357Y188830D01*
X79123Y188313D01*
X79468Y187952D01*
X79698Y187435D01*
X79775Y186970D01*
X78165D01*
G01X115056Y-20160D02*
X114864Y-20470D01*
X114634Y-20677D01*
X114366Y-20780D01*
X114059Y-20677D01*
X113829Y-20470D01*
X113599Y-20160D01*
X113522Y-19747D01*
Y-17680D01*
G01X112232Y-20160D02*
X112002Y-20522D01*
X111696Y-20728D01*
X111351Y-20780D01*
X111044Y-20728D01*
X110737Y-20470D01*
X110546Y-20160D01*
X110507Y-19850D01*
X110584Y-19488D01*
X110852Y-19230D01*
X111121Y-19127D01*
X111466D01*
G01X111121D02*
X110891Y-18972D01*
X110699Y-18713D01*
X110622Y-18403D01*
X110699Y-18093D01*
X110891Y-17835D01*
X111236Y-17680D01*
X111581Y-17732D01*
X111926Y-17938D01*
G01X108630Y6995D02*
X105530D01*
Y6075D01*
X105685Y5768D01*
X106047Y5538D01*
X106460Y5461D01*
X106873Y5538D01*
X107183Y5730D01*
X107338Y6075D01*
Y6995D01*
G01X108010Y4171D02*
X108372Y3941D01*
X108578Y3635D01*
X108630Y3290D01*
X108578Y2983D01*
X108320Y2676D01*
X108010Y2485D01*
X107700Y2446D01*
X107338Y2523D01*
X107080Y2791D01*
X106977Y3060D01*
Y3405D01*
G01Y3060D02*
X106822Y2830D01*
X106563Y2638D01*
X106253Y2561D01*
X105943Y2638D01*
X105685Y2830D01*
X105530Y3175D01*
X105582Y3520D01*
X105788Y3865D01*
G01X105530Y1386D02*
X108630Y428D01*
X105530Y-530D01*
G01X108010Y-1629D02*
X108372Y-1859D01*
X108578Y-2165D01*
X108630Y-2510D01*
X108578Y-2817D01*
X108320Y-3124D01*
X108010Y-3315D01*
X107700Y-3354D01*
X107338Y-3277D01*
X107080Y-3009D01*
X106977Y-2740D01*
Y-2395D01*
G01Y-2740D02*
X106822Y-2970D01*
X106563Y-3162D01*
X106253Y-3239D01*
X105943Y-3162D01*
X105685Y-2970D01*
X105530Y-2625D01*
X105582Y-2280D01*
X105788Y-1935D01*
G01X98740Y15775D02*
X95640D01*
Y14816D01*
X95795Y14510D01*
X96002Y14318D01*
X96415Y14241D01*
X96828Y14318D01*
X97087Y14548D01*
X97242Y14816D01*
Y15775D01*
G01Y14816D02*
X98740Y14241D01*
G01Y11341D02*
Y12875D01*
X95640D01*
Y11341D01*
G01X97138Y11955D02*
Y12875D01*
G01X98327Y10013D02*
X98585Y9706D01*
X98740Y9361D01*
Y9055D01*
X98585Y8748D01*
X98327Y8518D01*
X97965Y8403D01*
X97603Y8480D01*
X97293Y8671D01*
X97087Y9016D01*
X96983Y9476D01*
X96777Y9745D01*
X96415Y9860D01*
X96053Y9783D01*
X95795Y9591D01*
X95640Y9323D01*
Y9055D01*
X95743Y8786D01*
X96002Y8556D01*
G01X98740Y5541D02*
Y7075D01*
X95640D01*
Y5541D01*
G01X97138Y6155D02*
Y7075D01*
G01X95640Y3408D02*
X98740D01*
G01X95640Y4290D02*
Y2526D01*
G01X99773Y1658D02*
Y-642D01*
G01X97087Y-2699D02*
X96932Y-2852D01*
X96673Y-2967D01*
X96312Y-3044D01*
X96002Y-2967D01*
X95795Y-2814D01*
X95640Y-2545D01*
Y-1510D01*
X98740D01*
Y-2775D01*
X98533Y-3044D01*
X98223Y-3197D01*
X97862Y-3274D01*
X97500Y-3197D01*
X97190Y-2967D01*
X97087Y-2699D01*
Y-1510D01*
G01X86460Y7026D02*
X89560Y6068D01*
X86460Y5110D01*
G01X89560Y4011D02*
X86460D01*
Y3245D01*
X86615Y2938D01*
X86822Y2708D01*
X87132Y2516D01*
X87493Y2363D01*
X88010Y2325D01*
X88527Y2363D01*
X88888Y2516D01*
X89198Y2708D01*
X89405Y2938D01*
X89560Y3245D01*
Y4011D01*
G01Y1111D02*
X86460D01*
Y345D01*
X86615Y38D01*
X86822Y-192D01*
X87132Y-384D01*
X87493Y-537D01*
X88010Y-575D01*
X88527Y-537D01*
X88888Y-384D01*
X89198Y-192D01*
X89405Y38D01*
X89560Y345D01*
Y1111D01*
G01Y-1827D02*
X86460Y-3437D01*
G01Y-1827D02*
X89560Y-3437D01*
G01X113013Y127535D02*
Y130635D01*
X113473Y130015D01*
G01Y127535D02*
X112553D01*
G01X113190Y174554D02*
X110090D01*
Y173634D01*
X110245Y173327D01*
X110607Y173097D01*
X111020Y173020D01*
X111433Y173097D01*
X111743Y173289D01*
X111898Y173634D01*
Y174554D01*
G01X112777Y171692D02*
X113035Y171385D01*
X113190Y171040D01*
Y170734D01*
X113035Y170427D01*
X112777Y170197D01*
X112415Y170082D01*
X112053Y170159D01*
X111743Y170350D01*
X111537Y170695D01*
X111433Y171155D01*
X111227Y171424D01*
X110865Y171539D01*
X110503Y171462D01*
X110245Y171270D01*
X110090Y171002D01*
Y170734D01*
X110193Y170465D01*
X110452Y170235D01*
G01X112570Y168830D02*
X112932Y168600D01*
X113138Y168294D01*
X113190Y167949D01*
X113138Y167642D01*
X112880Y167335D01*
X112570Y167144D01*
X112260Y167105D01*
X111898Y167182D01*
X111640Y167450D01*
X111537Y167719D01*
Y168064D01*
G01Y167719D02*
X111382Y167489D01*
X111123Y167297D01*
X110813Y167220D01*
X110503Y167297D01*
X110245Y167489D01*
X110090Y167834D01*
X110142Y168179D01*
X110348Y168524D01*
G01X113293Y165777D02*
X110090Y164397D01*
G01X112777Y162992D02*
X113035Y162685D01*
X113190Y162340D01*
Y162034D01*
X113035Y161727D01*
X112777Y161497D01*
X112415Y161382D01*
X112053Y161459D01*
X111743Y161650D01*
X111537Y161995D01*
X111433Y162455D01*
X111227Y162724D01*
X110865Y162839D01*
X110503Y162762D01*
X110245Y162570D01*
X110090Y162302D01*
Y162034D01*
X110193Y161765D01*
X110452Y161535D01*
G01X112777Y160092D02*
X113035Y159785D01*
X113190Y159440D01*
Y159134D01*
X113035Y158827D01*
X112777Y158597D01*
X112415Y158482D01*
X112053Y158559D01*
X111743Y158750D01*
X111537Y159095D01*
X111433Y159555D01*
X111227Y159824D01*
X110865Y159939D01*
X110503Y159862D01*
X110245Y159670D01*
X110090Y159402D01*
Y159134D01*
X110193Y158865D01*
X110452Y158635D01*
G01X113293Y157077D02*
X110090Y155697D01*
G01X113190Y154254D02*
X110090D01*
Y153334D01*
X110245Y153027D01*
X110607Y152797D01*
X111020Y152720D01*
X111433Y152797D01*
X111743Y152989D01*
X111898Y153334D01*
Y154254D01*
G01X113190Y151354D02*
X110090D01*
Y150434D01*
X110245Y150127D01*
X110607Y149897D01*
X111020Y149820D01*
X111433Y149897D01*
X111743Y150089D01*
X111898Y150434D01*
Y151354D01*
G01Y148415D02*
X111537Y148147D01*
X111330Y147917D01*
X111227Y147610D01*
X111330Y147342D01*
X111537Y147150D01*
X111847Y146997D01*
X112208Y146959D01*
X112518Y146997D01*
X112828Y147150D01*
X113087Y147380D01*
X113190Y147649D01*
X113087Y147955D01*
X112777Y148224D01*
X112312Y148377D01*
X111795Y148415D01*
X111123Y148339D01*
X110762Y148224D01*
X110400Y148032D01*
X110142Y147764D01*
X110090Y147495D01*
X110193Y147227D01*
X110452Y147035D01*
G01X103030Y174454D02*
X99930D01*
Y173534D01*
X100085Y173227D01*
X100447Y172997D01*
X100860Y172920D01*
X101273Y172997D01*
X101583Y173189D01*
X101738Y173534D01*
Y174454D01*
G01X102617Y171592D02*
X102875Y171285D01*
X103030Y170940D01*
Y170634D01*
X102875Y170327D01*
X102617Y170097D01*
X102255Y169982D01*
X101893Y170059D01*
X101583Y170250D01*
X101377Y170595D01*
X101273Y171055D01*
X101067Y171324D01*
X100705Y171439D01*
X100343Y171362D01*
X100085Y171170D01*
X99930Y170902D01*
Y170634D01*
X100033Y170365D01*
X100292Y170135D01*
G01X103030Y167887D02*
X99930D01*
X100550Y168347D01*
G01X103030D02*
Y167427D01*
G01X103133Y165677D02*
X99930Y164297D01*
G01X103030Y163084D02*
X99930D01*
X102513Y162087D01*
X99930Y161090D01*
X103030D01*
G01Y159187D02*
X102978Y159494D01*
X102772Y159762D01*
X102462Y159992D01*
X102100Y160145D01*
X101687Y160222D01*
X101273D01*
X100860Y160145D01*
X100498Y159992D01*
X100188Y159762D01*
X99982Y159494D01*
X99930Y159187D01*
X99982Y158880D01*
X100188Y158612D01*
X100498Y158382D01*
X100860Y158229D01*
X101273Y158152D01*
X101687D01*
X102100Y158229D01*
X102462Y158382D01*
X102772Y158612D01*
X102978Y158880D01*
X103030Y159187D01*
G01X102617Y157092D02*
X102875Y156785D01*
X103030Y156440D01*
Y156134D01*
X102875Y155827D01*
X102617Y155597D01*
X102255Y155482D01*
X101893Y155559D01*
X101583Y155750D01*
X101377Y156095D01*
X101273Y156555D01*
X101067Y156824D01*
X100705Y156939D01*
X100343Y156862D01*
X100085Y156670D01*
X99930Y156402D01*
Y156134D01*
X100033Y155865D01*
X100292Y155635D01*
G01X99930Y153847D02*
Y152927D01*
G01Y153387D02*
X103030D01*
G01Y153847D02*
Y152927D01*
G01X93240Y174764D02*
X90140D01*
Y173844D01*
X90295Y173537D01*
X90657Y173307D01*
X91070Y173230D01*
X91483Y173307D01*
X91793Y173499D01*
X91948Y173844D01*
Y174764D01*
G01X92827Y171902D02*
X93085Y171595D01*
X93240Y171250D01*
Y170944D01*
X93085Y170637D01*
X92827Y170407D01*
X92465Y170292D01*
X92103Y170369D01*
X91793Y170560D01*
X91587Y170905D01*
X91483Y171365D01*
X91277Y171634D01*
X90915Y171749D01*
X90553Y171672D01*
X90295Y171480D01*
X90140Y171212D01*
Y170944D01*
X90243Y170675D01*
X90502Y170445D01*
G01X90140Y168197D02*
X90243Y168504D01*
X90502Y168734D01*
X90812Y168887D01*
X91225Y169002D01*
X91690Y169040D01*
X92155Y169002D01*
X92568Y168887D01*
X92878Y168734D01*
X93137Y168504D01*
X93240Y168197D01*
X93137Y167890D01*
X92878Y167660D01*
X92568Y167507D01*
X92155Y167392D01*
X91690Y167354D01*
X91225Y167392D01*
X90812Y167507D01*
X90502Y167660D01*
X90243Y167890D01*
X90140Y168197D01*
G01X93343Y165987D02*
X90140Y164607D01*
G01X93240Y163394D02*
X90140D01*
X92723Y162397D01*
X90140Y161400D01*
X93240D01*
G01X90140Y159957D02*
Y159037D01*
G01Y159497D02*
X93240D01*
G01Y159957D02*
Y159037D01*
G01X92827Y157402D02*
X93085Y157095D01*
X93240Y156750D01*
Y156444D01*
X93085Y156137D01*
X92827Y155907D01*
X92465Y155792D01*
X92103Y155869D01*
X91793Y156060D01*
X91587Y156405D01*
X91483Y156865D01*
X91277Y157134D01*
X90915Y157249D01*
X90553Y157172D01*
X90295Y156980D01*
X90140Y156712D01*
Y156444D01*
X90243Y156175D01*
X90502Y155945D01*
G01X93240Y153697D02*
X93188Y154004D01*
X92982Y154272D01*
X92672Y154502D01*
X92310Y154655D01*
X91897Y154732D01*
X91483D01*
X91070Y154655D01*
X90708Y154502D01*
X90398Y154272D01*
X90192Y154004D01*
X90140Y153697D01*
X90192Y153390D01*
X90398Y153122D01*
X90708Y152892D01*
X91070Y152739D01*
X91483Y152662D01*
X91897D01*
X92310Y152739D01*
X92672Y152892D01*
X92982Y153122D01*
X93188Y153390D01*
X93240Y153697D01*
G01X117910Y-199660D02*
X117443Y-199793D01*
X117093Y-200127D01*
X116860Y-200527D01*
X116685Y-201060D01*
X116627Y-201660D01*
X116685Y-202260D01*
X116860Y-202793D01*
X117093Y-203193D01*
X117443Y-203527D01*
X117910Y-203660D01*
X118377Y-203527D01*
X118727Y-203193D01*
X118960Y-202793D01*
X119135Y-202260D01*
X119193Y-201660D01*
X119135Y-201060D01*
X118960Y-200527D01*
X118727Y-200127D01*
X118377Y-199793D01*
X117910Y-199660D01*
G01X121427Y-202860D02*
X121777Y-203327D01*
X122243Y-203593D01*
X122768Y-203660D01*
X123235Y-203593D01*
X123702Y-203260D01*
X123993Y-202860D01*
X124052Y-202460D01*
X123935Y-201993D01*
X123527Y-201660D01*
X123118Y-201527D01*
X122593D01*
G01X123118D02*
X123468Y-201327D01*
X123760Y-200993D01*
X123877Y-200593D01*
X123760Y-200193D01*
X123468Y-199860D01*
X122943Y-199660D01*
X122418Y-199727D01*
X121893Y-199993D01*
G01X126752Y-202327D02*
X128268D01*
G01X132310Y-203660D02*
Y-199660D01*
X131610Y-200460D01*
G01Y-203660D02*
X133010D01*
G01X137110Y-199660D02*
X136643Y-199793D01*
X136293Y-200127D01*
X136060Y-200527D01*
X135885Y-201060D01*
X135827Y-201660D01*
X135885Y-202260D01*
X136060Y-202793D01*
X136293Y-203193D01*
X136643Y-203527D01*
X137110Y-203660D01*
X137577Y-203527D01*
X137927Y-203193D01*
X138160Y-202793D01*
X138335Y-202260D01*
X138393Y-201660D01*
X138335Y-201060D01*
X138160Y-200527D01*
X137927Y-200127D01*
X137577Y-199793D01*
X137110Y-199660D01*
G01X141152Y-202327D02*
X142668D01*
G01X146710Y-203660D02*
Y-199660D01*
X146010Y-200460D01*
G01Y-203660D02*
X147410D01*
G01X150402Y-201993D02*
X150810Y-201527D01*
X151160Y-201260D01*
X151627Y-201127D01*
X152035Y-201260D01*
X152327Y-201527D01*
X152560Y-201927D01*
X152618Y-202393D01*
X152560Y-202793D01*
X152327Y-203193D01*
X151977Y-203527D01*
X151568Y-203660D01*
X151102Y-203527D01*
X150693Y-203127D01*
X150460Y-202527D01*
X150402Y-201860D01*
X150518Y-200993D01*
X150693Y-200527D01*
X150985Y-200060D01*
X151393Y-199727D01*
X151802Y-199660D01*
X152210Y-199793D01*
X152502Y-200127D01*
G01X124160Y-181493D02*
X127660D01*
G01X128960D02*
X132460D01*
G01X133760D02*
X137260D01*
G01X144002Y-180160D02*
Y-176160D01*
X146218D01*
G01X145402Y-178093D02*
X144002D01*
G01X151193Y-176493D02*
X150843Y-176293D01*
X150435Y-176160D01*
X149968D01*
X149443Y-176360D01*
X149035Y-176693D01*
X148743Y-177093D01*
X148510Y-177760D01*
X148452Y-178360D01*
X148568Y-178960D01*
X148743Y-179360D01*
X149093Y-179760D01*
X149502Y-180027D01*
X149910Y-180160D01*
X150318D01*
X150727Y-180027D01*
X151077Y-179827D01*
X151368Y-179560D01*
G01X153543Y-180160D02*
Y-176160D01*
X154943D01*
X155410Y-176360D01*
X155760Y-176827D01*
X155877Y-177360D01*
X155760Y-177893D01*
X155468Y-178293D01*
X154943Y-178493D01*
X153543D01*
G01X164018Y-181493D02*
X163435Y-180827D01*
X163143Y-180160D01*
Y-177493D01*
X163435Y-176827D01*
X164018Y-176160D01*
G01X168002Y-180160D02*
Y-176160D01*
X170218D01*
G01X169402Y-178093D02*
X168002D01*
G01X172743Y-180160D02*
Y-176160D01*
X174202D01*
X174668Y-176360D01*
X174960Y-176627D01*
X175077Y-177160D01*
X174960Y-177693D01*
X174610Y-178027D01*
X174202Y-178227D01*
X172743D01*
G01X174202D02*
X175077Y-180160D01*
G01X179877D02*
X177543D01*
Y-176160D01*
X179877D01*
G01X178943Y-178093D02*
X177543D01*
G01X184677Y-180160D02*
X182343D01*
Y-176160D01*
X184677D01*
G01X183743Y-178093D02*
X182343D01*
G01X187085Y-179627D02*
X187552Y-179960D01*
X188077Y-180160D01*
X188543D01*
X189010Y-179960D01*
X189360Y-179627D01*
X189535Y-179160D01*
X189418Y-178693D01*
X189127Y-178293D01*
X188602Y-178027D01*
X187902Y-177893D01*
X187493Y-177627D01*
X187318Y-177160D01*
X187435Y-176693D01*
X187727Y-176360D01*
X188135Y-176160D01*
X188543D01*
X188952Y-176293D01*
X189302Y-176627D01*
G01X194393Y-176493D02*
X194043Y-176293D01*
X193635Y-176160D01*
X193168D01*
X192643Y-176360D01*
X192235Y-176693D01*
X191943Y-177093D01*
X191710Y-177760D01*
X191652Y-178360D01*
X191768Y-178960D01*
X191943Y-179360D01*
X192293Y-179760D01*
X192702Y-180027D01*
X193110Y-180160D01*
X193518D01*
X193927Y-180027D01*
X194277Y-179827D01*
X194568Y-179560D01*
G01X196452Y-180160D02*
X197910Y-176160D01*
X199368Y-180160D01*
G01X198843Y-178760D02*
X196977D01*
G01X201543Y-176160D02*
Y-180160D01*
X203877D01*
G01X208677D02*
X206343D01*
Y-176160D01*
X208677D01*
G01X207743Y-178093D02*
X206343D01*
G01X218393Y-176493D02*
X218043Y-176293D01*
X217635Y-176160D01*
X217168D01*
X216643Y-176360D01*
X216235Y-176693D01*
X215943Y-177093D01*
X215710Y-177760D01*
X215652Y-178360D01*
X215768Y-178960D01*
X215943Y-179360D01*
X216293Y-179760D01*
X216702Y-180027D01*
X217110Y-180160D01*
X217518D01*
X217927Y-180027D01*
X218277Y-179827D01*
X218568Y-179560D01*
G01X221910Y-180160D02*
X221443Y-180093D01*
X221035Y-179827D01*
X220685Y-179427D01*
X220452Y-178960D01*
X220335Y-178427D01*
Y-177893D01*
X220452Y-177360D01*
X220685Y-176893D01*
X221035Y-176493D01*
X221443Y-176227D01*
X221910Y-176160D01*
X222377Y-176227D01*
X222785Y-176493D01*
X223135Y-176893D01*
X223368Y-177360D01*
X223485Y-177893D01*
Y-178427D01*
X223368Y-178960D01*
X223135Y-179427D01*
X222785Y-179827D01*
X222377Y-180093D01*
X221910Y-180160D01*
G01X225368D02*
Y-176160D01*
X228052Y-180160D01*
Y-176160D01*
G01X230402Y-180160D02*
Y-176160D01*
X232618D01*
G01X231802Y-178093D02*
X230402D01*
G01X235610Y-176160D02*
X237010D01*
G01X236310D02*
Y-180160D01*
G01X235610D02*
X237010D01*
G01X239827D02*
Y-176160D01*
X240993D01*
X241460Y-176360D01*
X241810Y-176627D01*
X242102Y-177027D01*
X242335Y-177493D01*
X242393Y-178160D01*
X242335Y-178827D01*
X242102Y-179293D01*
X241810Y-179693D01*
X241460Y-179960D01*
X240993Y-180160D01*
X239827D01*
G01X247077D02*
X244743D01*
Y-176160D01*
X247077D01*
G01X246143Y-178093D02*
X244743D01*
G01X249368Y-180160D02*
Y-176160D01*
X252052Y-180160D01*
Y-176160D01*
G01X255510D02*
Y-180160D01*
G01X254168Y-176160D02*
X256852D01*
G01X259610D02*
X261010D01*
G01X260310D02*
Y-180160D01*
G01X259610D02*
X261010D01*
G01X263652D02*
X265110Y-176160D01*
X266568Y-180160D01*
G01X266043Y-178760D02*
X264177D01*
G01X268743Y-176160D02*
Y-180160D01*
X271077D01*
G01X278343D02*
Y-176160D01*
X279743D01*
X280210Y-176360D01*
X280560Y-176827D01*
X280677Y-177360D01*
X280560Y-177893D01*
X280268Y-178293D01*
X279743Y-178493D01*
X278343D01*
G01X283143Y-180160D02*
Y-176160D01*
X284602D01*
X285068Y-176360D01*
X285360Y-176627D01*
X285477Y-177160D01*
X285360Y-177693D01*
X285010Y-178027D01*
X284602Y-178227D01*
X283143D01*
G01X284602D02*
X285477Y-180160D01*
G01X289110D02*
X288643Y-180093D01*
X288235Y-179827D01*
X287885Y-179427D01*
X287652Y-178960D01*
X287535Y-178427D01*
Y-177893D01*
X287652Y-177360D01*
X287885Y-176893D01*
X288235Y-176493D01*
X288643Y-176227D01*
X289110Y-176160D01*
X289577Y-176227D01*
X289985Y-176493D01*
X290335Y-176893D01*
X290568Y-177360D01*
X290685Y-177893D01*
Y-178427D01*
X290568Y-178960D01*
X290335Y-179427D01*
X289985Y-179827D01*
X289577Y-180093D01*
X289110Y-180160D01*
G01X292743D02*
Y-176160D01*
X294143D01*
X294610Y-176360D01*
X294960Y-176827D01*
X295077Y-177360D01*
X294960Y-177893D01*
X294668Y-178293D01*
X294143Y-178493D01*
X292743D01*
G01X297543Y-180160D02*
Y-176160D01*
X299002D01*
X299468Y-176360D01*
X299760Y-176627D01*
X299877Y-177160D01*
X299760Y-177693D01*
X299410Y-178027D01*
X299002Y-178227D01*
X297543D01*
G01X299002D02*
X299877Y-180160D01*
G01X302810Y-176160D02*
X304210D01*
G01X303510D02*
Y-180160D01*
G01X302810D02*
X304210D01*
G01X309477D02*
X307143D01*
Y-176160D01*
X309477D01*
G01X308543Y-178093D02*
X307143D01*
G01X313110Y-176160D02*
Y-180160D01*
G01X311768Y-176160D02*
X314452D01*
G01X316452Y-180160D02*
X317910Y-176160D01*
X319368Y-180160D01*
G01X318843Y-178760D02*
X316977D01*
G01X321543Y-180160D02*
Y-176160D01*
X323002D01*
X323468Y-176360D01*
X323760Y-176627D01*
X323877Y-177160D01*
X323760Y-177693D01*
X323410Y-178027D01*
X323002Y-178227D01*
X321543D01*
G01X323002D02*
X323877Y-180160D01*
G01X327510D02*
Y-178360D01*
X326343Y-176160D01*
G01X328677D02*
X327510Y-178360D01*
G01X332602Y-181493D02*
X333185Y-180827D01*
X333477Y-180160D01*
Y-177493D01*
X333185Y-176827D01*
X332602Y-176160D01*
G01X114627Y-195660D02*
Y-191660D01*
X115793D01*
X116260Y-191860D01*
X116610Y-192127D01*
X116902Y-192527D01*
X117135Y-192993D01*
X117193Y-193660D01*
X117135Y-194327D01*
X116902Y-194793D01*
X116610Y-195193D01*
X116260Y-195460D01*
X115793Y-195660D01*
X114627D01*
G01X119252D02*
X120710Y-191660D01*
X122168Y-195660D01*
G01X121643Y-194260D02*
X119777D01*
G01X125510Y-191660D02*
Y-195660D01*
G01X124168Y-191660D02*
X126852D01*
G01X131477Y-195660D02*
X129143D01*
Y-191660D01*
X131477D01*
G01X130543Y-193593D02*
X129143D01*
G01X128865Y-164660D02*
X132155Y-158360D01*
G01X128865D02*
X132155Y-164660D01*
G01X124160Y-164993D02*
X127660D01*
G01X128960D02*
X132460D01*
G01X133760D02*
X137260D01*
G01X144002Y-163660D02*
Y-159660D01*
X146218D01*
G01X145402Y-161593D02*
X144002D01*
G01X149210Y-159660D02*
X150610D01*
G01X149910D02*
Y-163660D01*
G01X149210D02*
X150610D01*
G01X153427Y-159660D02*
Y-162527D01*
X153660Y-163127D01*
X154127Y-163527D01*
X154710Y-163660D01*
X155293Y-163527D01*
X155760Y-163127D01*
X155993Y-162527D01*
Y-159660D01*
G01X159510Y-163660D02*
X159043Y-163593D01*
X158635Y-163327D01*
X158285Y-162927D01*
X158052Y-162460D01*
X157935Y-161927D01*
Y-161393D01*
X158052Y-160860D01*
X158285Y-160393D01*
X158635Y-159993D01*
X159043Y-159727D01*
X159510Y-159660D01*
X159977Y-159727D01*
X160385Y-159993D01*
X160735Y-160393D01*
X160968Y-160860D01*
X161085Y-161393D01*
Y-161927D01*
X160968Y-162460D01*
X160735Y-162927D01*
X160385Y-163327D01*
X159977Y-163593D01*
X159510Y-163660D01*
G01X168818Y-164993D02*
X168235Y-164327D01*
X167943Y-163660D01*
Y-160993D01*
X168235Y-160327D01*
X168818Y-159660D01*
G01X172802Y-163660D02*
Y-159660D01*
X175018D01*
G01X174202Y-161593D02*
X172802D01*
G01X177543Y-163660D02*
Y-159660D01*
X179002D01*
X179468Y-159860D01*
X179760Y-160127D01*
X179877Y-160660D01*
X179760Y-161193D01*
X179410Y-161527D01*
X179002Y-161727D01*
X177543D01*
G01X179002D02*
X179877Y-163660D01*
G01X184677D02*
X182343D01*
Y-159660D01*
X184677D01*
G01X183743Y-161593D02*
X182343D01*
G01X189477Y-163660D02*
X187143D01*
Y-159660D01*
X189477D01*
G01X188543Y-161593D02*
X187143D01*
G01X191885Y-163127D02*
X192352Y-163460D01*
X192877Y-163660D01*
X193343D01*
X193810Y-163460D01*
X194160Y-163127D01*
X194335Y-162660D01*
X194218Y-162193D01*
X193927Y-161793D01*
X193402Y-161527D01*
X192702Y-161393D01*
X192293Y-161127D01*
X192118Y-160660D01*
X192235Y-160193D01*
X192527Y-159860D01*
X192935Y-159660D01*
X193343D01*
X193752Y-159793D01*
X194102Y-160127D01*
G01X199193Y-159993D02*
X198843Y-159793D01*
X198435Y-159660D01*
X197968D01*
X197443Y-159860D01*
X197035Y-160193D01*
X196743Y-160593D01*
X196510Y-161260D01*
X196452Y-161860D01*
X196568Y-162460D01*
X196743Y-162860D01*
X197093Y-163260D01*
X197502Y-163527D01*
X197910Y-163660D01*
X198318D01*
X198727Y-163527D01*
X199077Y-163327D01*
X199368Y-163060D01*
G01X201252Y-163660D02*
X202710Y-159660D01*
X204168Y-163660D01*
G01X203643Y-162260D02*
X201777D01*
G01X206343Y-159660D02*
Y-163660D01*
X208677D01*
G01X213477D02*
X211143D01*
Y-159660D01*
X213477D01*
G01X212543Y-161593D02*
X211143D01*
G01X221210Y-159660D02*
X222610D01*
G01X221910D02*
Y-163660D01*
G01X221210D02*
X222610D01*
G01X225368D02*
Y-159660D01*
X228052Y-163660D01*
Y-159660D01*
G01X231510D02*
Y-163660D01*
G01X230168Y-159660D02*
X232852D01*
G01X237477Y-163660D02*
X235143D01*
Y-159660D01*
X237477D01*
G01X236543Y-161593D02*
X235143D01*
G01X239943Y-163660D02*
Y-159660D01*
X241402D01*
X241868Y-159860D01*
X242160Y-160127D01*
X242277Y-160660D01*
X242160Y-161193D01*
X241810Y-161527D01*
X241402Y-161727D01*
X239943D01*
G01X241402D02*
X242277Y-163660D01*
G01X244568D02*
Y-159660D01*
X247252Y-163660D01*
Y-159660D01*
G01X249252Y-163660D02*
X250710Y-159660D01*
X252168Y-163660D01*
G01X251643Y-162260D02*
X249777D01*
G01X254343Y-159660D02*
Y-163660D01*
X256677D01*
G01X263827Y-159660D02*
Y-162527D01*
X264060Y-163127D01*
X264527Y-163527D01*
X265110Y-163660D01*
X265693Y-163527D01*
X266160Y-163127D01*
X266393Y-162527D01*
Y-159660D01*
G01X268685Y-163127D02*
X269152Y-163460D01*
X269677Y-163660D01*
X270143D01*
X270610Y-163460D01*
X270960Y-163127D01*
X271135Y-162660D01*
X271018Y-162193D01*
X270727Y-161793D01*
X270202Y-161527D01*
X269502Y-161393D01*
X269093Y-161127D01*
X268918Y-160660D01*
X269035Y-160193D01*
X269327Y-159860D01*
X269735Y-159660D01*
X270143D01*
X270552Y-159793D01*
X270902Y-160127D01*
G01X275877Y-163660D02*
X273543D01*
Y-159660D01*
X275877D01*
G01X274943Y-161593D02*
X273543D01*
G01X284310Y-163660D02*
X283843Y-163593D01*
X283435Y-163327D01*
X283085Y-162927D01*
X282852Y-162460D01*
X282735Y-161927D01*
Y-161393D01*
X282852Y-160860D01*
X283085Y-160393D01*
X283435Y-159993D01*
X283843Y-159727D01*
X284310Y-159660D01*
X284777Y-159727D01*
X285185Y-159993D01*
X285535Y-160393D01*
X285768Y-160860D01*
X285885Y-161393D01*
Y-161927D01*
X285768Y-162460D01*
X285535Y-162927D01*
X285185Y-163327D01*
X284777Y-163593D01*
X284310Y-163660D01*
G01X287768D02*
Y-159660D01*
X290452Y-163660D01*
Y-159660D01*
G01X292743D02*
Y-163660D01*
X295077D01*
G01X298710D02*
Y-161860D01*
X297543Y-159660D01*
G01X299877D02*
X298710Y-161860D01*
G01X303802Y-164993D02*
X304385Y-164327D01*
X304677Y-163660D01*
Y-160993D01*
X304385Y-160327D01*
X303802Y-159660D01*
G01X124160Y-148993D02*
X127660D01*
G01X128960D02*
X132460D01*
G01X133760D02*
X137260D01*
G01X143943Y-147660D02*
Y-143660D01*
X145343D01*
X145810Y-143860D01*
X146160Y-144327D01*
X146277Y-144860D01*
X146160Y-145393D01*
X145868Y-145793D01*
X145343Y-145993D01*
X143943D01*
G01X148627Y-143660D02*
Y-146527D01*
X148860Y-147127D01*
X149327Y-147527D01*
X149910Y-147660D01*
X150493Y-147527D01*
X150960Y-147127D01*
X151193Y-146527D01*
Y-143660D01*
G01X155177Y-145527D02*
X155410Y-145327D01*
X155585Y-144993D01*
X155702Y-144527D01*
X155585Y-144127D01*
X155352Y-143860D01*
X154943Y-143660D01*
X153368D01*
Y-147660D01*
X155293D01*
X155702Y-147393D01*
X155935Y-146993D01*
X156052Y-146527D01*
X155935Y-146060D01*
X155585Y-145660D01*
X155177Y-145527D01*
X153368D01*
G01X158810Y-143660D02*
X160210D01*
G01X159510D02*
Y-147660D01*
G01X158810D02*
X160210D01*
G01X168818Y-148993D02*
X168235Y-148327D01*
X167943Y-147660D01*
Y-144993D01*
X168235Y-144327D01*
X168818Y-143660D01*
G01X172743Y-147660D02*
Y-143660D01*
X174143D01*
X174610Y-143860D01*
X174960Y-144327D01*
X175077Y-144860D01*
X174960Y-145393D01*
X174668Y-145793D01*
X174143Y-145993D01*
X172743D01*
G01X177427Y-143660D02*
Y-146527D01*
X177660Y-147127D01*
X178127Y-147527D01*
X178710Y-147660D01*
X179293Y-147527D01*
X179760Y-147127D01*
X179993Y-146527D01*
Y-143660D01*
G01X183977Y-145527D02*
X184210Y-145327D01*
X184385Y-144993D01*
X184502Y-144527D01*
X184385Y-144127D01*
X184152Y-143860D01*
X183743Y-143660D01*
X182168D01*
Y-147660D01*
X184093D01*
X184502Y-147393D01*
X184735Y-146993D01*
X184852Y-146527D01*
X184735Y-146060D01*
X184385Y-145660D01*
X183977Y-145527D01*
X182168D01*
G01X187143Y-143660D02*
Y-147660D01*
X189477D01*
G01X192410Y-143660D02*
X193810D01*
G01X193110D02*
Y-147660D01*
G01X192410D02*
X193810D01*
G01X199193Y-143993D02*
X198843Y-143793D01*
X198435Y-143660D01*
X197968D01*
X197443Y-143860D01*
X197035Y-144193D01*
X196743Y-144593D01*
X196510Y-145260D01*
X196452Y-145860D01*
X196568Y-146460D01*
X196743Y-146860D01*
X197093Y-147260D01*
X197502Y-147527D01*
X197910Y-147660D01*
X198318D01*
X198727Y-147527D01*
X199077Y-147327D01*
X199368Y-147060D01*
G01X206810Y-143660D02*
X208210D01*
G01X207510D02*
Y-147660D01*
G01X206810D02*
X208210D01*
G01X210968D02*
Y-143660D01*
X213652Y-147660D01*
Y-143660D01*
G01X216002Y-147660D02*
Y-143660D01*
X218218D01*
G01X217402Y-145593D02*
X216002D01*
G01X221910Y-147660D02*
X221443Y-147593D01*
X221035Y-147327D01*
X220685Y-146927D01*
X220452Y-146460D01*
X220335Y-145927D01*
Y-145393D01*
X220452Y-144860D01*
X220685Y-144393D01*
X221035Y-143993D01*
X221443Y-143727D01*
X221910Y-143660D01*
X222377Y-143727D01*
X222785Y-143993D01*
X223135Y-144393D01*
X223368Y-144860D01*
X223485Y-145393D01*
Y-145927D01*
X223368Y-146460D01*
X223135Y-146927D01*
X222785Y-147327D01*
X222377Y-147593D01*
X221910Y-147660D01*
G01X225543D02*
Y-143660D01*
X227002D01*
X227468Y-143860D01*
X227760Y-144127D01*
X227877Y-144660D01*
X227760Y-145193D01*
X227410Y-145527D01*
X227002Y-145727D01*
X225543D01*
G01X227002D02*
X227877Y-147660D01*
G01X229993D02*
Y-143660D01*
X231510Y-146993D01*
X233027Y-143660D01*
Y-147660D01*
G01X234852D02*
X236310Y-143660D01*
X237768Y-147660D01*
G01X237243Y-146260D02*
X235377D01*
G01X241110Y-143660D02*
Y-147660D01*
G01X239768Y-143660D02*
X242452D01*
G01X245210D02*
X246610D01*
G01X245910D02*
Y-147660D01*
G01X245210D02*
X246610D01*
G01X250710D02*
X250243Y-147593D01*
X249835Y-147327D01*
X249485Y-146927D01*
X249252Y-146460D01*
X249135Y-145927D01*
Y-145393D01*
X249252Y-144860D01*
X249485Y-144393D01*
X249835Y-143993D01*
X250243Y-143727D01*
X250710Y-143660D01*
X251177Y-143727D01*
X251585Y-143993D01*
X251935Y-144393D01*
X252168Y-144860D01*
X252285Y-145393D01*
Y-145927D01*
X252168Y-146460D01*
X251935Y-146927D01*
X251585Y-147327D01*
X251177Y-147593D01*
X250710Y-147660D01*
G01X254168D02*
Y-143660D01*
X256852Y-147660D01*
Y-143660D01*
G01X260602Y-148993D02*
X261185Y-148327D01*
X261477Y-147660D01*
Y-144993D01*
X261185Y-144327D01*
X260602Y-143660D01*
G01X114568Y-115660D02*
Y-111660D01*
X117252Y-115660D01*
Y-111660D01*
G01X119252Y-115660D02*
X120710Y-111660D01*
X122168Y-115660D01*
G01X121643Y-114260D02*
X119777D01*
G01X123993Y-115660D02*
Y-111660D01*
X125510Y-114993D01*
X127027Y-111660D01*
Y-115660D01*
G01X131477D02*
X129143D01*
Y-111660D01*
X131477D01*
G01X130543Y-113593D02*
X129143D01*
G01X119150Y6875D02*
X116050D01*
Y5955D01*
X116205Y5648D01*
X116567Y5418D01*
X116980Y5341D01*
X117393Y5418D01*
X117703Y5610D01*
X117858Y5955D01*
Y6875D01*
G01X118685Y4051D02*
X118943Y3821D01*
X119098Y3553D01*
X119150Y3208D01*
X119047Y2863D01*
X118840Y2595D01*
X118478Y2403D01*
X118065Y2365D01*
X117652Y2441D01*
X117393Y2633D01*
X117187Y2901D01*
X117135Y3170D01*
X117187Y3438D01*
X117393Y3783D01*
X116050Y3668D01*
Y2633D01*
G01Y1266D02*
X119150Y308D01*
X116050Y-650D01*
G01Y-2592D02*
X116153Y-2285D01*
X116412Y-2055D01*
X116722Y-1902D01*
X117135Y-1787D01*
X117600Y-1749D01*
X118065Y-1787D01*
X118478Y-1902D01*
X118788Y-2055D01*
X119047Y-2285D01*
X119150Y-2592D01*
X119047Y-2899D01*
X118788Y-3129D01*
X118478Y-3282D01*
X118065Y-3397D01*
X117600Y-3435D01*
X117135Y-3397D01*
X116722Y-3282D01*
X116412Y-3129D01*
X116153Y-2899D01*
X116050Y-2592D01*
G01X127260Y5968D02*
Y5201D01*
X128190D01*
X128500Y5431D01*
X128707Y5700D01*
X128810Y6083D01*
X128707Y6466D01*
X128500Y6735D01*
X128190Y6965D01*
X127828Y7118D01*
X127415Y7195D01*
X127053D01*
X126743Y7118D01*
X126382Y6965D01*
X126072Y6735D01*
X125865Y6505D01*
X125710Y6198D01*
Y5930D01*
X125813Y5623D01*
X126020Y5393D01*
G01X128810Y4180D02*
X125710D01*
X128810Y2416D01*
X125710D01*
G01X128810Y1241D02*
X125710D01*
Y475D01*
X125865Y168D01*
X126072Y-62D01*
X126382Y-254D01*
X126743Y-407D01*
X127260Y-445D01*
X127777Y-407D01*
X128138Y-254D01*
X128448Y-62D01*
X128655Y168D01*
X128810Y475D01*
Y1241D01*
G01X136560Y6088D02*
Y5321D01*
X137490D01*
X137800Y5551D01*
X138007Y5820D01*
X138110Y6203D01*
X138007Y6586D01*
X137800Y6855D01*
X137490Y7085D01*
X137128Y7238D01*
X136715Y7315D01*
X136353D01*
X136043Y7238D01*
X135682Y7085D01*
X135372Y6855D01*
X135165Y6625D01*
X135010Y6318D01*
Y6050D01*
X135113Y5743D01*
X135320Y5513D01*
G01X138110Y4300D02*
X135010D01*
X138110Y2536D01*
X135010D01*
G01X138110Y1361D02*
X135010D01*
Y595D01*
X135165Y288D01*
X135372Y58D01*
X135682Y-134D01*
X136043Y-287D01*
X136560Y-325D01*
X137077Y-287D01*
X137438Y-134D01*
X137748Y58D01*
X137955Y288D01*
X138110Y595D01*
Y1361D01*
G01X150867Y22467D02*
Y25567D01*
X149947D01*
X149640Y25412D01*
X149410Y25050D01*
X149333Y24637D01*
X149410Y24224D01*
X149602Y23914D01*
X149947Y23759D01*
X150867D01*
G01X148043Y22932D02*
X147813Y22674D01*
X147545Y22519D01*
X147200Y22467D01*
X146855Y22570D01*
X146587Y22777D01*
X146395Y23139D01*
X146357Y23552D01*
X146433Y23965D01*
X146625Y24224D01*
X146893Y24430D01*
X147162Y24482D01*
X147430Y24430D01*
X147775Y24224D01*
X147660Y25567D01*
X146625D01*
G01X145258D02*
X144300Y22467D01*
X143342Y25567D01*
G01X142550Y21434D02*
X140250D01*
G01X139305Y22880D02*
X138998Y22622D01*
X138653Y22467D01*
X138347D01*
X138040Y22622D01*
X137810Y22880D01*
X137695Y23242D01*
X137772Y23604D01*
X137963Y23914D01*
X138308Y24120D01*
X138768Y24224D01*
X139037Y24430D01*
X139152Y24792D01*
X139075Y25154D01*
X138883Y25412D01*
X138615Y25567D01*
X138347D01*
X138078Y25464D01*
X137848Y25205D01*
G01X136750Y25567D02*
X136213Y22467D01*
X135600Y25567D01*
X134987Y22467D01*
X134450Y25567D01*
G01X133543D02*
Y23345D01*
X133390Y22880D01*
X133083Y22570D01*
X132700Y22467D01*
X132317Y22570D01*
X132010Y22880D01*
X131857Y23345D01*
Y25567D01*
G01X130605Y22880D02*
X130298Y22622D01*
X129953Y22467D01*
X129647D01*
X129340Y22622D01*
X129110Y22880D01*
X128995Y23242D01*
X129072Y23604D01*
X129263Y23914D01*
X129608Y24120D01*
X130068Y24224D01*
X130337Y24430D01*
X130452Y24792D01*
X130375Y25154D01*
X130183Y25412D01*
X129915Y25567D01*
X129647D01*
X129378Y25464D01*
X129148Y25205D01*
G01X126593Y24120D02*
X126440Y24275D01*
X126325Y24534D01*
X126248Y24895D01*
X126325Y25205D01*
X126478Y25412D01*
X126747Y25567D01*
X127782D01*
Y22467D01*
X126517D01*
X126248Y22674D01*
X126095Y22984D01*
X126018Y23345D01*
X126095Y23707D01*
X126325Y24017D01*
X126593Y24120D01*
X127782D01*
G01X148058Y42817D02*
X147100Y39717D01*
X146142Y42817D01*
G01X145043Y39717D02*
Y42817D01*
X144277D01*
X143970Y42662D01*
X143740Y42455D01*
X143548Y42145D01*
X143395Y41784D01*
X143357Y41267D01*
X143395Y40750D01*
X143548Y40389D01*
X143740Y40079D01*
X143970Y39872D01*
X144277Y39717D01*
X145043D01*
G01X142143D02*
Y42817D01*
X141377D01*
X141070Y42662D01*
X140840Y42455D01*
X140648Y42145D01*
X140495Y41784D01*
X140457Y41267D01*
X140495Y40750D01*
X140648Y40389D01*
X140840Y40079D01*
X141070Y39872D01*
X141377Y39717D01*
X142143D01*
G01X139205D02*
X137595Y42817D01*
G01X139205D02*
X137595Y39717D01*
G01X147617Y30717D02*
Y33817D01*
X146697D01*
X146390Y33662D01*
X146160Y33300D01*
X146083Y32887D01*
X146160Y32474D01*
X146352Y32164D01*
X146697Y32009D01*
X147617D01*
G01X144793Y31182D02*
X144563Y30924D01*
X144295Y30769D01*
X143950Y30717D01*
X143605Y30820D01*
X143337Y31027D01*
X143145Y31389D01*
X143107Y31802D01*
X143183Y32215D01*
X143375Y32474D01*
X143643Y32680D01*
X143912Y32732D01*
X144180Y32680D01*
X144525Y32474D01*
X144410Y33817D01*
X143375D01*
G01X142008D02*
X141050Y30717D01*
X140092Y33817D01*
G01X138150D02*
X138457Y33714D01*
X138687Y33455D01*
X138840Y33145D01*
X138955Y32732D01*
X138993Y32267D01*
X138955Y31802D01*
X138840Y31389D01*
X138687Y31079D01*
X138457Y30820D01*
X138150Y30717D01*
X137843Y30820D01*
X137613Y31079D01*
X137460Y31389D01*
X137345Y31802D01*
X137307Y32267D01*
X137345Y32732D01*
X137460Y33145D01*
X137613Y33455D01*
X137843Y33714D01*
X138150Y33817D01*
G01X151148Y64257D02*
X150190Y61157D01*
X149232Y64257D01*
G01X148133Y61157D02*
Y64257D01*
X147367D01*
X147060Y64102D01*
X146830Y63895D01*
X146638Y63585D01*
X146485Y63224D01*
X146447Y62707D01*
X146485Y62190D01*
X146638Y61829D01*
X146830Y61519D01*
X147060Y61312D01*
X147367Y61157D01*
X148133D01*
G01X145233D02*
Y64257D01*
X144467D01*
X144160Y64102D01*
X143930Y63895D01*
X143738Y63585D01*
X143585Y63224D01*
X143547Y62707D01*
X143585Y62190D01*
X143738Y61829D01*
X143930Y61519D01*
X144160Y61312D01*
X144467Y61157D01*
X145233D01*
G01X142295D02*
X140685Y64257D01*
G01X142295D02*
X140685Y61157D01*
G01X151077Y71287D02*
Y74387D01*
X150157D01*
X149850Y74232D01*
X149620Y73870D01*
X149543Y73457D01*
X149620Y73044D01*
X149812Y72734D01*
X150157Y72579D01*
X151077D01*
G01X148253Y71907D02*
X148023Y71545D01*
X147717Y71339D01*
X147372Y71287D01*
X147065Y71339D01*
X146758Y71597D01*
X146567Y71907D01*
X146528Y72217D01*
X146605Y72579D01*
X146873Y72837D01*
X147142Y72940D01*
X147487D01*
G01X147142D02*
X146912Y73095D01*
X146720Y73354D01*
X146643Y73664D01*
X146720Y73974D01*
X146912Y74232D01*
X147257Y74387D01*
X147602Y74335D01*
X147947Y74129D01*
G01X145468Y74387D02*
X144510Y71287D01*
X143552Y74387D01*
G01X142453Y71907D02*
X142223Y71545D01*
X141917Y71339D01*
X141572Y71287D01*
X141265Y71339D01*
X140958Y71597D01*
X140767Y71907D01*
X140728Y72217D01*
X140805Y72579D01*
X141073Y72837D01*
X141342Y72940D01*
X141687D01*
G01X141342D02*
X141112Y73095D01*
X140920Y73354D01*
X140843Y73664D01*
X140920Y73974D01*
X141112Y74232D01*
X141457Y74387D01*
X141802Y74335D01*
X142147Y74129D01*
G01X150877Y81457D02*
Y84557D01*
X149957D01*
X149650Y84402D01*
X149420Y84040D01*
X149343Y83627D01*
X149420Y83214D01*
X149612Y82904D01*
X149957Y82749D01*
X150877D01*
G01X148053Y82077D02*
X147823Y81715D01*
X147517Y81509D01*
X147172Y81457D01*
X146865Y81509D01*
X146558Y81767D01*
X146367Y82077D01*
X146328Y82387D01*
X146405Y82749D01*
X146673Y83007D01*
X146942Y83110D01*
X147287D01*
G01X146942D02*
X146712Y83265D01*
X146520Y83524D01*
X146443Y83834D01*
X146520Y84144D01*
X146712Y84402D01*
X147057Y84557D01*
X147402Y84505D01*
X147747Y84299D01*
G01X145268Y84557D02*
X144310Y81457D01*
X143352Y84557D01*
G01X142253Y82077D02*
X142023Y81715D01*
X141717Y81509D01*
X141372Y81457D01*
X141065Y81509D01*
X140758Y81767D01*
X140567Y82077D01*
X140528Y82387D01*
X140605Y82749D01*
X140873Y83007D01*
X141142Y83110D01*
X141487D01*
G01X141142D02*
X140912Y83265D01*
X140720Y83524D01*
X140643Y83834D01*
X140720Y84144D01*
X140912Y84402D01*
X141257Y84557D01*
X141602Y84505D01*
X141947Y84299D01*
G01X139660Y80424D02*
X137360D01*
G01X136377Y84557D02*
Y81457D01*
X134843D01*
G01X133477D02*
Y84557D01*
X132518D01*
X132212Y84402D01*
X132020Y84195D01*
X131943Y83782D01*
X132020Y83369D01*
X132250Y83110D01*
X132518Y82955D01*
X133477D01*
G01X132518D02*
X131943Y81457D01*
G01X145933Y107042D02*
X145703Y106784D01*
X145435Y106629D01*
X145090Y106577D01*
X144745Y106680D01*
X144477Y106887D01*
X144285Y107249D01*
X144247Y107662D01*
X144323Y108075D01*
X144515Y108334D01*
X144783Y108540D01*
X145052Y108592D01*
X145320Y108540D01*
X145665Y108334D01*
X145550Y109677D01*
X144515D01*
G01X144689Y140348D02*
Y138126D01*
X144536Y137661D01*
X144229Y137351D01*
X143846Y137248D01*
X143463Y137351D01*
X143156Y137661D01*
X143003Y138126D01*
Y140348D01*
G01X142096Y136215D02*
X139796D01*
G01X137739Y138901D02*
X137586Y139056D01*
X137471Y139315D01*
X137394Y139676D01*
X137471Y139986D01*
X137624Y140193D01*
X137893Y140348D01*
X138928D01*
Y137248D01*
X137663D01*
X137394Y137455D01*
X137241Y137765D01*
X137164Y138126D01*
X137241Y138488D01*
X137471Y138798D01*
X137739Y138901D01*
X138928D01*
G01X135989Y137248D02*
Y140348D01*
G01X134533D02*
X135989Y138436D01*
G01X134303Y137248D02*
X135338Y139315D01*
G01X132016Y138798D02*
X131249D01*
Y137868D01*
X131479Y137558D01*
X131748Y137351D01*
X132131Y137248D01*
X132514Y137351D01*
X132783Y137558D01*
X133013Y137868D01*
X133166Y138230D01*
X133243Y138643D01*
Y139005D01*
X133166Y139315D01*
X133013Y139676D01*
X132783Y139986D01*
X132553Y140193D01*
X132246Y140348D01*
X131978D01*
X131671Y140245D01*
X131441Y140038D01*
G01X130189Y137248D02*
Y140348D01*
X129423D01*
X129116Y140193D01*
X128886Y139986D01*
X128694Y139676D01*
X128541Y139315D01*
X128503Y138798D01*
X128541Y138281D01*
X128694Y137920D01*
X128886Y137610D01*
X129116Y137403D01*
X129423Y137248D01*
X130189D01*
G01X127620Y124887D02*
X127428Y124577D01*
X127198Y124370D01*
X126930Y124267D01*
X126623Y124370D01*
X126393Y124577D01*
X126163Y124887D01*
X126086Y125300D01*
Y127367D01*
G01X123953Y124267D02*
Y127367D01*
X124413Y126747D01*
G01Y124267D02*
X123493D01*
G01X121130D02*
X121053Y124939D01*
X120938Y125507D01*
X120785Y126024D01*
X120593Y126592D01*
X120286Y127367D01*
X121820D01*
G01X123070Y174644D02*
X119970D01*
Y173724D01*
X120125Y173417D01*
X120487Y173187D01*
X120900Y173110D01*
X121313Y173187D01*
X121623Y173379D01*
X121778Y173724D01*
Y174644D01*
G01X123070Y171744D02*
X119970D01*
Y170824D01*
X120125Y170517D01*
X120487Y170287D01*
X120900Y170210D01*
X121313Y170287D01*
X121623Y170479D01*
X121778Y170824D01*
Y171744D01*
G01X123070Y168154D02*
X122398Y168077D01*
X121830Y167962D01*
X121313Y167809D01*
X120745Y167617D01*
X119970Y167310D01*
Y168844D01*
G01X132960Y174524D02*
X129860D01*
Y173604D01*
X130015Y173297D01*
X130377Y173067D01*
X130790Y172990D01*
X131203Y173067D01*
X131513Y173259D01*
X131668Y173604D01*
Y174524D01*
G01X129860Y170857D02*
X132960D01*
G01X129860Y171739D02*
Y169975D01*
G01X132960Y168034D02*
X132288Y167957D01*
X131720Y167842D01*
X131203Y167689D01*
X130635Y167497D01*
X129860Y167190D01*
Y168724D01*
G01X142910Y168167D02*
Y171267D01*
X143370Y170647D01*
G01Y168167D02*
X142450D01*
G01X140853Y168632D02*
X140623Y168374D01*
X140355Y168219D01*
X140010Y168167D01*
X139665Y168270D01*
X139397Y168477D01*
X139205Y168839D01*
X139167Y169252D01*
X139243Y169665D01*
X139435Y169924D01*
X139703Y170130D01*
X139972Y170182D01*
X140240Y170130D01*
X140585Y169924D01*
X140470Y171267D01*
X139435D01*
G01X131288Y184839D02*
Y187939D01*
X131748Y187319D01*
G01Y184839D02*
X130828D01*
G01X143650Y194607D02*
Y197707D01*
X144110Y197087D01*
G01Y194607D02*
X143190D01*
G01X141478Y195899D02*
X141210Y196260D01*
X140980Y196467D01*
X140673Y196570D01*
X140405Y196467D01*
X140213Y196260D01*
X140060Y195950D01*
X140022Y195589D01*
X140060Y195279D01*
X140213Y194969D01*
X140443Y194710D01*
X140712Y194607D01*
X141018Y194710D01*
X141287Y195020D01*
X141440Y195485D01*
X141478Y196002D01*
X141402Y196674D01*
X141287Y197035D01*
X141095Y197397D01*
X140827Y197655D01*
X140558Y197707D01*
X140290Y197604D01*
X140098Y197345D01*
G01X164568Y-195660D02*
Y-191660D01*
X167252Y-195660D01*
Y-191660D01*
G01X169427D02*
Y-194527D01*
X169660Y-195127D01*
X170127Y-195527D01*
X170710Y-195660D01*
X171293Y-195527D01*
X171760Y-195127D01*
X171993Y-194527D01*
Y-191660D01*
G01X173993Y-195660D02*
Y-191660D01*
X175510Y-194993D01*
X177027Y-191660D01*
Y-195660D01*
G01X180777Y-193527D02*
X181010Y-193327D01*
X181185Y-192993D01*
X181302Y-192527D01*
X181185Y-192127D01*
X180952Y-191860D01*
X180543Y-191660D01*
X178968D01*
Y-195660D01*
X180893D01*
X181302Y-195393D01*
X181535Y-194993D01*
X181652Y-194527D01*
X181535Y-194060D01*
X181185Y-193660D01*
X180777Y-193527D01*
X178968D01*
G01X186277Y-195660D02*
X183943D01*
Y-191660D01*
X186277D01*
G01X185343Y-193593D02*
X183943D01*
G01X188743Y-195660D02*
Y-191660D01*
X190202D01*
X190668Y-191860D01*
X190960Y-192127D01*
X191077Y-192660D01*
X190960Y-193193D01*
X190610Y-193527D01*
X190202Y-193727D01*
X188743D01*
G01X190202D02*
X191077Y-195660D01*
G01X161861Y-23547D02*
X161631Y-23237D01*
X161363Y-23082D01*
X161056Y-23030D01*
X160673Y-23133D01*
X160405Y-23392D01*
X160328Y-23702D01*
X160366Y-24012D01*
X160520Y-24270D01*
X161286Y-24787D01*
X161631Y-25148D01*
X161861Y-25665D01*
X161938Y-26130D01*
X160328D01*
G01X144900Y7356D02*
X148000Y6398D01*
X144900Y5440D01*
G01X146347Y3191D02*
X146192Y3038D01*
X145933Y2923D01*
X145572Y2846D01*
X145262Y2923D01*
X145055Y3076D01*
X144900Y3345D01*
Y4380D01*
X148000D01*
Y3115D01*
X147793Y2846D01*
X147483Y2693D01*
X147122Y2616D01*
X146760Y2693D01*
X146450Y2923D01*
X146347Y3191D01*
Y4380D01*
G01X148000Y1556D02*
X144900Y598D01*
X148000Y-360D01*
G01X146915Y-15D02*
Y1211D01*
G01X144900Y-2302D02*
X148000D01*
G01X144900Y-1420D02*
Y-3184D01*
G01X169031Y4596D02*
X165931Y3638D01*
X169031Y2680D01*
G01X167946Y3025D02*
Y4251D01*
G01X169031Y1620D02*
X165931D01*
X169031Y-144D01*
X165931D01*
G01X169031Y-2085D02*
X168359Y-2162D01*
X167791Y-2277D01*
X167274Y-2430D01*
X166706Y-2622D01*
X165931Y-2929D01*
Y-1395D01*
G01X179189Y4525D02*
X176089Y3567D01*
X179189Y2609D01*
G01X178104Y2954D02*
Y4180D01*
G01X179189Y1549D02*
X176089D01*
X179189Y-215D01*
X176089D01*
G01X177897Y-1505D02*
X177536Y-1773D01*
X177329Y-2003D01*
X177226Y-2310D01*
X177329Y-2578D01*
X177536Y-2770D01*
X177846Y-2923D01*
X178207Y-2961D01*
X178517Y-2923D01*
X178827Y-2770D01*
X179086Y-2540D01*
X179189Y-2271D01*
X179086Y-1965D01*
X178776Y-1696D01*
X178311Y-1543D01*
X177794Y-1505D01*
X177122Y-1581D01*
X176761Y-1696D01*
X176399Y-1888D01*
X176141Y-2156D01*
X176089Y-2425D01*
X176192Y-2693D01*
X176451Y-2885D01*
G01X161275Y-6877D02*
Y-3777D01*
X161735Y-4397D01*
G01Y-6877D02*
X160815D01*
G01X152055Y-8135D02*
X151787Y-8083D01*
X151480Y-7928D01*
X151288Y-7670D01*
X151212Y-7308D01*
X151288Y-6947D01*
X151518Y-6637D01*
X151863Y-6482D01*
X152247D01*
X152477Y-6378D01*
X152668Y-6120D01*
X152745Y-5758D01*
X152630Y-5397D01*
X152362Y-5138D01*
X152055Y-5035D01*
X151748Y-5138D01*
X151480Y-5397D01*
X151365Y-5758D01*
X151442Y-6120D01*
X151633Y-6378D01*
X151863Y-6482D01*
X152247D01*
X152592Y-6637D01*
X152822Y-6947D01*
X152898Y-7308D01*
X152822Y-7670D01*
X152630Y-7928D01*
X152323Y-8083D01*
X152055Y-8135D01*
G01X160191Y19499D02*
X159961Y19137D01*
X159655Y18931D01*
X159310Y18879D01*
X159003Y18931D01*
X158696Y19189D01*
X158505Y19499D01*
X158466Y19809D01*
X158543Y20171D01*
X158811Y20429D01*
X159080Y20532D01*
X159425D01*
G01X159080D02*
X158850Y20687D01*
X158658Y20946D01*
X158581Y21256D01*
X158658Y21566D01*
X158850Y21824D01*
X159195Y21979D01*
X159540Y21927D01*
X159885Y21721D01*
G01X168659Y37834D02*
X168467Y37524D01*
X168237Y37317D01*
X167969Y37214D01*
X167662Y37317D01*
X167432Y37524D01*
X167202Y37834D01*
X167125Y38247D01*
Y40314D01*
G01X165759Y37214D02*
Y40314D01*
X164839D01*
X164532Y40159D01*
X164302Y39797D01*
X164225Y39384D01*
X164302Y38971D01*
X164494Y38661D01*
X164839Y38506D01*
X165759D01*
G01X162092Y37214D02*
Y40314D01*
X162552Y39694D01*
G01Y37214D02*
X161632D01*
G01X160169Y44193D02*
Y47293D01*
X160629Y46673D01*
G01Y44193D02*
X159709D01*
G01X173804Y41038D02*
X174062Y40808D01*
X174217Y40540D01*
X174269Y40195D01*
X174166Y39850D01*
X173959Y39582D01*
X173597Y39390D01*
X173184Y39352D01*
X172771Y39428D01*
X172512Y39620D01*
X172306Y39888D01*
X172254Y40157D01*
X172306Y40425D01*
X172512Y40770D01*
X171169Y40655D01*
Y39620D01*
G01Y38253D02*
X174269Y37295D01*
X171169Y36337D01*
G01Y34395D02*
X171272Y34702D01*
X171531Y34932D01*
X171841Y35085D01*
X172254Y35200D01*
X172719Y35238D01*
X173184Y35200D01*
X173597Y35085D01*
X173907Y34932D01*
X174166Y34702D01*
X174269Y34395D01*
X174166Y34088D01*
X173907Y33858D01*
X173597Y33705D01*
X173184Y33590D01*
X172719Y33552D01*
X172254Y33590D01*
X171841Y33705D01*
X171531Y33858D01*
X171272Y34088D01*
X171169Y34395D01*
G01X175302Y32645D02*
Y30345D01*
G01X171169Y29362D02*
X174269D01*
Y27828D01*
G01Y26462D02*
X171169D01*
Y25503D01*
X171324Y25197D01*
X171531Y25005D01*
X171944Y24928D01*
X172357Y25005D01*
X172616Y25235D01*
X172771Y25503D01*
Y26462D01*
G01Y25503D02*
X174269Y24928D01*
G01X158667Y50620D02*
X158475Y50310D01*
X158245Y50103D01*
X157977Y50000D01*
X157670Y50103D01*
X157440Y50310D01*
X157210Y50620D01*
X157133Y51033D01*
Y53100D01*
G01X155000Y50000D02*
Y53100D01*
X155460Y52480D01*
G01Y50000D02*
X154540D01*
G01X152943Y50620D02*
X152713Y50258D01*
X152407Y50052D01*
X152062Y50000D01*
X151755Y50052D01*
X151448Y50310D01*
X151257Y50620D01*
X151218Y50930D01*
X151295Y51292D01*
X151563Y51550D01*
X151832Y51653D01*
X152177D01*
G01X151832D02*
X151602Y51808D01*
X151410Y52067D01*
X151333Y52377D01*
X151410Y52687D01*
X151602Y52945D01*
X151947Y53100D01*
X152292Y53048D01*
X152637Y52842D01*
G01X163343Y58587D02*
X163113Y58225D01*
X162807Y58019D01*
X162462Y57967D01*
X162155Y58019D01*
X161848Y58277D01*
X161657Y58587D01*
X161618Y58897D01*
X161695Y59259D01*
X161963Y59517D01*
X162232Y59620D01*
X162577D01*
G01X162232D02*
X162002Y59775D01*
X161810Y60034D01*
X161733Y60344D01*
X161810Y60654D01*
X162002Y60912D01*
X162347Y61067D01*
X162692Y61015D01*
X163037Y60809D01*
G01X162500Y80500D02*
Y83600D01*
X162960Y82980D01*
G01Y80500D02*
X162040D01*
G01X158667Y91120D02*
X158475Y90810D01*
X158245Y90603D01*
X157977Y90500D01*
X157670Y90603D01*
X157440Y90810D01*
X157210Y91120D01*
X157133Y91533D01*
Y93600D01*
G01X155000Y90500D02*
Y93600D01*
X155460Y92980D01*
G01Y90500D02*
X154540D01*
G01X152100D02*
Y93600D01*
X152560Y92980D01*
G01Y90500D02*
X151640D01*
G01X172472Y113370D02*
X171552D01*
G01X172050Y114042D02*
Y112699D01*
G01X169993Y112802D02*
X169763Y112544D01*
X169495Y112389D01*
X169150Y112337D01*
X168805Y112440D01*
X168537Y112647D01*
X168345Y113009D01*
X168307Y113422D01*
X168383Y113835D01*
X168575Y114094D01*
X168843Y114300D01*
X169112Y114352D01*
X169380Y114300D01*
X169725Y114094D01*
X169610Y115437D01*
X168575D01*
G01X167208D02*
X166250Y112337D01*
X165292Y115437D01*
G01X164193D02*
Y113215D01*
X164040Y112750D01*
X163733Y112440D01*
X163350Y112337D01*
X162967Y112440D01*
X162660Y112750D01*
X162507Y113215D01*
Y115437D01*
G01X162508Y107709D02*
X162240Y108070D01*
X162010Y108277D01*
X161703Y108380D01*
X161435Y108277D01*
X161243Y108070D01*
X161090Y107760D01*
X161052Y107399D01*
X161090Y107089D01*
X161243Y106779D01*
X161473Y106520D01*
X161742Y106417D01*
X162048Y106520D01*
X162317Y106830D01*
X162470Y107295D01*
X162508Y107812D01*
X162432Y108484D01*
X162317Y108845D01*
X162125Y109207D01*
X161857Y109465D01*
X161588Y109517D01*
X161320Y109414D01*
X161128Y109155D01*
G01X147658Y139195D02*
Y142295D01*
X148118Y141675D01*
G01Y139195D02*
X147198D01*
G01X170437Y122877D02*
Y125977D01*
X169478D01*
X169172Y125822D01*
X168980Y125615D01*
X168903Y125202D01*
X168980Y124789D01*
X169210Y124530D01*
X169478Y124375D01*
X170437D01*
G01X169478D02*
X168903Y122877D01*
G01X167575Y123290D02*
X167268Y123032D01*
X166923Y122877D01*
X166617D01*
X166310Y123032D01*
X166080Y123290D01*
X165965Y123652D01*
X166042Y124014D01*
X166233Y124324D01*
X166578Y124530D01*
X167038Y124634D01*
X167307Y124840D01*
X167422Y125202D01*
X167345Y125564D01*
X167153Y125822D01*
X166885Y125977D01*
X166617D01*
X166348Y125874D01*
X166118Y125615D01*
G01X163870Y125977D02*
Y122877D01*
G01X164752Y125977D02*
X162988D01*
G01X169400Y134477D02*
X168633D01*
Y133547D01*
X168863Y133237D01*
X169132Y133030D01*
X169515Y132927D01*
X169898Y133030D01*
X170167Y133237D01*
X170397Y133547D01*
X170550Y133909D01*
X170627Y134322D01*
Y134684D01*
X170550Y134994D01*
X170397Y135355D01*
X170167Y135665D01*
X169937Y135872D01*
X169630Y136027D01*
X169362D01*
X169055Y135924D01*
X168825Y135717D01*
G01X167612Y132927D02*
Y136027D01*
X165848Y132927D01*
Y136027D01*
G01X164673Y132927D02*
Y136027D01*
X163907D01*
X163600Y135872D01*
X163370Y135665D01*
X163178Y135355D01*
X163025Y134994D01*
X162987Y134477D01*
X163025Y133960D01*
X163178Y133599D01*
X163370Y133289D01*
X163600Y133082D01*
X163907Y132927D01*
X164673D01*
G01X162908Y141210D02*
X162678Y141520D01*
X162410Y141675D01*
X162103Y141727D01*
X161720Y141624D01*
X161452Y141365D01*
X161375Y141055D01*
X161413Y140745D01*
X161567Y140487D01*
X162333Y139970D01*
X162678Y139609D01*
X162908Y139092D01*
X162985Y138627D01*
X161375D01*
G01X155667Y142320D02*
X155475Y142010D01*
X155245Y141803D01*
X154977Y141700D01*
X154670Y141803D01*
X154440Y142010D01*
X154210Y142320D01*
X154133Y142733D01*
Y144800D01*
G01X152728Y142992D02*
X152460Y143353D01*
X152230Y143560D01*
X151923Y143663D01*
X151655Y143560D01*
X151463Y143353D01*
X151310Y143043D01*
X151272Y142682D01*
X151310Y142372D01*
X151463Y142062D01*
X151693Y141803D01*
X151962Y141700D01*
X152268Y141803D01*
X152537Y142113D01*
X152690Y142578D01*
X152728Y143095D01*
X152652Y143767D01*
X152537Y144128D01*
X152345Y144490D01*
X152077Y144748D01*
X151808Y144800D01*
X151540Y144697D01*
X151348Y144438D01*
G01X179454Y162447D02*
X176354D01*
Y161527D01*
X176509Y161220D01*
X176871Y160990D01*
X177284Y160913D01*
X177697Y160990D01*
X178007Y161182D01*
X178162Y161527D01*
Y162447D01*
G01X179454Y159547D02*
X176354D01*
Y158627D01*
X176509Y158320D01*
X176871Y158090D01*
X177284Y158013D01*
X177697Y158090D01*
X178007Y158282D01*
X178162Y158627D01*
Y159547D01*
G01X176871Y156608D02*
X176561Y156378D01*
X176406Y156110D01*
X176354Y155803D01*
X176457Y155420D01*
X176716Y155152D01*
X177026Y155075D01*
X177336Y155113D01*
X177594Y155267D01*
X178111Y156033D01*
X178472Y156378D01*
X178989Y156608D01*
X179454Y156685D01*
Y155075D01*
G01X169454Y162257D02*
X166354D01*
Y161337D01*
X166509Y161030D01*
X166871Y160800D01*
X167284Y160723D01*
X167697Y160800D01*
X168007Y160992D01*
X168162Y161337D01*
Y162257D01*
G01X169454Y159357D02*
X166354D01*
Y158437D01*
X166509Y158130D01*
X166871Y157900D01*
X167284Y157823D01*
X167697Y157900D01*
X168007Y158092D01*
X168162Y158437D01*
Y159357D01*
G01X168834Y156533D02*
X169196Y156303D01*
X169402Y155997D01*
X169454Y155652D01*
X169402Y155345D01*
X169144Y155038D01*
X168834Y154847D01*
X168524Y154808D01*
X168162Y154885D01*
X167904Y155153D01*
X167801Y155422D01*
Y155767D01*
G01Y155422D02*
X167646Y155192D01*
X167387Y155000D01*
X167077Y154923D01*
X166767Y155000D01*
X166509Y155192D01*
X166354Y155537D01*
X166406Y155882D01*
X166612Y156227D01*
G01X159014Y162007D02*
X155914D01*
Y161087D01*
X156069Y160780D01*
X156431Y160550D01*
X156844Y160473D01*
X157257Y160550D01*
X157567Y160742D01*
X157722Y161087D01*
Y162007D01*
G01X159014Y159107D02*
X155914D01*
Y158187D01*
X156069Y157880D01*
X156431Y157650D01*
X156844Y157573D01*
X157257Y157650D01*
X157567Y157842D01*
X157722Y158187D01*
Y159107D01*
G01X159014Y154980D02*
X155914D01*
X158136Y156398D01*
Y154482D01*
G01X149194Y161757D02*
X146094D01*
Y160837D01*
X146249Y160530D01*
X146611Y160300D01*
X147024Y160223D01*
X147437Y160300D01*
X147747Y160492D01*
X147902Y160837D01*
Y161757D01*
G01X149194Y158857D02*
X146094D01*
Y157937D01*
X146249Y157630D01*
X146611Y157400D01*
X147024Y157323D01*
X147437Y157400D01*
X147747Y157592D01*
X147902Y157937D01*
Y158857D01*
G01X148729Y156033D02*
X148987Y155803D01*
X149142Y155535D01*
X149194Y155190D01*
X149091Y154845D01*
X148884Y154577D01*
X148522Y154385D01*
X148109Y154347D01*
X147696Y154423D01*
X147437Y154615D01*
X147231Y154883D01*
X147179Y155152D01*
X147231Y155420D01*
X147437Y155765D01*
X146094Y155650D01*
Y154615D01*
G01X199510Y-202660D02*
Y-196360D01*
X198570Y-197620D01*
G01Y-202660D02*
X200450D01*
G01X205653D02*
X205810Y-201295D01*
X206045Y-200140D01*
X206358Y-199090D01*
X206750Y-197935D01*
X207377Y-196360D01*
X204243D01*
G01X212110D02*
X211483Y-196570D01*
X211013Y-197095D01*
X210700Y-197725D01*
X210465Y-198565D01*
X210387Y-199510D01*
X210465Y-200455D01*
X210700Y-201295D01*
X211013Y-201925D01*
X211483Y-202450D01*
X212110Y-202660D01*
X212737Y-202450D01*
X213207Y-201925D01*
X213520Y-201295D01*
X213755Y-200455D01*
X213833Y-199510D01*
X213755Y-198565D01*
X213520Y-197725D01*
X213207Y-197095D01*
X212737Y-196570D01*
X212110Y-196360D01*
G01X217392Y-200560D02*
X219428D01*
G01X223222Y-197410D02*
X223692Y-196780D01*
X224240Y-196465D01*
X224867Y-196360D01*
X225650Y-196570D01*
X226198Y-197095D01*
X226355Y-197725D01*
X226277Y-198355D01*
X225963Y-198880D01*
X224397Y-199930D01*
X223692Y-200665D01*
X223222Y-201715D01*
X223065Y-202660D01*
X226355D01*
G01X231010D02*
X231558Y-202555D01*
X232185Y-202240D01*
X232577Y-201715D01*
X232733Y-200980D01*
X232577Y-200245D01*
X232107Y-199615D01*
X231402Y-199300D01*
X230618D01*
X230148Y-199090D01*
X229757Y-198565D01*
X229600Y-197830D01*
X229835Y-197095D01*
X230383Y-196570D01*
X231010Y-196360D01*
X231637Y-196570D01*
X232185Y-197095D01*
X232420Y-197830D01*
X232263Y-198565D01*
X231872Y-199090D01*
X231402Y-199300D01*
X230618D01*
X229913Y-199615D01*
X229443Y-200245D01*
X229287Y-200980D01*
X229443Y-201715D01*
X229835Y-202240D01*
X230462Y-202555D01*
X231010Y-202660D01*
G01X237310D02*
X237858Y-202555D01*
X238485Y-202240D01*
X238877Y-201715D01*
X239033Y-200980D01*
X238877Y-200245D01*
X238407Y-199615D01*
X237702Y-199300D01*
X236918D01*
X236448Y-199090D01*
X236057Y-198565D01*
X235900Y-197830D01*
X236135Y-197095D01*
X236683Y-196570D01*
X237310Y-196360D01*
X237937Y-196570D01*
X238485Y-197095D01*
X238720Y-197830D01*
X238563Y-198565D01*
X238172Y-199090D01*
X237702Y-199300D01*
X236918D01*
X236213Y-199615D01*
X235743Y-200245D01*
X235587Y-200980D01*
X235743Y-201715D01*
X236135Y-202240D01*
X236762Y-202555D01*
X237310Y-202660D01*
G01X242278Y-201925D02*
X242827Y-202450D01*
X243453Y-202660D01*
X244080Y-202450D01*
X244628Y-201820D01*
X245020Y-200875D01*
X245177Y-199930D01*
Y-198775D01*
X245020Y-197830D01*
X244628Y-196990D01*
X244158Y-196570D01*
X243610Y-196360D01*
X242983Y-196570D01*
X242513Y-196990D01*
X242200Y-197620D01*
X242043Y-198460D01*
X242200Y-199195D01*
X242592Y-199930D01*
X243062Y-200350D01*
X243610Y-200455D01*
X244237Y-200245D01*
X244707Y-199720D01*
X245177Y-198775D01*
G01X249910Y-202660D02*
Y-196360D01*
X248970Y-197620D01*
G01Y-202660D02*
X250850D01*
G01X292443D02*
Y-196360D01*
X294402D01*
X295028Y-196675D01*
X295420Y-197095D01*
X295577Y-197935D01*
X295420Y-198775D01*
X294950Y-199300D01*
X294402Y-199615D01*
X292443D01*
G01X294402D02*
X295577Y-202660D01*
G01X301877D02*
X298743D01*
Y-196360D01*
X301877D01*
G01X300623Y-199405D02*
X298743D01*
G01X304652Y-196360D02*
X306610Y-202660D01*
X308568Y-196360D01*
G01X319837Y-199300D02*
X320150Y-198985D01*
X320385Y-198460D01*
X320542Y-197725D01*
X320385Y-197095D01*
X320072Y-196675D01*
X319523Y-196360D01*
X317408D01*
Y-202660D01*
X319993D01*
X320542Y-202240D01*
X320855Y-201610D01*
X321012Y-200875D01*
X320855Y-200140D01*
X320385Y-199510D01*
X319837Y-199300D01*
X317408D01*
G01X325510Y-202660D02*
Y-196360D01*
X324570Y-197620D01*
G01Y-202660D02*
X326450D01*
G01X199787Y-129660D02*
Y-123360D01*
X201353D01*
X201980Y-123675D01*
X202450Y-124095D01*
X202842Y-124725D01*
X203155Y-125460D01*
X203233Y-126510D01*
X203155Y-127560D01*
X202842Y-128295D01*
X202450Y-128925D01*
X201980Y-129345D01*
X201353Y-129660D01*
X199787D01*
G01X209377D02*
X206243D01*
Y-123360D01*
X209377D01*
G01X208123Y-126405D02*
X206243D01*
G01X212152Y-123360D02*
X214110Y-129660D01*
X216068Y-123360D01*
G01X218687Y-129660D02*
Y-123360D01*
G01X221663D02*
X218687Y-127245D01*
G01X222133Y-129660D02*
X220018Y-125460D01*
G01X225770Y-123360D02*
X227650D01*
G01X226710D02*
Y-129660D01*
G01X225770D02*
X227650D01*
G01X233010Y-123360D02*
Y-129660D01*
G01X231208Y-123360D02*
X234812D01*
G01X238292Y-127560D02*
X240328D01*
G01X243965Y-128820D02*
X244592Y-129345D01*
X245297Y-129660D01*
X245923D01*
X246550Y-129345D01*
X247020Y-128820D01*
X247255Y-128085D01*
X247098Y-127350D01*
X246707Y-126720D01*
X246002Y-126300D01*
X245062Y-126090D01*
X244513Y-125670D01*
X244278Y-124935D01*
X244435Y-124200D01*
X244827Y-123675D01*
X245375Y-123360D01*
X245923D01*
X246472Y-123570D01*
X246942Y-124095D01*
G01X251910Y-129660D02*
Y-123360D01*
X250970Y-124620D01*
G01Y-129660D02*
X252850D01*
G01X256722Y-124410D02*
X257192Y-123780D01*
X257740Y-123465D01*
X258367Y-123360D01*
X259150Y-123570D01*
X259698Y-124095D01*
X259855Y-124725D01*
X259777Y-125355D01*
X259463Y-125880D01*
X257897Y-126930D01*
X257192Y-127665D01*
X256722Y-128715D01*
X256565Y-129660D01*
X259855D01*
G01X263022Y-123360D02*
X265998D01*
X263022Y-129660D01*
X265998D01*
G01X268852Y-123360D02*
X270810Y-129660D01*
X272768Y-123360D01*
G01X275543D02*
Y-129660D01*
X278677D01*
G01X205057Y-27637D02*
X204865Y-27947D01*
X204635Y-28154D01*
X204367Y-28257D01*
X204060Y-28154D01*
X203830Y-27947D01*
X203600Y-27637D01*
X203523Y-27224D01*
Y-25157D01*
G01X200930Y-28257D02*
Y-25157D01*
X202348Y-27379D01*
X200432D01*
G01X189277Y4312D02*
X186177Y3354D01*
X189277Y2396D01*
G01X188192Y2741D02*
Y3967D01*
G01X189277Y1336D02*
X186177D01*
X189277Y-428D01*
X186177D01*
G01X188812Y-1603D02*
X189070Y-1833D01*
X189225Y-2101D01*
X189277Y-2446D01*
X189174Y-2791D01*
X188967Y-3059D01*
X188605Y-3251D01*
X188192Y-3289D01*
X187779Y-3213D01*
X187520Y-3021D01*
X187314Y-2753D01*
X187262Y-2484D01*
X187314Y-2216D01*
X187520Y-1871D01*
X186177Y-1986D01*
Y-3021D01*
G01X198797Y4241D02*
X195697Y3283D01*
X198797Y2325D01*
G01X197712Y2670D02*
Y3896D01*
G01X198797Y1265D02*
X195697D01*
X198797Y-499D01*
X195697D01*
G01X198797Y-2977D02*
X195697D01*
X197919Y-1559D01*
Y-3475D01*
G01X208631Y13095D02*
X205531Y12137D01*
X208631Y11179D01*
G01X207546Y11524D02*
Y12750D01*
G01X208631Y10119D02*
X205531D01*
X208631Y8355D01*
X205531D01*
G01X208011Y7180D02*
X208373Y6950D01*
X208579Y6644D01*
X208631Y6299D01*
X208579Y5992D01*
X208321Y5685D01*
X208011Y5494D01*
X207701Y5455D01*
X207339Y5532D01*
X207081Y5800D01*
X206978Y6069D01*
Y6414D01*
G01Y6069D02*
X206823Y5839D01*
X206564Y5647D01*
X206254Y5570D01*
X205944Y5647D01*
X205686Y5839D01*
X205531Y6184D01*
X205583Y6529D01*
X205789Y6874D01*
G01X208734Y4127D02*
X205531Y2747D01*
G01X208631Y1304D02*
X205531D01*
Y384D01*
X205686Y77D01*
X206048Y-153D01*
X206461Y-230D01*
X206874Y-153D01*
X207184Y39D01*
X207339Y384D01*
Y1304D01*
G01X205531Y-2363D02*
X208631D01*
G01X205531Y-1481D02*
Y-3245D01*
G01X208631Y-5263D02*
X205531D01*
X206151Y-4803D01*
G01X208631D02*
Y-5723D01*
G01X200784Y109767D02*
X200554Y109509D01*
X200286Y109354D01*
X199941Y109302D01*
X199596Y109405D01*
X199328Y109612D01*
X199136Y109974D01*
X199098Y110387D01*
X199174Y110800D01*
X199366Y111059D01*
X199634Y111265D01*
X199903Y111317D01*
X200171Y111265D01*
X200516Y111059D01*
X200401Y112402D01*
X199366D01*
G01X199752Y113397D02*
Y116497D01*
X197988Y113397D01*
Y116497D01*
G01X195127Y116239D02*
X195357Y116394D01*
X195625Y116497D01*
X195932D01*
X196277Y116342D01*
X196545Y116084D01*
X196737Y115774D01*
X196890Y115257D01*
X196928Y114792D01*
X196852Y114327D01*
X196737Y114017D01*
X196507Y113707D01*
X196238Y113500D01*
X195970Y113397D01*
X195702D01*
X195433Y113500D01*
X195203Y113655D01*
X195012Y113862D01*
G01X198103Y134100D02*
X197950Y134255D01*
X197835Y134514D01*
X197758Y134875D01*
X197835Y135185D01*
X197988Y135392D01*
X198257Y135547D01*
X199292D01*
Y132447D01*
X198027D01*
X197758Y132654D01*
X197605Y132964D01*
X197528Y133325D01*
X197605Y133687D01*
X197835Y133997D01*
X198103Y134100D01*
X199292D01*
G01X196353Y132447D02*
Y135547D01*
G01X194897D02*
X196353Y133635D01*
G01X194667Y132447D02*
X195702Y134514D01*
G01X192380Y133997D02*
X191613D01*
Y133067D01*
X191843Y132757D01*
X192112Y132550D01*
X192495Y132447D01*
X192878Y132550D01*
X193147Y132757D01*
X193377Y133067D01*
X193530Y133429D01*
X193607Y133842D01*
Y134204D01*
X193530Y134514D01*
X193377Y134875D01*
X193147Y135185D01*
X192917Y135392D01*
X192610Y135547D01*
X192342D01*
X192035Y135444D01*
X191805Y135237D01*
G01X190553Y132447D02*
Y135547D01*
X189787D01*
X189480Y135392D01*
X189250Y135185D01*
X189058Y134875D01*
X188905Y134514D01*
X188867Y133997D01*
X188905Y133480D01*
X189058Y133119D01*
X189250Y132809D01*
X189480Y132602D01*
X189787Y132447D01*
X190553D01*
G01X199772Y122557D02*
Y125657D01*
X198008Y122557D01*
Y125657D01*
G01X195147Y125399D02*
X195377Y125554D01*
X195645Y125657D01*
X195952D01*
X196297Y125502D01*
X196565Y125244D01*
X196757Y124934D01*
X196910Y124417D01*
X196948Y123952D01*
X196872Y123487D01*
X196757Y123177D01*
X196527Y122867D01*
X196258Y122660D01*
X195990Y122557D01*
X195722D01*
X195453Y122660D01*
X195223Y122815D01*
X195032Y123022D01*
G01X212467Y140837D02*
X212275Y140527D01*
X212045Y140320D01*
X211777Y140217D01*
X211470Y140320D01*
X211240Y140527D01*
X211010Y140837D01*
X210933Y141250D01*
Y143317D01*
G01X208800Y140217D02*
X208532Y140269D01*
X208225Y140424D01*
X208033Y140682D01*
X207957Y141044D01*
X208033Y141405D01*
X208263Y141715D01*
X208608Y141870D01*
X208992D01*
X209222Y141974D01*
X209413Y142232D01*
X209490Y142594D01*
X209375Y142955D01*
X209107Y143214D01*
X208800Y143317D01*
X208493Y143214D01*
X208225Y142955D01*
X208110Y142594D01*
X208187Y142232D01*
X208378Y141974D01*
X208608Y141870D01*
X208992D01*
X209337Y141715D01*
X209567Y141405D01*
X209643Y141044D01*
X209567Y140682D01*
X209375Y140424D01*
X209068Y140269D01*
X208800Y140217D01*
G01X200050Y137847D02*
Y140947D01*
X200510Y140327D01*
G01Y137847D02*
X199590D01*
G01X185261Y166871D02*
X185069Y166561D01*
X184839Y166354D01*
X184571Y166251D01*
X184264Y166354D01*
X184034Y166561D01*
X183804Y166871D01*
X183727Y167284D01*
Y169351D01*
G01X181594Y166251D02*
Y169351D01*
X182054Y168731D01*
G01Y166251D02*
X181134D01*
G01X202540Y156930D02*
Y174460D01*
X202504Y184431D01*
Y185290D01*
X203393Y186179D01*
G01X192320Y156960D02*
Y175420D01*
X192331Y185146D01*
Y185233D01*
X193363Y186265D01*
G01X194224Y155927D02*
X191124D01*
Y155007D01*
X191279Y154700D01*
X191641Y154470D01*
X192054Y154393D01*
X192467Y154470D01*
X192777Y154662D01*
X192932Y155007D01*
Y155927D01*
G01X191124Y152260D02*
X194224D01*
G01X191124Y153142D02*
Y151378D01*
G01X192932Y150088D02*
X192571Y149820D01*
X192364Y149590D01*
X192261Y149283D01*
X192364Y149015D01*
X192571Y148823D01*
X192881Y148670D01*
X193242Y148632D01*
X193552Y148670D01*
X193862Y148823D01*
X194121Y149053D01*
X194224Y149322D01*
X194121Y149628D01*
X193811Y149897D01*
X193346Y150050D01*
X192829Y150088D01*
X192157Y150012D01*
X191796Y149897D01*
X191434Y149705D01*
X191176Y149437D01*
X191124Y149168D01*
X191227Y148900D01*
X191486Y148708D01*
G01X204284Y155927D02*
X201184D01*
Y155007D01*
X201339Y154700D01*
X201701Y154470D01*
X202114Y154393D01*
X202527Y154470D01*
X202837Y154662D01*
X202992Y155007D01*
Y155927D01*
G01X201184Y152260D02*
X204284D01*
G01X201184Y153142D02*
Y151378D01*
G01X203664Y150203D02*
X204026Y149973D01*
X204232Y149667D01*
X204284Y149322D01*
X204232Y149015D01*
X203974Y148708D01*
X203664Y148517D01*
X203354Y148478D01*
X202992Y148555D01*
X202734Y148823D01*
X202631Y149092D01*
Y149437D01*
G01Y149092D02*
X202476Y148862D01*
X202217Y148670D01*
X201907Y148593D01*
X201597Y148670D01*
X201339Y148862D01*
X201184Y149207D01*
X201236Y149552D01*
X201442Y149897D01*
G01X209354Y162167D02*
X206254D01*
Y161247D01*
X206409Y160940D01*
X206771Y160710D01*
X207184Y160633D01*
X207597Y160710D01*
X207907Y160902D01*
X208062Y161247D01*
Y162167D01*
G01X206254Y158500D02*
X209354D01*
G01X206254Y159382D02*
Y157618D01*
G01X208889Y156443D02*
X209147Y156213D01*
X209302Y155945D01*
X209354Y155600D01*
X209251Y155255D01*
X209044Y154987D01*
X208682Y154795D01*
X208269Y154757D01*
X207856Y154833D01*
X207597Y155025D01*
X207391Y155293D01*
X207339Y155562D01*
X207391Y155830D01*
X207597Y156175D01*
X206254Y156060D01*
Y155025D01*
G01X198974Y162417D02*
X195874D01*
Y161497D01*
X196029Y161190D01*
X196391Y160960D01*
X196804Y160883D01*
X197217Y160960D01*
X197527Y161152D01*
X197682Y161497D01*
Y162417D01*
G01X198974Y159517D02*
X195874D01*
Y158597D01*
X196029Y158290D01*
X196391Y158060D01*
X196804Y157983D01*
X197217Y158060D01*
X197527Y158252D01*
X197682Y158597D01*
Y159517D01*
G01X195874Y155850D02*
X195977Y156157D01*
X196236Y156387D01*
X196546Y156540D01*
X196959Y156655D01*
X197424Y156693D01*
X197889Y156655D01*
X198302Y156540D01*
X198612Y156387D01*
X198871Y156157D01*
X198974Y155850D01*
X198871Y155543D01*
X198612Y155313D01*
X198302Y155160D01*
X197889Y155045D01*
X197424Y155007D01*
X196959Y155045D01*
X196546Y155160D01*
X196236Y155313D01*
X195977Y155543D01*
X195874Y155850D01*
G01X189094Y162417D02*
X185994D01*
Y161497D01*
X186149Y161190D01*
X186511Y160960D01*
X186924Y160883D01*
X187337Y160960D01*
X187647Y161152D01*
X187802Y161497D01*
Y162417D01*
G01X189094Y159517D02*
X185994D01*
Y158597D01*
X186149Y158290D01*
X186511Y158060D01*
X186924Y157983D01*
X187337Y158060D01*
X187647Y158252D01*
X187802Y158597D01*
Y159517D01*
G01X189094Y155850D02*
X185994D01*
X186614Y156310D01*
G01X189094D02*
Y155390D01*
G01X220224Y-28677D02*
Y-25577D01*
X219304D01*
X218997Y-25732D01*
X218767Y-26094D01*
X218690Y-26507D01*
X218767Y-26920D01*
X218959Y-27230D01*
X219304Y-27385D01*
X220224D01*
G01X217324Y-25577D02*
Y-28677D01*
X215790D01*
G01X213657Y-25577D02*
X213964Y-25680D01*
X214194Y-25939D01*
X214347Y-26249D01*
X214462Y-26662D01*
X214500Y-27127D01*
X214462Y-27592D01*
X214347Y-28005D01*
X214194Y-28315D01*
X213964Y-28574D01*
X213657Y-28677D01*
X213350Y-28574D01*
X213120Y-28315D01*
X212967Y-28005D01*
X212852Y-27592D01*
X212814Y-27127D01*
X212852Y-26662D01*
X212967Y-26249D01*
X213120Y-25939D01*
X213350Y-25680D01*
X213657Y-25577D01*
G01X241749Y-28634D02*
X240791Y-25534D01*
X239833Y-28634D01*
G01X240178Y-27549D02*
X241404D01*
G01X238773Y-28634D02*
Y-25534D01*
X237009Y-28634D01*
Y-25534D01*
G01X235643Y-28272D02*
X235374Y-28531D01*
X235068Y-28634D01*
X234761Y-28531D01*
X234493Y-28221D01*
X234301Y-27756D01*
X234224Y-27291D01*
Y-26722D01*
X234301Y-26257D01*
X234493Y-25844D01*
X234723Y-25637D01*
X234991Y-25534D01*
X235298Y-25637D01*
X235528Y-25844D01*
X235681Y-26154D01*
X235758Y-26567D01*
X235681Y-26929D01*
X235489Y-27291D01*
X235259Y-27497D01*
X234991Y-27549D01*
X234684Y-27446D01*
X234454Y-27187D01*
X234224Y-26722D01*
G01X230128Y-28767D02*
X229170Y-25667D01*
X228212Y-28767D01*
G01X228557Y-27682D02*
X229783D01*
G01X227152Y-28767D02*
Y-25667D01*
X225388Y-28767D01*
Y-25667D01*
G01X223370Y-28767D02*
X223102Y-28715D01*
X222795Y-28560D01*
X222603Y-28302D01*
X222527Y-27940D01*
X222603Y-27579D01*
X222833Y-27269D01*
X223178Y-27114D01*
X223562D01*
X223792Y-27010D01*
X223983Y-26752D01*
X224060Y-26390D01*
X223945Y-26029D01*
X223677Y-25770D01*
X223370Y-25667D01*
X223063Y-25770D01*
X222795Y-26029D01*
X222680Y-26390D01*
X222757Y-26752D01*
X222948Y-27010D01*
X223178Y-27114D01*
X223562D01*
X223907Y-27269D01*
X224137Y-27579D01*
X224213Y-27940D01*
X224137Y-28302D01*
X223945Y-28560D01*
X223638Y-28715D01*
X223370Y-28767D01*
G01X228700Y4027D02*
X225600Y3069D01*
X228700Y2111D01*
G01X227615Y2456D02*
Y3682D01*
G01X228700Y1051D02*
X225600D01*
X228700Y-713D01*
X225600D01*
G01X228700Y-2731D02*
X225600D01*
X226220Y-2271D01*
G01X228700D02*
Y-3191D01*
G01X239074Y3956D02*
X235974Y2998D01*
X239074Y2040D01*
G01X237989Y2385D02*
Y3611D01*
G01X239074Y980D02*
X235974D01*
X239074Y-784D01*
X235974D01*
G01Y-2802D02*
X236077Y-2495D01*
X236336Y-2265D01*
X236646Y-2112D01*
X237059Y-1997D01*
X237524Y-1959D01*
X237989Y-1997D01*
X238402Y-2112D01*
X238712Y-2265D01*
X238971Y-2495D01*
X239074Y-2802D01*
X238971Y-3109D01*
X238712Y-3339D01*
X238402Y-3492D01*
X237989Y-3607D01*
X237524Y-3645D01*
X237059Y-3607D01*
X236646Y-3492D01*
X236336Y-3339D01*
X236077Y-3109D01*
X235974Y-2802D01*
G01X218541Y12846D02*
X215441Y11888D01*
X218541Y10930D01*
G01X217456Y11275D02*
Y12501D01*
G01X218541Y9870D02*
X215441D01*
X218541Y8106D01*
X215441D01*
G01X215958Y6816D02*
X215648Y6586D01*
X215493Y6318D01*
X215441Y6011D01*
X215544Y5628D01*
X215803Y5360D01*
X216113Y5283D01*
X216423Y5321D01*
X216681Y5475D01*
X217198Y6241D01*
X217559Y6586D01*
X218076Y6816D01*
X218541Y6893D01*
Y5283D01*
G01X218644Y3878D02*
X215441Y2498D01*
G01X218541Y1055D02*
X215441D01*
Y135D01*
X215596Y-172D01*
X215958Y-402D01*
X216371Y-479D01*
X216784Y-402D01*
X217094Y-210D01*
X217249Y135D01*
Y1055D01*
G01X215441Y-2612D02*
X218541D01*
G01X215441Y-1730D02*
Y-3494D01*
G01Y-5512D02*
X215544Y-5205D01*
X215803Y-4975D01*
X216113Y-4822D01*
X216526Y-4707D01*
X216991Y-4669D01*
X217456Y-4707D01*
X217869Y-4822D01*
X218179Y-4975D01*
X218438Y-5205D01*
X218541Y-5512D01*
X218438Y-5819D01*
X218179Y-6049D01*
X217869Y-6202D01*
X217456Y-6317D01*
X216991Y-6355D01*
X216526Y-6317D01*
X216113Y-6202D01*
X215803Y-6049D01*
X215544Y-5819D01*
X215441Y-5512D01*
G01X233045Y115985D02*
X232087Y112885D01*
X231129Y115985D01*
G01X230030Y112885D02*
Y115985D01*
X229264D01*
X228957Y115830D01*
X228727Y115623D01*
X228535Y115313D01*
X228382Y114952D01*
X228344Y114435D01*
X228382Y113918D01*
X228535Y113557D01*
X228727Y113247D01*
X228957Y113040D01*
X229264Y112885D01*
X230030D01*
G01X227130D02*
Y115985D01*
X226364D01*
X226057Y115830D01*
X225827Y115623D01*
X225635Y115313D01*
X225482Y114952D01*
X225444Y114435D01*
X225482Y113918D01*
X225635Y113557D01*
X225827Y113247D01*
X226057Y113040D01*
X226364Y112885D01*
X227130D01*
G01X224192D02*
X222582Y115985D01*
G01X224192D02*
X222582Y112885D01*
G01X221668Y111049D02*
X221400Y111410D01*
X221170Y111617D01*
X220863Y111720D01*
X220595Y111617D01*
X220403Y111410D01*
X220250Y111100D01*
X220212Y110739D01*
X220250Y110429D01*
X220403Y110119D01*
X220633Y109860D01*
X220902Y109757D01*
X221208Y109860D01*
X221477Y110170D01*
X221630Y110635D01*
X221668Y111152D01*
X221592Y111824D01*
X221477Y112185D01*
X221285Y112547D01*
X221017Y112805D01*
X220748Y112857D01*
X220480Y112754D01*
X220288Y112495D01*
G01X220088Y140980D02*
X219858Y141290D01*
X219590Y141445D01*
X219283Y141497D01*
X218900Y141394D01*
X218632Y141135D01*
X218555Y140825D01*
X218593Y140515D01*
X218747Y140257D01*
X219513Y139740D01*
X219858Y139379D01*
X220088Y138862D01*
X220165Y138397D01*
X218555D01*
G01X238902Y135351D02*
Y138451D01*
X239362Y137831D01*
G01Y135351D02*
X238442D01*
G01X226760Y134330D02*
X225993D01*
Y133400D01*
X226223Y133090D01*
X226492Y132883D01*
X226875Y132780D01*
X227258Y132883D01*
X227527Y133090D01*
X227757Y133400D01*
X227910Y133762D01*
X227987Y134175D01*
Y134537D01*
X227910Y134847D01*
X227757Y135208D01*
X227527Y135518D01*
X227297Y135725D01*
X226990Y135880D01*
X226722D01*
X226415Y135777D01*
X226185Y135570D01*
G01X224972Y132780D02*
Y135880D01*
X223208Y132780D01*
Y135880D01*
G01X222033Y132780D02*
Y135880D01*
X221267D01*
X220960Y135725D01*
X220730Y135518D01*
X220538Y135208D01*
X220385Y134847D01*
X220347Y134330D01*
X220385Y133813D01*
X220538Y133452D01*
X220730Y133142D01*
X220960Y132935D01*
X221267Y132780D01*
X222033D01*
G01X240217Y123167D02*
Y126267D01*
X239258D01*
X238952Y126112D01*
X238760Y125905D01*
X238683Y125492D01*
X238760Y125079D01*
X238990Y124820D01*
X239258Y124665D01*
X240217D01*
G01X239258D02*
X238683Y123167D01*
G01X235783D02*
X237317D01*
Y126267D01*
X235783D01*
G01X236397Y124769D02*
X237317D01*
G01X234455Y123580D02*
X234148Y123322D01*
X233803Y123167D01*
X233497D01*
X233190Y123322D01*
X232960Y123580D01*
X232845Y123942D01*
X232922Y124304D01*
X233113Y124614D01*
X233458Y124820D01*
X233918Y124924D01*
X234187Y125130D01*
X234302Y125492D01*
X234225Y125854D01*
X234033Y126112D01*
X233765Y126267D01*
X233497D01*
X233228Y126164D01*
X232998Y125905D01*
G01X229983Y123167D02*
X231517D01*
Y126267D01*
X229983D01*
G01X230597Y124769D02*
X231517D01*
G01X227850Y126267D02*
Y123167D01*
G01X228732Y126267D02*
X226968D01*
G01X226100Y122134D02*
X223800D01*
G01X221743Y124820D02*
X221590Y124975D01*
X221475Y125234D01*
X221398Y125595D01*
X221475Y125905D01*
X221628Y126112D01*
X221897Y126267D01*
X222932D01*
Y123167D01*
X221667D01*
X221398Y123374D01*
X221245Y123684D01*
X221168Y124045D01*
X221245Y124407D01*
X221475Y124717D01*
X221743Y124820D01*
X222932D01*
G01X212180Y157300D02*
Y173920D01*
X212162Y184460D01*
Y185006D01*
X213450Y186294D01*
G01X226278Y170485D02*
Y173585D01*
X226738Y172965D01*
G01Y170485D02*
X225818D01*
G01X238875Y156005D02*
X238683Y155695D01*
X238453Y155488D01*
X238185Y155385D01*
X237878Y155488D01*
X237648Y155695D01*
X237418Y156005D01*
X237341Y156418D01*
Y158485D01*
G01X235208Y155385D02*
Y158485D01*
X235668Y157865D01*
G01Y155385D02*
X234748D01*
G01X233036Y156677D02*
X232768Y157038D01*
X232538Y157245D01*
X232231Y157348D01*
X231963Y157245D01*
X231771Y157038D01*
X231618Y156728D01*
X231580Y156367D01*
X231618Y156057D01*
X231771Y155747D01*
X232001Y155488D01*
X232270Y155385D01*
X232576Y155488D01*
X232845Y155798D01*
X232998Y156263D01*
X233036Y156780D01*
X232960Y157452D01*
X232845Y157813D01*
X232653Y158175D01*
X232385Y158433D01*
X232116Y158485D01*
X231848Y158382D01*
X231656Y158123D01*
G01X214234Y155867D02*
X211134D01*
Y154947D01*
X211289Y154640D01*
X211651Y154410D01*
X212064Y154333D01*
X212477Y154410D01*
X212787Y154602D01*
X212942Y154947D01*
Y155867D01*
G01X211134Y152200D02*
X214234D01*
G01X211134Y153082D02*
Y151318D01*
G01X211651Y150028D02*
X211341Y149798D01*
X211186Y149530D01*
X211134Y149223D01*
X211237Y148840D01*
X211496Y148572D01*
X211806Y148495D01*
X212116Y148533D01*
X212374Y148687D01*
X212891Y149453D01*
X213252Y149798D01*
X213769Y150028D01*
X214234Y150105D01*
Y148495D01*
G01X219364Y161917D02*
X216264D01*
Y160997D01*
X216419Y160690D01*
X216781Y160460D01*
X217194Y160383D01*
X217607Y160460D01*
X217917Y160652D01*
X218072Y160997D01*
Y161917D01*
G01X216264Y158250D02*
X219364D01*
G01X216264Y159132D02*
Y157368D01*
G01X219364Y154890D02*
X216264D01*
X218486Y156308D01*
Y154392D01*
G01X225998Y197876D02*
X225768Y198186D01*
X225500Y198341D01*
X225193Y198393D01*
X224810Y198290D01*
X224542Y198031D01*
X224465Y197721D01*
X224503Y197411D01*
X224657Y197153D01*
X225423Y196636D01*
X225768Y196275D01*
X225998Y195758D01*
X226075Y195293D01*
X224465D01*
G01X246911Y-25277D02*
Y-22177D01*
X247371Y-22797D01*
G01Y-25277D02*
X246451D01*
G01X244739Y-23985D02*
X244471Y-23624D01*
X244241Y-23417D01*
X243934Y-23314D01*
X243666Y-23417D01*
X243474Y-23624D01*
X243321Y-23934D01*
X243283Y-24295D01*
X243321Y-24605D01*
X243474Y-24915D01*
X243704Y-25174D01*
X243973Y-25277D01*
X244279Y-25174D01*
X244548Y-24864D01*
X244701Y-24399D01*
X244739Y-23882D01*
X244663Y-23210D01*
X244548Y-22849D01*
X244356Y-22487D01*
X244088Y-22229D01*
X243819Y-22177D01*
X243551Y-22280D01*
X243359Y-22539D01*
G01X245561Y-4816D02*
Y-1716D01*
X246021Y-2336D01*
G01Y-4816D02*
X245101D01*
G01X243504Y-4351D02*
X243274Y-4609D01*
X243006Y-4764D01*
X242661Y-4816D01*
X242316Y-4713D01*
X242048Y-4506D01*
X241856Y-4144D01*
X241818Y-3731D01*
X241894Y-3318D01*
X242086Y-3059D01*
X242354Y-2853D01*
X242623Y-2801D01*
X242891Y-2853D01*
X243236Y-3059D01*
X243121Y-1716D01*
X242086D01*
G01X267717Y146033D02*
X270817D01*
Y146992D01*
X270662Y147298D01*
X270455Y147490D01*
X270042Y147567D01*
X269629Y147490D01*
X269370Y147260D01*
X269215Y146992D01*
Y146033D01*
G01Y146992D02*
X267717Y147567D01*
G01Y149700D02*
X267769Y149968D01*
X267924Y150275D01*
X268182Y150467D01*
X268544Y150543D01*
X268905Y150467D01*
X269215Y150237D01*
X269370Y149892D01*
Y149508D01*
X269474Y149278D01*
X269732Y149087D01*
X270094Y149010D01*
X270455Y149125D01*
X270714Y149393D01*
X270817Y149700D01*
X270714Y150007D01*
X270455Y150275D01*
X270094Y150390D01*
X269732Y150313D01*
X269474Y150122D01*
X269370Y149892D01*
Y149508D01*
X269215Y149163D01*
X268905Y148933D01*
X268544Y148857D01*
X268182Y148933D01*
X267924Y149125D01*
X267769Y149432D01*
X267717Y149700D01*
G01X261608Y166458D02*
X264708D01*
X264088Y165998D01*
G01X261608D02*
Y166918D01*
G01X280782Y113158D02*
X277682D01*
X278302Y113618D01*
G01X280782D02*
Y112698D01*
G54D14*
G01X43731Y67985D02*
X22081Y90275D01*
G01X45951Y66435D02*
X20951D01*
G01X45951Y91435D02*
Y66435D01*
G01X44231Y90625D02*
X23401Y68155D01*
G01X38151Y87135D02*
X36881Y72185D01*
G01D02*
Y70945D01*
G01D02*
X31561D01*
G01X29081Y73425D02*
X27911Y86615D01*
G01X31411Y71325D02*
G03I-1760J0D01*
G01X30041D02*
G03I-390J0D01*
G01X20951Y66435D02*
Y91435D01*
G01X35451Y70435D02*
Y69935D01*
G01X40161Y86405D02*
X26581D01*
G01X20951Y91435D02*
X45951D01*
G01X34461Y88435D02*
G02X38151Y87245I-178J-6869D01*
G01X34461Y88435D01*
G01X27911Y86615D02*
Y86565D01*
G01X34061Y82485D02*
X30601D01*
G01D02*
Y81555D01*
G01D02*
X34061D01*
G01D02*
Y82485D01*
G01X27951Y87435D02*
G03I-750J0D01*
G01X26581Y86405D02*
X27911Y86435D01*
G01X28081Y84965D02*
X26451D01*
G01D02*
Y83065D01*
G01D02*
X28201D01*
G01D02*
X28081Y84965D01*
G01X34371Y89055D02*
X30911D01*
G01D02*
Y88095D01*
G01D02*
X34371D01*
G01D02*
Y89055D01*
G01X28131Y87465D02*
G02X30851Y88385I2490J-2881D01*
G01X28131Y87465D01*
G01X35951Y88435D02*
Y86935D01*
M02*
